<?xml version="1.0" encoding="UTF-8"?>
<svg id="Layer_1" xmlns="http://www.w3.org/2000/svg" version="1.1" viewBox="0 0 540 48">
  <!-- Generator: Adobe Illustrator 29.1.0, SVG Export Plug-In . SVG Version: 2.1.0 Build 142)  -->
  <defs>
    <style>
      .st0 {
        fill: #79ffff;
      }
    </style>
  </defs>
  <path class="st0" d="M51.1,41.8h-24.2c-12.4,0-21.8-7.8-21.8-18.2S14,6.1,26.8,6.1h24.2v7h-24.2c-7.6,0-13.2,4.5-13.2,10.8s5.5,10.9,13.2,10.9h24.2v7ZM26.8,7c-12.3,0-20.9,6.8-20.9,16.6s9,17.3,20.9,17.3h23.3v-5.2h-23.3c-8.2,0-14.1-5-14.1-11.8s5.9-11.7,14.1-11.7h23.3v-5.2h-23.3Z"/>
  <path class="st0" d="M87.5,41.8h-10.7c-12.4,0-21.8-7.8-21.8-18.2s8.9-17.5,21.8-17.5h10.7c12.9,0,21.9,7.2,21.9,17.5s-9.2,18.2-21.9,18.2ZM76.9,7c-12.3,0-20.9,6.8-20.9,16.6s9,17.3,20.9,17.3h10.7c12.2,0,21-7.3,21-17.3s-8.7-16.6-21-16.6h-10.7ZM87.5,35.7h-10.7c-8.2,0-14.1-5-14.1-11.8s5.9-11.7,14.1-11.7h10.7c8.3,0,14.3,4.9,14.3,11.7s-6,11.8-14.3,11.8ZM76.9,13.1c-7.6,0-13.2,4.5-13.2,10.8s5.5,10.9,13.2,10.9h10.7c7.7,0,13.4-4.6,13.4-10.9s-5.5-10.8-13.4-10.8h-10.7Z"/>
  <path class="st0" d="M142.7,42.3c-1.9,0-3.4-.9-4.3-2.5l-11.9-21.7-8.2,23.8h-8.5l11.5-33.3c.6-1.9,2-2.8,4.2-2.8s3.5.9,4.3,2.3l13.1,23.9,13.1-23.9c.8-1.5,2.2-2.3,4.1-2.3s3.4.9,4.1,2.8l11.4,33.3h-8.6l-8.2-23.8-11.9,21.8c-1,1.7-2.4,2.5-4.3,2.5ZM126.3,15.8l12.9,23.5c.7,1.4,1.9,2.1,3.5,2.1s2.7-.6,3.5-2.1l12.9-23.5,8.6,25.1h6.7l-11-32.2c-.5-1.5-1.6-2.2-3.3-2.2s-2.7.6-3.3,1.8l-13.9,25.3-13.9-25.3c-.6-1.1-1.9-1.8-3.5-1.8s-2.9.7-3.4,2.2l-11.1,32.2h6.6l8.6-25.1Z"/>
  <path class="st0" d="M188.7,41.8h-8.6V6.1h8.6v35.7ZM181,40.9h6.8V7h-6.8v33.9Z"/>
  <path class="st0" d="M237.7,42.3c-1.4,0-2.6-.5-3.8-1.4l-30.1-24v25h-8.2V9.8c0-2.5,1.7-4.1,4.4-4.1s2.4.4,3.5,1.3l30.2,23.8V5.8h8.2v32.3c0,2.5-1.7,4.1-4.3,4.1ZM202.9,15l31.6,25.2c1,.8,2.1,1.2,3.2,1.2,2.1,0,3.4-1.2,3.4-3.2V6.7h-6.4v25.9l-31.7-24.9c-1-.8-1.9-1.1-3-1.1-2.2,0-3.5,1.2-3.5,3.2v31.1h6.4V15Z"/>
  <path class="st0" d="M295.9,41.8h-26.9c-12.4,0-21.8-7.8-21.8-18.2s8.9-17.5,21.8-17.5h24.2v7h-24.2c-7.6,0-13.2,4.5-13.2,10.8s5.5,10.9,13.2,10.9h18.3v-8.2h-19.8v-6h28.4v21.1ZM269,7c-12.3,0-20.9,6.8-20.9,16.6s9,17.3,20.9,17.3h26v-19.4h-26.6v4.2h19.8v9.9h-19.2c-8.2,0-14.1-5-14.1-11.8s5.9-11.7,14.1-11.7h23.3v-5.2h-23.3Z"/>
  <path class="st0" d="M353.2,41.8h-33.3v-7h33.3c3.7,0,5.9-1.5,5.9-4.1s-3.2-4.1-5.9-4.1h-20.2c-8.3,0-13.8-4.2-13.8-10.4s5.5-10.2,14-10.2h32v7h-32c-3.2,0-5.1,1.4-5.1,3.8s1.9,3.8,5,3.8h20.1c6.4,0,14.1,1.8,14.1,10.5s-5.3,10.6-14.1,10.6ZM320.7,40.9h32.4c8.3,0,13.2-3.6,13.2-9.7s-4.4-9.6-13.2-9.6h-20.1c-3.7,0-5.9-1.8-5.9-4.7s2.3-4.7,6-4.7h31.1v-5.2h-31.1c-8.1,0-13.1,3.6-13.1,9.3s5.2,9.5,13,9.5h20.2c4.4,0,6.8,1.8,6.8,4.9s-2.6,5-6.8,5h-32.4v5.2Z"/>
  <path class="st0" d="M404.1,41.8h-10.7c-12.4,0-21.8-7.8-21.8-18.2s8.9-17.5,21.8-17.5h10.7c12.9,0,21.9,7.2,21.9,17.5s-9.2,18.2-21.9,18.2ZM393.4,7c-12.3,0-20.9,6.8-20.9,16.6s9,17.3,20.9,17.3h10.7c12.2,0,21-7.3,21-17.3s-8.7-16.6-21-16.6h-10.7ZM404.1,35.7h-10.7c-8.2,0-14.1-5-14.1-11.8s5.9-11.7,14.1-11.7h10.7c8.3,0,14.3,4.9,14.3,11.7s-6,11.8-14.3,11.8ZM393.4,13.1c-7.6,0-13.2,4.5-13.2,10.8s5.5,10.9,13.2,10.9h10.7c7.7,0,13.4-4.6,13.4-10.9s-5.5-10.8-13.4-10.8h-10.7Z"/>
  <path class="st0" d="M462.5,41.8h-10.7c-12.4,0-21.8-7.8-21.8-18.2s8.9-17.5,21.8-17.5h10.7c12.9,0,21.9,7.2,21.9,17.5s-9.2,18.2-21.9,18.2ZM451.8,7c-12.3,0-20.9,6.8-20.9,16.6s9,17.3,20.9,17.3h10.7c12.2,0,21-7.3,21-17.3s-8.7-16.6-21-16.6h-10.7ZM462.5,35.7h-10.7c-8.2,0-14.1-5-14.1-11.8s5.9-11.7,14.1-11.7h10.7c8.3,0,14.3,4.9,14.3,11.7s-6,11.8-14.3,11.8ZM451.8,13.1c-7.6,0-13.2,4.5-13.2,10.8s5.5,10.9,13.2,10.9h10.7c7.7,0,13.4-4.6,13.4-10.9s-5.5-10.8-13.4-10.8h-10.7Z"/>
  <path class="st0" d="M531.7,42.3c-1.4,0-2.6-.5-3.8-1.4l-30.1-24v25h-8.2V9.8c0-2.5,1.7-4.1,4.4-4.1s2.4.4,3.5,1.3l30.2,23.8V5.8h8.2v32.3c0,2.5-1.7,4.1-4.2,4.1ZM496.9,15l31.6,25.2c1,.8,2.1,1.2,3.2,1.2,2.1,0,3.4-1.2,3.4-3.2V6.7h-6.4v25.9l-31.7-24.9c-1-.8-1.9-1.1-3-1.1-2.2,0-3.5,1.2-3.5,3.2v31.1h6.4V15Z"/>
</svg>