<?xml version="1.0" encoding="UTF-8"?>
<svg id="Layer_1" xmlns="http://www.w3.org/2000/svg" version="1.1" viewBox="0 0 579.1 150">
  <!-- Generator: Adobe Illustrator 29.1.0, SVG Export Plug-In . SVG Version: 2.1.0 Build 142)  -->
  <defs>
    <style>
      .st0 {
        fill: #79ffff;
      }
    </style>
  </defs>
  <path class="st0" d="M305.4,139.4h-27.8l9.3-59.8h27.8c3,0,5.7.9,7.9,2.6h0c2.2,1.7,3.8,3.9,4.7,6.6.9,2.7,1.1,5.5.6,8.4l-3.9,24.8c-.5,3.1-1.6,6-3.4,8.6-1.8,2.7-4.1,4.8-6.8,6.4-2.7,1.6-5.5,2.4-8.4,2.4ZM278.3,138.9h27.2c2.8,0,5.5-.8,8.1-2.3,2.6-1.5,4.8-3.6,6.6-6.2,1.8-2.6,2.9-5.4,3.3-8.4l3.9-24.8c.5-2.7.3-5.5-.6-8.1-.9-2.6-2.4-4.7-4.5-6.3-2.1-1.6-4.7-2.4-7.6-2.4h-27.2l-9.1,58.6ZM307.4,126.6h-15.6l5.3-34h15.5c1,0,1.8.5,2.4,1.4.6.9.8,2,.5,3.3l-3.9,24.8c-.2,1.3-.8,2.3-1.6,3.2-.8.9-1.7,1.3-2.7,1.3ZM292.6,126h14.9c.8,0,1.5-.4,2.2-1.2.7-.8,1.2-1.8,1.4-2.9l3.9-24.8c.2-1.1,0-2.1-.4-2.8-.5-.7-1.1-1.1-1.9-1.1h-15l-5.1,32.8Z"/>
  <path class="st0" d="M356.1,139.5h-13l2.6-16.4c-2.6-.2-4.8-1-6.8-2.4-2.2-1.6-3.8-3.8-4.8-6.5-1-2.7-1.3-5.6-.8-8.7l4.2-25.9h13l-4.2,26c-.2,1.1,0,2.1.5,2.8.5.7,1.1,1.1,1.8,1.1h11.7c.8,0,1.5-.4,2.3-1.2.8-.8,1.2-1.8,1.4-2.8l4.2-25.9h13l-4.2,26c-.5,3-1.6,5.9-3.4,8.5-1.8,2.7-4,4.8-6.7,6.4-2.6,1.6-5.3,2.4-8.1,2.4l-2.6,16.3ZM343.8,138.9h11.8l2.6-16.3h.2c2.8,0,5.5-.8,8.1-2.4,2.6-1.6,4.8-3.7,6.5-6.3,1.7-2.6,2.9-5.4,3.3-8.3l4.1-25.4h-11.8l-4.1,25.4c-.2,1.2-.7,2.3-1.5,3.2-.9.9-1.8,1.4-2.7,1.4h-11.7c-1,0-1.7-.5-2.3-1.4-.6-.9-.7-2-.6-3.2l4.1-25.4h-11.8l-4.1,25.4c-.4,3-.2,5.8.8,8.4.9,2.6,2.5,4.6,4.6,6.2,1.9,1.4,4.2,2.2,6.8,2.3h.3s-2.6,16.3-2.6,16.3Z"/>
  <path class="st0" d="M404.7,139.5h-27.7l2.2-13.5h27.6c.8,0,1.5-.4,2.3-1.2.8-.8,1.2-1.8,1.4-2.8l.3-2.4c.2-1.1,0-2.1-.5-2.9-.5-.8-1.1-1.1-1.8-1.1h-11.8c-3,0-5.7-.8-7.9-2.4-2.2-1.6-3.8-3.8-4.7-6.4-.9-2.6-1.1-5.5-.6-8.6l.2-1c.5-3,1.7-5.9,3.4-8.5,1.8-2.7,4-4.8,6.7-6.4,2.7-1.6,5.6-2.4,8.6-2.4h23.6l-2.2,13.4h-23.5c-.9,0-1.7.4-2.4,1.3-.7.9-1.2,2.3-1.5,4.1-.2,1.5,0,2.6.4,3.4.4.8,1.1,1.1,1.9,1.1h11.8c3,0,5.6.8,7.8,2.2,2.1,1.5,3.7,3.5,4.6,6.1.9,2.5,1.2,5.3.8,8.3l-.3,2.4c-.4,3-1.5,5.9-3.4,8.5-1.8,2.7-4.1,4.8-6.7,6.4-2.6,1.6-5.5,2.4-8.5,2.4ZM377.7,138.9h27c2.9,0,5.7-.8,8.2-2.4,2.6-1.6,4.8-3.7,6.5-6.3,1.8-2.6,2.9-5.4,3.3-8.3l.3-2.4c.4-2.9.1-5.6-.8-8.1-.9-2.4-2.4-4.4-4.4-5.8-2-1.4-4.5-2.1-7.4-2.1h-11.8c-1.1,0-1.9-.5-2.4-1.4-.5-.9-.7-2.2-.4-3.8.3-1.9.8-3.3,1.6-4.3h0c.8-1,1.8-1.6,2.9-1.6h23l2-12.2h-22.9c-2.9,0-5.7.8-8.3,2.4-2.6,1.6-4.8,3.7-6.5,6.3-1.7,2.6-2.8,5.4-3.3,8.3l-.2,1c-.5,3-.3,5.8.6,8.3.9,2.5,2.4,4.6,4.5,6.1,2.1,1.5,4.6,2.3,7.5,2.3h11.8c1,0,1.7.5,2.3,1.4.5.9.7,2,.6,3.3l-.3,2.4c-.2,1.2-.7,2.3-1.5,3.2-.9.9-1.8,1.4-2.7,1.4h-27.1l-2,12.3Z"/>
  <path class="st0" d="M453.3,139.5h-27.7l2.2-13.5h27.6c.8,0,1.5-.4,2.3-1.2.8-.8,1.2-1.8,1.4-2.8l.3-2.4c.2-1.1,0-2.1-.5-2.9-.5-.8-1.1-1.1-1.8-1.1h-11.8c-3,0-5.7-.8-7.9-2.4-2.2-1.6-3.8-3.8-4.7-6.4-.9-2.6-1.1-5.5-.6-8.6l.2-1c.5-3,1.7-5.9,3.4-8.5,1.8-2.7,4-4.8,6.7-6.4,2.7-1.6,5.6-2.4,8.6-2.4h23.6l-2.2,13.4h-23.5c-.9,0-1.7.4-2.4,1.3-.7.9-1.2,2.3-1.5,4.1-.2,1.5,0,2.6.4,3.4.4.8,1.1,1.1,1.9,1.1h11.8c3,0,5.6.8,7.8,2.2,2.1,1.5,3.7,3.5,4.6,6.1.9,2.5,1.2,5.3.8,8.3l-.3,2.4c-.4,3-1.5,5.9-3.4,8.5-1.8,2.7-4.1,4.8-6.7,6.4-2.6,1.6-5.5,2.4-8.5,2.4ZM426.3,138.9h27c2.9,0,5.7-.8,8.2-2.4,2.6-1.6,4.8-3.7,6.5-6.3,1.8-2.6,2.9-5.4,3.3-8.3l.3-2.4c.4-2.9.1-5.6-.8-8.1-.9-2.4-2.4-4.4-4.4-5.8-2-1.4-4.5-2.1-7.4-2.1h-11.8c-1.1,0-1.9-.5-2.4-1.4-.5-.9-.7-2.2-.4-3.8.3-1.9.8-3.3,1.6-4.3h0c.8-1,1.8-1.6,2.9-1.6h23l2-12.2h-22.9c-2.9,0-5.7.8-8.3,2.4-2.6,1.6-4.8,3.7-6.5,6.3-1.7,2.6-2.8,5.4-3.3,8.3l-.2,1c-.5,3-.3,5.8.6,8.3.9,2.5,2.4,4.6,4.5,6.1,2.1,1.5,4.6,2.3,7.5,2.3h11.8c1,0,1.7.5,2.3,1.4.5.9.7,2,.6,3.3l-.3,2.4c-.2,1.2-.7,2.3-1.5,3.2-.9.9-1.8,1.4-2.7,1.4h-27.1l-2,12.3Z"/>
  <path class="st0" d="M547.4,139.5h-13l2.6-16.4c-2.6-.2-4.8-1-6.8-2.4-2.2-1.6-3.8-3.8-4.8-6.5-1-2.7-1.3-5.6-.8-8.7l4.2-25.9h13l-4.2,26c-.2,1.1,0,2.1.5,2.8.5.7,1.1,1.1,1.8,1.1h11.7c.8,0,1.5-.4,2.3-1.2.8-.8,1.2-1.8,1.4-2.8l4.2-25.9h13l-4.2,26c-.5,3-1.6,5.9-3.4,8.5-1.8,2.7-4,4.8-6.7,6.4-2.6,1.6-5.3,2.4-8.1,2.4l-2.6,16.3ZM535.1,138.9h11.8l2.6-16.3h.2c2.8,0,5.5-.8,8.1-2.4,2.6-1.6,4.8-3.7,6.5-6.3,1.7-2.6,2.9-5.4,3.3-8.3l4.1-25.4h-11.8l-4.1,25.4c-.2,1.2-.7,2.3-1.5,3.2-.9.9-1.8,1.4-2.7,1.4h-11.7c-1,0-1.7-.5-2.3-1.4-.6-.9-.7-2-.6-3.2l4.1-25.4h-11.8l-4.1,25.4c-.4,3-.2,5.8.8,8.4.9,2.6,2.5,4.6,4.6,6.2,1.9,1.4,4.2,2.2,6.8,2.3h.3s-2.6,16.3-2.6,16.3Z"/>
  <path class="st0" d="M38.3,64.4H10.4L19.7,4.6h27.8c3,0,5.7.9,7.9,2.6h0c2.2,1.7,3.8,3.9,4.7,6.6.9,2.7,1.1,5.5.6,8.4l-3.9,24.8c-.5,3.1-1.6,6-3.4,8.6-1.8,2.7-4.1,4.8-6.8,6.4-2.7,1.6-5.5,2.4-8.4,2.4ZM11.1,63.9h27.2c2.8,0,5.5-.8,8.1-2.3,2.6-1.5,4.8-3.6,6.6-6.2,1.8-2.6,2.9-5.4,3.3-8.4l3.9-24.8c.5-2.8.3-5.5-.6-8.1-.9-2.6-2.4-4.7-4.5-6.4h0c-2.1-1.6-4.7-2.4-7.6-2.4h-27.2l-9.1,58.6ZM40.3,51.6h-15.6l5.3-34h15.5c1,0,1.8.5,2.4,1.4.6.9.8,2,.5,3.3l-3.9,24.8c-.2,1.3-.8,2.3-1.6,3.2-.8.9-1.7,1.3-2.7,1.3ZM25.4,51h14.9c.8,0,1.5-.4,2.2-1.2.7-.8,1.2-1.8,1.4-2.9l3.9-24.8c.2-1.1,0-2.1-.4-2.8-.5-.7-1.1-1.1-1.9-1.1h-15l-5.1,32.8Z"/>
  <path class="st0" d="M105.7,64.5h-12.9l3.1-19.8c.2-1.1,0-2.1-.5-3-.5-.8-1.1-1.2-1.9-1.2h-14.9l-3.8,24h-12.9l9.5-59.8h27.7c3,0,5.6.8,7.7,2.4h0c2.2,1.6,3.7,3.8,4.7,6.5,1,2.7,1.2,5.6.7,8.7l-.2,1.1c-.3,2.2-1.1,4.3-2.3,6.3-1.1,1.8-2.6,3.3-4.4,4.4,1.5,1.1,2.6,2.6,3,4.4.5,2,.6,4.1.2,6.4l-3.1,19.7ZM93.5,63.9h11.7l3.1-19.2c.3-2.2.3-4.3-.2-6.2-.5-1.8-1.5-3.3-3.2-4.3l-.4-.3.4-.2c1.9-1.1,3.5-2.5,4.6-4.4,1.1-1.9,1.9-3.9,2.2-6l.2-1.1c.4-3,.2-5.8-.7-8.4-.9-2.6-2.4-4.6-4.5-6.2-2.1-1.5-4.5-2.3-7.4-2.3h-27.2l-9.4,58.6h11.7l3.8-24h15.4c1,0,1.8.5,2.4,1.5.6,1,.8,2.1.6,3.4l-3,19.1ZM95.4,28.6h-15.5l1.8-11.1h15.4c1,0,1.8.5,2.4,1.4.6.9.8,2,.6,3.3l-.3,2c-.2,1.2-.8,2.2-1.6,3.1-.9.9-1.8,1.3-2.7,1.3ZM80.7,28h14.8c.8,0,1.5-.4,2.3-1.1.8-.8,1.3-1.7,1.5-2.8l.3-2c.2-1.1,0-2.1-.5-2.9-.5-.8-1.1-1.2-1.9-1.2h-14.9l-1.6,9.9Z"/>
  <path class="st0" d="M264.1,64.4h-13.1l5.8-36.6-11.8,12.7h-7.3l-7.9-12.8-5.8,36.7h-13.1v-.3c0,0,9.5-59.5,9.5-59.5h12.4l10.8,21.4,17.9-21.4h12.1v.3c0,0-9.5,59.5-9.5,59.5ZM251.6,63.9h11.9l9.3-58.6h-11.1l-18.3,21.9-11.1-21.9h-11.5l-9.3,58.6h11.9l6-37.7,8.5,13.9h6.8l12.9-13.9-6,37.8Z"/>
  <path class="st0" d="M323.4,64.4h-12.1l-10.9-22.9-17.8,22.9h-12.5l9.5-59.8h13.1l-5.8,36.2,12.1-14.1h7.4v.2c0,0,7.6,13.8,7.6,13.8l5.7-36.1h13.2v.3c0,0-9.5,59.5-9.5,59.5ZM311.7,63.8h11.3l9.4-58.6h-12l-5.9,37.3-8.3-15.1h-6.7l-13.3,15.4,6.1-37.6h-11.9l-9.4,58.6h11.5l18.2-23.4,11.2,23.4Z"/>
  <path class="st0" d="M410.6,64.5h-27.8v-.3c0,0,9.4-59.5,9.4-59.5h12.9l-7.2,46.3h14.8c.8,0,1.6-.4,2.3-1.2.8-.8,1.3-1.8,1.4-2.8l6.6-42.4h12.9v.3c0,0-6.7,42.3-6.7,42.3-.5,3-1.6,5.9-3.4,8.5-1.8,2.6-4,4.8-6.7,6.4h0c-2.7,1.6-5.5,2.4-8.5,2.4ZM383.5,63.9h27.1c2.9,0,5.6-.8,8.2-2.3h0c2.6-1.5,4.8-3.6,6.5-6.2,1.7-2.6,2.9-5.3,3.3-8.3l6.6-41.9h-11.7l-6.5,41.9c-.2,1.2-.7,2.3-1.6,3.2-.9.9-1.8,1.4-2.7,1.4h-15.5l7.2-46.3h-11.7l-9.2,58.6Z"/>
  <path class="st0" d="M258.3,139.6h-20.3v-2.6h-5v-2.4h-2.4v-5h-2.6v-10.5h2.6v-17.3h2.4v-12.3h2.4v-2.2l.4-.4h2.2v-2.4h2.4v-2.4h2.6v-2.6h27.6v.3c0,.3,0,.7,0,1,0,.5,0,1,0,1.3h2.5v2.4h2.4v20.3h-2.4v14.9h-2.6v9.9h-2.4v2.4h-2.6v2.6h-2.4v2.4h-5v2.6ZM238.6,139h19.1v-2.6h5v-2.4h2.4v-2.6h2.6v-2.4h2.4v-9.9h2.6v-14.9h2.4v-19.1h-2.4v-2.4h-2.3c-.3-.6-.3-1.3-.3-1.9,0-.2,0-.4,0-.6h-26.5v2.6h-2.6v2.4h-2.4v2.4h-2.6v2.6h-2.4v12.3h-2.4v17.3h-2.6v9.3h2.6v5h2.4v2.4h5v2.6ZM258.3,127.2h-17.9v-2.4h-2.4v-3.1h2.4v-17.3h2.6v-9.8h2.4v-2.6h2.4v-2.4h15.5v2.4h2.6v10.5h-2.6v17.3h-2.4v5h-2.6v2.4ZM241,126.6h16.7v-2.4h2.6v-5h2.4v-17.3h2.6v-9.3h-2.6v-2.4h-14.3v2.4h-2.4v2.6h-2.4v9.8h-2.6v17.3h-2.4v2h2.4v2.4Z"/>
  <path class="st0" d="M513.2,138.9h-24.1v-2.4h-7.1v-4.7h-2.4v-19.4h2.4v-14.2h2.3v-9.5h2.4v-2.4h2.4v-2.3h2.3v-2.4h31.3v3h-2.4v7.1h-23.5v2.3h-2.4v4.8h-2.4v6.5h21.3v7.7h-21.3v2.3h-2.3v8.9h2.3v2.4h21.3v12.4ZM489.7,138.3h22.9v-11.2h-21.3v-2.4h-2.3v-10.1h2.3v-2.3h21.3v-6.5h-21.3v-7.7h2.4v-4.8h2.4v-2.3h23.5v-7.1h2.4v-1.8h-30.2v2.4h-2.3v2.3h-2.4v2.4h-2.4v9.5h-2.3v14.2h-2.4v18.3h2.4v4.7h7.1v2.4Z"/>
  <path class="st0" d="M151.6,63.7h-24.1v-2.4h-4.8v-2.3h-2.3v-2.4h-2.4v-17h2.4v-16.6h2.3v-7.1h2.4v-4.8h4.7v-2.3h2.4v-2.4h28.9v3h-2.4v7.1h-23.5v2.3h-2.4v7.1h-2.4v4.2h21.3v9.9h-23.5v8.9h2.3v2.4h21.3v12.4ZM128.1,63.1h22.9v-11.2h-21.3v-2.4h-2.3v-10.1h23.5v-8.8h-21.3v-5.4h2.4v-7.1h2.4v-2.3h23.5v-7.1h2.4v-1.8h-27.8v2.4h-2.4v2.3h-4.7v4.8h-2.4v7.1h-2.3v16.6h-2.4v15.9h2.4v2.4h2.3v2.3h4.8v2.4Z"/>
  <path class="st0" d="M201.2,63.7h-9.9v-7.7h2.4v-14.2h2.3v-1.8h-20.7v4.8h-2.4v14.2h-2.3v4.7h-10.1v-7.7h2.4v-14.2h2.3v-14.2h2.4v-11.8h2.4v-2.4h2.3v-2l.4-.4h2v-2.3h2.4v-2.4h26.5v2.4h2.4v4.7h2.3v14.8h-2.3v14.2h-2.4v16.6h-2.4v4.7ZM191.9,63.1h8.8v-4.7h2.4v-16.6h2.4v-14.2h2.3v-13.6h-2.3v-4.7h-2.4v-2.4h-25.3v2.4h-2.4v2.3h-2.4v2.4h-2.3v2.4h-2.4v11.8h-2.4v14.2h-2.3v14.2h-2.4v6.5h8.9v-4.7h2.3v-14.2h2.4v-4.8h21.9v3h-2.3v14.2h-2.4v6.5ZM196.5,30.6h-19.4v-10.1h2.3v-2.4h2.4v-2.3h14.8v2.3h2.4v10.1h-2.4v2.4ZM177.7,30h18.3v-2.4h2.4v-8.9h-2.4v-2.3h-13.6v2.3h-2.4v2.4h-2.3v8.9Z"/>
  <path class="st0" d="M373.7,63.7h-9.9v-9.9h2.4v-13.7h0s-18.4,0-18.4,0v2.4h-2.4v14.2h-2.3v7.1h-10.1v-9.9h2.4v-14.2h2.3v-16.6h2.4v-7.1h2.4v-4.8h4.7v-2.3h2.4v-2.4h24.1v2.4h4.8v4.7h2.3v12.4h-2.3v14.2h-2.4v14.2h-2.4v9.5ZM364.4,63.1h8.8v-9.1l.4-.4h2v-14.2h2.4v-14.2h2.3v-11.2h-2.3v-4.7h-4.8v-2.4h-22.9v2.4h-2.4v2.3h-4.7v4.8h-2.4v7.1h-2.4v16.6h-2.3v14.2h-2.4v8.8h8.9v-7.1h2.3v-14.2h2.4v-2.4h19.2l.4.4v14.1l-.4.4h-2v8.8ZM369,30.6h-21.9v-5.4h2.4v-7.1h4.7v-2.3h14.8v4.7h2.4v3h-2.4v7.1ZM347.8,30h20.7v-7.1h2.4v-1.8h-2.4v-4.7h-13.6v2.3h-4.7v7.1h-2.4v4.2Z"/>
  <path class="st0" d="M473.1,63.7h-26.5v-2.4h-4.8v-2.3h-2.3v-7.1h-2.4v-5.3h2.4v-14.2h2.3v-13.9l.4-.4h2v-4.7h2.4v-2.4h2.3v-2.3h2.4v-2.4h28.9v10.1h-23.7v2.3h-2.3v2.4h-2.4v8.9h21.3v5.3h-2.4v4.7h-21.3v11.3h23.7v12.4ZM447.1,63.1h25.3v-11.2h-23.7v-12.5h21.3v-4.7h2.4v-4.1h-21.3v-10.1h2.4v-2.4h2.3v-2.3h23.7V7h-27.8v2.4h-2.4v2.3h-2.3v2.4h-2.4v4.7h-2.4v14.3h-2.3v14.2h-2.4v4.1h2.4v7.1h2.3v2.3h4.8v2.4Z"/>
</svg>