<?xml version="1.0" encoding="UTF-8"?>
<svg id="Layer_1" xmlns="http://www.w3.org/2000/svg" version="1.1" viewBox="0 0 1024 1024">
  <!-- Generator: Adobe Illustrator 29.1.0, SVG Export Plug-In . SVG Version: 2.1.0 Build 142)  -->
  <defs>
    <style>
      .st0 {
        fill: #fff;
      }
    </style>
  </defs>
  <path class="st0" d="M967.5,0H56.5C25.3,0,0,25.3,0,56.5v911c0,31.2,25.3,56.5,56.5,56.5h490.5v-396h-133v-155h133v-114.1c0-132.3,80.8-204.3,198.8-204.3s105.1,4.2,119.2,6.1v138.2h-81.4c-64.2,0-76.6,30.5-76.6,75.3v98.7h153.5l-20,155h-133.5v396h260.5c31.2,0,56.5-25.3,56.5-56.5V56.5c0-31.2-25.3-56.5-56.5-56.5Z"/>
</svg>