<?xml version="1.0" encoding="UTF-8"?>
<svg id="Logo" xmlns="http://www.w3.org/2000/svg" version="1.1" viewBox="0 0 512 512">
  <!-- Generator: Adobe Illustrator 29.1.0, SVG Export Plug-In . SVG Version: 2.1.0 Build 142)  -->
  <defs>
    <style>
      .st0 {
        fill: #fff;
      }
    </style>
  </defs>
  <path class="st0" d="M256,46.1c68.4,0,76.5.3,103.4,1.5,25,1.1,38.5,5.3,47.5,8.8,11.9,4.6,20.5,10.2,29.4,19.1,9,9,14.5,17.5,19.2,29.4,3.5,9,7.7,22.6,8.8,47.5,1.2,27,1.5,35.1,1.5,103.4s-.3,76.5-1.5,103.4c-1.1,25-5.3,38.5-8.8,47.5-4.6,11.9-10.2,20.5-19.1,29.4-9,9-17.5,14.5-29.4,19.2-9,3.5-22.6,7.7-47.5,8.8-27,1.2-35.1,1.5-103.4,1.5s-76.5-.3-103.4-1.5c-25-1.1-38.5-5.3-47.5-8.8-11.9-4.6-20.5-10.2-29.4-19.1-9-9-14.5-17.5-19.2-29.4-3.5-9-7.7-22.6-8.8-47.5-1.2-27-1.5-35.1-1.5-103.4s.3-76.5,1.5-103.4c1.1-25,5.3-38.5,8.8-47.5,4.6-11.9,10.2-20.5,19.1-29.4s17.5-14.5,29.4-19.2c9-3.5,22.6-7.7,47.5-8.8,27-1.2,35.1-1.5,103.4-1.5M256,0c-69.5,0-78.2.3-105.5,1.5-27.2,1.2-45.9,5.6-62.1,11.9-16.8,6.5-31.1,15.3-45.3,29.5-14.2,14.2-23,28.5-29.5,45.3-6.3,16.3-10.7,34.9-11.9,62.1-1.2,27.3-1.5,36-1.5,105.5s.3,78.2,1.5,105.5c1.2,27.2,5.6,45.9,11.9,62.1,6.5,16.8,15.3,31.1,29.5,45.3,14.2,14.2,28.5,23,45.3,29.5,16.3,6.3,34.9,10.7,62.1,11.9,27.3,1.2,36,1.5,105.5,1.5s78.2-.3,105.5-1.5c27.2-1.2,45.9-5.6,62.1-11.9,16.8-6.5,31.1-15.3,45.3-29.5,14.2-14.2,23-28.5,29.5-45.3,6.3-16.3,10.7-34.9,11.9-62.1,1.2-27.3,1.5-36,1.5-105.5s-.3-78.2-1.5-105.5c-1.2-27.2-5.6-45.9-11.9-62.1-6.5-16.8-15.3-31.1-29.5-45.3-14.2-14.2-28.5-23-45.3-29.5-16.3-6.3-34.9-10.7-62.1-11.9-27.3-1.2-36-1.5-105.5-1.5h0Z"/>
  <path class="st0" d="M256,124.5c-72.6,0-131.5,58.9-131.5,131.5s58.9,131.5,131.5,131.5,131.5-58.9,131.5-131.5-58.9-131.5-131.5-131.5ZM256,341.3c-47.1,0-85.3-38.2-85.3-85.3s38.2-85.3,85.3-85.3,85.3,38.2,85.3,85.3-38.2,85.3-85.3,85.3Z"/>
  <circle class="st0" cx="392.7" cy="119.3" r="30.7"/>
</svg>