<?xml version="1.0" encoding="UTF-8"?>
<svg id="Layer_1" xmlns="http://www.w3.org/2000/svg" version="1.1" viewBox="0 0 1110 238">
  <!-- Generator: Adobe Illustrator 29.3.1, SVG Export Plug-In . SVG Version: 2.1.0 Build 151)  -->
  <defs>
    <style>
      .st0 {
        fill: #fff;
      }
    </style>
  </defs>
  <path class="st0" d="M26.6,63.1h-4.6c-.5,0-1.8,0-2.3-.8h0v-1.6c0-.2,0-.9.1-1.7,0-.7,0-1.4,0-1.6,0-1.1,0-4.1.2-7.1,0-2.8.2-5.7.2-6.7v-4.5c0,0,0-.4.1-.7,0-.2,0-.4,0-.5,0-1.2,0-4.6.2-7.8,0-3.2.2-6.5.2-7.6v-.5c0,0,0-.2,0-.3h-4.6c-.2,0-.4,0-.6-.1,0,0-.1,0-.2,0h0c-.3,0-.6-.2-.8-.7h0v-5.2h0c.2-.6.5-.9.9-.9h.9c.6,0,3.4,0,6.3,0,3,0,6,.1,6.6.1h3.1c.2,0,.4,0,.6.1.1,0,.2,0,.3,0h.3s.4.6.4.6v6.1h-6v.2c0,0,0,22.7,0,22.7,0,.7-.1,4.1-.3,7.6-.1,3.4-.3,6.9-.3,7.6v1.3c0,.1,0,.3,0,.6,0,.2,0,.4-.1.5v.2s-.4.6-.4.6ZM20.8,61.7c.1,0,.5.2,1.2.2h3.9c0-.1,0-.2,0-.4,0-.1,0-.3,0-.3v-1.2c0-.7.1-4.1.3-7.6.1-3.4.3-6.9.3-7.6v-23s.3-.7.3-.7l.5-.5h5.4v-4.4c0,0-.1,0-.2,0-.1,0-.2,0-.3,0h-3c-.6,0-3.6,0-6.6-.1-2.9,0-5.7,0-6.3,0h-.7v4.4c.1,0,.2,0,.3.1,0,0,.1,0,.2,0h4.6c.5,0,1.1.3,1.1,1.5v.5c0,1.2,0,4.3-.2,7.6,0,3.2-.2,6.6-.2,7.8s0,.4-.1.7c0,.2,0,.4,0,.5v4.5c0,1,0,3.8-.2,6.7,0,2.9-.2,6-.2,7.1s0,.9-.1,1.7c0,.7,0,1.4,0,1.6v1Z"/>
  <path class="st0" d="M57.4,63.5c-1.1,0-2.1-.1-2.8-.7-.2-.2-.7-.7-1.5-15-.2-1.9-.4-4.3-.5-6.6,0-.6,0-1.2-.1-1.9l-1.8,16.4c0,.1,0,.5-.2,1.4,0,.6-.2,1.3-.2,1.5s0,.2-.2,1c0,.1,0,.4,0,.6,0,.2,0,.5,0,.6,0,.4-.2,2.1-1.3,2.1h-2.1c-.3,0-.7,0-1,0-1.6,0-3.3.2-4.2-.7-.2-.2-.7-.7-1.5-12.2-.6-5.4-1.3-11.8-2.1-18.1-.5-3.6-.9-7.3-1.2-10.9v-.3c-.3-1.6-.4-3-.4-4.4v-.8l.4-.6h5c1.7,0,1.7,1.9,1.7,2.5,0,.1,0,.5,0,.9,0,.4,0,.7,0,.9.3,1.4.6,4.8.9,7.3.2,1.4.3,2.6.3,2.8h0c0,.4.3,2.9.5,4.9.4,3.1.5,4.6.5,4.9,0,0,0,.5,0,1,0,.6,0,1.3,0,1.4,0,0,0,.3,0,.5,0,0,0,.1,0,.2,0-.4,0-.8,0-.9l.2-1.3c.6-3.9,1.5-10.5,1.9-14,0,0,0-.4,0-.9.2-2,.8-6.8,1-8.3.3-1.5,1.1-1.7,5.5-1.7h.1c1.7,0,1.7,1.8,1.7,2.5,0,.1,0,.5,0,.8,0,.4,0,.7,0,.9.2,1.3.4,4,.5,6.5,0,1.5.2,3.2.3,3.5v.2c0,.3.3,2.5.5,4.2.3,2.5.5,3.7.5,4,0,0,.1.8.3,1.5.3,1.9.4,2.2.4,2.3,0,0,0,.3,0,.5,0-.2.1-.4.2-.8.7-4.2,1.3-8.9,1.7-12.8l.3-2.4c0-.1,0-.4.1-.9.2-2,.8-6.7,1-8.2,0-.3.1-.6.2-.8.2-.5.4-1,.9-1h4.4c.5,0,1.1.3,1.1,1.5,0,.5-.2,1.3-.2,1.6-.4,3.2-.8,6.3-1.2,9.5-.6,4.6-1.1,9.5-1.8,14.2-.3,1.8-.6,3.7-.9,5.5-.5,2.9-.9,5.9-1.3,8.8,0,.1,0,.5-.2,1.4,0,.6-.2,1.3-.2,1.5s0,.2-.2,1c0,.1,0,.4,0,.6,0,.2,0,.5,0,.6,0,.4-.2,2.1-1.3,2.1h-2.1c-.3,0-.7,0-1,0-.5,0-1,0-1.5,0ZM55.5,62c.6.4,2.2.3,3.3.3.4,0,.8,0,1.1,0h2c.1-.2.2-.7.2-.9s0-.4,0-.7c0-.2,0-.5,0-.6v-.2s.2-.6.2-.7c0-.2,0-.7.2-1.6,0-.5.1-1.1.1-1.3.3-3,.8-6,1.3-8.9.3-1.9.6-3.7.9-5.5.6-4.7,1.2-9.5,1.8-14.2.4-3.1.8-6.3,1.2-9.4,0-.4.2-1.5.2-1.6h0s0,0,0-.2h-4s0,.1,0,.1c0,.1,0,.4,0,.5h0c-.3,1.5-.8,6.3-1,8.3,0,.5,0,.8-.1.9l-.3,2.3c-.5,3.9-1,8.7-1.7,12.9-.2,1.2-.6,2.5-1.6,2.4-.6,0-.9-.6-.9-1,0,0,0-.3,0-.6,0-.3,0-.6,0-.7,0-.1-.2-1.3-.4-2.1-.3-1.6-.3-1.6-.3-1.7,0-.2-.3-2.3-.5-3.9-.3-2.4-.5-3.9-.5-4.3,0-.4-.1-1.4-.3-3.7-.1-2.3-.3-5.2-.5-6.4h0c0-.2,0-.6,0-1,0-.4,0-.8,0-.9,0-1.1-.2-1.3-.5-1.3h-.1c-4.1,0-4.2.2-4.3.7-.3,1.5-.8,6.2-1,8.2,0,.5,0,.8,0,.9-.4,3.5-1.3,10.1-1.9,14l-.2,1.2s0,.5,0,1.1c0,.5,0,.9,0,1,0,.2,0,.4-.2.7v.4h-.8c-.9,0-1.3-1.1-1.3-1.8,0,0,0-.3,0-.5,0-.4-.1-.6-.1-.7,0-.1,0-.8,0-1.4,0-.5,0-1,0-1,0-.3-.3-2.8-.5-4.8-.3-2.9-.5-4.4-.5-4.8,0-.3-.2-1.3-.3-2.8-.3-2.5-.7-5.9-.9-7.2h0c0-.2,0-.6,0-1,0-.4,0-.8,0-.9,0-1.1-.2-1.3-.5-1.3h-4.3v.3c0,1.4.1,2.7.3,4.3v.3c.3,3.6.7,7.3,1.2,10.9.8,6.4,1.5,12.7,2.1,18.2.3,5.1.8,10.6,1.1,11.5.6.4,2.2.4,3.3.3.4,0,.8,0,1.1,0h2c.1-.2.2-.7.2-.9s0-.4,0-.7c0-.2,0-.5,0-.6v-.2s.2-.6.2-.7c0-.2,0-.7.2-1.6,0-.5.1-1.1.2-1.3l2.3-20.8h1.5v.5c.2,1.7.4,3.7.5,5.7.1,2.3.3,4.7.5,6.6.3,6.3.8,13.3,1.2,14.3Z"/>
  <path class="st0" d="M81.2,63.3h-1.5c-1.1,0-2.6-.3-3.5-1.3-1.9-1.7-3.1-3.5-3.7-5.6-.7-3.5-.9-6.6-1.1-10.6v-.6c0-1.1,0-4.4.1-7.6,0-3.2,0-6.3,0-7.4,0-5.8,1.3-15.6,10.1-15.6s8.2,2.5,9.2,7.5c.3.6.4,1.8.4,1.9v24.3l-.3,5.4h0c-.2.4-.2.8-.3,1.2-.1.4-.2.9-.5,1.3-1.9,3.8-3.9,7-8.9,7ZM81.7,15.9c-7.8,0-8.9,9-8.9,14.4s0,4.2,0,7.4c0,3.2-.1,6.4-.1,7.6v.5c.2,3.9.4,6.9,1.1,10.3.5,1.9,1.5,3.5,3.3,5.1.6.7,1.8,1,2.7,1h1.5c4.4,0,6.1-2.8,7.9-6.4.2-.3.3-.7.4-1.1,0-.4.2-.8.4-1.2l.3-5.1v-24.3c0-.2-.1-1.2-.3-1.4v-.2c-1-4.5-3.6-6.6-8.1-6.6ZM81.5,57.3c-1.4,0-2.9-.9-3.2-2.5v-24.6c0-.6,0-2,0-3.5,0-1.4,0-2.9,0-3.4s.2-.7.3-.9v-.2c.2,0,.2-.1.3-.2.6-.7.9-.9,1.2-1,.3-.1,1-.4,1.4-.4h.2c1.7,0,2.9,1.6,2.9,3v10.7c0,1.1,0,4.2-.1,7.3,0,3,0,5.9,0,6.9s0,1.4,0,2.5c0,1.1-.1,2.2-.1,2.6,0,1.9-.9,3.7-2.9,3.7ZM79.8,23.1c0,.1,0,.2-.1.3,0,.5,0,2,0,3.5,0,1.4,0,2.9,0,3.4v24.5c.1.9,1.3,1.4,2,1.4,1.6,0,1.7-2.1,1.7-2.5s0-1.5.1-2.7c0-1,0-2.1,0-2.4,0-1,0-3.9,0-6.9,0-3.1.1-6.2.1-7.3v-10.7c0-.9-.7-1.8-1.7-1.8h-.2c-.1,0-.6.2-1,.4h0c-.2.2-.5.5-.7.7,0,0-.1.1-.1.2Z"/>
  <path class="st0" d="M339.3,62.8h-5.7c-.7,0-1-1.1-1-1.4,0-1.1.1-4.9.2-9.4.2-7.6.5-17.1.4-19.6,0-.6,0-1.1,0-1.7,0-.5,0-1,0-1.4,0-1.1,0-4,.1-6.9,0-2.9,0-5.8,0-6.8v-.3l.6-.4h15.6l.7.7v5.5l-.7.7h-8.6c0,.8,0,3.3-.1,5.9,0,3.3-.2,7-.2,7.8s0,.2,0,.3h6.8v6.1h-6.8c0,.3,0,.7,0,1.2-.1,2.9-.3,8.4-.3,16.8s0,.3,0,.4c0,.8,0,1.6-.4,2.1-.2.2-.5.3-.8.3ZM333.9,61.6h5.4c0-.1,0-.9,0-1.2,0-.2,0-.3,0-.5,0-8.4.2-13.9.3-16.8,0-.6,0-1.1,0-1.4v-.2s.3-.7.3-.7h6.5v-3.7h-5.7c-.7,0-1.1-.5-1.1-1.5s0-4.4.2-7.9c0-2.9.1-5.6.1-6.1h0c0-.1.4-1,.4-1h8.8v-4.5h-14.5c0,1.3,0,3.9,0,6.4,0,2.9,0,5.8,0,6.8s0,.9,0,1.4c0,.5,0,1.1,0,1.6,0,2.5-.2,12-.4,19.7-.1,4.4-.2,8.2-.2,9.3,0,0,0,.1,0,.2Z"/>
  <path class="st0" d="M359.1,62.9c-.7,0-1.6,0-2.4-.2-.6,0-1.2-.1-1.5-.1h-.2l-.6-.6c-.3-.4-.3-2.8-.3-3.3,0-1.2,0-6.9,0-12.6,0-5.8.1-11.6.1-12.9,0-2.5,0-5.1,0-7.5,0-2.5-.1-5-.1-7.6s0-.3,0-.4c0-1-.1-2.6,1.3-3h.1s1.6,0,1.6,0c2.6,0,5.2,0,7.9.2.6,0,3.3.4,4.5,1.3,3.4,2.7,3.7,6.7,3.7,10.3s-.6,7.8-3.8,11.6h0c1.2.8,2.3,1.6,2.8,3.8.6,2.6,1,9.7,1,14.7s.5,2.8.9,3.8l.2.6v.2c-.4,1.1-.7,1.2-1.8,1.2h-.4c-.4,0-.8,0-1.2,0-1.2,0-2.3,0-3.7,0h-.2s-.1-.1-.1-.1c-.8-.7-1.4-1.5-1.4-5.2s0-1.6,0-2.5c0-1.1,0-2.3,0-3.5v-.5c0-3,0-6.8-1.6-8.4-.6-.6-1.3-.8-2.2-.8s-.3,0-.3.3c0,.5,0,2,0,3.5,0,1.5-.1,3.1-.1,3.6s0,2.1,0,3.7c0,1.7.1,3.4.1,3.8,0,1,0,2,.1,3,0,.8.1,1.6.1,2.4v.2c-.4.8-1.4,1-2.6,1ZM355.4,61.5c.4,0,.9,0,1.4.1.8,0,3.4.3,3.7,0,0-.7,0-1.4-.1-2.1,0-1-.1-2-.1-3.1s0-2.1,0-3.7c0-1.7-.1-3.4-.1-3.8,0-.5,0-2.1.1-3.7,0-1.5,0-3,0-3.4,0-.9.6-1.5,1.5-1.5,1.3,0,2.3.4,3.1,1.2,1.9,1.9,1.9,5.8,1.9,9.2v.5c0,1.2,0,2.4,0,3.6,0,.9,0,1.8,0,2.5,0,3.1.4,3.7.9,4.1,1.2,0,2.3,0,3.4,0,.4,0,.8,0,1.2,0h.4c.2,0,.4,0,.5,0,0,0,0,0,0-.2v-.3c-.5-1.1-1.1-2.6-1.1-4.2,0-4.8-.4-11.9-1-14.4-.4-1.8-1.2-2.3-2.4-3.2l-.4-.3v-1.2c3.2-3.6,3.8-6.7,3.8-11s-.2-7-3.2-9.4c-.7-.5-2.5-.9-3.9-1.1-2.6-.2-5.2-.2-7.7-.2h-1.5c-.4.2-.4.9-.4,1.8,0,.2,0,.3,0,.5,0,2.5,0,5.1,0,7.5,0,2.5.1,5,.1,7.6s0,7.1-.1,12.9c0,5.7,0,11.4,0,12.6s0,2.2.1,2.7h0ZM362.5,36.2c-.2,0-.4,0-.5,0-.2,0-.4,0-.5,0h-.2l-.7-.7v-13.9l.8-.9h2.9c1.8.4,2.4,2.6,2.4,4.5s-.1,4.5-.2,6.6c0,.8,0,1.5-.1,2.3h0c0,.1,0,.3,0,.3-1,1.7-2.4,1.8-3.6,1.8ZM361.7,35c.1,0,.2,0,.3,0,1.3,0,2.3,0,3-1.1,0-.7,0-1.4.1-2.2.1-2.2.2-4.4.2-6.6s-.4-3-1.4-3.3h-2.1v.2c-.1,0-.1,13-.1,13Z"/>
  <path class="st0" d="M393.5,62.8h-.5c-.4,0-1.8,0-3.4-.1-1.4,0-2.8-.1-3.1-.1-.5,0-2,0-3.5,0-1.5,0-3,0-3.5,0s-1.1-.3-1.1-1.6v-.3c.1-8.8.2-17.7.2-26.5s0-1.9,0-3.8c0-4.6,0-12.2,0-13.4v-1.5s.7-.7.7-.7h2.5c3.4-.1,11.5,0,11.5,0h.2s.6.3.6.3v.3c0,.2.3,1.1.3,1.5v.3c0,1,0,3.3,0,3.3v.2s-.7.7-.7.7h-.9c-.8,0-1.7,0-2.5,0-1.2,0-2.3,0-3.5,0-.3,0-.4,0-.5.2,0,1.3,0,2.7-.1,4.2,0,2.5-.2,5.2-.1,7.4v1.3c.2.2.4.2.8.2.8,0,1.7,0,2.5-.1.6,0,1.1,0,1.7-.1.4,0,1,0,1.3,1h0v1.3c0,.4,0,1.4,0,1.4,0,.2,0,.8-.1,1.3,0,.5,0,1,0,1.1,0,.2,0,.4-.2.6-.3.4-.8.5-1.2.5,0,0-.1,0-.2,0h-.1c-.6,0-1.2,0-1.8,0-.6,0-1.1,0-1.7,0s-.7,0-.8.1c0,.1,0,.3,0,.5,0,.3-.1,1,0,1.1h0c0,.6,0,2.4,0,4.3,0,2.4-.1,5-.1,6.1,0,0,0,.9,0,1v1s0,0,0,0h8.6c0-.1.2,6.3.2,6.3h0c-.2.6-.5.8-.8.8h-.1c0,0-.2,0-.2,0ZM379.6,61.3c.6,0,2,0,3.4,0,1.5,0,3,0,3.5,0s1.7,0,3.1.1c1.5,0,3,.1,3.3.1h.4c0,0,.1,0,.2,0v-4.8c-.1,0-7.6.1-7.6.1-.5,0-1.1-.6-1.1-1.1v-1.2c0-.1,0-1,0-1,0-1.1,0-3.8.1-6.1,0-1.9,0-3.5,0-4.1,0-.3,0-.7,0-1.4,0-.3,0-.5,0-.6v-.2h0c.5-1,1.1-1,1.9-1s1.2,0,1.7,0c.6,0,1.1,0,1.7,0,0,0,.1,0,.2,0,0,0,.3,0,.4,0,0-.3,0-.7,0-1.1,0-.5,0-1,0-1.1,0,0,0-1,0-1.4v-1.1s0,0,0,0c0,0,0,0,0,0-.5,0-1.1,0-1.6.1-.9,0-1.8.1-2.6.1s-1.3,0-1.9-.8v-.2c-.1,0-.1-1.7-.1-1.7,0-2.3,0-4.9.1-7.5,0-1.5.1-2.9.1-4.3v-.2c.3-.7.9-1,1.7-1,1.2,0,2.4,0,3.6,0,.8,0,1.6,0,2.4,0h.4c0-.6,0-2.2,0-3v-.3c0-.2,0-.6-.1-.9-1.2,0-8.2-.2-11.3,0h-2v.9c0,1.2,0,8.5,0,13.4,0,1.9,0,3.3,0,3.8,0,8.8,0,17.7-.2,26.5v.3c0,0,0,.3,0,.4ZM386,55.7h0ZM391.1,40.4s0,0,0,0c0,0,0,0,0,0Z"/>
  <path class="st0" d="M413.6,62.8h-.5c-.4,0-1.8,0-3.4-.1-1.4,0-2.8-.1-3.1-.1-.5,0-2,0-3.5,0-1.5,0-3,0-3.5,0s-1.1-.3-1.1-1.6v-.3c.1-8.8.2-17.7.2-26.5s0-1.9,0-3.8c0-4.6,0-12.2,0-13.4v-1.5s.7-.7.7-.7h2.5c3.4-.1,11.5,0,11.5,0h.2s.6.3.6.3v.3c0,.2.3,1.1.3,1.5v.3c0,1,0,3.3,0,3.3v.2s-.7.7-.7.7h-.9c-.8,0-1.7,0-2.5,0-1.2,0-2.3,0-3.5,0-.3,0-.4,0-.5.2,0,1.3,0,2.7-.1,4.2,0,2.5-.2,5.2-.1,7.4v1.3c.2.2.4.2.8.2.8,0,1.7,0,2.5-.1.6,0,1.1,0,1.7-.1h0c.5,0,1,0,1.3,1h0v1.3c0,.4,0,1.4,0,1.4,0,.2,0,.8-.1,1.3,0,.5,0,1,0,1.1,0,.2,0,.4-.2.6-.3.4-.8.5-1.2.5,0,0-.1,0-.2,0h-.1c-.6,0-1.2,0-1.8,0-.6,0-1.1,0-1.7,0s-.7,0-.8.1c0,.1,0,.3,0,.5,0,.3-.1,1,0,1.1h0c0,.6,0,2.4,0,4.3,0,2.4-.1,5-.1,6.1,0,0,0,.9,0,1v1s0,0,0,0h8.6c0-.1.2,6.3.2,6.3h0c-.2.6-.5.8-.8.8h-.1c0,0-.2,0-.2,0ZM399.8,61.3c.6,0,2,0,3.4,0,1.5,0,3,0,3.5,0s1.7,0,3.1.1c1.5,0,3,.1,3.3.1h.4c0,0,.1,0,.2,0v-4.8c-.1,0-7.6.1-7.6.1-.5,0-1.1-.6-1.1-1.1v-1.2c0-.1,0-1,0-1,0-1.1,0-3.8.1-6.1,0-1.9,0-3.5,0-4.1,0-.3,0-.7,0-1.4,0-.3,0-.5,0-.6v-.2h0c.5-1,1.1-1,1.9-1s1.2,0,1.7,0c.6,0,1.1,0,1.7,0,0,0,.1,0,.2,0,0,0,.3,0,.4,0,0-.3,0-.7,0-1.1,0-.5,0-1,0-1.1,0,0,0-1,0-1.4v-1.1s0,0,0,0c0,0,0,0,0,0-.5,0-1.1,0-1.6.1-.9,0-1.8.1-2.6.1s-1.3,0-1.9-.8v-.2c-.1,0-.1-1.7-.1-1.7,0-2.3,0-4.9.1-7.5,0-1.5.1-2.9.1-4.3v-.2c.3-.7.9-1,1.7-1,1.2,0,2.4,0,3.6,0,.8,0,1.6,0,2.4,0h.4c0-.6,0-2.2,0-3v-.3c0-.2,0-.6-.1-.9-1.2,0-8.2-.2-11.3,0h-2v.9c0,1.2,0,8.5,0,13.4,0,1.9,0,3.3,0,3.8,0,8.8,0,17.7-.2,26.5v.3c0,0,0,.3,0,.4ZM406.2,55.7h0ZM411.3,40.4s0,0,0,0c0,0,0,0,0,0Z"/>
  <path class="st0" d="M661.3,63.1c-1.5,0-3.1,0-4.6,0h-.5s-.3-2.3-.3-2.3c0-.3-.3-9.3-.5-13.2,0-.2,0-1,0-2.1,0-3.5.3-10.9.2-14,0-1.3,0-4.7-.1-8,0-3.3-.1-6.3-.1-7.5s.6-1.1,1.3-1.1h5.2c0,.1.9,1,.9,1v1.8c0,.4,0,1.8,0,3.5,0,.7,0,1.3,0,1.5l.6,32.9s0,0,0,0l7.5-.3h0c.6,0,1.2.8,1.2,1.3l.4,3.9c0,.7,0,1.2-.3,1.6-.4.5-1,.6-1.5.6-2.7.3-6,.4-9.3.4ZM657.2,61.8c4.6.2,9.7,0,13.3-.3.4,0,.6,0,.7-.2,0-.1.1-.3,0-.7l-.4-3.9c0,0,0-.2-.2-.2l-7.5.3h0c-.5,0-1.1-.6-1.1-1.1l-.6-33c0-.2,0-.8,0-1.5,0-1.2.1-3,0-3.4v-1.4s-.2-.2-.2-.2h-4.8c0-.1,0-.1,0,0,0,1,0,4.1.2,7.4,0,3.3.1,6.7.1,8,0,3.1-.1,10.5-.2,14.1,0,1.1,0,1.9,0,2,.1,3.1.4,12.4.5,13.2v1.1ZM670.9,56.7h0ZM670.9,56.7s0,0,0,0h0ZM663.3,55.6h0s0,0,0,0Z"/>
  <path class="st0" d="M682.9,63.1h-5.8l-.7-.7-.2-2.3.2-27.9v-16c0-.4.5-1.3,1.1-1.3l5.3-.3h0c.7,0,1,.6,1.3.9h0c0,.1,0,3,0,3l-.2,2.3v17.9c0,0-.3,6.5-.3,6.5,0,1.9-.1,3.9-.1,5.8,0,3.4,0,11.2,0,11.2v.3s-.8.6-.8.6ZM677.6,61.9h4.9c0-1.4,0-8,0-11s0-3.9.1-5.8l.2-6.5v-18c0,0,.3-2.2.3-2.2v-2.4c0-.1-.1-.2-.2-.3l-5.1.3c0,0-.1.2-.1.2v16s-.2,27.9-.2,27.9l.2,1.8ZM677.7,16.1h0s0,0,0,0Z"/>
  <path class="st0" d="M695.9,62.9c-1.1,0-2.1-.1-2.7-.7-.2-.2-.7-.7-1.4-12.2l-2.1-18.1c-.5-3.6-.9-7.3-1.2-10.9v-.3c-.3-1.6-.4-3-.4-4.4v-.8l.4-.6h5.1c1.7,0,1.7,1.9,1.7,2.5,0,.1,0,.5,0,.9,0,.4,0,.7,0,.9.2,1.2.5,3.8.8,6,.2,1.7.4,3.7.5,4v.2c0,.3.3,2.3.5,4,.3,2.6.5,3.9.5,4.2,0,0,0,.6,0,1.2,0,.6,0,1.2,0,1.2,0,.1,0,.4.1.6,0,.1,0,.3,0,.4,0,0,0-.2,0-.3,0-.4,0-.8,0-.8.2-1.6.5-3.5.8-5.5.5-3,.9-6,1.2-8.4,0,0,0-.4,0-.9.2-2,.8-6.7,1-8.3,0,0,0-.3.1-.7.2-.5.4-1,.9-1h4.4c.5,0,1.1.3,1.1,1.5,0,.6-.2,1.4-.2,1.6-.4,3.2-.8,6.3-1.2,9.5-.6,4.6-1.1,9.5-1.8,14.2-.2,1.5-.5,2.9-.7,4.3-.5,3.2-1.1,6.4-1.4,9.7,0,.1,0,.5-.2,1.4,0,.6-.2,1.3-.2,1.5s0,.2-.2,1c0,.1,0,.4,0,.6,0,.2,0,.5,0,.6,0,.4-.2,2.1-1.3,2.1h-2.1c-.3,0-.7,0-1.1,0-.5,0-1,0-1.5,0ZM694.1,61.4c.5.4,2.2.3,3.2.3.4,0,.8,0,1.2,0h2c.1-.2.2-.7.2-.9s0-.4,0-.7c0-.2,0-.5,0-.6v-.2s.2-.6.2-.7c0-.2,0-.7.2-1.6,0-.5.1-1.1.2-1.3.4-3.4.9-6.7,1.4-9.9.2-1.4.5-2.8.7-4.3.6-4.7,1.2-9.5,1.8-14.2.4-3.1.8-6.3,1.2-9.4,0-.3.2-1.4.2-1.6,0,0,0-.1,0-.2h-4s0,0,0,.1c0,0,0,.4,0,.5-.3,1.5-.8,6.3-1,8.3,0,.5,0,.8,0,.9-.3,2.3-.7,5.4-1.2,8.4-.3,2-.6,3.9-.8,5.4h0s0,.4,0,.9c0,.5-.1,1.1-.1,1.2,0,0,0,.3-.3.8l-.2.3h-.5c-.9,0-1.3-1.1-1.3-1.8,0,0,0-.2,0-.4,0-.5-.1-.7-.1-.8,0,0,0-.6,0-1.2,0-.6,0-1.2,0-1.2,0-.3-.3-2.3-.5-4-.3-2.4-.5-3.7-.5-4.1-.1-.5-.3-1.8-.5-4.1-.3-2.3-.5-4.8-.7-6h0c0-.2,0-.6,0-1,0-.4,0-.8,0-.9,0-1.1-.2-1.3-.5-1.3h-4.3v.3c0,1.4.1,2.7.3,4.3v.3c.4,3.6.7,7.3,1.2,10.8l2.1,18.2c.3,5.1.8,10.7,1.1,11.5Z"/>
  <path class="st0" d="M726.7,62.8h-.5c-.4,0-1.8,0-3.4-.1-1.4,0-2.8-.1-3.1-.1-.5,0-2,0-3.5,0-1.5,0-3,0-3.5,0s-1.1-.3-1.1-1.6v-.3c.1-8.8.2-17.7.2-26.5s0-1.9,0-3.8c0-4.6,0-12.2,0-13.4v-1.5s.7-.7.7-.7h2.5c3.4-.1,11.5,0,11.5,0h.2s.6.3.6.3v.3c0,.1.3,1.1.3,1.5v.3c0,1,0,3.3,0,3.3v.2s-.7.7-.7.7h-.9c-.8,0-1.7,0-2.5,0-1.2,0-2.3,0-3.5,0-.3,0-.4,0-.5.2,0,1.3,0,2.8-.1,4.2,0,2.5-.2,5.2-.1,7.4v1.3c.2.2.4.2.8.2.8,0,1.7,0,2.5-.1.6,0,1.1,0,1.7-.1.4,0,1,0,1.3,1h0v1.3c0,.4,0,1.4,0,1.4,0,.2,0,.8-.1,1.3,0,.5,0,1,0,1.1,0,.2,0,.4-.2.6-.3.4-.8.5-1.2.5,0,0-.1,0-.2,0h-.1c-.6,0-1.2,0-1.8,0-.6,0-1.1,0-1.7,0s-.7,0-.8.1c0,.1,0,.3,0,.5,0,.3-.1,1,0,1.1h0c0,.6,0,2.4,0,4.3,0,2.4-.1,5-.1,6.1,0,0,0,.9,0,1v1s0,0,0,0h8.6c0-.1.2,6.3.2,6.3h0c-.2.6-.5.8-.8.8h-.1c0,0-.2,0-.2,0ZM712.8,61.3c.6,0,2,0,3.4,0,1.5,0,3,0,3.5,0s1.7,0,3.1.1c1.5,0,3,.1,3.3.1h.4c0,0,.1,0,.2,0v-4.8c-.1,0-7.6.1-7.6.1-.5,0-1.1-.6-1.1-1.1v-1.2c0-.1,0-1,0-1,0-1.1,0-3.8.1-6.1,0-1.9,0-3.5,0-4.1,0-.3,0-.7,0-1.4,0-.3,0-.5,0-.6v-.2h0c.5-1,1.1-1,1.9-1s1.2,0,1.7,0c.6,0,1.1,0,1.7,0,0,0,.1,0,.2,0,0,0,.3,0,.4,0,0-.3,0-.7,0-1.1,0-.5,0-1,0-1.1,0,0,0-1,0-1.4v-1.1s0,0,0,0c0,0,0,0,0,0-.5,0-1.1,0-1.6.1-.9,0-1.8.1-2.6.1s-1.3,0-1.9-.8v-.2c-.1,0-.1-1.7-.1-1.7,0-2.3,0-4.9.1-7.5,0-1.5.1-2.9.1-4.3v-.2c.3-.7.9-1,1.7-1,1.2,0,2.4,0,3.6,0,.8,0,1.6,0,2.4,0h.4c0-.6,0-2.2,0-3v-.3c0-.2,0-.6-.1-.9-1.2,0-8.2-.2-11.3,0h-2v.9c0,1.2,0,8.5,0,13.4,0,1.9,0,3.3,0,3.8,0,8.8,0,17.7-.2,26.5v.3c0,0,0,.3,0,.4ZM719.2,55.7h0ZM724.3,40.4s0,0,0,0h0Z"/>
  <path class="st0" d="M979.4,63.1h-1.1c-2.4,0-4.3-.7-6.2-2.5-2.4-2.2-3.2-3.8-3.3-6.9,0-.3,0-1.4-.1-2.1,0-.5,0-.9,0-1v-5.3l.7-.7h1.2c1.5,0,4.8.1,4.9.1h.2s.8.5.8.5v7.1c0,.2,0,.6,0,1.1,0,.4,0,.8,0,1v.3c.8,1,1.6,1.4,2.8,1.4s1.9-.4,2.3-1.3c0-.1,0-.3,0-.5,0-.3,0-.7,0-.9v-2.1c0-4.4-1-5.3-3.7-7.9-.4-.4-.9-.9-1.4-1.4-1.4-1.3-2.6-2.8-3.8-4.2l-.7-.8c-1.6-1.8-3.2-5.3-3.7-7.8h0v-3c0-4.3.6-9,5.3-11.3.4-.2,1.5-.6,1.6-.6h.2s4.5,0,4.5,0c.5.2,1.7.6,2.2.7h.1c.2.1.5.2.7.3.7.3,1.6.6,2.2,1.2,1.6,1.6,2,3.7,2.4,5.8v.4c0,0,0,6.8,0,6.8l-.8.6h-6.6v-6.8c-.1-.5-.4-1.2-.5-1.4-.2-.7-1-.8-1.5-.8s-2,.8-2,1.5v4.9c0,.2.1.5.1.8.7,2.3,2.4,3.9,4.1,5.5l.7.7c3.8,3.7,7.4,7.8,8.2,12.9,0,.1,0,.3,0,.5,0,.5.1.7.1.8v2.3c0,3.9-.2,6.5-3.4,9.7-1.2,1-2.3,1.7-3.9,1.9-.2,0-.8,0-1.3,0-.7,0-1.3.1-1.6.1ZM969.7,45.8v4.8c0,0,0,.4,0,.9,0,.8.1,1.8.1,2.2.1,2.8.7,4.1,2.9,6.1,1.7,1.5,3.2,2.2,5.4,2.2h1.1c.2,0,.8,0,1.5-.1.6,0,1.2,0,1.3,0,1.3-.2,2.1-.7,3.2-1.6,2.7-2.7,3-4.8,3-8.8v-2.3c0-.1,0-.4-.1-.6,0-.3,0-.6,0-.6-.7-4.7-4.2-8.6-7.8-12.2l-.7-.7c-1.8-1.7-3.7-3.4-4.5-6.1v-.2c0,0,0-.4-.1-.7h0v-5.1c0-1.6,1.9-2.7,3.2-2.7s2.3.6,2.6,1.5c.2.4.5,1.5.5,1.6v.2s0,5.7,0,5.7h5s0-6.5,0-6.5c-.4-2-.7-3.8-2-5.2-.4-.5-1.1-.7-1.7-.9-.3,0-.5-.2-.8-.3-.6-.1-1.8-.6-2.2-.7h-4.1c-.4.1-1.1.4-1.4.5-4.1,2-4.7,6.1-4.7,10.3v2.8c.4,2.2,2,5.6,3.4,7.2l.7.8c1.2,1.5,2.4,2.9,3.7,4.1.5.5,1,.9,1.4,1.3,2.8,2.6,4,3.8,4,8.7v2.1c0,.2,0,.6,0,1,0,.2,0,.5,0,.5v.2c-.5,1.6-2.4,2.1-3.5,2.1-1.6,0-2.8-.6-3.7-2l-.3-.6h0c0-.3,0-.8,0-1.2,0-.5,0-1,0-1.2v-6.4c-.8,0-3.5-.1-4.7-.1h-.7Z"/>
  <path class="st0" d="M1010.6,62.7h-4.5l-.7-.7v-7.6c0-1,0-3.6-.1-6.2,0-2.3,0-4.5,0-5.6h0c-.6-.2-1.6-.2-2.2-.2h-1.2l-.2,2.1-.5,17.2c0,.7-.9.9-1.3.9h-.3c-1.3,0-4.6-.1-4.8-.1h-.2s-.7-.7-.7-.7v-13.1c0-1.8,0-7.2,0-12.6,0-5.4,0-10.7,0-12.5s0-1.4,0-2.3c0-.9,0-1.8,0-2.1v-1.1c0-.7.1-2.4.1-2.4v-.3s.6-.4.6-.4h5.8c.4,0,.6.3.9.8v.2c0,.3.1,1,.2,1.6,0,.7,0,1.3,0,1.5v.3c0,2.1,0,4.1-.1,6.1,0,1.9,0,3.9,0,6v3.7s0,0,0,0h3.6c0-1,0-3.9,0-6.7,0-2.9,0-5.8,0-6.8s0-1.5,0-2.6c0-1.1,0-2.2,0-2.6v-.2c.2-.5.6-.8.9-1,.1,0,.2-.2.3-.2l.4-.4.4.4c.3,0,1.2.1,1.9.1,2,0,2.9.1,3.2.6.1.2.2.4.2.6v12.8c0,4.6-.3,24.9-.5,29.3,0,.7,0,1.6-.7,2.5h0c-.2.2-.4.4-.4.5v.8l-.5.5ZM999.8,61.8s0,0,0,0h0ZM1006.6,61.5h3.3v-.2c0-.2,0-.5.8-1.1.4-.5.4-1.1.4-1.7.2-4.3.5-24.6.5-29.2v-12.6c-.5-.1-1.5-.1-2.2-.2-1.1,0-1.7,0-2.1-.2,0,0-.1,0-.2.1-.2.1-.3.2-.4.3,0,.5,0,1.5,0,2.5,0,1.1,0,2.2,0,2.6,0,1,0,4-.1,6.9,0,2.9,0,5.8,0,6.8s-.4,1.1-1.1,1.1h-3.9c-.6,0-1.1-.8-1.1-1.3v-3.7c0-2,0-4,0-6,0-2,0-4,0-6.1v-.3c0-.2,0-.8,0-1.5,0-.6,0-1.3-.1-1.6h0s-5,0-5,0c0,.5,0,1.5,0,1.9v1.1c0,.3,0,1.2,0,2.2,0,1,0,1.9,0,2.3,0,1.8,0,7.2,0,12.6,0,5.4,0,10.7,0,12.5v12.6c.8,0,3.4.1,4.5.1h.3s0,0,0,0l.5-17,.2-2.2c0-.6.6-1.1,1.1-1.1h1.3c.8,0,2,0,2.7.2h.1s.6.7.6.7v.2c0,.9,0,3.3,0,5.8,0,2.6.1,5.2.1,6.2v7.1Z"/>
  <path class="st0" d="M1027.2,63.3h-1.5c-1.1,0-2.6-.3-3.5-1.3-1.9-1.7-3.1-3.5-3.7-5.6-.7-3.5-.9-6.6-1.2-10.6v-.6c0-1.1,0-4.4.1-7.6,0-3.2,0-6.3,0-7.4,0-5.8,1.3-15.6,10.1-15.6s8.2,2.5,9.2,7.5c.3.6.4,1.8.4,1.9v24.3l-.3,5.4h0c-.2.4-.3.8-.3,1.2-.1.4-.2.9-.5,1.3-1.9,3.8-3.9,7-8.9,7ZM1027.7,15.9c-7.8,0-8.9,9-8.9,14.4s0,4.2,0,7.4c0,3.2-.1,6.4-.1,7.6v.5c.2,3.9.4,6.9,1.1,10.3.5,1.9,1.5,3.5,3.3,5.1.6.7,1.8,1,2.7,1h1.5c4.4,0,6.1-2.8,7.9-6.4.2-.3.3-.7.4-1.1,0-.4.2-.8.4-1.2l.3-5.1v-24.3c0-.2-.1-1.2-.3-1.4v-.2c-1-4.5-3.6-6.6-8.1-6.6ZM1027.5,57.3c-1.4,0-2.9-.9-3.2-2.5v-24.6c0-.6,0-2,0-3.5,0-1.4,0-2.9,0-3.4s.2-.7.3-.9v-.2c.2,0,.2-.1.3-.2.6-.6.9-.9,1.2-1,.3-.1,1.1-.4,1.4-.4h.2c1.7,0,2.9,1.6,2.9,3v10.7c0,1.1,0,4.2-.1,7.3,0,3,0,5.9,0,6.9s0,1.4,0,2.5c0,1.1-.1,2.2-.1,2.6,0,1.9-.9,3.7-2.9,3.7ZM1025.8,23.1c0,.1,0,.2-.1.3,0,.5,0,2,0,3.5,0,1.4,0,2.9,0,3.4v24.5c.1.9,1.3,1.4,2,1.4,1.6,0,1.7-2.3,1.7-2.5,0-.4,0-1.5.1-2.7,0-1,0-2.1,0-2.4,0-1,0-3.9,0-6.9,0-3.1.1-6.2.1-7.3v-10.7c0-.9-.7-1.8-1.7-1.8h-.2c-.1,0-.6.2-1,.4h0c-.2.2-.5.5-.7.7,0,0-.1.1-.2.2Z"/>
  <path class="st0" d="M1060.5,63.5c-1.1,0-2.1-.1-2.8-.7-.2-.2-.7-.7-1.5-15-.2-1.9-.4-4.3-.5-6.6,0-.6,0-1.2-.1-1.9l-1.8,16.4c0,.1,0,.5-.2,1.4,0,.6-.2,1.3-.2,1.5s0,.2-.2,1c0,.1,0,.4,0,.6,0,.2,0,.5,0,.6,0,.4-.2,2.1-1.3,2.1h-2.1c-.3,0-.7,0-1,0-1.6,0-3.3.2-4.2-.7-.2-.2-.7-.7-1.5-12.2-.7-6.7-1.4-12.3-2.1-18.1-.5-3.5-.8-7.3-1.2-10.8v-.4c-.3-1.6-.4-3-.4-4.4v-.8l.4-.6h5c1.7,0,1.7,1.9,1.7,2.5,0,.1,0,.5,0,.9,0,.4,0,.7,0,.9.3,1.4.6,4.8.9,7.3.2,1.4.3,2.5.3,2.8h0c0,.4.3,2.9.5,4.9.4,3.1.5,4.6.5,4.9,0,0,0,.5,0,1,0,.6,0,1.3,0,1.4,0,0,0,.3,0,.5,0,0,0,.1,0,.2,0-.4,0-.8,0-.9l.2-1.3c.5-3.9,1.5-10.5,1.9-13.9,0,0,0-.4,0-.9.2-2,.8-6.8,1-8.3.3-1.5,1.1-1.7,5.5-1.7h.1c1.7,0,1.7,1.8,1.7,2.5,0,.1,0,.5,0,.8,0,.4,0,.7,0,.9.2,1.3.4,4,.5,6.5,0,1.5.2,3.2.3,3.5v.2c0,.3.3,2.5.5,4.2.3,2.5.5,3.7.5,4,0,0,.1.8.3,1.5.3,1.9.4,2.2.4,2.3,0,0,0,.3,0,.4,0-.2.1-.4.2-.8.7-4.2,1.3-8.9,1.7-12.8l.3-2.4c0,0,0-.4,0-.8.2-2,.8-6.7,1-8.3,0-.3.1-.6.2-.8.2-.5.4-1,.9-1h4.4c.5,0,1.1.3,1.1,1.5,0,.5-.2,1.3-.2,1.6-.4,3.2-.8,6.3-1.2,9.5-.6,4.6-1.1,9.5-1.8,14.2-.3,1.8-.6,3.7-.9,5.6-.5,2.9-.9,5.9-1.3,8.8,0,.1,0,.5-.2,1.4,0,.6-.2,1.3-.2,1.5s0,.2-.2,1c0,.1,0,.4,0,.6s0,.5,0,.6c0,.4-.2,2.1-1.3,2.1h-2.1c-.3,0-.7,0-1,0-.5,0-1,0-1.5,0ZM1058.6,62c.6.4,2.2.3,3.3.3.4,0,.8,0,1.1,0h2c.1-.2.2-.7.2-.9s0-.4,0-.7c0-.2,0-.5,0-.6v-.2s.2-.6.2-.7c0-.2,0-.7.2-1.6,0-.5.1-1.1.1-1.3.3-3,.8-6,1.3-8.9.3-1.9.6-3.7.9-5.5.6-4.7,1.2-9.5,1.8-14.2.4-3.1.8-6.3,1.2-9.4,0-.4.2-1.5.2-1.6,0,0,0,0,0-.2h-4s0,.1,0,.1c0,.1,0,.4,0,.5h0c-.3,1.6-.8,6.3-1,8.3,0,.5,0,.8,0,.9l-.3,2.4c-.5,3.9-1,8.7-1.7,12.9-.2,1.2-.6,2.5-1.6,2.4-.6,0-.9-.6-.9-1,0,0,0-.3,0-.6,0-.3,0-.6,0-.7,0-.1-.2-1.3-.4-2.1-.3-1.6-.3-1.6-.3-1.7,0-.2-.3-2.3-.5-3.9-.3-2.4-.5-3.9-.5-4.3,0-.4-.1-1.4-.3-3.7-.1-2.3-.3-5.2-.5-6.4h0c0-.2,0-.6,0-1,0-.4,0-.8,0-.9,0-1.1-.2-1.3-.5-1.3h-.1c-4.1,0-4.2.2-4.3.7-.3,1.5-.8,6.2-1,8.2,0,.5,0,.8,0,.9-.4,3.5-1.3,10-1.9,14l-.2,1.2s0,.5,0,1.1c0,.5,0,.9,0,1,0,.2,0,.4-.2.7v.4h-.7c-.9,0-1.3-1.1-1.3-1.8,0,0,0-.3,0-.5,0-.4-.1-.6-.1-.7s0-.8,0-1.4c0-.5,0-1,0-1,0-.3-.3-2.8-.5-4.8-.3-2.9-.5-4.4-.5-4.8,0-.3-.2-1.3-.3-2.8-.3-2.5-.7-5.9-.9-7.3h0c0-.2,0-.6,0-1,0-.4,0-.8,0-.9,0-1.1-.2-1.3-.5-1.3h-4.3v.3c0,1.4.1,2.7.3,4.3v.4c.4,3.6.7,7.3,1.2,10.8.7,5.8,1.3,11.5,2.1,18.2.3,5.1.8,10.6,1.1,11.5.6.4,2.2.4,3.3.3.4,0,.8,0,1.1,0h2c.1-.2.2-.7.2-.9s0-.4,0-.7c0-.2,0-.5,0-.6v-.2s.2-.6.2-.7c0-.2,0-.7.2-1.6,0-.5.1-1.1.1-1.3l2.3-20.8h1.5v.5c.2,1.7.4,3.7.5,5.7.1,2.3.3,4.7.5,6.6.3,6.3.8,13.3,1.2,14.3Z"/>
  <path class="st0" d="M1085.3,63.1h-1.1c-2.4,0-4.3-.7-6.2-2.5-2.4-2.2-3.2-3.8-3.3-6.9,0-.3,0-1.4-.1-2.1,0-.5,0-.9,0-1v-5.3l.7-.7h1.2c1.5,0,4.8.1,4.9.1h.2s.8.5.8.5v7.1c0,.2,0,.6,0,1.1,0,.4,0,.8,0,1v.3c.8,1,1.6,1.4,2.8,1.4s1.9-.4,2.3-1.3c0-.1,0-.3,0-.5,0-.3,0-.7,0-.9v-2.1c0-4.4-1-5.3-3.7-7.9-.4-.4-.9-.9-1.4-1.4-1.4-1.3-2.6-2.8-3.8-4.2l-.7-.8c-1.6-1.8-3.2-5.3-3.7-7.8h0v-3c0-4.3.6-9,5.3-11.3.4-.2,1.5-.6,1.6-.6h.2s4.5,0,4.5,0c.5.2,1.7.6,2.2.7h.1c.2.1.5.2.7.3.7.3,1.6.6,2.2,1.2,1.6,1.6,2,3.7,2.4,5.8v.4c0,0,0,6.8,0,6.8l-.8.6h-6.6v-6.8c-.1-.5-.4-1.2-.5-1.4-.2-.7-1-.8-1.5-.8s-2,.8-2,1.5v4.9c0,.2.1.5.1.8.7,2.3,2.4,3.9,4.1,5.5l.7.7c3.8,3.7,7.4,7.8,8.2,12.9,0,.1,0,.3,0,.5,0,.5.1.7.1.8v2.3c0,3.9-.2,6.5-3.4,9.7-1.2,1-2.3,1.7-3.9,1.9-.2,0-.8,0-1.3,0-.7,0-1.3.1-1.6.1ZM1075.7,45.8v4.8c0,0,0,.4,0,.9,0,.8.1,1.8.1,2.2.1,2.8.7,4.1,2.9,6.1,1.7,1.5,3.2,2.2,5.4,2.2h1.1c.2,0,.8,0,1.5-.1.6,0,1.2,0,1.3,0,1.3-.2,2.1-.7,3.2-1.6,2.7-2.7,3-4.8,3-8.8v-2.3c0-.1,0-.4-.1-.6,0-.3,0-.6,0-.6-.7-4.7-4.2-8.6-7.8-12.2l-.7-.7c-1.8-1.7-3.7-3.4-4.5-6.1v-.2c0,0,0-.4-.1-.7h0v-5.1c0-1.6,1.9-2.7,3.2-2.7s2.3.6,2.6,1.5c.2.4.5,1.5.5,1.6v.2s0,5.7,0,5.7h5s0-6.5,0-6.5c-.4-2-.7-3.8-2-5.2-.4-.5-1.1-.7-1.7-.9-.3,0-.5-.2-.8-.3-.6-.1-1.8-.6-2.2-.7h-4.1c-.4.1-1.1.4-1.4.5-4.1,2-4.7,6.1-4.7,10.3v2.8c.4,2.2,2,5.6,3.4,7.2l.7.8c1.2,1.5,2.4,2.9,3.7,4.1.5.5,1,.9,1.4,1.3,2.8,2.6,4,3.8,4,8.7v2.1c0,.2,0,.6,0,1,0,.2,0,.5,0,.5v.2c-.5,1.6-2.4,2.1-3.5,2.1-1.6,0-2.8-.6-3.7-2l-.3-.6h0c0-.3,0-.8,0-1.2,0-.5,0-1,0-1.2v-6.4c-.8,0-3.5-.1-4.7-.1h-.7Z"/>
  <path class="st0" d="M29.7,142.8h-.2c-.2-.2-.5-.5-.7-.8-.3-.3-.5-1-.5-1.3-.4-3.6-3.7-16.5-5.2-21.3,0,4.5,0,10.1.1,15.1,0,2.2,0,4.3,0,6.1,0,.9-1,1.9-1.9,1.9-1.4.2-3.4.3-5.2-.7l-.3-.2v-1.8c0-.2,0-1.3,0-1.3,0-9.9,0-20,0-29.8,0-4,0-7.9,0-11.9,0-1,.4-2.1,1.3-2.1.3,0,.7,0,1,0,2-.1,3.8-.2,5.1.9.8.8,1.2,2,1.3,3.7.6,2.3,1.2,4.5,1.8,6.9.8,2.9,1.7,5.7,2.6,8.4.7,2.1,1.4,4.2,2,6.4.2.4.4,1.2.6,1.8,0-.1,0-.2,0-.3,0-1.1,0-2.1,0-2.5,0-.7-.2-6.8-.2-7.5,0-2.4-.2-14.1-.3-16.7v-.2s.6-.8.6-.8h5.4c.8,0,1.2.5,1.4.9h0c0,.1,0,.4,0,.4v1.6c0,2,0,4,0,5.9,0,1.9,0,3.9,0,5.9,0,9.6-.5,31.9-.5,32.1v.2s-.7.7-.7.7h-7.6ZM22.4,116.6h.6l.2.2c1.1,1,5.8,20.2,6.2,23.9,0,.2.1.5.2.6h0c0,.1.2.2.3.4h6.7c0-2.6.5-23,.5-32,0-2,0-4,0-5.9,0-1.9,0-3.9,0-5.9v-1.4c-.2-.3-.2-.3-.3-.3h-4.9c0,3.1.3,14.2.3,16.6s.1,6.8.2,7.5c0,.4,0,1.5,0,2.5,0,1.1,0,2.1,0,2.5s0,.8-.9.8c-.3,0-.5,0-.7-.2-.3-.3-.5-.7-.5-1,0,0,0-.3,0-.4,0-.3-.1-.5-.1-.7,0-.3-.4-1.6-.5-1.8h0c-.7-2.3-1.4-4.5-2-6.5-.9-2.8-1.8-5.6-2.6-8.5-.6-2.4-1.2-4.6-1.8-6.9v-.2c0-1.4-.3-2.4-.9-2.9-.9-.8-2.4-.7-4.2-.6-.3,0-.7,0-1,0,0,0-.2.5-.2.9,0,3.9,0,7.9,0,11.9,0,9.8.1,20,0,29.8,0,0,0,1.1,0,1.3v1.1c1.4.6,3,.5,4.3.4.3,0,.7-.5.7-.7,0-1.8,0-3.9,0-6.1,0-5.8-.2-12.4-.1-17.2v-.2s.5-.5.5-.5Z"/>
  <path class="st0" d="M50.1,142.9h-5.8l-.7-.7-.2-2.2h0s.2-27.9.2-27.9v-16c0-.4.5-1.3,1.1-1.3l5.3-.3c.7,0,1,.6,1.3,1h0c0,.1,0,3,0,3l-.2,2.3v17.9c0,0-.3,6.5-.3,6.5,0,1.9-.1,3.9-.1,5.8,0,3.4,0,11.2,0,11.2v.3s-.8.6-.8.6ZM44.8,141.7h4.9c0-1.4,0-8,0-11s0-3.9.1-5.8l.2-6.5v-18c0,0,.3-2.2.3-2.2v-2.4c0-.1-.1-.2-.2-.3l-5.1.3c0,0-.1.2-.1.2v16s-.2,27.9-.2,27.9l.2,1.8ZM44.8,95.9h0s0,0,0,0Z"/>
  <path class="st0" d="M65.2,142.9c-.1,0-.3,0-.4,0-4.1,0-6.6-2-7.7-6.2v-.3c-.5-1.2-.8-2.3-.8-3.8l.4-23.8c0-5.3.6-10.8,5.9-13.5,1.1-.6,2.3-.8,3.5-.7,3.8,0,7.6.5,9.1,5.3.2.5.6,2.1.6,2.4l-.2,11h-5.6c0,0-.7-.8-.7-.8v-9c0-.2-.4-.7-.5-.9-.2-.3-.7-.5-1.4-.6-1.4,0-2,.2-2.5,1.1,0,.1-.1.4-.2.5l-.5,31.2c0,.5,1,1,1.5,1,1.1,0,2.3-.6,2.3-1.9l.2-8.2c0-.2-.1-.8-.3-1.1h-1.9c0,0-.8-.7-.8-.7v-4.1c.1-.7.8-1.2,1.3-1.2s1.4,0,2.5,0c1.1,0,2.2,0,2.6,0s1,0,1.8,0c.7,0,1.4,0,1.6,0h.4l.7.7v.2c0,.2,0,.9,0,1.6,0,.6,0,1.2,0,1.4,0,.8,0,2.7,0,3.1,0,1.7-.2,8-.4,12.1,0,1.5,0,2.8-.1,3.4,0,1.1-.4,1.7-1.1,1.7h-2.5q0,0,0,0c-.5,0-.8-.4-1-.8-.1-.2-.4-.6-.5-.6h0l-.4.3c-1.7.9-2.8,1.4-4.9,1.4ZM65.8,95.7c-.9,0-1.7.2-2.5.6-4.7,2.4-5.2,7.3-5.3,12.5l-.4,23.8c0,1.3.2,2.3.6,3.4v.4c1.1,3.6,3.1,5.3,6.7,5.3,1.9,0,2.9-.3,4.7-1.2l.7-.6h.4c.7.2,1.1.8,1.4,1.3,0,0,.1.2.2.3h2.2c0,0,0-.4,0-.5,0-.6,0-1.9.1-3.4.1-4.1.4-10.4.4-12.1s0-2.3,0-3.1c0-.1,0-.7,0-1.3,0-.5,0-1,0-1.4h0c-.2,0-.8,0-1.5,0-.8,0-1.6,0-1.9,0-.4,0-1.6,0-2.7,0-1.1,0-2.1,0-2.5,0v3.5c-.1,0-.1,0-.1,0h2c0,0,.5.6.5.6.2.4.5,1.3.5,1.8l-.2,8.2c0,1.8-1.5,3-3.5,3s-2.7-.8-2.7-2.2l.5-31.5h0c0-.1.2-.5.2-.6.8-1.7,2.2-1.9,3.6-1.9.8,0,1.8.4,2.4,1.1.2.3.7,1,.7,1v.2c.1,0,0,8.9,0,8.9h0c0,0,3.9.1,3.9.1l.2-9.8c0-.2-.3-1.6-.5-2-1.1-3.7-3.8-4.5-8-4.5-.1,0-.3,0-.4,0ZM72.1,141.5h0,0Z"/>
  <path class="st0" d="M98,142.6h-4.5l-.7-.7v-7.6c0-1,0-3.6-.1-6.2,0-2.3,0-4.5,0-5.6h0c-.6-.2-1.6-.2-2.2-.2h-1.2l-.2,2.1-.5,17.2c0,.7-.9.9-1.3.9h-.3c-1.3,0-4.6-.1-4.7-.1h-.2s-.7-.7-.7-.7v-13.1c0-1.8,0-7.2,0-12.6,0-5.4,0-10.7,0-12.5s0-1.4,0-2.3c0-.9,0-1.8,0-2.1v-1.1c0-.7.1-2.4.1-2.4v-.3s.6-.4.6-.4h5.8c.4,0,.6.3.9.8v.2c0,.3.1,1,.2,1.6,0,.7,0,1.3,0,1.5v.3c0,2.1,0,4.1-.1,6.1,0,1.9,0,3.9,0,6v3.7s0,0,0,0h3.6c0-1,0-3.9,0-6.7,0-2.9,0-5.8,0-6.8s0-1.5,0-2.6c0-1.1,0-2.2,0-2.6v-.2c.2-.5.6-.8.9-1,.1,0,.2-.2.3-.2l.4-.4.4.4c.3,0,1.2.1,1.9.1,2,0,2.9.1,3.2.6.1.2.2.4.2.6v12.8c0,4.6-.3,24.9-.5,29.3,0,.7,0,1.6-.7,2.5h0c-.2.2-.4.4-.4.5v.8l-.5.5ZM87.2,141.6s0,0,0,0h0ZM93.9,141.4h3.3v-.2c0-.2,0-.5.8-1.1.4-.5.4-1.1.4-1.7.2-4.3.5-24.6.5-29.2v-12.6c-.5-.1-1.5-.1-2.2-.2-1.1,0-1.7,0-2.1-.2,0,0-.1,0-.2.1-.2.1-.3.2-.4.3,0,.5,0,1.5,0,2.5,0,1.1,0,2.2,0,2.6,0,1,0,3.9,0,6.9,0,2.9-.1,5.8-.1,6.8s-.4,1.1-1.1,1.1h-3.9c-.6,0-1.1-.8-1.1-1.3v-3.7c0-2,0-4,0-6,0-2,.1-4,.1-6.1v-.3c0-.2,0-.8,0-1.5,0-.6,0-1.3-.1-1.6h0s-5,0-5,0c0,.5-.1,1.5-.1,1.9v1.1c0,.3,0,1.2,0,2.2,0,1,0,1.9,0,2.3,0,1.8,0,7.2,0,12.6,0,5.4,0,10.7,0,12.5v12.6c.8,0,3.4.1,4.5.1h.3s0,0,0,0l.5-17,.2-2.2c0-.6.6-1.1,1.1-1.1h1.3c.8,0,2,0,2.7.2h.1s.6.7.6.7v.2c0,.9,0,3.3,0,5.8,0,2.6.1,5.2.1,6.2v7.1Z"/>
  <path class="st0" d="M116,142.9h-4.6c-.5,0-1.8,0-2.3-.8h0v-1.6c0-.2,0-.9.1-1.7,0-.7,0-1.4,0-1.6,0-1.1,0-4.1.2-7.1,0-2.8.2-5.7.2-6.7v-4.5c0,0,0-.4.1-.7,0-.2,0-.4,0-.5,0-1.2,0-4.6.2-7.8,0-3.2.2-6.5.2-7.6v-.5c0,0,0-.2,0-.3h-4.6c-.2,0-.4,0-.6-.1,0,0-.1,0-.2,0-.3,0-.6-.2-.8-.7h0v-5.2h0c.2-.6.5-.9.9-.9h.9c.6,0,3.4,0,6.3,0,3,0,6,.1,6.6.1h3.1c.2,0,.4,0,.6.1.1,0,.2,0,.3,0h.3s.4.6.4.6v6.1h-6v.2c0,0,0,22.7,0,22.7,0,.7-.1,4.1-.3,7.6-.1,3.4-.3,6.9-.3,7.6v1.3c0,.1,0,.3,0,.6,0,.2,0,.4-.1.5v.2s-.4.6-.4.6ZM110.1,141.6c.1,0,.5.2,1.2.2h3.9c0-.1,0-.2,0-.4,0-.1,0-.3,0-.3v-1.2c0-.7.1-4.1.3-7.6.1-3.4.3-6.9.3-7.6v-23s.3-.7.3-.7l.5-.5h5.4v-4.4c0,0-.1,0-.2,0-.1,0-.2,0-.3,0h-3c-.6,0-3.6,0-6.6-.1-2.9,0-5.7,0-6.3,0h-.7v4.4c.1,0,.2,0,.3.1,0,0,.1,0,.2,0h4.6c.5,0,1.1.3,1.1,1.5v.5c0,1.2,0,4.3-.2,7.6,0,3.2-.2,6.6-.2,7.8s0,.4-.1.7c0,.2,0,.4,0,.5v4.5c0,1,0,3.8-.2,6.7,0,2.9-.2,6-.2,7.1s0,.9-.1,1.7c0,.7,0,1.4,0,1.6v1Z"/>
  <path class="st0" d="M257.9,142.7h-1.6c-.7-.6-.7-1.6-.6-2.3v-.3c0-.2,0-.8,0-1.2,0-.3,0-.5,0-.6v-24.2c0-.3,0-1.1,0-2,0-.9-.1-1.8-.1-2v-14.3l.2-.2c0,0,.1-.2.2-.3.3-.4.5-.8,1-.8h9.3c1.1,0,2.6.1,3.7.7.5.2.9.6,1.2,1,0,0,.1.2.2.2,1.8,2,2.7,4.7,2.7,8.1v1.5c0,2.1,0,5.1,0,6.5,0,0,0,.6-.1,1.2,0,.5,0,1,0,1.1,0,0,0,.5-.1.8,0,.3,0,.6,0,.7-.4,2.1-2.3,4.5-4.4,5.3-.9.4-2.2.6-3,.6s-1.1,0-1.8.1c-.5,0-1,0-1.3,0,0,2.6,0,5.1,0,7.7,0,3.4-.1,7,0,10.7v.4s-.3.2-.3.2l-.2.2s0,0-.1.1c-.2.2-.5.6-1,.6-1.1.2-2.1.2-3.3.2ZM257,141.5h.9c1.3,0,2.1,0,3.2-.2.1,0,.2-.1.3-.2h0c0-.2.2-.3.3-.4-.1-3.7,0-7.1,0-10.5,0-2.8,0-5.4,0-8.1v-.3s.6-.4.6-.4h.2c.2,0,.9,0,1.6,0,.8,0,1.6-.1,1.9-.1.9,0,2-.2,2.6-.5,1.6-.7,3.3-2.7,3.7-4.3,0-.2,0-.5,0-.8,0-.3,0-.6,0-.7,0,0,0-.6.1-1.2,0-.5,0-1,0-1.1.1-1.4,0-4.4,0-6.4v-1.5c0-3.2-.8-5.6-2.4-7.3,0,0-.1-.1-.2-.2-.2-.3-.5-.6-.8-.7-.8-.4-1.9-.6-3.3-.6h-9.1c0,0-.1.2-.2.3,0,.1-.1.2-.2.3v13.8c0,.3,0,1.1,0,2,0,.9.1,1.8.1,2v24.2c0,0,0,.2,0,.5,0,.5,0,1.1,0,1.3s0,.2,0,.3c0,.3,0,.8,0,1ZM262.7,117.3c-1.2,0-1.2-.9-1.2-1.5v-.2c0-1.1,0-4.2.1-7.2,0-3,0-6,0-7v-.2c.3-1.1,1.3-1,1.7-1,0,0,.1,0,.2,0,2.3,0,3.9,1.1,4.1,2.9.1,2.4.1,3.8.1,5.9s0,3.5-.1,5c-.5,2.4-2.9,3.2-5,3.2ZM262.9,101.5c0,1.1,0,4,0,6.9,0,3.1-.1,6.1-.1,7.2v.2c0,.1,0,.2,0,.3,1.6,0,3.5-.6,3.8-2.2.1-1.4.1-3.4.1-4.8,0-2.1,0-3.5-.1-5.8-.2-1.7-2.5-1.8-2.9-1.8s-.2,0-.3,0c-.1,0-.3,0-.4,0h0s0,0,0,0ZM262.6,116.1h0Z"/>
  <path class="st0" d="M294.6,142.9h-6c-1.3,0-1.3-1.7-1.3-2.4,0-1.2-.5-4.6-.7-5.7h-5.2c-.2.4-.3,1.9-.4,2.9-.2,2.5-.3,4.9-1.9,4.9h-.5c-.3,0-1.2,0-2.1-.1-.9,0-1.8,0-2,0s-.4,0-.6-.2c-.3-.3-.3-.8-.2-1.1h0c0-.2,0-.5.2-1.2,0-.4.2-.8.2-.9.4-2.8.7-5.6,1-8.3.5-4.3,1-8.7,1.7-13.1.2-1.7.4-3.4.7-5,.3-1.7.5-3.4.7-5.1,0-.8.3-1.6.5-2.4.2-.7.3-1.3.4-1.9,0-1.5,1.1-7.6,1.5-8.2l.2-.3h.3c.6,0,1.2,0,1.9,0,1.7,0,3.4,0,5.2,0h.4s.1.4.1.4c.7,2.3,1,4.6,1.3,6.9.1,1.1.3,2.1.4,3.1,0,1.2.3,2.4.5,3.6.1.7.2,1.3.3,2l1.1,8.8c0,.2,0,.4.1.6,0,.3,0,.4,0,.6.5,5.1,1.7,13,2.1,15.6v.9c.2.7.3,1.3.4,1.9.1.9.3,1.9.3,2.9v.2l-.5.5ZM281.2,133.7h6.1c.7.7,1.2,6.3,1.2,6.9,0,.9,0,1.2.2,1.2h5.3c0-.8-.1-1.5-.3-2.3,0-.6-.2-1.3-.3-1.9v-.8c-.5-2.6-1.7-10.5-2.2-15.7,0,0,0-.2,0-.4,0-.4-.1-.6-.1-.8l-1.1-8.7c0-.6-.2-1.3-.3-1.9-.2-1.2-.4-2.5-.5-3.7-.2-1-.3-2.1-.4-3.1-.3-2.1-.5-4.3-1.1-6.3-1.6-.1-3.1,0-4.6,0-.5,0-1,0-1.5,0-.3,1.2-1.2,5.9-1.2,7.3-.1.8-.3,1.4-.5,2.1-.2.8-.4,1.5-.5,2.2-.2,1.8-.4,3.5-.7,5.2-.3,1.6-.5,3.3-.7,4.9-.7,4.3-1.2,8.8-1.7,13-.3,2.7-.6,5.5-1,8.3,0,0,0,.3-.2,1,0,.4-.2.8-.2.9,0,0,0,0,0,.2,0,0,0,0,0,0,.4,0,1.1,0,1.7,0,.9,0,1.8,0,2,0h.5c.4-.2.6-2.7.7-3.8.2-2.3.3-4,1.5-4ZM286.4,129.3h-4.8c-.2-.1-.5-.3-.6-.5-.2-.3-.2-.6-.1-.9,0-.9.2-1.8.3-2.6,0-.4.1-.7.2-1.1.2-1.4.4-2.7.6-4,.4-2.6.9-5.3,1-8.3,0-.4.4-1.1,1.1-1.1s1,0,2,9.8c0,.6.1,1.1.1,1.4h0s0,.5,0,.5c0,3.6.3,4.7.5,5.2.1.4.2.7,0,1.2h0c0,.1-.3.6-.3.6ZM282,128.1h3.7c0,0,0-.1,0-.2-.2-.6-.5-1.8-.5-5.6h0c0-.3-.1-.9-.2-1.8-.2-1.6-.5-5-.8-7.1-.1,2.4-.5,4.7-.9,6.9-.2,1.3-.5,2.7-.6,4,0,.4-.1.8-.2,1.1-.2.9-.3,1.7-.3,2.5h0Z"/>
  <path class="st0" d="M304.1,142.8c-.7,0-1.6,0-2.4-.2-.6,0-1.2-.1-1.5-.1h-.2l-.6-.6c-.3-.4-.3-2.8-.3-3.3,0-1.2,0-6.9,0-12.6,0-5.8.1-11.6.1-12.9,0-2.5,0-5.1,0-7.5,0-2.5,0-5,0-7.6s0-.3,0-.4c0-1-.1-2.6,1.3-3h.1s1.6,0,1.6,0c2.6,0,5.2,0,7.9.2.6,0,3.3.4,4.5,1.3,3.4,2.7,3.7,6.7,3.7,10.3s-.6,7.8-3.8,11.6h0c1.2.8,2.3,1.6,2.8,3.8.6,2.6,1,9.7,1,14.7s.5,2.8.9,3.8l.2.6v.2c-.4,1.1-.7,1.2-1.8,1.2h-.4c-.4,0-.8,0-1.2,0-1.2,0-2.3,0-3.7,0h-.2s-.2-.1-.2-.1c-.8-.7-1.4-1.5-1.4-5.2s0-1.6,0-2.5c0-1.1,0-2.3,0-3.5v-.5c0-3,0-6.8-1.6-8.4-.6-.6-1.3-.8-2.2-.8s-.3,0-.3.3c0,.5,0,2,0,3.5,0,1.5-.1,3.1-.1,3.6s0,2.1,0,3.7c0,1.7.1,3.4.1,3.8,0,1,0,2,.1,3,0,.8.1,1.6.1,2.4v.2c-.4.8-1.4,1-2.6,1ZM300.4,141.4c.4,0,.9,0,1.4.1.8,0,3.4.3,3.7,0,0-.7,0-1.4-.1-2.1,0-1-.1-2-.1-3.1s0-2.1,0-3.7c0-1.7-.1-3.4-.1-3.8,0-.5,0-2.1.1-3.7,0-1.5,0-3,0-3.4,0-.9.6-1.5,1.5-1.5,1.3,0,2.3.4,3.1,1.2,1.9,1.9,1.9,5.8,1.9,9.2v.5c0,1.2,0,2.4,0,3.6,0,.9,0,1.8,0,2.5,0,3.1.4,3.7.9,4.1,1.2,0,2.3,0,3.4,0,.4,0,.8,0,1.2,0h.4c.2,0,.4,0,.5,0,0,0,0,0,0-.2v-.3c-.5-1.1-1.1-2.6-1.1-4.2,0-4.8-.4-11.9-1-14.4-.4-1.8-1.2-2.3-2.4-3.2l-.4-.3v-1.2c3.2-3.6,3.8-6.7,3.8-11s-.2-7-3.2-9.4c-.7-.5-2.5-.9-3.9-1.1-2.6-.2-5.2-.2-7.7-.2h-1.5c-.4.2-.4.9-.4,1.8,0,.2,0,.3,0,.5,0,2.5,0,5.1,0,7.5,0,2.5,0,5,0,7.6s0,7.1-.1,12.9c0,5.7,0,11.4,0,12.6s0,2.2.1,2.7h0ZM307.4,116c-.2,0-.4,0-.5,0-.2,0-.4,0-.5,0h-.2l-.7-.7v-13.9l.8-.9h2.9c1.8.4,2.4,2.6,2.4,4.5s-.1,4.5-.2,6.7c0,.8,0,1.5-.1,2.3h0c0,.1,0,.3,0,.3-1,1.7-2.4,1.8-3.6,1.8ZM306.6,114.9c.1,0,.2,0,.3,0,1.3,0,2.3,0,3-1.1,0-.7,0-1.4.1-2.1.1-2.2.2-4.4.2-6.6s-.4-3-1.4-3.3h-2.1v.2c-.1,0-.1,13-.1,13Z"/>
  <path class="st0" d="M332.9,142.9h-4.6c-.5,0-1.8,0-2.3-.8h0v-1.6c0-.2,0-.9.1-1.7,0-.7,0-1.4,0-1.6,0-1.1,0-4.1.2-7.1,0-2.8.2-5.7.2-6.7v-4.5c0,0,0-.4.1-.7,0-.2,0-.4,0-.5,0-1.2,0-4.6.2-7.8,0-3.2.2-6.5.2-7.6v-.5c0,0,0-.2,0-.3h-4.6c-.2,0-.4,0-.6-.1,0,0-.1,0-.2,0h0c-.3,0-.6-.2-.8-.7h0v-5.2h0c.2-.6.5-.9.9-.9h.9c.6,0,3.4,0,6.3,0,3,0,6,.1,6.6.1h3.1c.2,0,.4,0,.6.1.1,0,.2,0,.3,0h.3s.4.6.4.6v6.1h-6v.2c0,0,0,22.7,0,22.7,0,.7-.1,4.1-.3,7.6-.1,3.4-.3,6.9-.3,7.6v1.3c0,.1,0,.3,0,.6,0,.2,0,.4-.1.5v.2s-.4.6-.4.6ZM327.1,141.6c.1,0,.5.2,1.2.2h3.9c0-.1,0-.2,0-.4,0-.1,0-.3,0-.3v-1.2c0-.7.1-4.1.3-7.6.1-3.4.3-6.9.3-7.6v-23s.3-.7.3-.7l.5-.5h5.4v-4.4c0,0-.1,0-.2,0-.1,0-.2,0-.3,0h-3c-.6,0-3.6,0-6.6-.1-2.9,0-5.7,0-6.3,0h-.7v4.4c.1,0,.2,0,.3.1,0,0,.1,0,.2,0h4.6c.5,0,1.1.3,1.1,1.5v.5c0,1.2,0,4.3-.2,7.6,0,3.2-.2,6.6-.2,7.8s0,.4-.1.7c0,.2,0,.4,0,.5v4.5c0,1,0,3.8-.2,6.7,0,2.9-.2,6-.2,7.1s0,.9-.1,1.7c0,.7,0,1.4,0,1.6v1Z"/>
  <path class="st0" d="M350.1,142.7l-.5-.3c-.4-.4-.5-1-.4-3.3,0-.5,0-1.1,0-1.3h0v-.2c0-.5,0-1.9,0-3.2,0-1.2,0-2.4,0-2.8v-2.5c0-1-.4-2.2-.6-3.3-.1-.6-.3-1.1-.4-1.7l-3.3-16.2c-.3-1.4-.6-2.8-.9-4.2-.3-1.4-.6-2.8-.9-4.2,0-.3-.1-.6-.2-.9-.2-.9-.4-1.8-.4-2.7v-.9l.9-.3h5.3c.6,0,1.1.3,1.4.8v.2c.2.4.2.6.2.7.5,2.4.9,5.7,1.3,8.8.4,3.1.7,6.4,1.3,8.7h0c0-.4,0-.7.1-1.1,0-.5.1-1.1.2-1.5l2-13.5s0-.6,0-1c0-.3,0-.7,0-.7v-.2s.3-.7.3-.7l.5-.3h5.4c.8,0,1.1.6,1.1,1.1v.3c-.9,3.7-1.5,7.6-2.2,11.3-.2,1-.4,2-.5,3-.3,1.9-.6,3.7-.9,5.6-.3,1.9-.6,3.7-.9,5.6,0,.1,0,.3-.2.7,0,.3-.2.7-.2.9,0,.8-.2,1.5-.4,2.3,0,.5-.2.9-.3,1.4-.1.7-.3,2.5-.3,2.5v12.4s-.7.7-.7.7h-6ZM350.4,141.5h0s5.2,0,5.2,0v-12c0-.1.2-2,.3-2.6,0-.5.2-1,.3-1.4.2-.7.3-1.4.4-2.1,0,0,0-.3.2-1,0-.3.1-.5.1-.6.3-1.9.6-3.8.9-5.6.3-1.9.6-3.7.9-5.6.2-1,.4-2,.5-3,.7-3.7,1.3-7.6,2.2-11.3h0s-4.9,0-4.9,0v.2c0,.2-.1.4-.1.7,0,.4,0,.9,0,1l-2,13.6c0,.4-.1.9-.2,1.4,0,.8-.2,1.7-.4,2.4,0,.3-.2,1.2-.9,1.2s-1.1-.1-1.1-1.5c0,0,0-.2,0-.3,0-.2,0-.5,0-.6-.5-2.4-.9-5.7-1.3-8.8-.4-3.1-.7-6.4-1.2-8.7h0c0-.2,0-.4,0-.5,0,0-.1-.1-.3-.1h-5c0,.9.2,1.7.3,2.6,0,.3.1.6.2.9.3,1.3.6,2.7.9,4.1.3,1.4.6,2.8.9,4.2l3.3,16.2c.1.5.2,1.1.4,1.6.3,1.2.6,2.3.6,3.5v2.6c0,.4,0,1.6,0,2.8,0,1.2,0,2.5,0,3.1,0,.2,0,.6,0,1.6,0,.7,0,1.9,0,2.3Z"/>
  <path class="st0" d="M505.1,143h-1.1c-2.4,0-4.3-.7-6.2-2.5-2.4-2.2-3.2-3.8-3.3-6.9,0-.3,0-1.4-.1-2.1,0-.5,0-.9,0-1v-5.3l.7-.7h1.2c1.5,0,4.8.1,4.9.1h.2s.8.5.8.5v7.1c0,.2,0,.6,0,1.1,0,.4,0,.8,0,1v.3c.8,1,1.6,1.4,2.8,1.4s1.9-.4,2.3-1.3c0-.1,0-.3,0-.5,0-.3,0-.7,0-.9v-2.1c0-4.4-1-5.3-3.7-7.9-.4-.4-.9-.9-1.4-1.4-1.4-1.3-2.6-2.8-3.8-4.2l-.7-.8c-1.6-1.8-3.2-5.3-3.7-7.8h0v-3c0-4.3.6-9,5.3-11.3.4-.2,1.5-.6,1.6-.6h.2s4.5,0,4.5,0c.5.2,1.7.6,2.2.7h.1c.2.1.5.2.7.3.7.3,1.6.6,2.2,1.2,1.6,1.6,2,3.7,2.4,5.8v.4c0,0,0,6.8,0,6.8l-.8.6h-6.6v-6.8c-.1-.5-.4-1.2-.5-1.4-.2-.7-1-.8-1.5-.8s-2,.8-2,1.5v4.9c0,.2.1.5.1.8.7,2.3,2.4,3.9,4.1,5.5.2.2.5.5.7.7,3.8,3.7,7.4,7.8,8.2,12.9,0,.1,0,.3,0,.5,0,.5.1.7.1.8v2.3c0,3.9-.2,6.5-3.4,9.7-1.2,1-2.3,1.7-3.9,1.9-.2,0-.8,0-1.3,0-.7,0-1.3.1-1.6.1ZM495.4,125.7v4.8c0,0,0,.4,0,.9,0,.8.1,1.8.1,2.2.1,2.8.7,4.1,2.9,6.1,1.7,1.5,3.2,2.2,5.4,2.2h1.1c.2,0,.8,0,1.5-.1.6,0,1.2,0,1.3,0,1.3-.2,2.1-.7,3.2-1.6,2.7-2.7,3-4.8,3-8.8v-2.3c0-.1,0-.4-.1-.6,0-.3,0-.6,0-.6-.7-4.7-4.2-8.6-7.8-12.2l-.7-.7c-1.8-1.7-3.7-3.4-4.5-6.1v-.2c0,0,0-.4-.1-.7h0v-5.1c0-1.6,1.9-2.7,3.2-2.7s2.3.6,2.6,1.5c.2.4.5,1.5.5,1.6v.2s0,5.7,0,5.7h5s0-6.5,0-6.5c-.4-2-.7-3.8-2-5.2-.4-.5-1.1-.7-1.7-.9-.3,0-.5-.2-.8-.3-.6-.1-1.8-.6-2.2-.7h-4.1c-.4.1-1.1.4-1.4.5-4.1,2-4.7,6.1-4.7,10.3v2.8c.4,2.2,2,5.6,3.4,7.2l.7.8c1.2,1.5,2.4,2.9,3.7,4.1.5.5,1,.9,1.4,1.3,2.8,2.6,4,3.8,4,8.7v2.1c0,.2,0,.6,0,1,0,.2,0,.5,0,.5v.2c-.5,1.6-2.4,2.1-3.5,2.1-1.6,0-2.8-.6-3.7-2l-.3-.6h0c0-.3,0-.8,0-1.2,0-.5,0-1,0-1.2v-6.4c-.8,0-3.5-.1-4.7-.1h-.7Z"/>
  <path class="st0" d="M538.8,142.9h-6c-1.3,0-1.3-1.7-1.3-2.4,0-1.2-.5-4.6-.7-5.7h-5.2c-.2.4-.3,1.9-.4,2.9-.2,2.5-.3,4.9-1.9,4.9h-.5c-.3,0-1.2,0-2.1-.1-.9,0-1.8,0-2,0s-.4,0-.6-.2c-.3-.3-.3-.8-.2-1.1h0c0-.2,0-.5.2-1.2,0-.4.2-.8.2-.9.4-2.8.7-5.6,1-8.3.5-4.3,1-8.7,1.7-13.1.2-1.7.4-3.3.7-5,.3-1.7.5-3.4.7-5.1,0-.8.3-1.6.5-2.4.2-.7.3-1.3.4-1.9,0-1.5,1.1-7.6,1.5-8.2l.2-.3h.3c.6,0,1.2,0,1.9,0,1.7,0,3.4,0,5.2,0h.4s.1.4.1.4c.7,2.3,1,4.6,1.3,6.9.1,1.1.3,2.1.4,3.1,0,1.2.3,2.4.5,3.6.1.7.2,1.3.3,2l1.1,8.8c0,.2,0,.4.1.6,0,.3,0,.4,0,.6.5,5.1,1.7,13,2.1,15.6v.8c.2.7.3,1.3.4,1.9.1.9.3,1.9.3,2.9v.2l-.5.5ZM525.4,133.7h6.1c.7.7,1.2,6.3,1.2,6.9,0,.9,0,1.2.2,1.2h5.3c0-.8-.1-1.5-.3-2.3,0-.6-.2-1.3-.3-1.9v-.8c-.5-2.6-1.7-10.5-2.2-15.7,0,0,0-.2,0-.4,0-.4-.1-.6-.1-.8l-1.1-8.7c0-.6-.2-1.3-.3-1.9-.2-1.2-.4-2.5-.5-3.7-.2-1-.3-2.1-.4-3.1-.3-2.1-.5-4.3-1.1-6.3-1.6-.1-3.1,0-4.6,0-.5,0-1,0-1.5,0-.3,1.2-1.2,5.9-1.2,7.3-.1.8-.3,1.4-.5,2.1-.2.8-.4,1.5-.5,2.2-.2,1.8-.4,3.5-.7,5.2-.3,1.6-.5,3.3-.7,4.9-.7,4.3-1.2,8.8-1.7,13-.3,2.7-.6,5.5-1,8.3,0,0,0,.3-.2,1,0,.4-.2.8-.2.9,0,0,0,0,0,.2,0,0,0,0,0,0,.4,0,1.1,0,1.7,0,.9,0,1.8,0,2,0h.5c.4-.2.6-2.7.7-3.8.2-2.3.3-4,1.4-4ZM530.6,129.3h-4.8c-.5-.2-.9-.8-.7-1.4,0-.9.2-1.8.3-2.6,0-.4.1-.7.2-1.1.2-1.4.4-2.7.6-4,.4-2.6.9-5.3,1-8.3,0-.4.4-1.1,1.1-1.1s1,0,2,9.8c0,.6.1,1.1.1,1.4h0s0,.5,0,.5c0,3.6.3,4.7.5,5.2.1.4.2.7,0,1.2h0c0,.1-.3.6-.3.6ZM526.2,128.1h3.7c0,0,0-.1,0-.2-.2-.6-.5-1.8-.5-5.6h0c0-.3-.1-.8-.2-1.8-.2-1.6-.5-5-.8-7.1-.1,2.4-.5,4.7-.9,6.9-.2,1.3-.5,2.7-.6,4,0,.4-.1.8-.2,1.1-.2.9-.3,1.7-.3,2.5h0Z"/>
  <path class="st0" d="M551.4,142.9h-4.6c-.5,0-1.8,0-2.3-.8h0v-1.6c0-.2,0-.9.1-1.7,0-.7,0-1.4,0-1.6,0-1.1,0-4.1.2-7.1,0-2.8.2-5.7.2-6.7v-4.5c0,0,0-.4.1-.7,0-.2,0-.4,0-.5,0-1.2,0-4.6.2-7.8,0-3.2.2-6.5.2-7.6v-.5c0,0,0-.2,0-.3h-4.6c-.2,0-.4,0-.6-.1,0,0-.1,0-.2,0h0c-.3,0-.6-.2-.8-.7h0v-5.2h0c.2-.6.5-.9.9-.9h.9c.6,0,3.4,0,6.3,0,3,0,6,.1,6.6.1h3.1c.2,0,.4,0,.6.1.1,0,.2,0,.3,0h.3s.4.6.4.6v6.1h-6v.2c0,0,0,22.7,0,22.7,0,.7-.1,4.1-.3,7.6-.1,3.4-.3,6.9-.3,7.6v1.3c0,.1,0,.3,0,.6,0,.2,0,.4-.1.5v.2s-.4.6-.4.6ZM545.5,141.6c.1,0,.5.2,1.2.2h3.9c0-.1,0-.2,0-.4,0-.1,0-.3,0-.3v-1.2c0-.7.1-4.1.3-7.6.1-3.4.3-6.9.3-7.6v-23s.3-.7.3-.7l.5-.5h5.4v-4.4c0,0-.1,0-.2,0-.1,0-.2,0-.3,0h-3c-.6,0-3.6,0-6.6-.1-2.9,0-5.7,0-6.3,0h-.7v4.4c.1,0,.2,0,.3.1,0,0,.1,0,.2,0h4.6c.5,0,1.1.3,1.1,1.5v.5c0,1.2,0,4.3-.2,7.6,0,3.2-.2,6.6-.2,7.8s0,.4-.1.7c0,.2,0,.4,0,.5v4.5c0,1,0,3.8-.2,6.7,0,2.9-.2,6-.2,7.1s0,.9-.1,1.7c0,.7,0,1.4,0,1.6v1Z"/>
  <path class="st0" d="M571.9,142.9c-6.4,0-9.7-3.6-9.7-10.8s0-5.6.2-9.1c0-3.8.2-7.7.2-10.6,0-.7,0-1.6,0-2.4,0-.6-.1-1.2-.1-1.7s.1-1.2.3-1.8v-5.3c0-.2,0-.3.1-.5-.6-.7-.6-2.2-.4-4.3,0-.2,0-.3,0-.4,0-.6.4-1.1,1.1-1.1l4.2-.2c.9,0,1.5.1,2,.6.4.4.6,1,.6,1.9v37c0,.3.6,1.6.9,1.8h2.3c.3,0,.9-.9.9-1.2l.2-4.1v-15.4s.2-8.4.2-8.4l-.2-3.9v-6.2c-.2-.4-.2-.7-.2-.9,0-.2,0-.4.3-.6.6-.5,2.1-.6,5.1-.5.4,0,.7,0,1,0,.3,0,.8,0,1.1.2.3.2.5.5.5.9v8.6l-.2,5.3.2,7.1c0,1,0,2,0,2.9,0,.8,0,1.5,0,2.2,0,3.8,0,6.7,0,11.1s0,.4-.1.7c0,.2,0,.4,0,.5h0c-.8,3.8-2.7,8.8-10.2,8.8ZM567.9,95.8c0,0-.1,0-.2,0l-4.2.2s0,.2,0,.5c-.2,2.7,0,3.3.2,3.4h.4c0,.1,0,.5,0,.5,0,.2,0,.3-.1.5,0,0,0,.2,0,.3v5.6s0,.1,0,.1c0,.2-.2,1.1-.2,1.3,0,.5,0,1,.1,1.6,0,.9.2,1.8,0,2.6,0,2.9,0,6.8-.2,10.6,0,3.5-.2,6.8-.2,9,0,6.6,2.7,9.7,8.5,9.7s7.8-2.3,9-7.7c0-.1,0-.3.1-.6,0-.2,0-.4,0-.5,0-4.4,0-7.3,0-11,0-.7,0-1.4,0-2.2,0-.9,0-1.8,0-2.9l-.2-7.1.2-5.3v-8.6s0,0-.2,0c0,0,0,0,0,0h0s0,0,0,0c-.3,0-.7,0-1.1,0-1,0-3.3-.1-4.1.1,0,0,0,.1.1.3h0v6.5l.2,4-.2,8.4v15.4s-.2,4.2-.2,4.2c0,.8-1.1,2.4-2.1,2.4h-2.4c-1,0-2.1-2.2-2.1-3v-37c0-.5,0-.9-.2-1-.2-.2-.5-.2-.9-.2ZM571.3,135.9h0Z"/>
  <path class="st0" d="M592.4,142.8c-.7,0-1.6,0-2.4-.2-.6,0-1.2-.1-1.5-.1h-.2l-.6-.6c-.3-.4-.3-2.8-.3-3.3,0-1.2,0-6.9,0-12.6,0-5.8.1-11.6.1-12.9,0-2.5,0-5.1,0-7.5,0-2.5-.1-5-.1-7.6s0-.3,0-.4c0-1-.1-2.6,1.3-3h.1s1.6,0,1.6,0c2.6,0,5.2,0,7.9.2.6,0,3.3.4,4.5,1.3,3.4,2.7,3.7,6.7,3.7,10.3s-.6,7.8-3.8,11.6h0c1.2.8,2.3,1.6,2.8,3.8.6,2.6,1,9.7,1,14.7s.5,2.8.9,3.8l.2.6v.2c-.4,1.1-.7,1.2-1.8,1.2h-.4c-.4,0-.8,0-1.2,0-1.2,0-2.3,0-3.7,0h-.2s-.1-.1-.1-.1c-.8-.7-1.4-1.5-1.4-5.2s0-1.6,0-2.5c0-1.1,0-2.3,0-3.5v-.5c0-3,0-6.8-1.6-8.4-.6-.6-1.3-.8-2.2-.8s-.3,0-.3.3c0,.5,0,2,0,3.5,0,1.5-.1,3.1-.1,3.6s0,2.1,0,3.7c0,1.7.1,3.4.1,3.8,0,1,0,2,.1,3,0,.8.1,1.6.1,2.4v.2c-.4.8-1.4,1-2.6,1ZM588.7,141.4c.4,0,.9,0,1.4.1.8,0,3.4.3,3.7,0,0-.7,0-1.4-.1-2.1,0-1-.1-2-.1-3.1s0-2.1,0-3.7c0-1.7-.1-3.4-.1-3.8,0-.5,0-2.1.1-3.7,0-1.5,0-3,0-3.4,0-.9.6-1.5,1.5-1.5,1.3,0,2.3.4,3.1,1.2,1.9,1.9,1.9,5.8,1.9,9.2v.5c0,1.2,0,2.4,0,3.6,0,.9,0,1.8,0,2.5,0,3.1.4,3.7.9,4.1,1.2,0,2.3,0,3.4,0,.4,0,.8,0,1.2,0h.4c.2,0,.4,0,.5,0,0,0,0,0,0-.2v-.3c-.5-1.1-1.1-2.6-1.1-4.2,0-4.8-.4-11.9-1-14.4-.4-1.8-1.2-2.3-2.4-3.2l-.4-.3v-1.2c3.2-3.6,3.8-6.7,3.8-11s-.2-7-3.2-9.4c-.7-.5-2.5-.9-3.9-1.1-2.6-.2-5.2-.2-7.7-.2h-1.5c-.4.2-.4.9-.4,1.8,0,.2,0,.3,0,.5,0,2.5,0,5.1,0,7.5,0,2.5.1,5,.1,7.6s0,7.1-.1,12.9c0,5.7,0,11.4,0,12.6s0,2.2.1,2.7h0ZM595.8,116c-.2,0-.4,0-.5,0-.2,0-.4,0-.5,0h-.2l-.7-.7v-13.9l.8-.9h2.9c1.8.4,2.4,2.6,2.4,4.5s-.1,4.5-.2,6.6c0,.8,0,1.5-.1,2.3h0c0,.1,0,.3,0,.3-1,1.7-2.4,1.8-3.6,1.8ZM595,114.9c.1,0,.2,0,.3,0,1.3,0,2.3,0,3-1.1,0-.7,0-1.4.1-2.2.1-2.2.2-4.4.2-6.6s-.4-3-1.4-3.3h-2.1v.2c-.1,0-.1,13-.1,13Z"/>
  <path class="st0" d="M622.4,142.9h-9.3c-.4,0-.9-.2-1.2-.5l-.2-.2v-14.9c0-.3,0-1.2.1-2.1,0-.9,0-1.7,0-2v-24.1c0,0,0-.4,0-.7,0-.4,0-.9,0-1.1v-.3c0-.6,0-1.6.6-2.1h.2c0-.1,1.4-.1,1.4-.1,1.2,0,2.1,0,3.3.2l1.3-.2.3.3c.3,0,.9,0,1.4,0,.8,0,1.6,0,1.8,0,.8,0,2.2.2,3,.6.8.3,1.5,1.1,2.2,1.8.2.2.3.3.5.5h0c0,.2.2.3.2.6.1.1.4.4.7.6h.2c0,.1,0,.3,0,.3.3.9.3,1.9.4,2.8,0,.4,0,.7,0,1.1,0,.1,0,.4,0,.7,0,.4.1.8.1.9,0,.1,0,.7.1,1.3,0,.5,0,1,0,1,.1,1.4,0,14.1,0,23.6v1.8c0,3.4-.9,6.2-2.7,8.1,0,0-.2.2-.2.2-.3.3-.7.8-1.3,1-1.1.6-2.6.7-3.7.7ZM612.9,141.6c0,0,.1,0,.1,0h9.3c1.3,0,2.5-.2,3.2-.6.4-.1.6-.4.9-.7,0,0,.2-.2.2-.3,1.6-1.7,2.4-4.1,2.4-7.3v-1.8c0-5.4,0-22,0-23.6,0-.1,0-.5,0-1,0-.6-.1-1.3-.1-1.4,0,0,0-.4,0-.7,0-.4-.1-.8-.1-.8,0-.3,0-.7,0-1.1,0-.8-.1-1.7-.3-2.4-1-.8-1-1-1-1.2-.1-.1-.3-.3-.4-.5-.6-.6-1.2-1.3-1.8-1.5-.6-.3-1.7-.5-2.6-.5s-1.1,0-1.9,0c-.7,0-1.4,0-1.6,0h-.2l-.2-.2-.9.2h-.1c-1.1-.2-2-.2-3.2-.2h-.9c-.1.3,0,.8,0,1v.3c0,.2,0,.8,0,1.2,0,.3,0,.5,0,.6v24.1c0,.3,0,1.2-.1,2.1,0,.9,0,1.7,0,2v14.3ZM619.4,137.2c-.5,0-1.1-.1-1.4-1v-.2c0-1,0-9.1-.1-17.1,0-8-.1-16-.1-17.1v-.2c0-.9.7-1.5,1.9-1.5,2.4,0,3.9,1.1,4.3,3.1.1,1.4.1,21,.1,25s0,3.5-.1,5.9c-.2,1.8-1.8,3-4.1,3s-.1,0-.2,0c0,0-.2,0-.3,0ZM619.2,136s0,0,0,0c0,0,.3,0,.4,0,0,0,.2,0,.3,0,.5,0,2.7,0,2.9-1.9.1-2.3.1-3.7.1-5.8,0-10.8,0-23.8-.1-24.8-.3-1.5-1.3-2.1-3.1-2.1s-.7,0-.7.3v.2c0,1,0,9.1,0,17.1,0,7.8,0,15.6,0,17Z"/>
  <path class="st0" d="M655.2,142.9h-6c-1.3,0-1.3-1.7-1.3-2.4,0-1.2-.5-4.6-.7-5.7h-5.2c-.2.4-.3,1.9-.4,2.9-.2,2.5-.3,4.9-1.9,4.9h-.5c-.3,0-1.2,0-2.1-.1-.9,0-1.8,0-2,0s-.4,0-.6-.2c-.3-.3-.3-.8-.2-1.1h0c0-.2,0-.5.2-1.2,0-.4.2-.8.2-.9.4-2.8.7-5.6,1-8.3.5-4.3,1-8.7,1.7-13.1.2-1.7.4-3.4.7-5,.3-1.7.5-3.4.7-5.1,0-.8.3-1.6.5-2.4.2-.7.3-1.3.4-1.9,0-1.5,1.1-7.6,1.5-8.2l.2-.3h.3c.6,0,1.2,0,1.9,0,1.7,0,3.4,0,5.2,0h.4s.1.4.1.4c.7,2.3,1,4.6,1.3,6.9.1,1.1.3,2.1.4,3.1,0,1.2.3,2.4.5,3.6.1.7.2,1.3.3,2l1.1,8.8c0,.2,0,.4.1.6,0,.3,0,.4,0,.6.5,5.1,1.7,13,2.1,15.6v.9c.2.7.3,1.3.4,1.9.1.9.3,1.9.3,2.9v.2l-.5.5ZM641.8,133.7h6.1c.7.7,1.2,6.3,1.2,6.9,0,.9,0,1.2.2,1.2h5.3c0-.8-.1-1.5-.3-2.3,0-.6-.2-1.3-.3-1.9v-.8c-.5-2.6-1.7-10.5-2.2-15.7,0,0,0-.2,0-.4,0-.4-.1-.6-.1-.8l-1.1-8.7c0-.6-.2-1.3-.3-1.9-.2-1.2-.5-2.5-.5-3.7-.2-1-.3-2.1-.4-3.1-.3-2.1-.5-4.3-1.1-6.3-1.6-.1-3.1,0-4.6,0-.5,0-1,0-1.5,0-.3,1.2-1.2,5.9-1.2,7.3-.1.8-.3,1.4-.5,2.1-.2.8-.4,1.5-.5,2.2-.2,1.8-.4,3.5-.7,5.2-.3,1.6-.5,3.3-.7,4.9-.7,4.3-1.2,8.8-1.7,13-.3,2.7-.6,5.5-1,8.3,0,0,0,.3-.2,1,0,.4-.2.8-.2.9,0,0,0,0,0,.2,0,0,0,0,0,0,.4,0,1.1,0,1.7,0,.9,0,1.8,0,2,0h.5c.4-.2.6-2.7.7-3.8.2-2.3.3-4,1.4-4ZM647,129.3h-4.8c-.3-.1-.5-.3-.7-.6-.1-.2-.2-.5,0-.8,0-.9.2-1.8.3-2.6,0-.4.1-.7.2-1.1.2-1.4.4-2.7.6-4,.5-2.6.9-5.3,1-8.3,0-.4.4-1.1,1.1-1.1s1,0,2,9.8c0,.6.1,1.1.2,1.4h0s0,.5,0,.5c0,3.6.3,4.7.5,5.2.1.4.2.7,0,1.2h0c0,.1-.3.6-.3.6ZM642.6,128.1h3.7c0,0,0-.1,0-.2-.2-.6-.5-1.8-.5-5.6h0c0-.3-.1-.9-.2-1.8-.2-1.6-.5-5-.8-7.1-.1,2.4-.5,4.7-.9,6.9-.2,1.3-.5,2.7-.6,4,0,.4-.1.8-.2,1.1-.2.9-.3,1.7-.3,2.5h0Z"/>
  <path class="st0" d="M662.6,142.7l-.5-.3c-.4-.4-.5-1-.4-3.3,0-.5,0-1.1,0-1.3h0v-.2c0-.5,0-1.9,0-3.2,0-1.2,0-2.4,0-2.8v-2.5c0-1-.4-2.2-.6-3.3-.1-.6-.3-1.1-.4-1.6l-3.3-16.2c-.3-1.4-.6-2.8-.9-4.2-.3-1.4-.6-2.8-.9-4.2,0-.3-.1-.6-.2-.9-.2-.9-.4-1.8-.4-2.7v-.9l.9-.3h5.3c.6,0,1.1.3,1.4.8v.2c.2.4.2.6.2.7.5,2.4.9,5.7,1.3,8.8.4,3.1.7,6.4,1.3,8.7h0c0-.4,0-.7.1-1.1,0-.5.1-1.1.2-1.5l2-13.5s0-.6,0-1c0-.3,0-.7,0-.7v-.2s.3-.7.3-.7l.5-.3h5.4c.8,0,1.1.6,1.1,1.1v.3c-.9,3.7-1.5,7.6-2.2,11.3-.2,1-.4,2-.5,3-.3,1.9-.6,3.7-.9,5.6-.3,1.9-.6,3.7-.9,5.6,0,.1,0,.3-.2.7,0,.3-.2.7-.2.9,0,.8-.2,1.5-.4,2.3,0,.5-.2.9-.3,1.4-.1.7-.3,2.5-.3,2.5v12.4s-.7.7-.7.7h-6ZM662.9,141.5h0s5.2,0,5.2,0v-12c0-.1.2-2,.3-2.6,0-.5.2-1,.3-1.4.2-.7.3-1.4.4-2.1,0,0,0-.3.2-1,0-.3.1-.5.1-.6.3-1.9.6-3.8.9-5.6.3-1.9.6-3.7.9-5.6.2-1,.4-2,.5-3,.7-3.7,1.3-7.6,2.2-11.3h0s-4.9,0-4.9,0v.2c0,.2-.1.4-.1.7,0,.4,0,.9,0,1l-2,13.6c0,.4-.1.9-.2,1.4,0,.8-.2,1.7-.4,2.4,0,.3-.2,1.2-.9,1.2s-1.1-.1-1.1-1.5c0,0,0-.2,0-.3,0-.2,0-.5,0-.6-.5-2.4-.9-5.7-1.3-8.8-.4-3.1-.7-6.4-1.2-8.7h0c0-.2,0-.4,0-.5,0,0-.1-.1-.3-.1h-5c0,.9.2,1.7.3,2.6,0,.3.1.6.2.9.3,1.4.6,2.7.9,4.1.3,1.4.6,2.8.9,4.2l3.3,16.2c.1.5.2,1.1.4,1.6.3,1.2.6,2.3.6,3.5v2.6c0,.4,0,1.6,0,2.8,0,1.2,0,2.5,0,3.1,0,.2,0,.6,0,1.6,0,.7,0,1.9,0,2.3Z"/>
  <path class="st0" d="M675.1,151.9l-.7-1.3,3.5-8h-1.9l-.8-.7-.2-2.7v-4.1s.3-1.2.3-1.2h6.9l1.1.7v.3c0,3.9,0,7.7,0,7.7v.2s-3.4,8-3.4,8l-1.6.9h-3.2ZM675.7,150.6v.2c0,0,2.2,0,2.2,0l1-.6,3.1-7.6c0-.7,0-3.9,0-7.3h-.2c0-.1-5.7-.1-5.7-.1v.2c0,0,0,3.9,0,3.9l.2,2.1h.1c0,0,2.5,0,2.5,0l.3,1.1-3.5,8Z"/>
  <path class="st0" d="M843,142.9h-1.5,0c-1,0-3.3-.2-4.5-.2h-.2c-1.1-.5-1.1-1.5-1.1-2,0-4.1,0-8.3.2-12.4,0-4,.2-8.1.2-12.2-.4,2.2-.7,4.6-1.1,6.9-.4,2.5-.8,5.1-1.2,7.6h-.1s.1,0,.1,0c0,0,0,.4-.1,1-1.4,10.5-1.7,10.7-2.1,10.9h-.3c0,.1-.2,0-.2,0-.2,0-.7,0-1.2,0-.6,0-1.2,0-1.4,0-1.7,0-1.9-2.9-2.1-5.4,0-.4,0-.8,0-1.1-.7-5.5-1.4-10.8-2.3-16.2,0-.8-.2-1.7-.4-2.3-.1-.5-.2-.9-.2-1.1,0-.1,0-.4,0-.7,0-.3,0-.9-.1-1.4,0,11.8,0,17.3.1,21.3,0,2.3,0,4.1,0,6.2v.4l-1,.3h-4.7c-.4-.1-.9-.3-1-.8h0c0-.1-.1-2.8-.1-2.8,0-7.2,0-14.4,0-21.6,0-7.3,0-14.6,0-22v-.4l1-.3h7.8c.6,0,1.3.3,1.3,1.8v.5c0,.5,1,5.9,1.8,9.9,0,.1,0,.5.1.9.5,3.7.9,5.4,1.2,6.2.4-1.2.7-3.3.7-4.3l.2-1.6c1.3-11.2,1.9-13.1,2.8-13.4h.2c5.5,0,7.5,0,8.8.2h.2s.6.6.6.6v.2c.2,1.3.3,18.2.2,36.8v6.9s-.2,2.8-.2,2.8l-.4.6ZM837.2,141.5c2.9,0,4.3,0,5,.2h0s.1,0,.1,0l.2-2.2v-6.8c0-12.8,0-33.9-.2-36.4h0c-1.2-.2-3.3-.2-8.1-.2-.7,1.3-1.7,9.6-2,12.4l-.2,1.5h0s-.1,4.5-1.4,5.8l-.4.4-.4-.3c-.8-.6-1.4-2.7-2-7.7,0-.4,0-.7-.1-.9-.8-3.7-1.8-9.6-1.8-10.2v-.5c0-.5,0-.6,0-.6h-7.6c0,7.3,0,14.4,0,21.6,0,7.2,0,14.4,0,21.6v2.4c.1,0,.2,0,.2,0,0,0,.1,0,.2,0h4.1c0-1.9,0-3.6,0-5.7,0-4.2-.1-10-.1-22.9h0c0-.1.3-1.5.3-1.5h.5c1.4,0,1.6,2.4,1.7,4.4,0,.3,0,.6,0,.8,0,.2,0,.6.2.9.2.7.4,1.7.4,2.5.8,5.3,1.6,10.5,2.3,16.1,0,.3,0,.7.1,1.2.3,3.5.6,4.3.9,4.3s.7,0,1.3,0c.4,0,.7,0,1,0,.2-.7.7-3.2,1.6-9.9,0-.4,0-.7.1-.9h0s0,0,0,0c0,0,0,0,0,0h0c.4-2.5.8-5,1.2-7.6.4-2.6.8-5.3,1.3-7.9,0-.2,0-.3,0-.4,0-.6.2-1.4.9-1.8h0s.3-.2.3-.2l.3.2c.4.3.5.9.5,3.1,0,4.2,0,8.4-.2,12.5,0,4.1-.2,8.2-.2,12.4s0,.7.3.8Z"/>
  <path class="st0" d="M868.5,142.9h-6c-1.3,0-1.3-1.7-1.3-2.4,0-1.2-.5-4.6-.7-5.7h-5.2c-.2.4-.3,1.9-.4,2.9-.2,2.5-.3,4.9-1.9,4.9h-.5c-.3,0-1.2,0-2.1-.1-.9,0-1.8,0-2,0s-.4,0-.6-.2c-.3-.3-.3-.8-.2-1.1h0c0-.2,0-.5.2-1.2,0-.4.2-.8.2-.9.4-2.8.7-5.6,1-8.3.5-4.3,1-8.7,1.7-13.1.2-1.7.4-3.4.7-5,.3-1.7.5-3.4.7-5.1,0-.8.3-1.6.5-2.4.2-.7.3-1.3.4-1.9,0-1.5,1.1-7.6,1.5-8.2l.2-.3h.3c.6,0,1.2,0,1.9,0,1.7,0,3.4,0,5.2,0h.4s.1.4.1.4c.7,2.3,1,4.6,1.3,6.9.1,1.1.3,2.1.4,3.1,0,1.2.3,2.4.5,3.6.1.7.2,1.4.3,2l1.1,8.8c0,.2,0,.4.1.6,0,.3,0,.4,0,.6.5,5.1,1.7,13,2.1,15.6v.9c.2.7.3,1.3.4,1.9.1.9.3,1.9.3,2.9v.2l-.5.5ZM855.1,133.7h6.1c.7.7,1.2,6.3,1.2,6.9,0,.9,0,1.2.2,1.2h5.3c0-.8-.1-1.5-.3-2.3,0-.6-.2-1.3-.3-1.9v-.8c-.5-2.6-1.7-10.5-2.2-15.7,0,0,0-.2,0-.4,0-.4-.1-.6-.1-.8l-1.1-8.7c0-.6-.2-1.3-.3-1.9-.2-1.2-.4-2.5-.5-3.7-.2-1-.3-2.1-.4-3.1-.3-2.1-.5-4.3-1.1-6.3-1.6-.1-3.1,0-4.6,0-.5,0-1,0-1.5,0-.3,1.2-1.2,5.9-1.2,7.3-.1.8-.3,1.4-.5,2.1-.2.8-.4,1.5-.5,2.2-.2,1.8-.4,3.5-.7,5.2-.3,1.6-.5,3.3-.7,4.9-.7,4.3-1.2,8.8-1.7,13-.3,2.7-.6,5.5-1,8.3,0,0,0,.3-.2,1,0,.4-.2.8-.2.9,0,0,0,0,0,.2,0,0,0,0,0,0,.4,0,1.1,0,1.7,0,.9,0,1.8,0,2,0h.5c.4-.2.6-2.7.7-3.8.2-2.3.3-4,1.5-4ZM860.3,129.3h-4.8c-.2-.1-.5-.3-.6-.5-.2-.3-.2-.6-.1-.9,0-.9.2-1.8.3-2.6,0-.4.1-.7.2-1.1.2-1.4.4-2.7.6-4,.5-2.6.9-5.3,1-8.3,0-.4.4-1.1,1.1-1.1s1,0,2,9.8c0,.6.1,1.1.1,1.4h0s0,.5,0,.5c0,3.6.3,4.7.5,5.2.1.4.2.7,0,1.2h0c0,.1-.3.6-.3.6ZM855.9,128.1h3.7c0,0,0-.1,0-.2-.2-.6-.5-1.8-.5-5.6h0c0-.3-.1-.8-.2-1.8-.2-1.6-.5-5-.8-7.1-.1,2.4-.5,4.7-.9,6.9-.2,1.3-.5,2.7-.6,4,0,.4-.1.8-.2,1.1-.2.9-.3,1.7-.3,2.5h0Z"/>
  <path class="st0" d="M878,142.8c-.7,0-1.6,0-2.4-.2-.6,0-1.2-.1-1.5-.1h-.2l-.6-.6c-.3-.4-.3-2.8-.3-3.3,0-1.2,0-6.9,0-12.6,0-5.8.1-11.6.1-12.9,0-2.5,0-5.1,0-7.5,0-2.5-.1-5-.1-7.6s0-.3,0-.4c0-1-.1-2.6,1.3-3h.1s1.6,0,1.6,0c2.6,0,5.2,0,7.9.2.6,0,3.3.4,4.5,1.3,3.4,2.7,3.7,6.7,3.7,10.3s-.6,7.8-3.8,11.6h0c1.2.8,2.3,1.6,2.8,3.8.6,2.6,1,9.7,1,14.7s.5,2.8.9,3.8l.2.6v.2c-.4,1.1-.7,1.3-1.8,1.2h-.4c-.4,0-.8,0-1.2,0-1.2,0-2.3,0-3.7,0h-.2s-.1-.1-.1-.1c-.8-.7-1.4-1.5-1.4-5.2s0-1.6,0-2.5c0-1.1,0-2.3,0-3.5v-.5c0-3,0-6.8-1.6-8.4-.6-.6-1.3-.8-2.2-.8s-.3,0-.3.3c0,.5,0,2,0,3.5,0,1.5-.1,3.1-.1,3.6s0,2.1,0,3.7c0,1.7.1,3.4.1,3.8,0,1,0,2,.1,3,0,.8.1,1.6.1,2.4v.2c-.4.8-1.4,1-2.6,1ZM874.3,141.4c.4,0,.9,0,1.4.1.8,0,3.4.3,3.7,0,0-.7,0-1.4-.1-2.1,0-1-.1-2-.1-3.1s0-2.1,0-3.7c0-1.7-.1-3.4-.1-3.8,0-.5,0-2.1.1-3.7,0-1.5,0-3,0-3.4,0-.9.6-1.5,1.5-1.5,1.3,0,2.3.4,3.1,1.2,1.9,1.9,1.9,5.8,1.9,9.2v.5c0,1.2,0,2.4,0,3.6,0,.9,0,1.8,0,2.5,0,3.1.4,3.7.9,4.1,1.2,0,2.3,0,3.4,0,.4,0,.8,0,1.2,0h.4c.2,0,.4,0,.5,0,0,0,0,0,0-.2v-.3c-.5-1.1-1.1-2.6-1.1-4.2,0-4.8-.4-11.9-1-14.4-.4-1.8-1.2-2.3-2.4-3.2l-.4-.3v-1.2c3.2-3.6,3.8-6.7,3.8-11s-.2-7-3.2-9.4c-.7-.5-2.5-.9-3.9-1.1-2.6-.2-5.2-.2-7.7-.2h-1.5c-.4.2-.4.9-.4,1.8,0,.2,0,.3,0,.5,0,2.5,0,5.1,0,7.5,0,2.5.1,5,.1,7.6s0,7.1-.1,12.9c0,5.7,0,11.4,0,12.6s0,2.2.1,2.7h0ZM881.4,116c-.2,0-.4,0-.5,0-.2,0-.4,0-.5,0h-.2l-.7-.7v-13.9l.8-.9h2.9c1.8.4,2.4,2.6,2.4,4.5s-.1,4.5-.2,6.6c0,.8,0,1.5-.1,2.3h0c0,.1,0,.3,0,.3-1,1.7-2.4,1.8-3.6,1.8ZM880.6,114.9c0,0,.2,0,.3,0,1.3,0,2.3,0,3-1.1,0-.7,0-1.4.1-2.2.1-2.2.2-4.4.2-6.6s-.4-3-1.4-3.3h-2.1v.2c-.1,0-.1,13-.1,13Z"/>
  <path class="st0" d="M909.7,143.3h-4.8c-.3,0-1.7-.4-2.1-.6-4.4-1.8-5.2-6.3-5.5-10.5v-20.4c0-.5,0-1.9.1-3.3,0-1.2,0-2.3,0-2.6.2-3.8.9-7.9,4.4-10.5,2.7-1.8,4.7-1.6,7.2-1.5h.4c.1.1.3.2.4.2h.2c1.5.6,2.5,1.6,3.6,2.8,2.2,2.4,2.2,6.1,2.2,9.1s0,.6,0,.8c0,1,0,2.1-.3,3h0c0,.1-.3.6-.3.6h-5.8l-.5-.5v-4.6c0-.3,0-1-.1-1.7,0-.6,0-1.2,0-1.4,0-.3-.2-.5-.8-.9-.2-.1-.7-.1-1-.1-1,0-1.6.5-1.6,2.7,0,4.6,0,9.2-.1,13.7,0,4.5,0,9.1,0,13.6v1.1c0,.2,0,.6,0,1.1,0,.5,0,1.1.1,1.4.2.8,1.2,1.6,1.9,1.6s1.1-.3,1.6-.5c.2,0,.3-.2.5-.2h0c.1-.3.4-.7.6-1v-9.3c0-.5.4-.7,1.1-.7h.4c.4,0,1.3,0,2.2,0,.9,0,1.8,0,2.1,0,.6,0,.8.6,1.2,2v.5c.1,0,.1,2.5.1,2.5,0,4-.3,8.6-3.6,11.9-.8.8-1.9,1.1-2.9,1.4-.2,0-.5.1-.7.2h0ZM904.9,142.1h4.6c.2,0,.4-.1.7-.2.9-.2,1.8-.5,2.4-1.1,3-3,3.3-7.1,3.3-11v-2.7c-.2-.2-.3-.8-.4-1.1-.5,0-1.2,0-1.9,0-.9,0-1.8,0-2.1,0h-.3v9.4c-.3.3-.6.8-.7.9v.2c-.1,0-.5.3-.5.3-.2,0-.3.2-.5.2-.6.3-1.3.7-2.1.7-1.3,0-2.9-1.3-3.1-2.6h0c0-.3,0-.9-.1-1.4,0-.5,0-1.1,0-1.2v-1.1c0-4.6,0-9.2.1-13.7,0-4.5,0-9.1,0-13.6s0-3.9,2.8-3.9,1,0,1.5.3c.5.3,1.4.9,1.4,1.9s0,.7,0,1.3c0,.7.1,1.5.1,1.8v4h4.5c.2-.7.2-1.6.1-2.4,0-.3,0-.6,0-.9,0-2.8,0-6.2-1.8-8.3-1-1.1-1.9-1.9-3.1-2.4-.2,0-.5-.1-.6-.2h0c-2.4-.2-4.1-.3-6.4,1.2-3.1,2.2-3.8,6.1-3.9,9.5,0,.3,0,1.4,0,2.6,0,1.3-.1,2.7-.1,3.2v20.4c.2,4,.9,7.9,4.8,9.4.4.2,1.4.5,1.7.5Z"/>
  <path class="st0" d="M937.9,142.6h-4.5l-.7-.7v-7.6c0-1,0-3.6-.1-6.2,0-2.3,0-4.5,0-5.6h0c-.6-.2-1.6-.2-2.2-.2h-1.2l-.2,2.1-.5,17.2c0,.7-.9.9-1.3.9h-.3c-1.3,0-4.6-.1-4.8-.1h-.2s-.7-.7-.7-.7v-13.1c0-1.8,0-7.2.1-12.6,0-5.4,0-10.7,0-12.5s0-1.4,0-2.3c0-.9,0-1.8,0-2.1v-1.1c0-.7.1-2.4.1-2.4v-.3s.6-.4.6-.4h5.8c.4,0,.6.3.9.8v.2c0,.3.1,1,.2,1.6,0,.7,0,1.3,0,1.5v.3c0,2.1,0,4.1-.1,6.1,0,1.9,0,3.9,0,6v3.7s0,0,0,0h3.6c0-1,0-3.9,0-6.7,0-2.9,0-5.8,0-6.8s0-1.5,0-2.6c0-1.1,0-2.2,0-2.6v-.2c.2-.5.6-.8.9-1,.1,0,.2-.2.3-.2l.4-.4.4.4c.3,0,1.2.1,1.9.1,2,0,2.9.1,3.2.6.1.2.2.4.2.6v12.8c0,4.6-.3,24.9-.5,29.3,0,.7,0,1.6-.7,2.5h0c-.2.2-.4.4-.4.5v.8l-.5.5ZM927,141.6s0,0,0,0h0ZM933.8,141.4h3.3v-.2c0-.2,0-.5.8-1.1.4-.5.4-1.1.4-1.7.2-4.4.5-24.6.5-29.2v-12.6c-.5-.1-1.5-.1-2.2-.2-1.1,0-1.7,0-2.1-.2,0,0-.1,0-.2.1-.2.1-.3.2-.4.3,0,.5,0,1.5,0,2.5,0,1.1,0,2.2,0,2.6,0,1,0,3.9-.1,6.9,0,2.9,0,5.8,0,6.8s-.4,1.1-1.1,1.1h-3.9c-.6,0-1.1-.8-1.1-1.3v-3.7c0-2,0-4,0-6,0-2,.1-4,.1-6.1v-.3c0-.2,0-.8,0-1.5,0-.6,0-1.3-.1-1.6,0,0,0,0,0,0h-5c0,.5,0,1.5,0,1.9v1.1c0,.3,0,1.2,0,2.2,0,1,0,1.9,0,2.3,0,1.8,0,7.2-.1,12.6,0,5.4,0,10.7,0,12.5v12.6c.8,0,3.4.1,4.5.1h.3s0,0,0,0l.5-17,.2-2.2c0-.6.6-1.1,1.1-1.1h1.3c.8,0,2,0,2.7.2h.1s.6.7.6.7v.2c0,.9,0,3.3,0,5.8,0,2.6.1,5.2.1,6.2v7.1Z"/>
  <path class="st0" d="M1084.2,143.6c-1.8,0-3.6-.4-5.3-1.1h-.2c-.1-.2-.6-.5-.8-.6h-.3c-2.7-1.9-4.1-5.8-4.1-11.8s0-4.5.5-6.8c.2-.9.7-2.4,1.3-3.3.1-.3.4-.6,1-1.1.2-.2.4-.3.5-.4.2-.1.3-.2.5-.4.2-.1.9-.6.9-.8,0,0-.1-.1-.2-.2-.1,0-.3-.2-.5-.3h-.1c-.2-.5-.5-.8-.6-.9l-.3-.2v-.2c0,0-.1-.2-.2-.3h-.1c-1.2-2.4-1.8-4.2-1.8-6.9v-.7c0-4.1,0-9.7,3.8-12.2.5-.4,1.2-.7,1.8-.9.1,0,.3,0,.4-.1h.1c.9-.2,3.5-.6,7.2,0h.1c.1,0,.2.1.4.2.6.2,1.3.4,1.9.9.3.3,1,1,1.4,1.4l.3.3c.2.2.7,1,.9,1.5l.4.6h0c.5,2.9.7,5.9.7,9.2s-.6,4.5-1.8,6.8h-.1c-.7.9-1.6,1.9-1.9,2.3.1.2.7.6.9.7.2.1.4.2.5.3.2.2.3.3.5.5.6.5.9.8,1,1.1.6.9,1.1,2.4,1.3,3.3.5,2.2.5,4.6.5,6.8,0,5.9-1.4,9.9-4.1,11.7h-.1c0,0-.2,0-.2,0,0,0-.3.2-.5.3-.2,0-.3.2-.4.2-1.8.7-3.6,1.1-5.5,1.1ZM1079.5,141.4c2.9,1.3,6.6,1.3,9.7,0,0,0,.2,0,.3-.2.4-.2.6-.4.8-.4,2.9-2,3.5-6.9,3.5-10.6s0-4.4-.5-6.5c-.2-.9-.7-2.3-1.2-3v-.2c-.2-.1-.5-.4-.7-.6-.2-.2-.4-.3-.5-.5,0,0-.2-.1-.3-.2-.6-.4-1.5-.9-1.5-1.8s0-.6,2.2-2.8c1.1-2.1,1.6-3.6,1.6-6.2s-.2-6-.7-8.7l-.4-.6v-.2c0,0-.4-.8-.6-.9l-.3-.3c-.6-.6-1.2-1.1-1.4-1.4-.3-.3-.9-.5-1.4-.6-.1,0-.3,0-.4-.1-3.5-.5-5.8-.2-6.8,0-.1,0-.2,0-.4.1-.5.2-1.1.3-1.4.7-3.4,2.2-3.3,7.4-3.3,11.3v.7c0,2.5.5,4.1,1.6,6.2.2.2.4.4.4.6.2.2.4.5.6.8,0,0,.1,0,.2.1.3.2.9.4.9,1.2s-.9,1.4-1.5,1.8c-.2,0-.3.2-.4.2,0,0-.3.3-.5.4-.2.2-.5.4-.6.6h0s0,.2,0,.2c-.5.7-1,2.1-1.2,3-.5,2.1-.5,4.4-.5,6.5,0,3.8.6,8.6,3.5,10.6.4.1.9.4,1.2.6ZM1084.4,137.1h-.1c-3.6,0-4.3-1.6-4.3-2.9v-9.1c0-.4,0-1.2.1-1.8,0-.3,0-.5,0-.5,0-.2.1-.5.4-1.2,0-.1.1-.3.2-.4h0c.7-1.2,2.2-1.3,3.5-1.3h.3c4,.4,4.2,2.2,4.2,5.2v9.3c-.8,1.8-2.1,2.6-4.3,2.6ZM1081.3,123s0,.2,0,.5c0,.6,0,1.4,0,1.7v9.1c0,.4,0,1.7,3.1,1.7h.1c1.7,0,2.6-.5,3.1-1.8v-8.9c0-2.7,0-3.7-3.1-4h-.3c-1.4,0-2.2.2-2.5.6,0,.1-.1.2-.2.4,0,.2-.3.6-.3.7h0ZM1084.3,114.8c-1.1,0-1.9-.3-2.5-.9-1.1-1.1-1.1-3-1.1-4.6,0-.2,0-.5,0-.7,0-.5,0-1.7.1-2.9,0-1.2,0-2.4,0-2.9v-.2c.3-.9,1.2-1.7,2-2,1.3-.6,2.8,0,2.9,0,2.3,1.4,2.2,4.8,2.2,7.1,0,.3,0,.6,0,.9v3.5c0,.3-.2.7-.3.8v.2c-.8.9-1.4,1.7-3.3,1.7ZM1082.1,102.9c0,.5,0,1.7,0,2.8,0,1.2,0,2.4,0,2.9s0,.5,0,.7c0,1.4,0,3,.7,3.8.4.4.9.6,1.7.6,1.3,0,1.6-.4,2.2-1.2v-.2c.1,0,.2-.2.2-.2v-3.4c0-.3,0-.6,0-.9,0-2,.1-5-1.5-6h0s-1-.4-1.8,0c-.5.2-1.1.7-1.3,1.2Z"/>
  <path class="st0" d="M26.4,222.7h-9.3c-.4,0-.9-.2-1.2-.5l-.2-.2v-14.9c0-.3,0-1.2.1-2.1,0-.9,0-1.7,0-2v-24.1c0,0,0-.4,0-.7,0-.4,0-.9,0-1.1v-.3c0-.6,0-1.6.6-2.1h.2c0-.1,1.4-.1,1.4-.1,1.2,0,2.1,0,3.3.2l1.3-.2.3.3c.3,0,.9,0,1.4,0,.8,0,1.6,0,1.8,0,.8,0,2.2.2,3,.6.8.3,1.5,1.1,2.2,1.8.2.2.3.3.5.5h0c0,.2.2.3.2.6.1.1.4.4.7.6h.2c0,.1,0,.3,0,.3.3.9.3,1.9.4,2.8,0,.4,0,.7,0,1.1,0,.1,0,.4,0,.7,0,.4.1.8.1.9,0,.1,0,.7.1,1.3,0,.5,0,1,0,1,.1,1.4,0,14.1,0,23.6v1.8c0,3.4-.9,6.2-2.7,8.1,0,0-.2.2-.2.2-.3.3-.7.8-1.3,1-1.1.6-2.6.7-3.7.7ZM16.9,221.5c0,0,.1,0,.1,0h9.3c1.3,0,2.5-.2,3.2-.6.4-.1.6-.4.9-.7,0,0,.2-.2.2-.2,1.6-1.7,2.4-4.1,2.4-7.3v-1.8c0-5.4,0-22,0-23.6,0-.1,0-.5,0-1,0-.6-.1-1.3-.1-1.4,0,0,0-.4,0-.7,0-.4-.1-.8-.1-.8,0-.3,0-.7,0-1.1,0-.8-.1-1.7-.3-2.4-1-.8-1-1-1-1.2-.1-.1-.3-.3-.4-.5-.6-.6-1.2-1.3-1.8-1.5-.6-.3-1.7-.5-2.6-.5s-1.1,0-1.9,0c-.7,0-1.4,0-1.6,0h-.2l-.2-.2-.9.2h-.1c-1.1-.2-2-.2-3.2-.2h-.9c-.1.3,0,.8,0,1v.3c0,.2,0,.8,0,1.2,0,.3,0,.5,0,.6v24.1c0,.3,0,1.2-.1,2.1,0,.9,0,1.7,0,2v14.3ZM23.5,217.1c-.5,0-1.1-.1-1.4-1v-.2c0-1,0-9.1-.1-17.1,0-8,0-16,0-17.1v-.2c0-.9.7-1.5,1.9-1.5,2.4,0,3.9,1.1,4.3,3.1.1,1.4.1,21,.1,25s0,3.5-.1,5.9c-.2,1.8-1.8,3-4.1,3s-.1,0-.2,0c0,0-.2,0-.3,0ZM23.2,215.9s0,0,0,0c0,0,.3,0,.4,0,0,0,.2,0,.3,0,.5,0,2.7,0,2.9-1.9.1-2.3.1-3.7.1-5.8,0-10.8,0-23.8-.1-24.8-.3-1.5-1.3-2.1-3.1-2.1s-.7,0-.7.3v.2c0,1,0,9.1.1,17.1,0,7.8,0,15.6,0,17Z"/>
  <path class="st0" d="M59.2,222.8h-6c-1.3,0-1.3-1.7-1.3-2.4,0-1.2-.5-4.6-.7-5.7h-5.2c-.2.4-.3,1.9-.4,2.9-.2,2.5-.3,4.9-1.9,4.9h-.5c-.3,0-1.2,0-2.1-.1-.9,0-1.8,0-2,0s-.4,0-.6-.2c-.3-.3-.3-.8-.2-1.1h0c0-.2,0-.5.2-1.2,0-.4.2-.8.2-.9.4-2.8.7-5.6,1-8.3.5-4.3,1-8.7,1.7-13.1.2-1.7.4-3.3.7-5,.3-1.7.5-3.4.7-5.1,0-.8.3-1.6.5-2.4.2-.7.3-1.3.4-1.9,0-1.5,1.1-7.6,1.5-8.2l.2-.3h.3c.6,0,1.2,0,1.9,0,1.7,0,3.4,0,5.2,0h.4s.1.4.1.4c.7,2.3,1,4.6,1.3,6.9.1,1.1.3,2.1.4,3.1,0,1.2.3,2.4.5,3.6.1.7.2,1.3.3,2l1.1,8.8c0,.2,0,.4.1.6,0,.3,0,.4,0,.6.5,5.1,1.7,13,2.1,15.6v.8c.2.7.3,1.3.4,1.9.1.9.3,1.9.3,2.9v.2l-.5.5ZM45.8,213.6h6.1c.7.7,1.2,6.3,1.2,6.9,0,.9,0,1.2.2,1.2h5.3c0-.8-.1-1.5-.3-2.3,0-.6-.2-1.3-.3-1.9v-.8c-.5-2.6-1.7-10.5-2.2-15.7,0,0,0-.2,0-.4,0-.4-.1-.6-.1-.8l-1.1-8.7c0-.6-.2-1.3-.3-1.9-.2-1.2-.4-2.5-.5-3.7-.2-1-.3-2.1-.4-3.1-.3-2.1-.5-4.3-1.1-6.3-1.6-.1-3.1,0-4.6,0-.5,0-1,0-1.5,0-.3,1.2-1.2,5.9-1.2,7.3-.1.8-.3,1.4-.5,2.1-.2.8-.4,1.5-.5,2.2-.2,1.8-.4,3.5-.7,5.2-.3,1.6-.5,3.3-.7,4.9-.7,4.3-1.2,8.8-1.7,13-.3,2.7-.6,5.5-1,8.3,0,0,0,.3-.2,1,0,.4-.2.8-.2.9,0,0,0,0,0,.2,0,0,0,0,0,0,.4,0,1.1,0,1.7,0,.9,0,1.8,0,2,0h.5c.4-.2.6-2.7.7-3.8.2-2.3.3-4,1.4-4ZM51,209.2h-4.8c-.5-.2-.9-.8-.7-1.4,0-.9.2-1.8.3-2.6,0-.4.1-.7.2-1.1.2-1.4.4-2.7.6-4,.4-2.6.9-5.3,1-8.3,0-.4.4-1.1,1.1-1.1s1,0,2,9.8c0,.6.1,1.1.1,1.4h0s0,.5,0,.5c0,3.6.3,4.7.5,5.2.1.4.2.7,0,1.2h0c0,.1-.3.6-.3.6ZM46.6,208h3.7c0,0,0-.1,0-.2-.2-.6-.5-1.8-.5-5.6h0c0-.3-.1-.8-.2-1.8-.2-1.6-.5-5-.8-7.1-.1,2.4-.5,4.7-.9,6.9-.2,1.3-.5,2.7-.6,4,0,.4-.1.8-.2,1.1-.2.9-.3,1.7-.3,2.5h0Z"/>
  <path class="st0" d="M66.6,222.5l-.5-.3c-.4-.4-.5-1-.4-3.3,0-.5,0-1.1,0-1.3h0v-.2c0-.5,0-1.9,0-3.2,0-1.2,0-2.4,0-2.8v-2.5c0-1-.4-2.2-.6-3.3-.1-.6-.3-1.1-.4-1.7l-3.3-16.2c-.3-1.4-.6-2.8-.9-4.1-.3-1.4-.6-2.8-.9-4.2,0-.3-.1-.6-.2-.9-.2-.9-.4-1.8-.4-2.7v-.9l.9-.3h5.3c.6,0,1.1.3,1.4.8v.2c.2.4.2.6.2.7.5,2.4.9,5.7,1.3,8.8.4,3.1.7,6.4,1.3,8.7h0c0-.4,0-.7.1-1.1,0-.5.1-1.1.2-1.5l2-13.5s0-.6,0-1c0-.3,0-.7,0-.7v-.2s.3-.7.3-.7l.5-.3h5.4c.8,0,1.1.6,1.1,1.1v.3c-.9,3.7-1.5,7.6-2.2,11.3l-.5,3c-.3,1.9-.6,3.7-.9,5.6-.3,1.9-.6,3.7-.9,5.6,0,.1,0,.3-.2.8,0,.3-.2.7-.2.9,0,.8-.2,1.5-.4,2.3,0,.5-.2.9-.3,1.4-.1.7-.3,2.5-.3,2.5v12.4s-.7.7-.7.7h-6ZM66.9,221.3h0s5.2,0,5.2,0v-12c0-.1.2-2,.3-2.6,0-.5.2-1,.3-1.4.2-.7.3-1.4.4-2.1,0,0,0-.3.2-1,0-.3.1-.5.1-.6.3-1.9.6-3.8.9-5.6.3-1.9.6-3.7.9-5.6l.5-3c.7-3.7,1.3-7.6,2.2-11.3h0s-4.9,0-4.9,0v.2c0,.2-.1.4-.1.7,0,.4,0,.9,0,1l-2,13.6c0,.4-.1.9-.2,1.5,0,.8-.2,1.7-.4,2.4,0,.3-.2,1.2-.9,1.2s-1.1-.1-1.1-1.5c0,0,0-.2,0-.3,0-.2,0-.5,0-.6-.5-2.4-.9-5.7-1.3-8.8-.4-3.1-.7-6.4-1.2-8.7h0c0-.2,0-.4,0-.5,0,0-.1-.1-.3-.1h-5c0,.9.2,1.7.3,2.6,0,.3.1.6.2.9.3,1.4.6,2.8.9,4.1.3,1.4.6,2.8.9,4.2l3.3,16.2c.1.5.2,1.1.4,1.6.3,1.2.6,2.3.6,3.5v2.6c0,.4,0,1.6,0,2.8,0,1.2,0,2.5,0,3.1,0,.2,0,.6,0,1.6,0,.7,0,1.9,0,2.3Z"/>
  <path class="st0" d="M227.1,222.5h-1.6c-.7-.6-.7-1.6-.6-2.3v-.3c0-.2,0-.8,0-1.2,0-.3,0-.5,0-.6v-24.2c0-.3,0-1.1,0-2,0-.9-.1-1.8-.1-2v-14.3l.2-.2c0,0,.1-.2.2-.3.3-.4.5-.8,1-.8h9.3c1.1,0,2.6.1,3.7.7.5.2.9.6,1.2,1,0,0,.1.2.2.2,1.8,2,2.7,4.7,2.7,8.1v1.5c0,2.1,0,5.1,0,6.5,0,0,0,.6-.1,1.2,0,.5,0,1,0,1.1,0,0,0,.5-.1.8,0,.3,0,.6,0,.7-.4,2.1-2.3,4.5-4.4,5.3-.9.4-2.2.6-3,.6s-1.1,0-1.8.1c-.5,0-1,0-1.3,0,0,2.6,0,5.1,0,7.7,0,3.4-.1,7,0,10.7v.4s-.3.2-.3.2l-.2.2s0,0-.1.1c-.2.2-.5.6-1,.6-1.1.2-2.1.2-3.3.2ZM226.2,221.4h.9c1.3,0,2.1,0,3.2-.2.1,0,.2-.1.3-.2s0,0,0,0c0-.1.2-.3.3-.4-.1-3.7,0-7.1,0-10.5,0-2.8,0-5.4,0-8.1v-.3s.6-.4.6-.4h.2c.2,0,.9,0,1.6,0,.8,0,1.6-.1,1.9-.1.9,0,1.9-.2,2.6-.5,1.6-.7,3.3-2.7,3.7-4.3,0-.2,0-.5,0-.8,0-.3,0-.6,0-.7,0,0,0-.6.1-1.2,0-.5,0-1,0-1.1.1-1.4,0-4.4,0-6.4v-1.5c0-3.2-.8-5.6-2.4-7.3,0,0-.1-.1-.2-.2-.2-.3-.5-.6-.8-.7-.8-.4-1.9-.6-3.3-.6h-9.1c0,0-.1.2-.2.3,0,.1-.1.2-.2.3v13.8c0,.3,0,1.1,0,2,0,.9.1,1.8.1,2v24.2c0,0,0,.2,0,.5,0,.5,0,1.1,0,1.3v.3c0,.3,0,.8,0,1ZM231.9,197.2c-1.2,0-1.2-.9-1.2-1.5v-.2c0-1.1,0-4.2.1-7.2,0-3,0-6,0-7v-.2c.3-1.1,1.3-1,1.7-1,0,0,.1,0,.2,0,2.3,0,3.9,1.1,4.1,2.9.1,2.4.1,3.8.1,5.9s0,3.5-.1,5c-.5,2.4-2.9,3.2-5,3.2ZM232.1,181.4c0,1.1,0,4,0,6.9,0,3.1-.1,6.1-.1,7.2v.2c0,.1,0,.2,0,.3,1.6,0,3.5-.6,3.8-2.2.1-1.4.1-3.4.1-4.8,0-2.1,0-3.5-.1-5.8-.2-1.7-2.5-1.8-2.9-1.8s-.2,0-.3,0c-.1,0-.3,0-.4,0h0s0,0,0,0Z"/>
  <path class="st0" d="M263.8,222.8h-6c-1.3,0-1.3-1.7-1.3-2.4,0-1.2-.5-4.6-.7-5.7h-5.2c-.2.4-.3,1.9-.4,2.9-.2,2.5-.3,4.9-1.9,4.9h-.5c-.3,0-1.2,0-2.1-.1-.9,0-1.8,0-2,0s-.4,0-.6-.2c-.3-.3-.3-.8-.2-1.1h0c0-.2,0-.5.2-1.2,0-.4.2-.8.2-.9.4-2.8.7-5.6,1-8.3.5-4.3,1-8.7,1.7-13.1.2-1.7.4-3.3.7-5,.3-1.7.5-3.4.7-5.1,0-.8.3-1.6.5-2.4.2-.7.3-1.3.4-1.9,0-1.5,1.1-7.6,1.5-8.2l.2-.3h.3c.6,0,1.2,0,1.9,0,1.7,0,3.4,0,5.2,0h.4s.1.4.1.4c.7,2.3,1,4.6,1.3,6.9.1,1.1.3,2.1.4,3.2,0,1.2.3,2.4.5,3.6.1.7.2,1.3.3,2l1.1,8.8c0,.2,0,.4.1.6,0,.3,0,.4,0,.6.5,5.1,1.7,13,2.1,15.6v.8c.2.7.3,1.3.4,1.9.1.9.3,1.9.3,2.9v.2l-.5.5ZM250.4,213.6h6.1c.7.7,1.2,6.3,1.2,6.9,0,.9,0,1.2.2,1.2h5.3c0-.8-.1-1.5-.3-2.3,0-.6-.2-1.3-.3-1.9v-.8c-.5-2.6-1.7-10.5-2.2-15.7,0,0,0-.2,0-.4,0-.4-.1-.6-.1-.8l-1.1-8.7c0-.6-.2-1.3-.3-1.9-.2-1.2-.5-2.5-.5-3.7-.2-1-.3-2.1-.4-3.1-.3-2.1-.5-4.3-1.1-6.3-1.6-.1-3.1,0-4.6,0-.5,0-1,0-1.5,0-.3,1.2-1.2,5.9-1.2,7.3-.1.8-.3,1.4-.5,2.1-.2.8-.4,1.5-.5,2.2-.2,1.8-.4,3.5-.7,5.2-.3,1.6-.5,3.3-.7,4.9-.7,4.3-1.2,8.8-1.7,13-.3,2.7-.6,5.5-1,8.3,0,0,0,.3-.2,1,0,.4-.2.8-.2.9,0,0,0,0,0,.2,0,0,0,0,0,0,.4,0,1.1,0,1.7,0,.9,0,1.8,0,2,0h.5c.4-.2.6-2.7.7-3.8.2-2.3.3-4,1.5-4ZM255.6,209.2h-4.8c-.5-.2-.9-.8-.7-1.4,0-.9.2-1.8.3-2.6,0-.4.1-.7.2-1.1.2-1.4.4-2.7.6-4,.4-2.6.9-5.3,1-8.3,0-.4.4-1.1,1.1-1.1s1,0,2,9.8c0,.6.1,1.1.1,1.4h0s0,.5,0,.5c0,3.6.3,4.7.5,5.2.1.4.2.7,0,1.2h0c0,.1-.3.6-.3.6ZM251.2,208h3.7c0,0,0-.1,0-.2-.2-.6-.5-1.8-.5-5.6h0c0-.3-.1-.8-.2-1.8-.2-1.6-.5-5-.8-7.1-.1,2.4-.5,4.7-.9,6.9-.2,1.3-.5,2.7-.6,4,0,.4-.1.8-.2,1.1-.2.9-.3,1.7-.3,2.5h0Z"/>
  <path class="st0" d="M273.3,222.7c-.7,0-1.6,0-2.4-.2-.6,0-1.2-.1-1.5-.1h-.2l-.6-.6c-.3-.4-.3-2.8-.3-3.3,0-1.2,0-6.9,0-12.6,0-5.8.1-11.6.1-12.9,0-2.5,0-5.1,0-7.5,0-2.5-.1-5-.1-7.6s0-.3,0-.4c0-1-.1-2.6,1.3-3h.1s1.6,0,1.6,0c2.6,0,5.2,0,7.9.2.6,0,3.3.4,4.5,1.3,3.4,2.7,3.7,6.7,3.7,10.3s-.6,7.8-3.8,11.6h0c1.2.8,2.3,1.6,2.8,3.8.6,2.6,1,9.7,1,14.7s.5,2.8.9,3.8l.2.6v.2c-.4,1.1-.7,1.2-1.8,1.2h-.4c-.4,0-.8,0-1.2,0-1.2,0-2.3,0-3.7,0h-.2s-.1-.1-.1-.1c-.8-.7-1.4-1.5-1.4-5.2s0-1.6,0-2.5c0-1.1,0-2.3,0-3.5v-.5c0-3,0-6.8-1.6-8.4-.6-.6-1.3-.8-2.2-.8s-.3,0-.3.3c0,.5,0,2,0,3.5,0,1.5-.1,3.1-.1,3.6s0,2.1,0,3.7c0,1.7.1,3.4.1,3.8,0,1,0,2,.1,3,0,.8.1,1.6.1,2.4v.2c-.4.8-1.4,1-2.6,1ZM269.6,221.2c.4,0,.9,0,1.4.1.8,0,3.4.3,3.7,0,0-.7,0-1.4-.1-2.1,0-1-.1-2-.1-3.1s0-2.1,0-3.7c0-1.7-.1-3.4-.1-3.8,0-.5,0-2.1.1-3.7,0-1.5,0-3,0-3.4,0-.9.6-1.5,1.5-1.5,1.3,0,2.3.4,3.1,1.2,1.9,1.9,1.9,5.8,1.9,9.2v.5c0,1.2,0,2.4,0,3.6,0,.9,0,1.8,0,2.5,0,3.1.4,3.7.9,4.1,1.2,0,2.3,0,3.4,0,.4,0,.8,0,1.2,0h.4c.2,0,.4,0,.5,0,0,0,0,0,0-.2v-.3c-.5-1.1-1.1-2.6-1.1-4.2,0-4.8-.4-11.9-1-14.4-.4-1.8-1.2-2.3-2.4-3.2l-.4-.3v-1.2c3.2-3.6,3.8-6.7,3.8-11s-.2-7-3.2-9.4c-.7-.5-2.5-.9-3.9-1.1-2.6-.2-5.2-.2-7.7-.2h-1.5c-.4.2-.4.9-.4,1.8,0,.2,0,.3,0,.5,0,2.5,0,5.1,0,7.5,0,2.5.1,5,.1,7.6s0,7.1-.1,12.9c0,5.7,0,11.4,0,12.6s0,2.2.1,2.7h0ZM276.7,195.9c-.2,0-.4,0-.5,0-.2,0-.4,0-.5,0h-.2l-.7-.7v-13.9l.8-.9h2.9c1.8.4,2.4,2.6,2.4,4.5s-.1,4.5-.2,6.7c0,.8,0,1.5-.1,2.3h0c0,.1,0,.3,0,.3-1,1.7-2.4,1.8-3.6,1.8ZM275.9,194.7c.1,0,.2,0,.3,0,1.3,0,2.3,0,3-1.1,0-.7,0-1.4.1-2.1.1-2.2.2-4.4.2-6.6s-.4-3-1.4-3.3h-2.1v.2c-.1,0-.1,13-.1,13Z"/>
  <path class="st0" d="M302.1,222.8h-4.6c-.5,0-1.8,0-2.3-.8h0v-1.6c0-.2,0-.9.1-1.7,0-.7,0-1.4,0-1.6,0-1.1,0-4.1.2-7.1,0-2.8.2-5.7.2-6.7v-4.5c0,0,0-.4.1-.7,0-.2,0-.4,0-.5,0-1.2,0-4.6.2-7.8,0-3.2.2-6.5.2-7.6v-.5c0,0,0-.2,0-.3h-4.6c-.2,0-.4,0-.6-.1,0,0-.1,0-.2,0h0c-.3,0-.6-.2-.8-.7h0v-5.2h0c.2-.6.5-.9.9-.9h.9c.6,0,3.4,0,6.3,0,3,0,6,.1,6.6.1h3.1c.2,0,.4,0,.6.1.1,0,.2,0,.3,0h.3s.4.6.4.6v6.1h-6v.2c0,0,0,22.7,0,22.7,0,.7-.1,4.1-.3,7.6-.1,3.4-.3,6.9-.3,7.6v1.3c0,.1,0,.3,0,.6,0,.2,0,.4-.1.5v.2s-.4.6-.4.6ZM296.3,221.4c.1,0,.5.2,1.2.2h3.9c0-.1,0-.2,0-.4,0-.1,0-.3,0-.3v-1.2c0-.7.1-4.1.3-7.6.1-3.4.3-6.9.3-7.6v-23s.3-.7.3-.7l.5-.5h5.4v-4.4c0,0-.1,0-.2,0-.1,0-.2,0-.3,0h-3c-.6,0-3.6,0-6.6-.1-2.9,0-5.7,0-6.3,0h-.7v4.4c.1,0,.2,0,.3.1,0,0,.1,0,.2,0h4.6c.5,0,1.1.3,1.1,1.5v.5c0,1.2,0,4.3-.2,7.6,0,3.2-.2,6.6-.2,7.8s0,.4-.1.7c0,.2,0,.4,0,.5v4.5c0,1,0,3.8-.2,6.7,0,2.9-.2,6-.2,7.1s0,.9-.1,1.7c0,.7,0,1.4,0,1.6v1Z"/>
  <path class="st0" d="M319.3,222.5l-.5-.3c-.4-.4-.5-1-.4-3.3,0-.5,0-1.1,0-1.3h0v-.2c0-.5,0-1.9,0-3.2,0-1.2,0-2.4,0-2.8v-2.5c0-1-.4-2.2-.6-3.3-.1-.6-.3-1.1-.4-1.7l-3.3-16.2c-.3-1.4-.6-2.8-.9-4.1-.3-1.4-.6-2.8-.9-4.2,0-.3-.1-.6-.2-.9-.2-.9-.4-1.8-.4-2.7v-.9l.9-.3h5.3c.6,0,1.1.3,1.4.8v.2c.2.4.2.6.2.7.5,2.4.9,5.7,1.3,8.8.4,3.1.7,6.4,1.3,8.7h0c0-.4,0-.7.1-1.1,0-.5.1-1.1.2-1.5l2-13.5s0-.6,0-1c0-.3,0-.7,0-.7v-.2s.3-.7.3-.7l.5-.3h5.4c.8,0,1.1.6,1.1,1.1v.3c-.9,3.7-1.5,7.6-2.2,11.3l-.5,3c-.3,1.9-.6,3.7-.9,5.6-.3,1.9-.6,3.7-.9,5.6,0,.1,0,.3-.2.8,0,.3-.2.7-.2.9,0,.8-.2,1.5-.4,2.3,0,.5-.2.9-.3,1.4-.1.7-.3,2.5-.3,2.5v12.4s-.7.7-.7.7h-6ZM319.6,221.3h0s5.2,0,5.2,0v-12c0-.1.2-2,.3-2.6,0-.5.2-1,.3-1.4.2-.7.3-1.4.4-2.1,0,0,0-.3.2-1,0-.3.1-.5.1-.6.3-1.9.6-3.8.9-5.6.3-1.9.6-3.7.9-5.6l.5-3c.7-3.7,1.3-7.6,2.2-11.3h0s-4.9,0-4.9,0v.2c0,.2-.1.4-.1.7,0,.4,0,.9,0,1l-2,13.6c0,.4-.1.9-.2,1.5,0,.8-.2,1.7-.4,2.4,0,.3-.2,1.2-.9,1.2s-1.1-.1-1.1-1.5c0,0,0-.2,0-.3,0-.2,0-.5,0-.6-.5-2.4-.9-5.7-1.3-8.8-.4-3.1-.7-6.4-1.2-8.7h0c0-.2,0-.4,0-.5,0,0-.1-.1-.3-.1h-5c0,.9.2,1.7.3,2.6,0,.3.1.6.2.9.3,1.4.6,2.8.9,4.1.3,1.4.6,2.8.9,4.2l3.3,16.2c.1.5.2,1.1.4,1.6.3,1.2.6,2.3.6,3.5v2.6c0,.4,0,1.6,0,2.8,0,1.2,0,2.5,0,3.1,0,.2,0,.6,0,1.6,0,.7,0,1.9,0,2.3Z"/>
  <path class="st0" d="M503.6,222.7h-1.5,0c-1,0-3.3-.2-4.5-.2h-.2c-1.1-.5-1.1-1.5-1.1-2,0-4.1,0-8.3.2-12.4,0-4,.2-8.1.2-12.2-.4,2.2-.7,4.6-1.1,6.9-.4,2.5-.8,5.1-1.2,7.6h-.1s.1,0,.1,0c0,0,0,.4-.1,1-1.4,10.5-1.7,10.7-2.1,10.9h-.3c0,.1-.2,0-.2,0-.2,0-.7,0-1.2,0-.6,0-1.2,0-1.4,0-1.7,0-1.9-2.9-2.1-5.4,0-.4,0-.8,0-1.1-.7-5.5-1.4-10.8-2.3-16.2,0-.8-.2-1.7-.4-2.3-.1-.5-.2-.9-.2-1.1,0-.1,0-.4,0-.7,0-.3,0-.9-.1-1.4,0,11.8,0,17.3.1,21.3,0,2.3,0,4.1,0,6.2v.4l-1,.3h-4.7c-.4-.1-.9-.3-1-.8h0c0-.1-.1-2.8-.1-2.8,0-7.2,0-14.4,0-21.6,0-7.3,0-14.6,0-22v-.4l1-.3h7.8c.6,0,1.3.3,1.3,1.8v.5c0,.5,1,5.9,1.8,9.9,0,.1,0,.5.1.9.5,3.7.9,5.4,1.2,6.2.4-1.2.7-3.3.7-4.3l.2-1.6c1.3-11.2,1.9-13.1,2.8-13.4h.2c5.5,0,7.5,0,8.8.2h.2s.6.6.6.6v.2c.2,1.3.3,18.2.2,36.8v6.8s-.2,2.8-.2,2.8l-.4.6ZM497.7,221.4c2.9,0,4.3,0,5,.2h0s.1,0,.1,0l.2-2.2v-6.7c0-12.8,0-34-.2-36.5h0c-1.2-.2-3.3-.2-8.1-.2-.7,1.3-1.7,9.6-2,12.4l-.2,1.5h0s-.1,4.5-1.4,5.8l-.4.4-.4-.3c-.8-.6-1.4-2.7-2-7.7,0-.4,0-.7-.1-.8-.8-3.7-1.8-9.5-1.8-10.2v-.5c0-.5,0-.6,0-.6h-7.6c0,7.3,0,14.4,0,21.6,0,7.2,0,14.4,0,21.6v2.4c.1,0,.2,0,.2,0,0,0,.1,0,.2,0h4.1c0-1.9,0-3.6,0-5.7,0-4.2-.1-10-.1-22.9h0c0-.1.3-1.5.3-1.5h.5c1.4,0,1.6,2.4,1.7,4.4,0,.3,0,.6,0,.8,0,.2,0,.6.2.9.2.7.4,1.7.4,2.5.8,5.2,1.6,10.5,2.3,16.1,0,.3,0,.7.1,1.2.3,3.5.6,4.3.9,4.3s.7,0,1.3,0c.4,0,.7,0,1,0,.2-.7.7-3.2,1.6-9.9,0-.4,0-.7.1-.9h0s0,0,0,0c0,0,0,0,0,0h0c.4-2.5.8-5,1.2-7.6.4-2.6.8-5.3,1.3-7.9,0-.2,0-.3,0-.4,0-.6.2-1.4.9-1.8h0s.3-.2.3-.2l.3.2c.4.3.5.9.5,3.1,0,4.2,0,8.4-.2,12.5,0,4.1-.2,8.2-.2,12.4s0,.7.3.8Z"/>
  <path class="st0" d="M518.5,223.1h-1.5c-1.1,0-2.6-.3-3.5-1.3-1.9-1.7-3.1-3.5-3.7-5.6-.7-3.5-.9-6.6-1.1-10.6v-.6c0-1.1,0-4.4.1-7.6,0-3.2,0-6.3,0-7.4,0-5.8,1.3-15.6,10.1-15.6s8.2,2.5,9.2,7.5c.3.6.4,1.8.4,1.9v24.3l-.3,5.4h0c-.2.4-.2.8-.3,1.2-.1.4-.2.9-.5,1.3-1.9,3.8-3.9,7-8.9,7ZM519,175.6c-7.8,0-8.9,9-8.9,14.4s0,4.2,0,7.4c0,3.2-.1,6.4-.1,7.6v.5c.2,3.9.4,6.9,1.1,10.3.5,1.9,1.5,3.5,3.3,5.1.6.7,1.8,1,2.7,1h1.5c4.4,0,6.1-2.8,7.9-6.4.2-.3.3-.7.4-1.1,0-.4.2-.8.4-1.2l.3-5.1v-24.3c0-.2-.1-1.2-.3-1.4v-.2c-1-4.5-3.6-6.6-8.1-6.6ZM518.8,217.1c-1.4,0-2.9-.9-3.2-2.5v-24.6c0-.6,0-2,0-3.5,0-1.4,0-2.9,0-3.4s.2-.7.3-.9v-.2c.2,0,.2-.1.3-.2.6-.7.9-.9,1.2-1,.3-.1,1-.4,1.4-.4h.2c1.7,0,2.9,1.6,2.9,3v10.7c0,1.1,0,4.2-.1,7.3,0,3,0,5.9,0,6.9s0,1.4,0,2.5c0,1.1-.1,2.2-.1,2.6,0,1.9-.9,3.7-2.9,3.7ZM517.1,182.8c0,.1,0,.2-.1.3,0,.5,0,2,0,3.5,0,1.4,0,2.9,0,3.4v24.5c.1.9,1.3,1.4,2,1.4,1.6,0,1.7-2.3,1.7-2.5,0-.4,0-1.5.1-2.7,0-1,0-2.1,0-2.4,0-1,0-3.9,0-6.9,0-3.1.1-6.2.1-7.3v-10.7c0-.9-.7-1.8-1.7-1.8h-.2c-.1,0-.6.2-1,.4h0c-.2.2-.5.5-.7.7,0,0-.1.1-.1.2Z"/>
  <path class="st0" d="M547,222.7h-.2c-.2-.2-.5-.5-.7-.8-.3-.3-.5-1-.5-1.3-.4-3.6-3.7-16.5-5.2-21.3,0,4.5,0,10.1.1,15.1,0,2.2,0,4.3,0,6.1,0,.9-1,1.9-1.9,1.9-1.4.2-3.4.3-5.2-.7l-.3-.2v-1.8c0-.2,0-1.3,0-1.3,0-9.9,0-20,0-29.8,0-4,0-7.9,0-11.9,0-1,.4-2.1,1.3-2.1.3,0,.7,0,1,0,2-.1,3.8-.2,5.1.9.8.8,1.2,2,1.3,3.7.6,2.3,1.2,4.5,1.8,6.9.8,2.9,1.7,5.7,2.6,8.4.7,2.1,1.4,4.2,2,6.4.2.4.4,1.2.6,1.8,0,0,0-.2,0-.3,0-1.1,0-2.1,0-2.5,0-.7-.2-6.8-.2-7.5,0-2.4-.2-14.1-.3-16.7v-.2s.6-.8.6-.8h5.4c.8,0,1.2.5,1.4.9h0c0,.1,0,.4,0,.4v1.6c0,2,0,4,0,5.9,0,1.9,0,3.9,0,5.9,0,9.6-.5,31.9-.5,32.1v.2s-.7.7-.7.7h-7.6ZM539.7,196.5h.6l.2.2c1.1,1,5.8,20.2,6.2,23.9,0,.2.1.5.2.6h0c0,.1.2.2.3.4h6.7c0-2.6.5-23,.5-32,0-2,0-4,0-5.9,0-1.9,0-3.9,0-5.9v-1.4c-.2-.3-.2-.3-.3-.3h-4.9c0,3.1.3,14.2.3,16.6s.1,6.8.2,7.5c0,.4,0,1.5,0,2.5,0,1.1,0,2.1,0,2.5s0,.8-.9.8c-.3,0-.5,0-.7-.2-.3-.3-.5-.7-.5-1,0,0,0-.3,0-.4,0-.3-.1-.5-.1-.7,0-.3-.4-1.6-.5-1.8h0c-.7-2.3-1.4-4.5-2-6.5-.9-2.8-1.8-5.6-2.6-8.5-.6-2.4-1.2-4.6-1.8-6.9v-.2c0-1.4-.3-2.4-.9-2.9-.9-.8-2.4-.7-4.2-.6-.3,0-.7,0-1,0,0,0-.2.5-.2.9,0,3.9,0,7.9,0,11.9,0,9.8.1,20,0,29.8,0,0,0,1.1,0,1.3v1.1c1.4.6,3,.5,4.3.4.3,0,.7-.5.7-.7,0-1.8,0-3.9,0-6.1,0-5.8-.2-12.4-.1-17.1v-.2s.5-.5.5-.5Z"/>
  <path class="st0" d="M571.1,222.7h-9.3c-.4,0-.9-.2-1.2-.5l-.2-.2v-14.9c0-.3,0-1.2.1-2.1,0-.9,0-1.7,0-2v-24.1c0,0,0-.4,0-.7,0-.4,0-.9,0-1.1v-.3c0-.6,0-1.6.6-2.1h.2c0-.1,1.4-.1,1.4-.1,1.2,0,2.1,0,3.3.2l1.3-.2.3.3c.3,0,.9,0,1.4,0,.8,0,1.6,0,1.8,0,.8,0,2.2.2,3,.6.8.3,1.5,1.1,2.2,1.8.2.2.3.3.5.5h0c0,.2.2.3.2.6.1.1.4.4.7.6h.2c0,.1,0,.3,0,.3.3.9.3,1.9.4,2.8,0,.4,0,.7,0,1.1,0,.1,0,.4,0,.7,0,.4.1.8.1.9,0,.1,0,.7.1,1.3,0,.5,0,1,0,1,.1,1.4,0,14.1,0,23.6v1.8c0,3.4-.9,6.2-2.7,8.1,0,0-.2.2-.2.2-.3.3-.7.8-1.3,1-1.1.6-2.6.7-3.7.7ZM561.7,221.5c0,0,.1,0,.1,0h9.3c1.3,0,2.5-.2,3.2-.6.4-.1.6-.4.9-.7,0,0,.2-.2.2-.3,1.6-1.7,2.4-4.1,2.4-7.3v-1.8c0-5.4,0-22,0-23.6,0-.1,0-.5,0-1,0-.6-.1-1.3-.1-1.4,0,0,0-.4,0-.7,0-.4-.1-.8-.1-.8,0-.3,0-.7,0-1.1,0-.8-.1-1.7-.3-2.4-1-.8-1-1-1-1.2-.1-.1-.3-.3-.4-.5-.6-.6-1.2-1.3-1.8-1.5-.6-.3-1.7-.5-2.6-.5s-1.1,0-1.9,0c-.7,0-1.4,0-1.6,0h-.2l-.2-.2-.9.2h-.1c-1.1-.2-2-.2-3.2-.2h-.9c-.1.3,0,.8,0,1v.3c0,.2,0,.8,0,1.2,0,.3,0,.5,0,.6v24.1c0,.3,0,1.2-.1,2.1,0,.9,0,1.7,0,2v14.3ZM568.2,217.1c-.5,0-1.1-.1-1.4-1v-.2c0-1,0-9.1-.1-17.1,0-8,0-16,0-17.1v-.2c0-.9.7-1.5,1.9-1.5,2.4,0,3.9,1.1,4.3,3.1.1,1.4.1,21,.1,25s0,3.5-.1,5.9c-.2,1.8-1.8,3-4.1,3s-.1,0-.2,0c0,0-.2,0-.3,0ZM568,215.9s0,0,0,0c0,0,.3,0,.4,0,0,0,.2,0,.3,0,.5,0,2.7,0,2.9-1.9.1-2.3.1-3.7.1-5.8,0-10.8,0-23.8-.1-24.8-.3-1.5-1.3-2.1-3.1-2.1s-.7,0-.7.3v.2c0,1,0,9.1,0,17.1,0,7.8,0,15.6,0,17Z"/>
  <path class="st0" d="M603.9,222.8h-6c-1.3,0-1.3-1.7-1.3-2.4,0-1.2-.5-4.6-.7-5.7h-5.2c-.2.4-.3,1.9-.4,2.9-.2,2.5-.3,4.9-1.9,4.9h-.5c-.3,0-1.2,0-2.1-.1-.9,0-1.8,0-2,0s-.4,0-.6-.2c-.3-.3-.3-.8-.2-1.1h0c0-.2,0-.5.2-1.2,0-.4.2-.8.2-.9.4-2.8.7-5.6,1-8.3.5-4.3,1-8.7,1.7-13.1.2-1.7.4-3.4.7-5,.3-1.7.5-3.4.7-5.1,0-.8.3-1.6.5-2.4.2-.7.3-1.3.4-1.9,0-1.5,1.1-7.6,1.5-8.2l.2-.3h.3c.6,0,1.2,0,1.9,0,1.7,0,3.4,0,5.2,0h.4s.1.4.1.4c.7,2.3,1,4.6,1.3,6.9.1,1.1.3,2.1.4,3.2,0,1.2.3,2.4.5,3.6.1.7.2,1.3.3,2l1.1,8.8c0,.2,0,.4.1.6,0,.3,0,.4,0,.6.5,5.1,1.7,13,2.1,15.6v.8c.2.7.3,1.3.4,1.9.1.9.3,1.9.3,2.9v.2l-.5.5ZM590.6,213.6h6.1c.7.7,1.2,6.3,1.2,6.9,0,.9,0,1.2.2,1.2h5.3c0-.8-.1-1.5-.3-2.3,0-.6-.2-1.3-.3-1.9v-.8c-.5-2.6-1.7-10.5-2.2-15.7,0,0,0-.2,0-.4,0-.4-.1-.6-.1-.8l-1.1-8.7c0-.6-.2-1.3-.3-1.9-.2-1.2-.4-2.5-.5-3.7-.2-1-.3-2.1-.4-3.1-.3-2.1-.5-4.3-1.1-6.3-1.6-.1-3.1,0-4.6,0-.5,0-1,0-1.5,0-.3,1.2-1.2,5.9-1.2,7.3-.1.8-.3,1.5-.5,2.1-.2.8-.4,1.5-.5,2.2-.2,1.8-.4,3.5-.7,5.2-.3,1.6-.5,3.3-.7,4.9-.7,4.3-1.2,8.8-1.7,13-.3,2.7-.6,5.5-1,8.3,0,0,0,.3-.2,1,0,.4-.2.8-.2.9,0,0,0,0,0,.2,0,0,0,0,0,0,.4,0,1.1,0,1.7,0,.9,0,1.8,0,2,0h.5c.4-.2.6-2.7.7-3.8.2-2.3.3-4,1.5-4ZM595.8,209.2h-4.8c-.5-.2-.9-.8-.7-1.4,0-.9.2-1.8.3-2.6,0-.4.1-.7.2-1.1.2-1.4.4-2.7.6-4,.5-2.6.9-5.3,1-8.3,0-.4.4-1.1,1.1-1.1s1,0,2,9.8c0,.6.1,1.1.1,1.4h0s0,.5,0,.5c0,3.6.3,4.7.5,5.2.1.4.2.7,0,1.2h0c0,.1-.3.6-.3.6ZM591.4,208h3.7c0,0,0-.1,0-.2-.2-.6-.5-1.8-.5-5.6h0c0-.3-.1-.8-.2-1.8-.2-1.6-.5-5-.8-7.1-.1,2.4-.5,4.7-.9,6.9-.2,1.3-.5,2.6-.6,4,0,.4-.1.8-.2,1.1-.2.9-.3,1.7-.3,2.5h0Z"/>
  <path class="st0" d="M611.4,222.5l-.5-.3c-.4-.4-.5-1-.4-3.3,0-.5,0-1.1,0-1.3h0v-.2c0-.5,0-1.9,0-3.2,0-1.2,0-2.4,0-2.8v-2.5c0-1-.4-2.2-.6-3.3-.1-.6-.3-1.1-.4-1.7l-3.3-16.2c-.3-1.4-.6-2.7-.9-4.1-.3-1.4-.6-2.8-.9-4.2,0-.3-.1-.6-.2-.9-.2-.9-.4-1.8-.4-2.7v-.9l.9-.3h5.3c.6,0,1.1.3,1.4.8v.2c.2.4.2.6.2.7.5,2.4.9,5.7,1.3,8.8.4,3.1.7,6.4,1.3,8.7h0c0-.4,0-.7.1-1.1,0-.5.1-1.1.2-1.5l2-13.5s0-.6,0-1c0-.3,0-.7,0-.7v-.2s.3-.7.3-.7l.5-.3h5.4c.8,0,1.1.6,1.1,1.1v.3c-.9,3.7-1.5,7.6-2.2,11.4l-.5,3c-.3,1.9-.6,3.7-.9,5.6-.3,1.9-.6,3.7-.9,5.6,0,.1,0,.3-.2.8,0,.3-.2.7-.2.9,0,.8-.2,1.5-.4,2.3,0,.5-.2.9-.3,1.4-.1.7-.3,2.5-.3,2.5v12.4s-.7.7-.7.7h-6ZM611.7,221.3h0s5.2,0,5.2,0v-12c0-.1.2-2,.3-2.6,0-.5.2-1,.3-1.4.2-.7.3-1.4.4-2.1,0,0,0-.3.2-1,0-.3.1-.5.1-.6.3-1.9.6-3.8.9-5.6.3-1.9.6-3.7.9-5.6l.5-3c.7-3.7,1.3-7.6,2.2-11.3h0s-4.9,0-4.9,0v.2c0,.2-.1.4-.1.7,0,.4,0,.9,0,1l-2,13.6c0,.4-.1.9-.2,1.5,0,.8-.2,1.7-.4,2.4,0,.3-.2,1.2-.9,1.2s-1.1-.1-1.1-1.5c0,0,0-.2,0-.3,0-.2,0-.5,0-.6-.5-2.4-.9-5.7-1.3-8.8-.4-3.1-.7-6.4-1.2-8.7h0c0-.2,0-.4,0-.5,0,0-.1-.1-.3-.1h-5c0,.9.2,1.7.3,2.6,0,.3.1.6.2.9.3,1.4.6,2.8.9,4.2.3,1.4.6,2.8.9,4.2l3.3,16.2c.1.5.2,1.1.4,1.6.3,1.2.6,2.3.6,3.5v2.6c0,.4,0,1.6,0,2.8,0,1.2,0,2.5,0,3.1,0,.2,0,.6,0,1.6,0,.7,0,1.9,0,2.3Z"/>
  <path class="st0" d="M623.9,231.8l-.7-1.3,3.5-8h-1.9l-.8-.7-.2-2.7v-4.2s.3-1.2.3-1.2h6.9l1.1.7v.3c0,3.8,0,7.7,0,7.7v.2s-3.4,8-3.4,8l-1.6.9h-3.2ZM624.5,230.4v.2c0,0,2.2,0,2.2,0l1-.6,3.1-7.6c0-.7,0-3.9,0-7.3h-.2c0-.1-5.7-.1-5.7-.1v.2c0,0,0,3.9,0,3.9l.2,2.1h.1c0,0,2.5,0,2.5,0l.3,1.1-3.5,8Z"/>
  <path class="st0" d="M805.4,222.7h-1.5,0c-1,0-3.3-.2-4.5-.2h-.2c-1.1-.5-1.1-1.5-1.1-2,0-4.1,0-8.3.2-12.4,0-4,.2-8.1.2-12.2-.4,2.2-.7,4.6-1.1,6.9-.4,2.5-.8,5.1-1.2,7.6h-.1s.1,0,.1,0c0,0,0,.4-.1,1-1.4,10.5-1.7,10.7-2.1,10.9h-.3c0,.1-.2,0-.2,0-.2,0-.7,0-1.2,0-.6,0-1.2,0-1.4,0-1.7,0-1.9-2.9-2.1-5.4,0-.4,0-.8,0-1.1-.7-5.5-1.4-10.8-2.3-16.2,0-.8-.2-1.7-.4-2.3-.1-.5-.2-.9-.2-1.1,0-.1,0-.4,0-.7,0-.3,0-.9-.1-1.4,0,11.8,0,17.3.1,21.3,0,2.3,0,4.1,0,6.2v.4l-1,.3h-4.7c-.4-.1-.9-.3-1-.8h0c0-.1-.1-2.8-.1-2.8,0-7.2,0-14.4,0-21.6,0-7.3,0-14.6,0-22v-.4l1-.3h7.8c.6,0,1.3.3,1.3,1.8v.5c0,.5,1,5.9,1.8,9.9,0,.1,0,.5.1.9.5,3.7.9,5.4,1.2,6.2.4-1.2.7-3.3.7-4.3l.2-1.6c1.3-11.2,1.9-13.1,2.8-13.4h.2c5.5,0,7.5,0,8.8.2h.2s.6.6.6.6v.2c.2,1.3.3,18.2.2,36.8v6.8s-.2,2.8-.2,2.8l-.4.6ZM799.5,221.4c2.9,0,4.3,0,5,.2h0s.1,0,.1,0l.2-2.2v-6.8c0-12.8,0-34-.2-36.5h0c-1.2-.2-3.3-.2-8.1-.2-.7,1.3-1.7,9.6-2,12.4l-.2,1.5h0s-.1,4.5-1.4,5.8l-.4.4-.4-.3c-.8-.6-1.4-2.7-2-7.7,0-.4,0-.7-.1-.9-.8-3.7-1.8-9.6-1.8-10.2v-.5c0-.5,0-.6,0-.6h-7.6c0,7.3,0,14.4,0,21.6,0,7.2,0,14.4,0,21.6v2.4c.1,0,.2,0,.2,0,0,0,.1,0,.2,0h4.1c0-1.9,0-3.6,0-5.7,0-4.2-.1-10-.1-22.9h0c0-.1.3-1.5.3-1.5h.5c1.4,0,1.6,2.4,1.7,4.4,0,.3,0,.6,0,.8,0,.2,0,.6.2.9.2.7.4,1.7.4,2.5.8,5.3,1.6,10.5,2.3,16.1,0,.3,0,.7.1,1.2.3,3.5.6,4.3.9,4.3s.7,0,1.3,0c.4,0,.7,0,1,0,.2-.7.7-3.2,1.6-9.9,0-.4,0-.7.1-.9h0s0,0,0,0c0,0,0,0,0,0h0c.4-2.5.8-5,1.2-7.6.4-2.6.8-5.3,1.3-7.9,0-.2,0-.3,0-.4,0-.6.2-1.4.9-1.8h0s.3-.2.3-.2l.3.2c.4.3.5.9.5,3.1,0,4.2,0,8.4-.2,12.5,0,4.1-.2,8.2-.2,12.4s0,.7.3.8Z"/>
  <path class="st0" d="M830.9,222.8h-6c-1.3,0-1.3-1.7-1.3-2.4,0-1.2-.5-4.6-.7-5.7h-5.2c-.2.4-.3,1.9-.4,2.9-.2,2.5-.3,4.9-1.9,4.9h-.5c-.3,0-1.2,0-2.1-.1-.9,0-1.8,0-2,0s-.4,0-.6-.2c-.3-.3-.3-.8-.2-1.1h0c0-.2,0-.5.2-1.2,0-.4.2-.8.2-.9.4-2.8.7-5.6,1-8.3.5-4.3,1-8.7,1.7-13.1.2-1.7.4-3.3.7-5,.3-1.7.5-3.4.7-5.1,0-.8.3-1.6.5-2.4.2-.7.3-1.3.4-1.9,0-1.5,1.1-7.6,1.5-8.2l.2-.3h.3c.6,0,1.2,0,1.9,0,1.7,0,3.4,0,5.2,0h.4s.1.4.1.4c.7,2.3,1,4.6,1.3,6.9.1,1.1.3,2.1.4,3.1,0,1.2.3,2.4.5,3.6.1.7.2,1.4.3,2l1.1,8.8c0,.2,0,.4.1.6,0,.3,0,.4,0,.6.5,5.1,1.7,13,2.1,15.6v.9c.2.7.3,1.3.4,1.9.1.9.3,1.9.3,2.9v.2l-.5.5ZM817.5,213.6h6.1c.7.7,1.2,6.3,1.2,6.9,0,.9,0,1.2.2,1.2h5.3c0-.8-.1-1.5-.3-2.3,0-.6-.2-1.3-.3-1.9v-.8c-.5-2.6-1.7-10.5-2.2-15.7,0,0,0-.2,0-.4,0-.4-.1-.6-.1-.8l-1.1-8.7c0-.6-.2-1.3-.3-1.9-.2-1.2-.4-2.5-.5-3.7-.2-1-.3-2.1-.4-3.1-.3-2.1-.5-4.3-1.1-6.3-1.6-.1-3.1,0-4.6,0-.5,0-1,0-1.5,0-.3,1.2-1.2,5.9-1.2,7.3-.1.8-.3,1.4-.5,2.1-.2.8-.4,1.5-.5,2.2-.2,1.8-.4,3.5-.7,5.2-.3,1.6-.5,3.3-.7,4.9-.7,4.3-1.2,8.8-1.7,13-.3,2.7-.6,5.5-1,8.3,0,0,0,.3-.2,1,0,.4-.2.8-.2.9,0,0,0,0,0,.2,0,0,0,0,0,0,.4,0,1.1,0,1.7,0,.9,0,1.8,0,2,0h.5c.4-.2.6-2.7.7-3.8.2-2.3.3-4,1.5-4ZM822.7,209.2h-4.8c-.5-.2-.9-.8-.7-1.4,0-.9.2-1.8.3-2.6,0-.4.1-.7.2-1.1.2-1.4.4-2.7.6-4,.5-2.6.9-5.3,1-8.3,0-.4.4-1.1,1.1-1.1s1,0,2,9.8c0,.6.1,1.1.1,1.4h0s0,.5,0,.5c0,3.6.3,4.7.5,5.2.1.4.2.7,0,1.2h0c0,.1-.3.6-.3.6ZM818.3,208h3.7c0,0,0-.1,0-.2-.2-.6-.5-1.8-.5-5.6h0c0-.3-.1-.8-.2-1.8-.2-1.6-.5-5-.8-7.1-.1,2.4-.5,4.7-.9,6.9-.2,1.3-.5,2.7-.6,4,0,.4-.1.8-.2,1.1-.2.9-.3,1.7-.3,2.5h0Z"/>
  <path class="st0" d="M840.3,222.7c-.7,0-1.6,0-2.4-.2-.6,0-1.2-.1-1.5-.1h-.2l-.6-.6c-.3-.4-.3-2.8-.3-3.3,0-1.2,0-6.9,0-12.6,0-5.8.1-11.6.1-12.9,0-2.5,0-5.1,0-7.5,0-2.5-.1-5-.1-7.6s0-.3,0-.4c0-1-.1-2.6,1.3-3h.1s1.6,0,1.6,0c2.6,0,5.2,0,7.9.2.6,0,3.3.4,4.5,1.3,3.4,2.7,3.7,6.7,3.7,10.3s-.6,7.8-3.8,11.6h0c1.2.8,2.3,1.6,2.8,3.8.6,2.6,1,9.7,1,14.7s.5,2.8.9,3.8l.2.6v.2c-.4,1.1-.7,1.2-1.8,1.2h-.4c-.4,0-.8,0-1.2,0-1.2,0-2.3,0-3.7,0h-.2s-.1-.1-.1-.1c-.8-.7-1.4-1.5-1.4-5.2s0-1.6,0-2.5c0-1.1,0-2.3,0-3.5v-.5c0-3,0-6.8-1.6-8.4-.6-.6-1.3-.8-2.2-.8s-.3,0-.3.3c0,.5,0,2,0,3.5,0,1.5-.1,3.1-.1,3.6s0,2.1,0,3.7c0,1.7.1,3.4.1,3.8,0,1,0,2,.1,3,0,.8.1,1.6.1,2.4v.2c-.4.8-1.4,1-2.6,1ZM836.6,221.2c.4,0,.9,0,1.4.1.8,0,3.4.3,3.7,0,0-.7,0-1.4-.1-2.1,0-1-.1-2-.1-3.1s0-2.1,0-3.7c0-1.7-.1-3.4-.1-3.8,0-.5,0-2.1.1-3.7,0-1.5,0-3,0-3.4,0-.9.6-1.5,1.5-1.5,1.3,0,2.3.4,3.1,1.2,1.9,1.9,1.9,5.8,1.9,9.2v.5c0,1.2,0,2.4,0,3.6,0,.9,0,1.8,0,2.5,0,3.1.4,3.7.9,4.1,1.2,0,2.3,0,3.4,0,.4,0,.8,0,1.2,0h.4c.2,0,.4,0,.5,0,0,0,0,0,0-.2v-.3c-.5-1.1-1.1-2.6-1.1-4.2,0-4.8-.4-11.9-1-14.4-.4-1.8-1.2-2.3-2.4-3.2l-.4-.3v-1.2c3.2-3.6,3.8-6.7,3.8-11s-.2-7-3.2-9.4c-.7-.5-2.5-.9-3.9-1.1-2.6-.2-5.2-.2-7.7-.2h-1.5c-.4.2-.4.9-.4,1.8,0,.2,0,.3,0,.5,0,2.5,0,5.1,0,7.5,0,2.5.1,5,.1,7.6s0,7.1-.1,12.9c0,5.7,0,11.4,0,12.6s0,2.2.1,2.7h0ZM843.7,195.9c-.2,0-.4,0-.5,0-.2,0-.4,0-.5,0h-.2l-.7-.7v-13.9l.8-.9h2.9c1.8.4,2.4,2.6,2.4,4.5s-.1,4.5-.2,6.6c0,.8,0,1.5-.1,2.3h0c0,.1,0,.3,0,.3-1,1.7-2.4,1.8-3.6,1.8ZM842.9,194.7c0,0,.2,0,.3,0,1.3,0,2.3,0,3-1.1,0-.7,0-1.4.1-2.2.1-2.2.2-4.4.2-6.6s-.4-3-1.4-3.3h-2.1v.2c-.1,0-.1,13-.1,13Z"/>
  <path class="st0" d="M872,223.1h-4.8c-.3,0-1.7-.4-2.1-.6-4.4-1.8-5.2-6.3-5.5-10.5v-20.4c0-.5,0-1.9.1-3.3,0-1.2,0-2.3,0-2.6.2-3.8.9-7.9,4.4-10.5,2.7-1.8,4.7-1.6,7.2-1.5h.4c.1.1.3.2.4.2h.2c1.5.6,2.5,1.6,3.6,2.8,2.2,2.4,2.2,6.1,2.2,9.1s0,.6,0,.8c0,1,0,2.1-.3,3h0c0,.1-.3.6-.3.6h-5.8l-.5-.5v-4.6c0-.3,0-1-.1-1.7,0-.6,0-1.2,0-1.4,0-.3-.2-.5-.8-.9-.2-.1-.7-.1-1-.1-1,0-1.6.5-1.6,2.7,0,4.6,0,9.2-.1,13.7,0,4.5,0,9.1,0,13.6v1.1c0,.2,0,.6,0,1.1,0,.5,0,1.1.1,1.4.2.8,1.2,1.6,1.9,1.6s1.1-.3,1.6-.5c.2,0,.3-.2.5-.2h0c.1-.3.4-.7.6-1v-9.3c0-.5.4-.7,1.1-.7h.4c.4,0,1.3,0,2.2,0,.9,0,1.8,0,2.1,0,.6,0,.8.6,1.2,2v.5c.1,0,.1,2.5.1,2.5,0,4-.3,8.6-3.6,11.9-.8.8-1.9,1.1-2.9,1.4-.2,0-.5.1-.7.2h0ZM867.2,221.9h4.6c.2,0,.4-.1.7-.2.9-.2,1.8-.5,2.4-1.1,3-3,3.3-7.1,3.3-11v-2.7c-.2-.2-.3-.8-.4-1.1-.5,0-1.2,0-1.9,0-.9,0-1.8,0-2.1,0h-.3v9.4c-.3.3-.6.8-.7.9v.2c-.1,0-.5.3-.5.3-.2,0-.3.2-.5.2-.6.3-1.3.7-2.1.7-1.3,0-2.9-1.3-3.1-2.6h0c0-.3,0-.9-.1-1.4,0-.5,0-1.1,0-1.2v-1.1c0-4.6,0-9.2.1-13.7,0-4.5,0-9.1,0-13.6s0-3.9,2.8-3.9,1,0,1.5.3c.5.3,1.4.9,1.4,1.9s0,.7,0,1.3c0,.7.1,1.5.1,1.8v4h4.5c.2-.7.2-1.6.1-2.4,0-.3,0-.6,0-.9,0-2.8,0-6.2-1.8-8.3-1-1.1-1.9-1.9-3.1-2.4-.2,0-.4-.1-.6-.2h0c-2.4-.2-4.1-.3-6.4,1.2-3.1,2.2-3.8,6.1-3.9,9.5,0,.3,0,1.4,0,2.6,0,1.3-.1,2.7-.1,3.2v20.4c.2,4,.9,7.9,4.8,9.4.4.2,1.4.5,1.7.5Z"/>
  <path class="st0" d="M900.2,222.5h-4.5l-.7-.7v-7.6c0-1,0-3.6-.1-6.2,0-2.3,0-4.5,0-5.6h0c-.6-.2-1.6-.2-2.2-.2h-1.2l-.2,2.1-.5,17.2c0,.7-.9.9-1.3.9h-.3c-1.3,0-4.6-.1-4.8-.1h-.2s-.7-.7-.7-.7v-13.1c0-1.8,0-7.2.1-12.6,0-5.4,0-10.7,0-12.5s0-1.4,0-2.3c0-.9,0-1.8,0-2.1v-1.1c0-.7.1-2.4.1-2.4v-.3s.6-.4.6-.4h5.8c.4,0,.6.3.9.8v.2c0,.3.1,1,.2,1.6,0,.7,0,1.3,0,1.5v.3c0,2.1,0,4.1-.1,6.1,0,1.9,0,3.9,0,6v3.7s0,0,0,0h3.6c0-1,0-3.9,0-6.7,0-2.9,0-5.8,0-6.8s0-1.5,0-2.6c0-1.1,0-2.2,0-2.6v-.2c.2-.5.6-.8.9-1,.1,0,.2-.2.3-.2l.4-.4.4.4c.3,0,1.2.1,1.9.1,2,0,2.9.1,3.2.6.1.2.2.4.2.6v12.8c0,4.6-.3,24.9-.5,29.3,0,.7,0,1.6-.7,2.5h0c-.2.2-.4.4-.4.5v.8l-.5.5ZM889.4,221.5s0,0,0,0h0ZM896.2,221.3h3.3v-.2c0-.2,0-.5.8-1.1.4-.5.4-1.1.4-1.7.2-4.4.5-24.6.5-29.2v-12.6c-.5-.1-1.5-.1-2.2-.2-1.1,0-1.7,0-2.1-.2,0,0-.1,0-.2.1-.2.1-.3.2-.4.3,0,.5,0,1.5,0,2.5,0,1.1,0,2.2,0,2.6,0,1,0,4-.1,6.9,0,2.9,0,5.8,0,6.8s-.4,1.1-1.1,1.1h-3.9c-.6,0-1.1-.8-1.1-1.3v-3.7c0-2,0-4,0-6,0-2,.1-4,.1-6.1v-.3c0-.2,0-.8,0-1.5,0-.6,0-1.3-.1-1.6,0,0,0,0,0,0h-5c0,.5,0,1.5,0,1.9v1.1c0,.3,0,1.2,0,2.2,0,1,0,1.9,0,2.3,0,1.8,0,7.2-.1,12.6,0,5.4,0,10.7,0,12.5v12.6c.8,0,3.4.1,4.5.1h.3s0,0,0,0l.5-17,.2-2.2c0-.6.6-1.1,1.1-1.1h1.3c.8,0,2,0,2.7.2h.1s.6.7.6.7v.2c0,.9,0,3.3,0,5.8,0,2.6.1,5.2.1,6.2v7.1Z"/>
  <path class="st0" d="M1071.1,223.1h-10.4c-.5,0-.9,0-1.8,0l-3.3-.2c-.5,0-1.3,0-2,.1-1,.1-1.7.2-2.1,0-1-.3-1.5-.7-1.5-1.3l-.3-5.4.8-.5h5.3c1.1,0,1.4-.3,1.4-.3v-3.3c0-4.8.1-8.8.2-12.7,0-3.8.2-7.8.2-12.4,0,0,0,0,0,0-.3.9-1.4,2.4-2.2,3.6-.4.6-.8,1.1-.9,1.3-.3.7-.7,1.1-1.2,1.2-.7.2-1.4-.3-1.9-.7-.2-.1-.3-.3-.5-.4-.5-.5-1.1-1-1.1-1l-2.1-2.2,1.1-1.8,4.4-6,1.7-2.8c.8-.7,1.1-1.3,1.4-1.9.2-.4.4-.8.8-1.1h0c.6-.6,2.5-.6,2.5-.6l4.3.2h0c.6,0,1,.6,1.2,1h0v17c0,2.9-.1,5.9-.2,8.8,0,2.9-.2,5.9-.2,8.9s0,1.8,0,2.8c0,1.3,0,1.8,0,2.1v.3c.1,0,1.7,0,1.7,0l4.5.2.8.6v5.5h-.2c-.1.3-.2.5-.4.7h-.1ZM1055.3,221.5c.2,0,.3,0,.5,0l3.3.2c.8,0,1.2,0,1.7,0h9.9s0,0,0,0c0,0,0-.1,0-.2v-4.4s-6.5-.3-6.5-.3l-.5-1.5h0c0-.4,0-1.3,0-2,0-1,0-2.1,0-2.8,0-3,.1-6,.2-8.9,0-2.9.2-5.9.2-8.8v-16.5c0-.1-.1-.2-.2-.3l-4.2-.2c-.2,0-1.3.2-1.7.3h0c-.2.2-.3.5-.5.8-.3.6-.7,1.3-1.6,2.2l-1.6,2.7-4.4,6-.6,1,1.4,1.5h0s.6.5,1,.9c.1,0,.3.2.5.4.3.2.7.6.9.5,0,0,.2-.2.4-.6.1-.3.4-.7,1-1.5.8-1.1,1.8-2.6,2.1-3.4.3-.7.9-1,1.4-.9.5,0,.9.5.9,1.1,0,4.7-.1,8.7-.2,12.5,0,3.9-.2,8-.2,12.7v3.3c0,.5-.3,1.5-2.6,1.5h-4.8l.2,4.5c0,0,.3.2.6.3.2,0,1.1,0,1.7-.1.6,0,1.2-.1,1.8-.1ZM1051.3,221.6h0s0,0,0,0Z"/>
  <path class="st0" d="M1084.8,223.1h-1.5c-1.1,0-2.6-.3-3.5-1.3-1.9-1.7-3.1-3.5-3.7-5.6-.7-3.5-.9-6.6-1.2-10.6v-.6c0-1.1,0-4.4.1-7.6,0-3.2,0-6.3,0-7.4v-.2c.4-5,.8-11.8,5.9-14.5h0c.6-.4,1.2-.9,2.1-.9h2c1,0,2.3,0,3.5.2,2.5.7,4.4,3.1,5.7,7.3.3.6.4,1.8.4,1.9v24.3l-.3,5.4h0c-.2.4-.2.8-.3,1.2-.1.4-.2.9-.5,1.3-1.9,3.8-3.9,7-8.9,7ZM1083.3,175.6c-.6,0-1,.3-1.5.6h-.1c-4.6,2.5-5,8.9-5.3,13.6v.2c0,1.1,0,4.2-.1,7.4,0,3.2-.1,6.4-.1,7.6v.5c.2,3.9.4,6.9,1.1,10.3.5,1.9,1.5,3.5,3.3,5.1.6.7,1.8,1,2.7,1h1.5c4.4,0,6.1-2.8,7.9-6.4.2-.3.3-.7.4-1.1,0-.4.2-.8.4-1.2l.3-5.1v-24.3c0-.2-.1-1.2-.3-1.4h0c-1.2-4-2.8-6.1-4.8-6.7-1-.2-2.3-.2-3.2-.2h-2ZM1085.1,217.1c-1.4,0-2.9-.9-3.2-2.5v-24.6c0-.6,0-2,0-3.5,0-1.4,0-2.9,0-3.4s.2-.7.3-.9v-.2c.2,0,.2-.1.3-.2.6-.7.9-.9,1.2-1,.3-.1,1-.4,1.4-.4h.2c1.7,0,2.9,1.6,2.9,3v10.7c0,1.1,0,4.2-.1,7.3,0,3,0,5.9,0,6.9s0,1.4,0,2.5c0,1.1-.1,2.2-.1,2.6,0,1.9-.9,3.7-2.9,3.7ZM1083.4,182.8c0,.1,0,.2-.1.3,0,.5,0,2,0,3.5,0,1.4,0,2.9,0,3.4v24.5c.1.9,1.3,1.4,2,1.4,1.6,0,1.7-2.3,1.7-2.5,0-.4,0-1.5.1-2.7,0-1,0-2.1,0-2.4,0-1,0-3.9,0-6.9,0-3.1.1-6.2.1-7.3v-10.7c0-.9-.7-1.8-1.7-1.8h-.2c-.1,0-.6.2-1,.4h0c-.2.2-.5.5-.7.7,0,0-.1.1-.1.2Z"/>
</svg>