<?xml version="1.0" encoding="UTF-8"?>
<svg id="Layer_1" xmlns="http://www.w3.org/2000/svg" version="1.1" viewBox="0 0 470.6 22.7">
  <!-- Generator: Adobe Illustrator 29.3.1, SVG Export Plug-In . SVG Version: 2.1.0 Build 151)  -->
  <defs>
    <style>
      .st0 {
        fill: #fff;
      }
    </style>
  </defs>
  <path class="st0" d="M5.7,14.1h-1.2l.4-1.9h1.5l.5-1.5h-1.2l.4-1.9h1.5l1-2.9h2l-1,2.9h1.2l1-2.9h2l-1,2.9h1.2l-.4,1.9h-1.5l-.5,1.5h1.2l-.4,1.9h-1.5l-1,2.9h-2l1-2.9h-1.2l-1,2.9h-2l1-2.9ZM10.2,10.7h-1.2l-.5,1.5h1.2l.5-1.5Z"/>
  <path class="st0" d="M36.6,16.1h0c-.9.8-2.1,1.3-3.9,1.3-2.6,0-4.7-1.4-4-4.7.7-3.2,3.4-4.7,6-4.7s2.7.4,3.2,1.2h0l.9-4.1h4l-2.5,11.8h-3.9l.2-.9ZM35.4,10.7c-1.4,0-2.4.9-2.6,2-.2,1.2.2,2,1.8,2s2.4-.7,2.6-2c.3-1.2-.2-2-1.8-2Z"/>
  <path class="st0" d="M58.4,8.2h3.9l-.4,1.7h0c1.3-1.4,2.8-1.9,4.1-1.9s.9,0,1.3,0l-.8,3.6c-.7-.2-1.2-.3-1.9-.3-1.4,0-3,.5-3.4,2.4l-.7,3.3h-4l1.9-8.8Z"/>
  <path class="st0" d="M94,14.4c-.5.9-1.3,1.7-2.5,2.2-1.1.5-2.6.8-4.4.8-4.2,0-6.3-1.5-5.6-4.7.6-3,3.3-4.7,7.3-4.7s6.5,1.3,5.5,5.7h-8.8c-.1.6.3,1.6,2.1,1.6s1.7-.2,2.2-.8h4.3ZM90.6,11.5c.1-.9-.7-1.5-2-1.5s-2.3.4-2.7,1.5h4.8Z"/>
  <path class="st0" d="M110.7,10.9c.5-1.2,1.2-1.9,2.2-2.4,1.1-.4,2.6-.6,4.7-.6,4.1,0,5.5.9,4.9,3.5l-.9,4.2c-.1.7,0,1.1,0,1.4h-4.1c0-.3,0-.5,0-.9-1.1.8-2.5,1.2-4.6,1.2s-4.2-.7-3.7-3c.3-1.6,1.7-2.6,4.7-2.8l3.4-.2c.8,0,1.1-.2,1.2-.7.1-.6-.5-.8-1.7-.8s-1.9.1-2.2,1h-4ZM118.3,13c-.7.1-1.9.2-3.3.4-.8,0-1.2.3-1.3.9-.1.6.3,1,1.3,1s2.9-.3,3.2-1.8v-.4Z"/>
  <path class="st0" d="M139.6,8.2h3.9l-.3,1.2h0c.8-.8,1.9-1.4,3.6-1.4s2.3.6,2.6,1.5c.7-.8,1.9-1.5,3.5-1.5s3.3.8,2.8,3l-1.3,6h-4l1.1-4.9c.2-.9-.1-1.2-.8-1.2s-1.4.4-1.7,1.5l-1,4.6h-3.9l1.1-4.9c.2-.9-.1-1.2-.8-1.2s-1.4.4-1.7,1.5l-1,4.6h-4l1.9-8.8Z"/>
  <path class="st0" d="M171.7,8.2h4.3l.3,5.2h0l3-5.2h3.4l.7,5.2h0l2.7-5.2h4.3l-4.8,8.8h-4.7l-.7-4.6-2.7,4.6h-4.7l-1.1-8.8Z"/>
  <path class="st0" d="M205.2,10.9c.5-1.2,1.2-1.9,2.2-2.4,1.1-.4,2.6-.6,4.7-.6,4.1,0,5.5.9,4.9,3.5l-.9,4.2c-.1.7,0,1.1,0,1.4h-4.1c0-.3,0-.5,0-.9-1.1.8-2.5,1.2-4.6,1.2s-4.2-.7-3.7-3c.3-1.6,1.7-2.6,4.7-2.8l3.4-.2c.8,0,1.1-.2,1.2-.7.1-.6-.5-.8-1.7-.8s-1.9.1-2.2,1h-4ZM212.7,13c-.7.1-1.9.2-3.3.4-.8,0-1.2.3-1.3.9-.1.6.3,1,1.3,1s2.9-.3,3.2-1.8v-.4Z"/>
  <path class="st0" d="M232.8,8.2h4.5l.7,5.2h0l2.9-5.2h4.5l-5.9,8.8h-4.6l-2.2-8.8Z"/>
  <path class="st0" d="M271.6,14.4c-.5.9-1.3,1.7-2.5,2.2-1.1.5-2.6.8-4.4.8-4.2,0-6.3-1.5-5.6-4.7.6-3,3.3-4.7,7.3-4.7s6.5,1.3,5.5,5.7h-8.8c-.1.6.3,1.6,2.1,1.6s1.7-.2,2.2-.8h4.3ZM268.2,11.5c.1-.9-.7-1.5-2-1.5s-2.3.4-2.7,1.5h4.8Z"/>
  <path class="st0" d="M295,7.9c4.5,0,6.2,1.5,5.5,4.7-.7,3.2-3,4.7-7.5,4.7s-6.2-1.5-5.5-4.7c.7-3.2,3-4.7,7.5-4.7ZM293.5,14.8c1.6,0,2.4-.7,2.7-2.1.3-1.4-.2-2.1-1.8-2.1s-2.4.8-2.8,2.1c-.3,1.4.2,2.1,1.8,2.1Z"/>
  <path class="st0" d="M323.7,16.1h0c-.9.8-2.1,1.3-3.9,1.3-2.6,0-4.7-1.4-4-4.7.7-3.2,3.4-4.7,6-4.7s2.7.4,3.2,1.2h0l.9-4.1h4l-2.5,11.8h-3.9l.2-.9ZM322.5,10.7c-1.4,0-2.4.9-2.6,2-.2,1.2.2,2,1.8,2s2.4-.7,2.6-2c.3-1.2-.2-2-1.8-2Z"/>
  <path class="st0" d="M343.6,17.4c.3,0,.5,0,1,0,.8,0,1.2,0,1.6-.7l.3-.5-2.4-8.1h4.2l1,4.5,2.9-4.5h4.2l-7.1,10.2c-.9,1.2-1.5,1.7-3.6,1.7s-2,0-2.7-.1l.6-2.6Z"/>
  <path class="st0" d="M373,13.5c-2.3-.2-2.7-1.2-2.4-2.7.4-2.1,2.5-2.9,6.5-2.9s5.6.5,5.2,3h-4.5c0-.2,0-.4-.2-.5-.2-.1-.5-.2-1.1-.2-1.2,0-1.5.3-1.6.6,0,.2,0,.5.9.5l3.7.3c2.1.2,2.7,1.2,2.4,2.6-.5,2.3-2.6,3.1-6.9,3.1s-5.8-.9-5.4-3.1h4.7c0,.4,0,.6.4.7s.7.2,1.1.2c1,0,1.4-.3,1.5-.7,0-.3,0-.5-.4-.5l-3.8-.4Z"/>
  <path class="st0" d="M400.4,13.5c-2.3-.2-2.7-1.2-2.4-2.7.4-2.1,2.5-2.9,6.5-2.9s5.6.5,5.2,3h-4.5c0-.2,0-.4-.2-.5-.2-.1-.5-.2-1.1-.2-1.2,0-1.5.3-1.6.6,0,.2,0,.5.9.5l3.7.3c2.1.2,2.7,1.2,2.4,2.6-.5,2.3-2.6,3.1-6.9,3.1s-5.8-.9-5.4-3.1h4.7c0,.4,0,.6.4.7s.7.2,1.1.2c1,0,1.4-.3,1.5-.7,0-.3,0-.5-.4-.5l-3.8-.4Z"/>
  <path class="st0" d="M437.4,14.4c-.5.9-1.3,1.7-2.5,2.2-1.1.5-2.6.8-4.4.8-4.2,0-6.3-1.5-5.6-4.7.6-3,3.3-4.7,7.3-4.7s6.5,1.3,5.5,5.7h-8.8c-.1.6.3,1.6,2.1,1.6s1.7-.2,2.2-.8h4.3ZM434,11.5c.1-.9-.7-1.5-2-1.5s-2.3.4-2.7,1.5h4.8Z"/>
  <path class="st0" d="M452.8,17.4c.3,0,.5,0,1,0,.8,0,1.2,0,1.6-.7l.3-.5-2.4-8.1h4.2l1,4.5,2.9-4.5h4.2l-7.1,10.2c-.9,1.2-1.5,1.7-3.6,1.7s-2,0-2.7-.1l.6-2.6Z"/>
</svg>