<?xml version="1.0" encoding="UTF-8"?>
<svg xmlns="http://www.w3.org/2000/svg" xmlns:xlink="http://www.w3.org/1999/xlink" version="1.1" viewBox="0 0 2500 1575">
  <!-- Generator: Adobe Illustrator 30.1.0, SVG Export Plug-In . SVG Version: 2.1.1 Build 136)  -->
  <defs>
    <style>
      .st0, .st1 {
        fill: none;
      }

      .st2 {
        fill: #7354a3;
      }

      .st3 {
        fill: #5658a6;
      }

      .st4 {
        fill: #6756a4;
      }

      .st5 {
        fill: #7953a2;
      }

      .st6 {
        fill: #5259a7;
      }

      .st7 {
        fill: #9a4f9e;
      }

      .st8 {
        fill: #465ca9;
      }

      .st9 {
        fill: #455ca9;
      }

      .st10 {
        fill: #6d55a3;
      }

      .st11 {
        fill: #9b4e9e;
      }

      .st12 {
        fill: #7b53a2;
      }

      .st13 {
        fill: #b64d9d;
      }

      .st14 {
        fill: #8251a1;
      }

      .st15 {
        fill: #eaeaea;
      }

      .st16 {
        fill: #a24e9e;
      }

      .st17 {
        fill: #8d50a0;
      }

      .st18 {
        fill: #b24d9d;
      }

      .st19 {
        fill: #4e5aa8;
      }

      .st20 {
        fill: #bb4d9d;
      }

      .st21 {
        fill: #7d52a2;
      }

      .st22 {
        fill: #6256a5;
      }

      .st23 {
        fill: #5e57a5;
      }

      .st24 {
        fill: #b74d9d;
      }

      .st25 {
        fill: #435caa;
      }

      .st26 {
        fill: #6c55a3;
      }

      .st27 {
        fill: #7654a2;
      }

      .st28 {
        fill: #8f50a0;
      }

      .st29 {
        fill: #415dab;
      }

      .st30 {
        fill: #4a5aa8;
      }

      .st31 {
        fill: #954f9f;
      }

      .st32 {
        fill: #4c5aa8;
      }

      .st33 {
        fill: #974f9f;
      }

      .st34 {
        fill: #7254a3;
      }

      .st35 {
        fill: #8451a1;
      }

      .st36 {
        fill: #5558a7;
      }

      .st37 {
        fill: #8c50a0;
      }

      .st38 {
        fill: #aa4d9d;
      }

      .st39 {
        fill: #5359a7;
      }

      .st40 {
        isolation: isolate;
      }

      .st41 {
        fill: #bd4d9d;
      }

      .st42 {
        fill: #435daa;
      }

      .st43 {
        fill: #7853a2;
      }

      .st44 {
        fill: #4b5aa8;
      }

      .st45 {
        fill: #8551a1;
      }

      .st46 {
        fill: #b04d9d;
      }

      .st1 {
        stroke: #79ffff;
        stroke-miterlimit: 10;
        stroke-width: 2.7px;
      }

      .st47 {
        fill: #485ba9;
      }

      .st48 {
        fill: #5958a6;
      }

      .st49 {
        fill: #994f9f;
      }

      .st50 {
        clip-path: url(#clippath-1);
      }

      .st51 {
        fill: #c44e9d;
      }

      .st52 {
        fill: #92509f;
      }

      .st53 {
        fill: #7a53a2;
      }

      .st54 {
        fill: #415eab;
      }

      .st55 {
        fill: #6156a5;
      }

      .st56 {
        fill: #8851a0;
      }

      .st57 {
        fill: #b44d9d;
      }

      .st58 {
        fill: #bf4e9d;
      }

      .st59 {
        fill: #6653a3;
      }

      .st60 {
        mix-blend-mode: hue;
      }

      .st60, .st61 {
        display: none;
      }

      .st62 {
        fill: #a84d9d;
      }

      .st63 {
        fill: #7054a3;
      }

      .st64 {
        fill: #b84d9d;
      }

      .st65 {
        fill: #5858a6;
      }

      .st66 {
        fill: #5059a7;
      }

      .st67 {
        fill: #455caa;
      }

      .st68 {
        fill: #5a57a6;
      }

      .st69 {
        fill: #5d57a5;
      }

      .st70 {
        fill: #90509f;
      }

      .st71 {
        fill: #445caa;
      }

      .st72 {
        fill: #6955a4;
      }

      .st73 {
        fill: #ac4d9d;
      }

      .st74 {
        fill: #6456a5;
      }

      .st75 {
        fill: #8951a0;
      }

      .st76 {
        fill: #ae4d9d;
      }

      .st77 {
        fill: #a04e9e;
      }

      .st78 {
        fill: #8052a1;
      }

      .st79 {
        fill: #944f9f;
      }

      .st80 {
        fill: #7454a3;
      }

      .st81 {
        fill: #a44d9d;
      }

      .st82 {
        fill: #475ba9;
      }

      .st83 {
        fill: #a94d9d;
      }

      .st84 {
        fill: #6b55a4;
      }

      .st85 {
        fill: #5b57a6;
      }

      .st86 {
        fill: #a64d9d;
      }

      .st87 {
        fill: #5c57a5;
      }

      .st88 {
        fill: #4f5aa8;
      }

      .st89 {
        fill: #c24e9d;
      }

      .st90 {
        fill: #5758a6;
      }

      .st91 {
        fill: #be4e9d;
      }

      .st92 {
        fill: #4d5aa8;
      }

      .st93 {
        fill: #495ba8;
      }

      .st94 {
        fill: #425daa;
      }

      .st95 {
        fill: #6656a4;
      }

      .st96 {
        fill: #9f4e9e;
      }

      .st97 {
        fill: #8351a1;
      }

      .st98 {
        fill: #9d4e9e;
      }

      .st99 {
        fill: #8a50a0;
      }

      .st100 {
        clip-path: url(#clippath);
      }

      .st101 {
        fill: #6e54a3;
      }

      .st102 {
        fill: #5f57a5;
      }

      .st103 {
        fill: #7e52a1;
      }

      .st104 {
        fill: #6056a5;
      }

      .st105 {
        fill: #6855a4;
      }
    </style>
    <clipPath id="clippath">
      <rect class="st0" width="2500" height="3151.5"/>
    </clipPath>
    <clipPath id="clippath-1">
      <rect class="st0" x="0" y=".1" width="2499.9" height="2499.9"/>
    </clipPath>
  </defs>
  <g class="st40">
    <g id="Layer_1">
      <g>
        <rect class="st61" width="2500" height="1575.7"/>
        <g class="st100">
          <g id="border">
            <rect class="st1" x="0" y="1" width="2500" height="3148.1" transform="translate(-54.2 44.6) rotate(-2)"/>
            <rect class="st1" x="0" y="1" width="2500" height="3148.1" transform="translate(-106.8 91) rotate(-4)"/>
            <rect class="st1" x="0" y="1" width="2500" height="3148.1" transform="translate(55.7 -42.7) rotate(2)"/>
            <rect class="st1" x="0" y="1" width="2500" height="3148.1" transform="translate(112.9 -83.4) rotate(4)"/>
          </g>
        </g>
        <g class="st60">
          <polygon class="st15" points="2497.5 2497.3 2.7 2497.3 2.7 2.5 2497.5 2.5 2497.5 2497.3 2497.5 2497.3"/>
          <line class="st59" x1="2.7" y1="2497.3" x2="2497.5" y2="2497.3"/>
          <polygon class="st54" points="2497.5 2499.7 2.7 2499.7 2.7 2494.9 2497.5 2494.9 2497.5 2499.7 2497.5 2499.7"/>
          <line class="st59" x1="2.7" y1="2497.3" x2="2472.8" y2="2472.6"/>
          <polygon class="st29" points="2.7 2499.7 2.7 2494.9 2472.8 2470.2 2472.8 2475 2.7 2499.7 2.7 2499.7"/>
          <line class="st59" x1="2.7" y1="2497.3" x2="2448.1" y2="2447.9"/>
          <polygon class="st94" points="2.7 2499.7 2.6 2494.9 2448 2445.5 2448.1 2450.3 2.7 2499.7 2.7 2499.7"/>
          <line class="st59" x1="2.7" y1="2497.3" x2="2423.4" y2="2423.2"/>
          <polygon class="st94" points="2.8 2499.7 2.6 2494.9 2423.3 2420.8 2423.4 2425.6 2.8 2499.7 2.8 2499.7"/>
          <line class="st59" x1="2.7" y1="2497.3" x2="2398.7" y2="2398.5"/>
          <polygon class="st42" points="2.8 2499.7 2.6 2494.9 2398.6 2396.1 2398.8 2400.9 2.8 2499.7 2.8 2499.7"/>
          <line class="st59" x1="2.7" y1="2497.3" x2="2374" y2="2373.8"/>
          <polygon class="st25" points="2.8 2499.7 2.6 2494.9 2373.9 2371.4 2374.1 2376.2 2.8 2499.7 2.8 2499.7"/>
          <line class="st59" x1="2.7" y1="2497.3" x2="2349.3" y2="2349.1"/>
          <polygon class="st71" points="2.8 2499.7 2.5 2494.9 2349.1 2346.7 2349.4 2351.5 2.8 2499.7 2.8 2499.7"/>
          <line class="st59" x1="2.7" y1="2497.3" x2="2324.6" y2="2324.4"/>
          <polygon class="st71" points="2.9 2499.7 2.5 2494.9 2324.4 2322 2324.7 2326.8 2.9 2499.7 2.9 2499.7"/>
          <line class="st59" x1="2.7" y1="2497.3" x2="2299.9" y2="2299.7"/>
          <polygon class="st67" points="2.9 2499.7 2.5 2494.9 2299.7 2297.3 2300.1 2302.1 2.9 2499.7 2.9 2499.7"/>
          <line class="st59" x1="2.7" y1="2497.3" x2="2275.2" y2="2275"/>
          <polygon class="st9" points="2.9 2499.7 2.5 2494.9 2274.9 2272.6 2275.4 2277.4 2.9 2499.7 2.9 2499.7"/>
          <line class="st59" x1="2.7" y1="2497.3" x2="2250.5" y2="2250.3"/>
          <polygon class="st8" points="3 2499.7 2.4 2494.9 2250.2 2247.9 2250.7 2252.7 3 2499.7 3 2499.7"/>
          <line class="st59" x1="2.7" y1="2497.3" x2="2225.8" y2="2225.6"/>
          <polygon class="st82" points="3 2499.7 2.4 2494.9 2225.5 2223.2 2226.1 2228 3 2499.7 3 2499.7"/>
          <line class="st59" x1="2.7" y1="2497.3" x2="2201.1" y2="2200.9"/>
          <polygon class="st82" points="3 2499.7 2.4 2494.9 2200.7 2198.5 2201.4 2203.2 3 2499.7 3 2499.7"/>
          <line class="st59" x1="2.7" y1="2497.3" x2="2176.4" y2="2176.2"/>
          <polygon class="st47" points="3 2499.7 2.3 2494.9 2176 2173.8 2176.7 2178.5 3 2499.7 3 2499.7"/>
          <line class="st59" x1="2.7" y1="2497.3" x2="2151.7" y2="2151.5"/>
          <polygon class="st47" points="3.1 2499.6 2.3 2495 2151.3 2149.1 2152 2153.8 3.1 2499.6 3.1 2499.6"/>
          <line class="st59" x1="2.7" y1="2497.3" x2="2127" y2="2126.8"/>
          <polygon class="st93" points="3.1 2499.6 2.3 2495 2126.6 2124.4 2127.4 2129.1 3.1 2499.6 3.1 2499.6"/>
          <line class="st59" x1="2.7" y1="2497.3" x2="2102.3" y2="2102.1"/>
          <polygon class="st30" points="3.1 2499.6 2.3 2495 2101.8 2099.8 2102.7 2104.4 3.1 2499.6 3.1 2499.6"/>
          <line class="st59" x1="2.7" y1="2497.3" x2="2077.6" y2="2077.4"/>
          <polygon class="st44" points="3.2 2499.6 2.2 2495 2077.1 2075.1 2078 2079.7 3.2 2499.6 3.2 2499.6"/>
          <line class="st59" x1="2.7" y1="2497.3" x2="2052.9" y2="2052.7"/>
          <polygon class="st32" points="3.2 2499.6 2.2 2495 2052.4 2050.4 2053.4 2055 3.2 2499.6 3.2 2499.6"/>
          <line class="st59" x1="2.7" y1="2497.3" x2="2028.2" y2="2028"/>
          <polygon class="st92" points="3.2 2499.6 2.2 2495 2027.6 2025.7 2028.7 2030.3 3.2 2499.6 3.2 2499.6"/>
          <line class="st59" x1="2.7" y1="2497.3" x2="2003.5" y2="2003.3"/>
          <polygon class="st19" points="3.3 2499.6 2.1 2495 2002.9 2001 2004 2005.6 3.3 2499.6 3.3 2499.6"/>
          <line class="st59" x1="2.7" y1="2497.3" x2="1978.8" y2="1978.6"/>
          <polygon class="st88" points="3.3 2499.6 2.1 2495 1978.2 1976.3 1979.4 1980.9 3.3 2499.6 3.3 2499.6"/>
          <line class="st59" x1="2.7" y1="2497.3" x2="1954.1" y2="1953.9"/>
          <polygon class="st66" points="3.3 2499.6 2.1 2495 1953.4 1951.6 1954.7 1956.2 3.3 2499.6 3.3 2499.6"/>
          <line class="st59" x1="2.7" y1="2497.3" x2="1929.4" y2="1929.2"/>
          <polygon class="st6" points="3.4 2499.6 2 2495 1928.7 1926.9 1930 1931.5 3.4 2499.6 3.4 2499.6"/>
          <line class="st59" x1="2.7" y1="2497.3" x2="1904.7" y2="1904.5"/>
          <polygon class="st39" points="3.4 2499.6 2 2495 1904 1902.2 1905.4 1906.7 3.4 2499.6 3.4 2499.6"/>
          <line class="st59" x1="2.7" y1="2497.3" x2="1880" y2="1879.8"/>
          <polygon class="st39" points="3.4 2499.6 2 2495 1879.2 1877.5 1880.7 1882 3.4 2499.6 3.4 2499.6"/>
          <line class="st59" x1="2.7" y1="2497.3" x2="1855.3" y2="1855.1"/>
          <polygon class="st36" points="3.5 2499.5 1.9 2495 1854.5 1852.8 1856 1857.3 3.5 2499.5 3.5 2499.5"/>
          <line class="st59" x1="2.7" y1="2497.3" x2="1830.6" y2="1830.4"/>
          <polygon class="st3" points="3.5 2499.5 1.9 2495.1 1829.7 1828.1 1831.4 1832.6 3.5 2499.5 3.5 2499.5"/>
          <line class="st59" x1="2.7" y1="2497.3" x2="1805.9" y2="1805.7"/>
          <polygon class="st90" points="3.5 2499.5 1.8 2495.1 1805 1803.5 1806.7 1807.9 3.5 2499.5 3.5 2499.5"/>
          <line class="st59" x1="2.7" y1="2497.3" x2="1781.2" y2="1781"/>
          <polygon class="st65" points="3.6 2499.5 1.8 2495.1 1780.3 1778.8 1782 1783.2 3.6 2499.5 3.6 2499.5"/>
          <line class="st59" x1="2.7" y1="2497.3" x2="1756.5" y2="1756.3"/>
          <polygon class="st48" points="3.6 2499.5 1.8 2495.1 1755.5 1754.1 1757.4 1758.5 3.6 2499.5 3.6 2499.5"/>
          <line class="st59" x1="2.7" y1="2497.3" x2="1731.8" y2="1731.6"/>
          <polygon class="st68" points="3.7 2499.5 1.7 2495.1 1730.8 1729.4 1732.7 1733.7 3.7 2499.5 3.7 2499.5"/>
          <line class="st59" x1="2.7" y1="2497.3" x2="1707" y2="1706.9"/>
          <polygon class="st85" points="3.7 2499.5 1.7 2495.1 1706.1 1704.7 1708.1 1709 3.7 2499.5 3.7 2499.5"/>
          <line class="st59" x1="2.7" y1="2497.3" x2="1682.4" y2="1682.2"/>
          <polygon class="st87" points="3.7 2499.4 1.7 2495.2 1681.3 1680 1683.4 1684.3 3.7 2499.4 3.7 2499.4"/>
          <line class="st59" x1="2.7" y1="2497.3" x2="1657.7" y2="1657.5"/>
          <polygon class="st69" points="3.8 2499.4 1.6 2495.2 1656.6 1655.4 1658.7 1659.6 3.8 2499.4 3.8 2499.4"/>
          <line class="st59" x1="2.7" y1="2497.3" x2="1632.9" y2="1632.8"/>
          <polygon class="st23" points="3.8 2499.4 1.6 2495.2 1631.8 1630.7 1634.1 1634.9 3.8 2499.4 3.8 2499.4"/>
          <line class="st59" x1="2.7" y1="2497.3" x2="1608.3" y2="1608.1"/>
          <polygon class="st102" points="3.8 2499.4 1.5 2495.2 1607.1 1606 1609.4 1610.1 3.8 2499.4 3.8 2499.4"/>
          <line class="st59" x1="2.7" y1="2497.3" x2="1583.6" y2="1583.4"/>
          <polygon class="st104" points="3.9 2499.4 1.5 2495.2 1582.4 1581.3 1584.7 1585.4 3.9 2499.4 3.9 2499.4"/>
          <line class="st59" x1="2.7" y1="2497.3" x2="1558.8" y2="1558.7"/>
          <polygon class="st55" points="3.9 2499.3 1.5 2495.3 1557.6 1556.6 1560.1 1560.7 3.9 2499.3 3.9 2499.3"/>
          <line class="st59" x1="2.7" y1="2497.3" x2="1534.2" y2="1534"/>
          <polygon class="st22" points="4 2499.3 1.4 2495.3 1532.9 1532 1535.4 1536 4 2499.3 4 2499.3"/>
          <line class="st59" x1="2.7" y1="2497.3" x2="1509.4" y2="1509.3"/>
          <polygon class="st74" points="4 2499.3 1.4 2495.3 1508.1 1507.3 1510.7 1511.3 4 2499.3 4 2499.3"/>
          <line class="st59" x1="2.7" y1="2497.3" x2="1484.7" y2="1484.6"/>
          <polygon class="st95" points="4 2499.3 1.4 2495.3 1483.4 1482.6 1486.1 1486.5 4 2499.3 4 2499.3"/>
          <line class="st59" x1="2.7" y1="2497.3" x2="1460" y2="1459.9"/>
          <polygon class="st4" points="4.1 2499.2 1.3 2495.4 1458.7 1457.9 1461.4 1461.8 4.1 2499.2 4.1 2499.2"/>
          <line class="st59" x1="2.7" y1="2497.3" x2="1435.3" y2="1435.2"/>
          <polygon class="st105" points="4.1 2499.2 1.3 2495.4 1433.9 1433.3 1436.8 1437.1 4.1 2499.2 4.1 2499.2"/>
          <line class="st59" x1="2.7" y1="2497.3" x2="1410.6" y2="1410.5"/>
          <polygon class="st72" points="4.1 2499.2 1.2 2495.4 1409.2 1408.6 1412.1 1412.3 4.1 2499.2 4.1 2499.2"/>
          <line class="st59" x1="2.7" y1="2497.3" x2="1385.9" y2="1385.8"/>
          <polygon class="st84" points="4.2 2499.2 1.2 2495.4 1384.5 1383.9 1387.4 1387.6 4.2 2499.2 4.2 2499.2"/>
          <line class="st59" x1="2.7" y1="2497.3" x2="1361.2" y2="1361.1"/>
          <polygon class="st26" points="4.2 2499.1 1.2 2495.5 1359.7 1359.2 1362.8 1362.9 4.2 2499.1 4.2 2499.1"/>
          <line class="st59" x1="2.7" y1="2497.3" x2="1336.5" y2="1336.4"/>
          <polygon class="st10" points="4.3 2499.1 1.1 2495.5 1335 1334.6 1338.1 1338.2 4.3 2499.1 4.3 2499.1"/>
          <line class="st59" x1="2.7" y1="2497.3" x2="1311.8" y2="1311.7"/>
          <polygon class="st101" points="4.3 2499.1 1.1 2495.5 1310.2 1309.9 1313.4 1313.4 4.3 2499.1 4.3 2499.1"/>
          <line class="st59" x1="2.7" y1="2497.3" x2="1287.1" y2="1287"/>
          <polygon class="st63" points="4.3 2499 1.1 2495.6 1285.5 1285.2 1288.8 1288.7 4.3 2499 4.3 2499"/>
          <line class="st59" x1="2.7" y1="2497.3" x2="1262.4" y2="1262.3"/>
          <polygon class="st34" points="4.4 2499 1 2495.6 1260.8 1260.6 1264.1 1263.9 4.4 2499 4.4 2499"/>
          <line class="st59" x1="2.7" y1="2497.3" x2="1237.7" y2="1237.6"/>
          <polygon class="st2" points="4.4 2499 1 2495.6 1236 1235.9 1239.4 1239.2 4.4 2499 4.4 2499"/>
          <line class="st59" x1="2.7" y1="2497.3" x2="1213" y2="1212.9"/>
          <polygon class="st80" points="4.4 2498.9 1 2495.7 1211.3 1211.2 1214.8 1214.5 4.4 2498.9 4.4 2498.9"/>
          <line class="st59" x1="2.7" y1="2497.3" x2="1188.3" y2="1188.2"/>
          <polygon class="st27" points="4.5 2498.9 .9 2495.7 1186.6 1186.6 1190.1 1189.7 4.5 2498.9 4.5 2498.9"/>
          <line class="st59" x1="2.7" y1="2497.3" x2="1163.6" y2="1163.5"/>
          <polygon class="st43" points="4.5 2498.9 .9 2495.7 1161.8 1161.9 1165.4 1165 4.5 2498.9 4.5 2498.9"/>
          <line class="st59" x1="2.7" y1="2497.3" x2="1138.9" y2="1138.8"/>
          <polygon class="st5" points="4.5 2498.8 .9 2495.8 1137.1 1137.2 1140.8 1140.3 4.5 2498.8 4.5 2498.8"/>
          <line class="st59" x1="2.7" y1="2497.3" x2="1114.2" y2="1114.1"/>
          <polygon class="st53" points="4.5 2498.8 .8 2495.8 1112.4 1112.6 1116.1 1115.5 4.5 2498.8 4.5 2498.8"/>
          <line class="st59" x1="2.7" y1="2497.3" x2="1089.5" y2="1089.4"/>
          <polygon class="st12" points="4.6 2498.7 .8 2495.8 1087.7 1087.9 1091.4 1090.8 4.6 2498.7 4.6 2498.7"/>
          <line class="st59" x1="2.7" y1="2497.3" x2="1064.8" y2="1064.7"/>
          <polygon class="st21" points="4.6 2498.7 .8 2495.9 1062.9 1063.2 1066.7 1066.1 4.6 2498.7 4.6 2498.7"/>
          <line class="st59" x1="2.7" y1="2497.3" x2="1040.1" y2="1039.9"/>
          <polygon class="st103" points="4.6 2498.7 .8 2495.9 1038.2 1038.6 1042.1 1041.3 4.6 2498.7 4.6 2498.7"/>
          <line class="st59" x1="2.7" y1="2497.3" x2="1015.4" y2="1015.2"/>
          <polygon class="st78" points="4.7 2498.6 .7 2496 1013.5 1013.9 1017.4 1016.6 4.7 2498.6 4.7 2498.6"/>
          <line class="st59" x1="2.7" y1="2497.3" x2="990.7" y2="990.5"/>
          <polygon class="st14" points="4.7 2498.6 .7 2496 988.7 989.2 992.7 991.9 4.7 2498.6 4.7 2498.6"/>
          <line class="st59" x1="2.7" y1="2497.3" x2="966" y2="965.8"/>
          <polygon class="st97" points="4.7 2498.6 .7 2496 964 964.6 968 967.1 4.7 2498.6 4.7 2498.6"/>
          <line class="st59" x1="2.7" y1="2497.3" x2="941.3" y2="941.1"/>
          <polygon class="st35" points="4.7 2498.5 .7 2496.1 939.3 939.9 943.4 942.4 4.7 2498.5 4.7 2498.5"/>
          <line class="st59" x1="2.7" y1="2497.3" x2="916.6" y2="916.4"/>
          <polygon class="st45" points="4.8 2498.5 .6 2496.1 914.6 915.3 918.7 917.6 4.8 2498.5 4.8 2498.5"/>
          <line class="st59" x1="2.7" y1="2497.3" x2="891.9" y2="891.7"/>
          <polygon class="st56" points="4.8 2498.4 .6 2496.1 889.8 890.6 894 892.9 4.8 2498.4 4.8 2498.4"/>
          <line class="st59" x1="2.7" y1="2497.3" x2="867.2" y2="867"/>
          <polygon class="st75" points="4.8 2498.4 .6 2496.2 865.1 865.9 869.3 868.2 4.8 2498.4 4.8 2498.4"/>
          <line class="st59" x1="2.7" y1="2497.3" x2="842.5" y2="842.3"/>
          <polygon class="st99" points="4.8 2498.4 .6 2496.2 840.4 841.3 844.6 843.4 4.8 2498.4 4.8 2498.4"/>
          <line class="st59" x1="2.7" y1="2497.3" x2="817.8" y2="817.6"/>
          <polygon class="st37" points="4.8 2498.3 .6 2496.3 815.7 816.6 820 818.7 4.8 2498.3 4.8 2498.3"/>
          <line class="st59" x1="2.7" y1="2497.3" x2="793.1" y2="792.9"/>
          <polygon class="st17" points="4.9 2498.3 .5 2496.3 791 791.9 795.3 793.9 4.9 2498.3 4.9 2498.3"/>
          <line class="st59" x1="2.7" y1="2497.3" x2="768.4" y2="768.2"/>
          <polygon class="st28" points="4.9 2498.3 .5 2496.3 766.2 767.3 770.6 769.2 4.9 2498.3 4.9 2498.3"/>
          <line class="st59" x1="2.7" y1="2497.3" x2="743.7" y2="743.5"/>
          <polygon class="st70" points="4.9 2498.2 .5 2496.4 741.5 742.6 745.9 744.5 4.9 2498.2 4.9 2498.2"/>
          <line class="st59" x1="2.7" y1="2497.3" x2="719" y2="718.8"/>
          <polygon class="st52" points="4.9 2498.2 .5 2496.4 716.8 718 721.2 719.7 4.9 2498.2 4.9 2498.2"/>
          <line class="st59" x1="2.7" y1="2497.3" x2="694.3" y2="694.1"/>
          <polygon class="st79" points="4.9 2498.2 .5 2496.4 692.1 693.3 696.5 695 4.9 2498.2 4.9 2498.2"/>
          <line class="st59" x1="2.7" y1="2497.3" x2="669.6" y2="669.4"/>
          <polygon class="st31" points="4.9 2498.1 .5 2496.5 667.4 668.6 671.9 670.3 4.9 2498.1 4.9 2498.1"/>
          <line class="st59" x1="2.7" y1="2497.3" x2="644.9" y2="644.7"/>
          <polygon class="st33" points="4.9 2498.1 .5 2496.5 642.7 644 647.2 645.5 4.9 2498.1 4.9 2498.1"/>
          <line class="st59" x1="2.7" y1="2497.3" x2="620.2" y2="620"/>
          <polygon class="st49" points="5 2498 .4 2496.6 618 619.3 622.5 620.8 5 2498 5 2498"/>
          <line class="st59" x1="2.7" y1="2497.3" x2="595.5" y2="595.3"/>
          <polygon class="st7" points="5 2498 .4 2496.6 593.2 594.6 597.8 596 5 2498 5 2498"/>
          <line class="st59" x1="2.7" y1="2497.3" x2="570.8" y2="570.6"/>
          <polygon class="st11" points="5 2498 .4 2496.6 568.5 570 573.1 571.3 5 2498 5 2498"/>
          <line class="st59" x1="2.7" y1="2497.3" x2="546.1" y2="545.9"/>
          <polygon class="st98" points="5 2497.9 .4 2496.7 543.8 545.3 548.4 546.6 5 2497.9 5 2497.9"/>
          <line class="st59" x1="2.7" y1="2497.3" x2="521.4" y2="521.2"/>
          <polygon class="st96" points="5 2497.9 .4 2496.7 519.1 520.6 523.7 521.8 5 2497.9 5 2497.9"/>
          <line class="st59" x1="2.7" y1="2497.3" x2="496.7" y2="496.5"/>
          <polygon class="st77" points="5 2497.9 .4 2496.7 494.4 496 499 497.1 5 2497.9 5 2497.9"/>
          <line class="st59" x1="2.7" y1="2497.3" x2="472" y2="471.8"/>
          <polygon class="st16" points="5 2497.8 .4 2496.8 469.7 471.3 474.3 472.4 5 2497.8 5 2497.8"/>
          <line class="st59" x1="2.7" y1="2497.3" x2="447.3" y2="447.1"/>
          <polygon class="st81" points="5 2497.8 .4 2496.8 445 446.6 449.6 447.6 5 2497.8 5 2497.8"/>
          <line class="st59" x1="2.7" y1="2497.3" x2="422.6" y2="422.4"/>
          <polygon class="st86" points="5 2497.8 .4 2496.8 420.3 422 424.9 422.9 5 2497.8 5 2497.8"/>
          <line class="st59" x1="2.7" y1="2497.3" x2="397.9" y2="397.7"/>
          <polygon class="st62" points="5 2497.7 .4 2496.9 395.6 397.3 400.2 398.2 5 2497.7 5 2497.7"/>
          <line class="st59" x1="2.7" y1="2497.3" x2="373.2" y2="373"/>
          <polygon class="st83" points="5 2497.7 .4 2496.9 370.9 372.6 375.5 373.4 5 2497.7 5 2497.7"/>
          <line class="st59" x1="2.7" y1="2497.3" x2="348.5" y2="348.3"/>
          <polygon class="st38" points="5 2497.7 .4 2496.9 346.2 347.9 350.9 348.7 5 2497.7 5 2497.7"/>
          <line class="st59" x1="2.7" y1="2497.3" x2="323.8" y2="323.6"/>
          <polygon class="st73" points="5 2497.7 .3 2496.9 321.5 323.3 326.2 324 5 2497.7 5 2497.7"/>
          <line class="st59" x1="2.7" y1="2497.3" x2="299.1" y2="298.9"/>
          <polygon class="st76" points="5.1 2497.6 .3 2497 296.8 298.6 301.5 299.2 5.1 2497.6 5.1 2497.6"/>
          <line class="st59" x1="2.7" y1="2497.3" x2="274.4" y2="274.2"/>
          <polygon class="st46" points="5.1 2497.6 .3 2497 272 273.9 276.8 274.5 5.1 2497.6 5.1 2497.6"/>
          <line class="st59" x1="2.7" y1="2497.3" x2="249.7" y2="249.5"/>
          <polygon class="st18" points="5.1 2497.6 .3 2497 247.3 249.3 252.1 249.8 5.1 2497.6 5.1 2497.6"/>
          <line class="st59" x1="2.7" y1="2497.3" x2="225" y2="224.8"/>
          <polygon class="st57" points="5.1 2497.5 .3 2497.1 222.6 224.6 227.4 225.1 5.1 2497.5 5.1 2497.5"/>
          <line class="st59" x1="2.7" y1="2497.3" x2="200.3" y2="200.1"/>
          <polygon class="st13" points="5.1 2497.5 .3 2497.1 197.9 199.9 202.7 200.3 5.1 2497.5 5.1 2497.5"/>
          <line class="st59" x1="2.7" y1="2497.3" x2="175.6" y2="175.4"/>
          <polygon class="st24" points="5.1 2497.5 .3 2497.1 173.2 175.2 178 175.6 5.1 2497.5 5.1 2497.5"/>
          <line class="st59" x1="2.7" y1="2497.3" x2="150.9" y2="150.7"/>
          <polygon class="st64" points="5.1 2497.4 .3 2497.1 148.5 150.6 153.3 150.9 5.1 2497.4 5.1 2497.4"/>
          <line class="st59" x1="2.7" y1="2497.3" x2="126.2" y2="126"/>
          <polygon class="st20" points="5.1 2497.4 .3 2497.2 123.8 125.9 128.6 126.1 5.1 2497.4 5.1 2497.4"/>
          <line class="st59" x1="2.7" y1="2497.3" x2="101.5" y2="101.3"/>
          <polygon class="st41" points="5.1 2497.4 .3 2497.2 99.1 101.2 103.9 101.4 5.1 2497.4 5.1 2497.4"/>
          <line class="st59" x1="2.7" y1="2497.3" x2="76.8" y2="76.6"/>
          <polygon class="st91" points="5.1 2497.4 .3 2497.2 74.4 76.5 79.2 76.7 5.1 2497.4 5.1 2497.4"/>
          <line class="st59" x1="2.7" y1="2497.3" x2="52.1" y2="51.9"/>
          <polygon class="st58" points="5.1 2497.4 .3 2497.3 49.7 51.9 54.5 52 5.1 2497.4 5.1 2497.4"/>
          <line class="st59" x1="2.7" y1="2497.3" x2="27.4" y2="27.2"/>
          <polygon class="st89" points="5.1 2497.3 .3 2497.3 25 27.2 29.8 27.2 5.1 2497.3 5.1 2497.3"/>
          <line class="st59" x1="2.7" y1="2497.3" x2="2.7" y2="2.5"/>
          <polygon class="st51" points="5.1 2497.3 .3 2497.3 .3 2.5 5.1 2.5 5.1 2497.3 5.1 2497.3"/>
          <line class="st59" x1="2497.5" y1="2.5" x2="2.7" y2="2.5"/>
          <polygon class="st54" points="2497.5 4.9 2.7 4.9 2.7 .1 2497.5 .1 2497.5 4.9 2497.5 4.9"/>
          <line class="st59" x1="2497.5" y1="2.5" x2="27.4" y2="27.2"/>
          <polygon class="st29" points="27.4 29.6 27.4 24.8 2497.5 .1 2497.5 4.9 27.4 29.6 27.4 29.6"/>
          <line class="st59" x1="2497.5" y1="2.5" x2="52.1" y2="51.9"/>
          <polygon class="st94" points="52.1 54.3 52.1 49.5 2497.4 .1 2497.5 4.9 52.1 54.3 52.1 54.3"/>
          <line class="st59" x1="2497.5" y1="2.5" x2="76.8" y2="76.6"/>
          <polygon class="st94" points="76.9 79 76.7 74.2 2497.4 .1 2497.5 4.9 76.9 79 76.9 79"/>
          <line class="st59" x1="2497.5" y1="2.5" x2="101.5" y2="101.3"/>
          <polygon class="st42" points="101.6 103.7 101.4 98.9 2497.4 .1 2497.6 4.9 101.6 103.7 101.6 103.7"/>
          <line class="st59" x1="2497.5" y1="2.5" x2="126.2" y2="126"/>
          <polygon class="st25" points="126.3 128.4 126.1 123.6 2497.4 .1 2497.6 4.9 126.3 128.4 126.3 128.4"/>
          <line class="st59" x1="2497.5" y1="2.5" x2="150.9" y2="150.7"/>
          <polygon class="st71" points="151 153.1 150.8 148.3 2497.3 .1 2497.6 4.9 151 153.1 151 153.1"/>
          <line class="st59" x1="2497.5" y1="2.5" x2="175.6" y2="175.4"/>
          <polygon class="st71" points="175.8 177.8 175.4 173.1 2497.3 .1 2497.7 4.9 175.8 177.8 175.8 177.8"/>
          <line class="st59" x1="2497.5" y1="2.5" x2="200.3" y2="200.1"/>
          <polygon class="st67" points="200.5 202.5 200.1 197.8 2497.3 .1 2497.7 4.9 200.5 202.5 200.5 202.5"/>
          <line class="st59" x1="2497.5" y1="2.5" x2="225" y2="224.8"/>
          <polygon class="st9" points="225.2 227.2 224.8 222.5 2497.2 .2 2497.7 4.9 225.2 227.2 225.2 227.2"/>
          <line class="st59" x1="2497.5" y1="2.5" x2="249.7" y2="249.5"/>
          <polygon class="st8" points="250 251.9 249.4 247.2 2497.2 .2 2497.7 4.9 250 251.9 250 251.9"/>
          <line class="st59" x1="2497.5" y1="2.5" x2="274.4" y2="274.2"/>
          <polygon class="st82" points="274.7 276.6 274.1 271.9 2497.2 .2 2497.8 4.9 274.7 276.6 274.7 276.6"/>
          <line class="st59" x1="2497.5" y1="2.5" x2="299.1" y2="298.9"/>
          <polygon class="st82" points="299.4 301.3 298.8 296.6 2497.2 .2 2497.8 4.9 299.4 301.3 299.4 301.3"/>
          <line class="st59" x1="2497.5" y1="2.5" x2="323.8" y2="323.6"/>
          <polygon class="st47" points="324.2 326 323.5 321.3 2497.1 .2 2497.8 4.9 324.2 326 324.2 326"/>
          <line class="st59" x1="2497.5" y1="2.5" x2="348.5" y2="348.3"/>
          <polygon class="st47" points="348.9 350.7 348.1 346 2497.1 .2 2497.9 4.9 348.9 350.7 348.9 350.7"/>
          <line class="st59" x1="2497.5" y1="2.5" x2="373.2" y2="373"/>
          <polygon class="st93" points="373.6 375.4 372.8 370.7 2497.1 .2 2497.9 4.9 373.6 375.4 373.6 375.4"/>
          <line class="st59" x1="2497.5" y1="2.5" x2="397.9" y2="397.7"/>
          <polygon class="st30" points="398.3 400.1 397.5 395.4 2497 .2 2497.9 4.9 398.3 400.1 398.3 400.1"/>
          <line class="st59" x1="2497.5" y1="2.5" x2="422.6" y2="422.4"/>
          <polygon class="st44" points="423.1 424.8 422.1 420.1 2497 .2 2498 4.8 423.1 424.8 423.1 424.8"/>
          <line class="st59" x1="2497.5" y1="2.5" x2="447.3" y2="447.1"/>
          <polygon class="st32" points="447.8 449.5 446.8 444.8 2497 .2 2498 4.8 447.8 449.5 447.8 449.5"/>
          <line class="st59" x1="2497.5" y1="2.5" x2="472" y2="471.8"/>
          <polygon class="st92" points="472.5 474.1 471.5 469.5 2496.9 .2 2498 4.8 472.5 474.1 472.5 474.1"/>
          <line class="st59" x1="2497.5" y1="2.5" x2="496.7" y2="496.5"/>
          <polygon class="st19" points="497.3 498.8 496.1 494.2 2496.9 .2 2498 4.8 497.3 498.8 497.3 498.8"/>
          <line class="st59" x1="2497.5" y1="2.5" x2="521.4" y2="521.2"/>
          <polygon class="st88" points="522 523.5 520.8 518.9 2496.9 .2 2498.1 4.8 522 523.5 522 523.5"/>
          <line class="st59" x1="2497.5" y1="2.5" x2="546.1" y2="545.9"/>
          <polygon class="st66" points="546.8 548.2 545.5 543.6 2496.8 .2 2498.1 4.8 546.8 548.2 546.8 548.2"/>
          <line class="st59" x1="2497.5" y1="2.5" x2="570.8" y2="570.6"/>
          <polygon class="st6" points="571.5 572.9 570.1 568.4 2496.8 .2 2498.2 4.8 571.5 572.9 571.5 572.9"/>
          <line class="st59" x1="2497.5" y1="2.5" x2="595.5" y2="595.3"/>
          <polygon class="st39" points="596.2 597.6 594.8 593.1 2496.8 .2 2498.2 4.8 596.2 597.6 596.2 597.6"/>
          <line class="st59" x1="2497.5" y1="2.5" x2="620.2" y2="620"/>
          <polygon class="st39" points="621 622.3 619.5 617.8 2496.7 .3 2498.2 4.8 621 622.3 621 622.3"/>
          <line class="st59" x1="2497.5" y1="2.5" x2="644.9" y2="644.7"/>
          <polygon class="st36" points="645.7 647 644.1 642.5 2496.7 .3 2498.3 4.8 645.7 647 645.7 647"/>
          <line class="st59" x1="2497.5" y1="2.5" x2="669.6" y2="669.4"/>
          <polygon class="st3" points="670.4 671.7 668.8 667.2 2496.7 .3 2498.3 4.7 670.4 671.7 670.4 671.7"/>
          <line class="st59" x1="2497.5" y1="2.5" x2="694.3" y2="694.1"/>
          <polygon class="st90" points="695.2 696.4 693.5 691.9 2496.6 .3 2498.3 4.7 695.2 696.4 695.2 696.4"/>
          <line class="st59" x1="2497.5" y1="2.5" x2="719" y2="718.8"/>
          <polygon class="st65" points="719.9 721 718.1 716.6 2496.6 .3 2498.4 4.7 719.9 721 719.9 721"/>
          <line class="st59" x1="2497.5" y1="2.5" x2="743.7" y2="743.5"/>
          <polygon class="st48" points="744.6 745.7 742.8 741.4 2496.6 .3 2498.4 4.7 744.6 745.7 744.6 745.7"/>
          <line class="st59" x1="2497.5" y1="2.5" x2="768.4" y2="768.2"/>
          <polygon class="st68" points="769.4 770.4 767.5 766.1 2496.5 .3 2498.4 4.7 769.4 770.4 769.4 770.4"/>
          <line class="st59" x1="2497.5" y1="2.5" x2="793.1" y2="792.9"/>
          <polygon class="st85" points="794.1 795.1 792.1 790.8 2496.5 .4 2498.5 4.7 794.1 795.1 794.1 795.1"/>
          <line class="st59" x1="2497.5" y1="2.5" x2="817.8" y2="817.6"/>
          <polygon class="st87" points="818.9 819.8 816.8 815.5 2496.4 .4 2498.5 4.7 818.9 819.8 818.9 819.8"/>
          <line class="st59" x1="2497.5" y1="2.5" x2="842.5" y2="842.3"/>
          <polygon class="st69" points="843.6 844.5 841.4 840.2 2496.4 .4 2498.6 4.6 843.6 844.5 843.6 844.5"/>
          <line class="st59" x1="2497.5" y1="2.5" x2="867.2" y2="867"/>
          <polygon class="st23" points="868.3 869.1 866.1 864.9 2496.4 .4 2498.6 4.6 868.3 869.1 868.3 869.1"/>
          <line class="st59" x1="2497.5" y1="2.5" x2="891.9" y2="891.7"/>
          <polygon class="st102" points="893.1 893.8 890.8 889.7 2496.3 .4 2498.6 4.6 893.1 893.8 893.1 893.8"/>
          <line class="st59" x1="2497.5" y1="2.5" x2="916.6" y2="916.4"/>
          <polygon class="st104" points="917.8 918.5 915.4 914.4 2496.3 .5 2498.7 4.6 917.8 918.5 917.8 918.5"/>
          <line class="st59" x1="2497.5" y1="2.5" x2="941.3" y2="941.1"/>
          <polygon class="st55" points="942.6 943.2 940.1 939.1 2496.2 .5 2498.7 4.5 942.6 943.2 942.6 943.2"/>
          <line class="st59" x1="2497.5" y1="2.5" x2="966" y2="965.8"/>
          <polygon class="st22" points="967.3 967.9 964.8 963.8 2496.2 .5 2498.7 4.5 967.3 967.9 967.3 967.9"/>
          <line class="st59" x1="2497.5" y1="2.5" x2="990.7" y2="990.5"/>
          <polygon class="st74" points="992 992.5 989.4 988.6 2496.2 .5 2498.8 4.5 992 992.5 992 992.5"/>
          <line class="st59" x1="2497.5" y1="2.5" x2="1015.4" y2="1015.2"/>
          <polygon class="st95" points="1016.8 1017.2 1014.1 1013.3 2496.1 .6 2498.8 4.5 1016.8 1017.2 1016.8 1017.2"/>
          <line class="st59" x1="2497.5" y1="2.5" x2="1040.1" y2="1039.9"/>
          <polygon class="st4" points="1041.5 1041.9 1038.8 1038 2496.1 .6 2498.9 4.5 1041.5 1041.9 1041.5 1041.9"/>
          <line class="st59" x1="2497.5" y1="2.5" x2="1064.8" y2="1064.7"/>
          <polygon class="st105" points="1066.2 1066.6 1063.4 1062.7 2496.1 .6 2498.9 4.4 1066.2 1066.6 1066.2 1066.6"/>
          <line class="st59" x1="2497.5" y1="2.5" x2="1089.5" y2="1089.4"/>
          <polygon class="st72" points="1091 1091.2 1088.1 1087.5 2496 .6 2498.9 4.4 1091 1091.2 1091 1091.2"/>
          <line class="st59" x1="2497.5" y1="2.5" x2="1114.2" y2="1114.1"/>
          <polygon class="st84" points="1115.7 1115.9 1112.7 1112.2 2496 .7 2499 4.4 1115.7 1115.9 1115.7 1115.9"/>
          <line class="st59" x1="2497.5" y1="2.5" x2="1138.9" y2="1138.8"/>
          <polygon class="st26" points="1140.5 1140.6 1137.4 1136.9 2496 .7 2499 4.3 1140.5 1140.6 1140.5 1140.6"/>
          <line class="st59" x1="2497.5" y1="2.5" x2="1163.6" y2="1163.5"/>
          <polygon class="st10" points="1165.2 1165.2 1162.1 1161.7 2495.9 .7 2499 4.3 1165.2 1165.2 1165.2 1165.2"/>
          <line class="st59" x1="2497.5" y1="2.5" x2="1188.3" y2="1188.2"/>
          <polygon class="st101" points="1189.9 1189.9 1186.7 1186.4 2495.9 .8 2499.1 4.3 1189.9 1189.9 1189.9 1189.9"/>
          <line class="st59" x1="2497.5" y1="2.5" x2="1213" y2="1212.9"/>
          <polygon class="st63" points="1214.7 1214.6 1211.4 1211.1 2495.9 .8 2499.1 4.2 1214.7 1214.6 1214.7 1214.6"/>
          <line class="st59" x1="2497.5" y1="2.5" x2="1237.7" y2="1237.6"/>
          <polygon class="st34" points="1239.4 1239.3 1236.1 1235.9 2495.8 .8 2499.1 4.2 1239.4 1239.3 1239.4 1239.3"/>
          <line class="st59" x1="2497.5" y1="2.5" x2="1262.4" y2="1262.3"/>
          <polygon class="st2" points="1264.1 1263.9 1260.7 1260.6 2495.8 .9 2499.2 4.2 1264.1 1263.9 1264.1 1263.9"/>
          <line class="st59" x1="2497.5" y1="2.5" x2="1287.1" y2="1287"/>
          <polygon class="st80" points="1288.9 1288.6 1285.4 1285.3 2495.7 .9 2499.2 4.1 1288.9 1288.6 1288.9 1288.6"/>
          <line class="st59" x1="2497.5" y1="2.5" x2="1311.8" y2="1311.7"/>
          <polygon class="st27" points="1313.6 1313.2 1310.1 1310.1 2495.7 .9 2499.2 4.1 1313.6 1313.2 1313.6 1313.2"/>
          <line class="st59" x1="2497.5" y1="2.5" x2="1336.5" y2="1336.4"/>
          <polygon class="st43" points="1338.3 1337.9 1334.8 1334.8 2495.7 1 2499.3 4.1 1338.3 1337.9 1338.3 1337.9"/>
          <line class="st59" x1="2497.5" y1="2.5" x2="1361.2" y2="1361.1"/>
          <polygon class="st5" points="1363.1 1362.6 1359.4 1359.5 2495.7 1 2499.3 4 1363.1 1362.6 1363.1 1362.6"/>
          <line class="st59" x1="2497.5" y1="2.5" x2="1385.9" y2="1385.8"/>
          <polygon class="st53" points="1387.8 1387.2 1384.1 1384.3 2495.6 1 2499.3 4 1387.8 1387.2 1387.8 1387.2"/>
          <line class="st59" x1="2497.5" y1="2.5" x2="1410.6" y2="1410.5"/>
          <polygon class="st12" points="1412.5 1411.9 1408.8 1409 2495.6 1.1 2499.4 4 1412.5 1411.9 1412.5 1411.9"/>
          <line class="st59" x1="2497.5" y1="2.5" x2="1435.3" y2="1435.2"/>
          <polygon class="st21" points="1437.3 1436.6 1433.4 1433.7 2495.6 1.1 2499.4 3.9 1437.3 1436.6 1437.3 1436.6"/>
          <line class="st59" x1="2497.5" y1="2.5" x2="1460" y2="1459.9"/>
          <polygon class="st103" points="1462 1461.2 1458.1 1458.5 2495.5 1.1 2499.4 3.9 1462 1461.2 1462 1461.2"/>
          <line class="st59" x1="2497.5" y1="2.5" x2="1484.7" y2="1484.6"/>
          <polygon class="st78" points="1486.7 1485.9 1482.8 1483.2 2495.5 1.2 2499.4 3.9 1486.7 1485.9 1486.7 1485.9"/>
          <line class="st59" x1="2497.5" y1="2.5" x2="1509.4" y2="1509.3"/>
          <polygon class="st14" points="1511.4 1510.6 1507.5 1508 2495.5 1.2 2499.5 3.8 1511.4 1510.6 1511.4 1510.6"/>
          <line class="st59" x1="2497.5" y1="2.5" x2="1534.2" y2="1534"/>
          <polygon class="st97" points="1536.2 1535.2 1532.1 1532.7 2495.5 1.3 2499.5 3.8 1536.2 1535.2 1536.2 1535.2"/>
          <line class="st59" x1="2497.5" y1="2.5" x2="1558.8" y2="1558.7"/>
          <polygon class="st35" points="1560.9 1559.9 1556.8 1557.4 2495.4 1.3 2499.5 3.7 1560.9 1559.9 1560.9 1559.9"/>
          <line class="st59" x1="2497.5" y1="2.5" x2="1583.6" y2="1583.4"/>
          <polygon class="st45" points="1585.6 1584.6 1581.5 1582.2 2495.4 1.3 2499.5 3.7 1585.6 1584.6 1585.6 1584.6"/>
          <line class="st59" x1="2497.5" y1="2.5" x2="1608.3" y2="1608.1"/>
          <polygon class="st56" points="1610.3 1609.2 1606.2 1606.9 2495.4 1.4 2499.6 3.7 1610.3 1609.2 1610.3 1609.2"/>
          <line class="st59" x1="2497.5" y1="2.5" x2="1632.9" y2="1632.8"/>
          <polygon class="st75" points="1635 1633.9 1630.8 1631.7 2495.4 1.4 2499.6 3.6 1635 1633.9 1635 1633.9"/>
          <line class="st59" x1="2497.5" y1="2.5" x2="1657.7" y2="1657.5"/>
          <polygon class="st99" points="1659.8 1658.5 1655.5 1656.4 2495.4 1.4 2499.6 3.6 1659.8 1658.5 1659.8 1658.5"/>
          <line class="st59" x1="2497.5" y1="2.5" x2="1682.4" y2="1682.2"/>
          <polygon class="st37" points="1684.5 1683.2 1680.2 1681.1 2495.3 1.5 2499.6 3.6 1684.5 1683.2 1684.5 1683.2"/>
          <line class="st59" x1="2497.5" y1="2.5" x2="1707" y2="1706.9"/>
          <polygon class="st17" points="1709.2 1707.9 1704.9 1705.9 2495.3 1.5 2499.6 3.5 1709.2 1707.9 1709.2 1707.9"/>
          <line class="st59" x1="2497.5" y1="2.5" x2="1731.8" y2="1731.6"/>
          <polygon class="st28" points="1733.9 1732.5 1729.6 1730.6 2495.3 1.6 2499.6 3.5 1733.9 1732.5 1733.9 1732.5"/>
          <line class="st59" x1="2497.5" y1="2.5" x2="1756.5" y2="1756.3"/>
          <polygon class="st70" points="1758.6 1757.2 1754.3 1755.3 2495.3 1.6 2499.7 3.4 1758.6 1757.2 1758.6 1757.2"/>
          <line class="st59" x1="2497.5" y1="2.5" x2="1781.2" y2="1781"/>
          <polygon class="st52" points="1783.4 1781.9 1779 1780.1 2495.3 1.6 2499.7 3.4 1783.4 1781.9 1783.4 1781.9"/>
          <line class="st59" x1="2497.5" y1="2.5" x2="1805.9" y2="1805.7"/>
          <polygon class="st79" points="1808.1 1806.5 1803.6 1804.8 2495.3 1.7 2499.7 3.4 1808.1 1806.5 1808.1 1806.5"/>
          <line class="st59" x1="2497.5" y1="2.5" x2="1830.6" y2="1830.4"/>
          <polygon class="st31" points="1832.8 1831.2 1828.3 1829.6 2495.2 1.7 2499.7 3.3 1832.8 1831.2 1832.8 1831.2"/>
          <line class="st59" x1="2497.5" y1="2.5" x2="1855.3" y2="1855.1"/>
          <polygon class="st33" points="1857.5 1855.9 1853 1854.3 2495.2 1.7 2499.7 3.3 1857.5 1855.9 1857.5 1855.9"/>
          <line class="st59" x1="2497.5" y1="2.5" x2="1880" y2="1879.8"/>
          <polygon class="st49" points="1882.2 1880.5 1877.7 1879 2495.2 1.8 2499.7 3.3 1882.2 1880.5 1882.2 1880.5"/>
          <line class="st59" x1="2497.5" y1="2.5" x2="1904.7" y2="1904.5"/>
          <polygon class="st7" points="1906.9 1905.2 1902.4 1903.8 2495.2 1.8 2499.7 3.2 1906.9 1905.2 1906.9 1905.2"/>
          <line class="st59" x1="2497.5" y1="2.5" x2="1929.4" y2="1929.2"/>
          <polygon class="st11" points="1931.6 1929.9 1927.1 1928.5 2495.2 1.8 2499.8 3.2 1931.6 1929.9 1931.6 1929.9"/>
          <line class="st59" x1="2497.5" y1="2.5" x2="1954.1" y2="1953.9"/>
          <polygon class="st98" points="1956.3 1954.5 1951.8 1953.2 2495.2 1.9 2499.8 3.2 1956.3 1954.5 1956.3 1954.5"/>
          <line class="st59" x1="2497.5" y1="2.5" x2="1978.8" y2="1978.6"/>
          <polygon class="st96" points="1981.1 1979.2 1976.5 1978 2495.2 1.9 2499.8 3.1 1981.1 1979.2 1981.1 1979.2"/>
          <line class="st59" x1="2497.5" y1="2.5" x2="2003.5" y2="2003.3"/>
          <polygon class="st77" points="2005.8 2003.9 2001.2 2002.7 2495.2 1.9 2499.8 3.1 2005.8 2003.9 2005.8 2003.9"/>
          <line class="st59" x1="2497.5" y1="2.5" x2="2028.2" y2="2028"/>
          <polygon class="st16" points="2030.5 2028.5 2025.8 2027.5 2495.2 2 2499.8 3.1 2030.5 2028.5 2030.5 2028.5"/>
          <line class="st59" x1="2497.5" y1="2.5" x2="2052.9" y2="2052.7"/>
          <polygon class="st81" points="2055.2 2053.2 2050.5 2052.2 2495.2 2 2499.8 3 2055.2 2053.2 2055.2 2053.2"/>
          <line class="st59" x1="2497.5" y1="2.5" x2="2077.6" y2="2077.4"/>
          <polygon class="st86" points="2079.9 2077.9 2075.2 2076.9 2495.2 2 2499.8 3 2079.9 2077.9 2079.9 2077.9"/>
          <line class="st59" x1="2497.5" y1="2.5" x2="2102.3" y2="2102.1"/>
          <polygon class="st62" points="2104.6 2102.5 2099.9 2101.6 2495.2 2.1 2499.8 3 2104.6 2102.5 2104.6 2102.5"/>
          <line class="st59" x1="2497.5" y1="2.5" x2="2127" y2="2126.8"/>
          <polygon class="st83" points="2129.3 2127.2 2124.6 2126.4 2495.1 2.1 2499.8 2.9 2129.3 2127.2 2129.3 2127.2"/>
          <line class="st59" x1="2497.5" y1="2.5" x2="2151.7" y2="2151.5"/>
          <polygon class="st38" points="2154 2151.9 2149.3 2151.1 2495.1 2.1 2499.8 2.9 2154 2151.9 2154 2151.9"/>
          <line class="st59" x1="2497.5" y1="2.5" x2="2176.4" y2="2176.2"/>
          <polygon class="st73" points="2178.7 2176.5 2174 2175.8 2495.1 2.2 2499.8 2.9 2178.7 2176.5 2178.7 2176.5"/>
          <line class="st59" x1="2497.5" y1="2.5" x2="2201.1" y2="2200.9"/>
          <polygon class="st76" points="2203.4 2201.2 2198.7 2200.6 2495.1 2.2 2499.8 2.8 2203.4 2201.2 2203.4 2201.2"/>
          <line class="st59" x1="2497.5" y1="2.5" x2="2225.8" y2="2225.6"/>
          <polygon class="st46" points="2228.1 2225.9 2223.4 2225.3 2495.1 2.2 2499.8 2.8 2228.1 2225.9 2228.1 2225.9"/>
          <line class="st59" x1="2497.5" y1="2.5" x2="2250.5" y2="2250.3"/>
          <polygon class="st18" points="2252.8 2250.5 2248.1 2250 2495.1 2.3 2499.8 2.8 2252.8 2250.5 2252.8 2250.5"/>
          <line class="st59" x1="2497.5" y1="2.5" x2="2275.2" y2="2275"/>
          <polygon class="st57" points="2277.5 2275.2 2272.8 2274.8 2495.1 2.3 2499.9 2.7 2277.5 2275.2 2277.5 2275.2"/>
          <line class="st59" x1="2497.5" y1="2.5" x2="2299.9" y2="2299.7"/>
          <polygon class="st13" points="2302.2 2299.9 2297.5 2299.5 2495.1 2.3 2499.9 2.7 2302.2 2299.9 2302.2 2299.9"/>
          <line class="st59" x1="2497.5" y1="2.5" x2="2324.6" y2="2324.4"/>
          <polygon class="st24" points="2326.9 2324.6 2322.2 2324.2 2495.1 2.3 2499.9 2.7 2326.9 2324.6 2326.9 2324.6"/>
          <line class="st59" x1="2497.5" y1="2.5" x2="2349.3" y2="2349.1"/>
          <polygon class="st64" points="2351.6 2349.2 2346.9 2348.9 2495.1 2.4 2499.9 2.7 2351.6 2349.2 2351.6 2349.2"/>
          <line class="st59" x1="2497.5" y1="2.5" x2="2374" y2="2373.8"/>
          <polygon class="st20" points="2376.4 2373.9 2371.6 2373.7 2495.1 2.4 2499.9 2.6 2376.4 2373.9 2376.4 2373.9"/>
          <line class="st59" x1="2497.5" y1="2.5" x2="2398.7" y2="2398.5"/>
          <polygon class="st41" points="2401.1 2398.6 2396.3 2398.4 2495.1 2.4 2499.9 2.6 2401.1 2398.6 2401.1 2398.6"/>
          <line class="st59" x1="2497.5" y1="2.5" x2="2423.4" y2="2423.2"/>
          <polygon class="st91" points="2425.7 2423.3 2421 2423.1 2495.1 2.4 2499.9 2.6 2425.7 2423.3 2425.7 2423.3"/>
          <line class="st59" x1="2497.5" y1="2.5" x2="2448.1" y2="2447.9"/>
          <polygon class="st58" points="2450.5 2447.9 2445.7 2447.8 2495.1 2.5 2499.9 2.6 2450.5 2447.9 2450.5 2447.9"/>
          <line class="st59" x1="2497.5" y1="2.5" x2="2472.8" y2="2472.6"/>
          <polygon class="st89" points="2475.2 2472.6 2470.4 2472.6 2495.1 2.5 2499.9 2.5 2475.2 2472.6 2475.2 2472.6"/>
          <line class="st59" x1="2497.5" y1="2.5" x2="2497.5" y2="2497.3"/>
          <g class="st50">
            <polygon class="st51" points="2499.9 2497.3 2495.1 2497.3 2495.1 2.5 2499.9 2.5 2499.9 2497.3 2499.9 2497.3"/>
            <line class="st59" x1="-1300.8" y1="1250" x2="1250" y2="3800.8"/>
            <polygon class="st54" points="1247.6 3803.3 -1303.3 1252.4 -1298.4 1247.6 1252.4 3798.4 1247.6 3803.3 1247.6 3803.3"/>
            <line class="st59" x1="-1300.8" y1="1250" x2="1250" y2="3750.3"/>
            <polygon class="st29" points="-1303.2 1252.4 -1298.4 1247.5 1252.4 3747.9 1247.6 3752.8 -1303.2 1252.4 -1303.2 1252.4"/>
            <line class="st59" x1="-1300.8" y1="1250" x2="1250" y2="3699.8"/>
            <polygon class="st94" points="-1303.2 1252.5 -1298.5 1247.5 1252.4 3697.3 1247.6 3702.3 -1303.2 1252.5 -1303.2 1252.5"/>
            <line class="st59" x1="-1300.8" y1="1250" x2="1250" y2="3649.3"/>
            <polygon class="st94" points="-1303.2 1252.5 -1298.5 1247.5 1252.4 3646.8 1247.6 3651.8 -1303.2 1252.5 -1303.2 1252.5"/>
            <line class="st59" x1="-1300.8" y1="1250" x2="1250" y2="3598.8"/>
            <polygon class="st42" points="-1303.2 1252.5 -1298.5 1247.5 1252.3 3596.3 1247.7 3601.3 -1303.2 1252.5 -1303.2 1252.5"/>
            <line class="st59" x1="-1300.8" y1="1250" x2="1250" y2="3548.3"/>
            <polygon class="st25" points="-1303.1 1252.5 -1298.5 1247.4 1252.3 3545.7 1247.7 3550.8 -1303.1 1252.5 -1303.1 1252.5"/>
            <line class="st59" x1="-1300.8" y1="1250" x2="1250" y2="3497.8"/>
            <polygon class="st71" points="-1303.1 1252.6 -1298.6 1247.4 1252.3 3495.2 1247.7 3500.3 -1303.1 1252.6 -1303.1 1252.6"/>
            <line class="st59" x1="-1300.8" y1="1250" x2="1250" y2="3447.3"/>
            <polygon class="st71" points="-1303.1 1252.6 -1298.6 1247.4 1252.2 3444.6 1247.8 3449.9 -1303.1 1252.6 -1303.1 1252.6"/>
            <line class="st59" x1="-1300.8" y1="1250" x2="1250" y2="3396.7"/>
            <polygon class="st67" points="-1303.1 1252.6 -1298.6 1247.4 1252.2 3394.1 1247.8 3399.4 -1303.1 1252.6 -1303.1 1252.6"/>
            <line class="st59" x1="-1300.8" y1="1250" x2="1250" y2="3346.2"/>
            <polygon class="st9" points="-1303 1252.7 -1298.7 1247.3 1252.2 3343.6 1247.8 3348.9 -1303 1252.7 -1303 1252.7"/>
            <line class="st59" x1="-1300.8" y1="1250" x2="1250" y2="3295.7"/>
            <polygon class="st8" points="-1303 1252.7 -1298.7 1247.3 1252.2 3293 1247.8 3298.4 -1303 1252.7 -1303 1252.7"/>
            <line class="st59" x1="-1300.8" y1="1250" x2="1250" y2="3245.2"/>
            <polygon class="st82" points="-1303 1252.7 -1298.7 1247.3 1252.1 3242.5 1247.9 3247.9 -1303 1252.7 -1303 1252.7"/>
            <line class="st59" x1="-1300.8" y1="1250" x2="1250" y2="3194.7"/>
            <polygon class="st82" points="-1302.9 1252.7 -1298.8 1247.3 1252.1 3192 1247.9 3197.4 -1302.9 1252.7 -1302.9 1252.7"/>
            <line class="st59" x1="-1300.8" y1="1250" x2="1250" y2="3144.2"/>
            <polygon class="st47" points="-1302.9 1252.7 -1298.8 1247.2 1252 3141.4 1248 3146.9 -1302.9 1252.7 -1302.9 1252.7"/>
            <line class="st59" x1="-1300.8" y1="1250" x2="1250" y2="3093.7"/>
            <polygon class="st47" points="-1302.9 1252.8 -1298.8 1247.2 1252 3090.9 1248 3096.5 -1302.9 1252.8 -1302.9 1252.8"/>
            <line class="st59" x1="-1300.8" y1="1250" x2="1250" y2="3043.2"/>
            <polygon class="st93" points="-1302.8 1252.8 -1298.9 1247.2 1252 3040.4 1248 3046 -1302.8 1252.8 -1302.8 1252.8"/>
            <line class="st59" x1="-1300.8" y1="1250" x2="1250" y2="2992.6"/>
            <polygon class="st30" points="-1302.8 1252.8 -1298.9 1247.2 1251.9 2989.8 1248.1 2995.5 -1302.8 1252.8 -1302.8 1252.8"/>
            <line class="st59" x1="-1300.8" y1="1250" x2="1250" y2="2942.1"/>
            <polygon class="st44" points="-1302.7 1252.9 -1298.9 1247.1 1251.9 2939.3 1248.1 2945 -1302.7 1252.9 -1302.7 1252.9"/>
            <line class="st59" x1="-1300.8" y1="1250" x2="1250" y2="2891.6"/>
            <polygon class="st32" points="-1302.7 1252.9 -1299 1247.1 1251.9 2888.7 1248.1 2894.5 -1302.7 1252.9 -1302.7 1252.9"/>
            <line class="st59" x1="-1300.8" y1="1250" x2="1250" y2="2841.1"/>
            <polygon class="st92" points="-1302.7 1252.9 -1299 1247.1 1251.8 2838.2 1248.2 2844 -1302.7 1252.9 -1302.7 1252.9"/>
            <line class="st59" x1="-1300.8" y1="1250" x2="1250" y2="2790.6"/>
            <polygon class="st19" points="-1302.6 1252.9 -1299.1 1247.1 1251.8 2787.7 1248.2 2793.5 -1302.6 1252.9 -1302.6 1252.9"/>
            <line class="st59" x1="-1300.8" y1="1250" x2="1250" y2="2740.1"/>
            <polygon class="st88" points="-1302.6 1253 -1299.1 1247 1251.7 2737.1 1248.3 2743 -1302.6 1253 -1302.6 1253"/>
            <line class="st59" x1="-1300.8" y1="1250" x2="1250" y2="2689.6"/>
            <polygon class="st66" points="-1302.5 1253 -1299.2 1247 1251.7 2686.6 1248.3 2692.6 -1302.5 1253 -1302.5 1253"/>
            <line class="st59" x1="-1300.8" y1="1250" x2="1250" y2="2639.1"/>
            <polygon class="st6" points="-1302.5 1253 -1299.2 1247 1251.6 2636 1248.4 2642.1 -1302.5 1253 -1302.5 1253"/>
            <line class="st59" x1="-1300.8" y1="1250" x2="1250" y2="2588.5"/>
            <polygon class="st39" points="-1302.4 1253 -1299.2 1246.9 1251.6 2585.5 1248.4 2591.6 -1302.4 1253 -1302.4 1253"/>
            <line class="st59" x1="-1300.8" y1="1250" x2="1250" y2="2538"/>
            <polygon class="st39" points="-1302.4 1253.1 -1299.3 1246.9 1251.5 2535 1248.5 2541.1 -1302.4 1253.1 -1302.4 1253.1"/>
            <line class="st59" x1="-1300.8" y1="1250" x2="1250" y2="2487.5"/>
            <polygon class="st36" points="-1302.3 1253.1 -1299.3 1246.9 1251.5 2484.4 1248.5 2490.6 -1302.3 1253.1 -1302.3 1253.1"/>
            <line class="st59" x1="-1300.8" y1="1250" x2="1250" y2="2437"/>
            <polygon class="st3" points="-1302.3 1253.1 -1299.4 1246.9 1251.5 2433.9 1248.6 2440.1 -1302.3 1253.1 -1302.3 1253.1"/>
            <line class="st59" x1="-1300.8" y1="1250" x2="1250" y2="2386.5"/>
            <polygon class="st90" points="-1302.2 1253.1 -1299.4 1246.9 1251.4 2383.4 1248.6 2389.6 -1302.2 1253.1 -1302.2 1253.1"/>
            <line class="st59" x1="-1300.8" y1="1250" x2="1250" y2="2336"/>
            <polygon class="st65" points="-1302.2 1253.2 -1299.5 1246.8 1251.3 2332.8 1248.6 2339.2 -1302.2 1253.2 -1302.2 1253.2"/>
            <line class="st59" x1="-1300.8" y1="1250" x2="1250" y2="2285.5"/>
            <polygon class="st48" points="-1302.1 1253.2 -1299.5 1246.8 1251.3 2282.3 1248.7 2288.7 -1302.1 1253.2 -1302.1 1253.2"/>
            <line class="st59" x1="-1300.8" y1="1250" x2="1250" y2="2235"/>
            <polygon class="st68" points="-1302.1 1253.2 -1299.6 1246.8 1251.2 2231.8 1248.8 2238.2 -1302.1 1253.2 -1302.1 1253.2"/>
            <line class="st59" x1="-1300.8" y1="1250" x2="1250" y2="2184.5"/>
            <polygon class="st85" points="-1302 1253.2 -1299.7 1246.8 1251.2 2181.2 1248.8 2187.7 -1302 1253.2 -1302 1253.2"/>
            <line class="st59" x1="-1300.8" y1="1250" x2="1250" y2="2134"/>
            <polygon class="st87" points="-1302 1253.2 -1299.7 1246.7 1251.1 2130.7 1248.9 2137.2 -1302 1253.2 -1302 1253.2"/>
            <line class="st59" x1="-1300.8" y1="1250" x2="1250" y2="2083.4"/>
            <polygon class="st69" points="-1301.9 1253.3 -1299.8 1246.7 1251.1 2080.2 1248.9 2086.7 -1301.9 1253.3 -1301.9 1253.3"/>
            <line class="st59" x1="-1300.8" y1="1250" x2="1250" y2="2032.9"/>
            <polygon class="st23" points="-1301.9 1253.3 -1299.8 1246.7 1251 2029.6 1249 2036.2 -1301.9 1253.3 -1301.9 1253.3"/>
            <line class="st59" x1="-1300.8" y1="1250" x2="1250" y2="1982.4"/>
            <polygon class="st102" points="-1301.8 1253.3 -1299.9 1246.7 1251 1979.1 1249.1 1985.7 -1301.8 1253.3 -1301.8 1253.3"/>
            <line class="st59" x1="-1300.8" y1="1250" x2="1250" y2="1931.9"/>
            <polygon class="st104" points="-1301.7 1253.3 -1300 1246.7 1250.9 1928.6 1249.1 1935.2 -1301.7 1253.3 -1301.7 1253.3"/>
            <line class="st59" x1="-1300.8" y1="1250" x2="1250" y2="1881.4"/>
            <polygon class="st55" points="-1301.7 1253.3 -1300 1246.7 1250.8 1878.1 1249.2 1884.7 -1301.7 1253.3 -1301.7 1253.3"/>
            <line class="st59" x1="-1300.8" y1="1250" x2="1250" y2="1830.9"/>
            <polygon class="st22" points="-1301.6 1253.3 -1300.1 1246.6 1250.8 1827.5 1249.2 1834.2 -1301.6 1253.3 -1301.6 1253.3"/>
            <line class="st59" x1="-1300.8" y1="1250" x2="1250" y2="1780.4"/>
            <polygon class="st74" points="-1301.5 1253.4 -1300.1 1246.6 1250.7 1777 1249.3 1783.7 -1301.5 1253.4 -1301.5 1253.4"/>
            <line class="st59" x1="-1300.8" y1="1250" x2="1250" y2="1729.9"/>
            <polygon class="st95" points="-1301.5 1253.4 -1300.2 1246.6 1250.6 1726.5 1249.4 1733.2 -1301.5 1253.4 -1301.5 1253.4"/>
            <line class="st59" x1="-1300.8" y1="1250" x2="1250" y2="1679.3"/>
            <polygon class="st4" points="-1301.4 1253.4 -1300.3 1246.6 1250.6 1676 1249.4 1682.7 -1301.4 1253.4 -1301.4 1253.4"/>
            <line class="st59" x1="-1300.8" y1="1250" x2="1250" y2="1628.8"/>
            <polygon class="st105" points="-1301.3 1253.4 -1300.3 1246.6 1250.5 1625.4 1249.5 1632.2 -1301.3 1253.4 -1301.3 1253.4"/>
            <line class="st59" x1="-1300.8" y1="1250" x2="1250" y2="1578.3"/>
            <polygon class="st72" points="-1301.3 1253.4 -1300.4 1246.6 1250.4 1574.9 1249.6 1581.7 -1301.3 1253.4 -1301.3 1253.4"/>
            <line class="st59" x1="-1300.8" y1="1250" x2="1250" y2="1527.8"/>
            <polygon class="st84" points="-1301.2 1253.4 -1300.5 1246.6 1250.4 1524.4 1249.6 1531.2 -1301.2 1253.4 -1301.2 1253.4"/>
            <line class="st59" x1="-1300.8" y1="1250" x2="1250" y2="1477.3"/>
            <polygon class="st26" points="-1301.1 1253.4 -1300.5 1246.6 1250.3 1473.9 1249.7 1480.7 -1301.1 1253.4 -1301.1 1253.4"/>
            <line class="st59" x1="-1300.8" y1="1250" x2="1250" y2="1426.8"/>
            <polygon class="st10" points="-1301.1 1253.4 -1300.6 1246.6 1250.2 1423.4 1249.8 1430.2 -1301.1 1253.4 -1301.1 1253.4"/>
            <line class="st59" x1="-1300.8" y1="1250" x2="1250" y2="1376.3"/>
            <polygon class="st101" points="-1301 1253.4 -1300.7 1246.6 1250.2 1372.8 1249.8 1379.7 -1301 1253.4 -1301 1253.4"/>
            <line class="st59" x1="-1300.8" y1="1250" x2="1250" y2="1325.8"/>
            <polygon class="st63" points="-1300.9 1253.4 -1300.7 1246.6 1250.1 1322.3 1249.9 1329.2 -1300.9 1253.4 -1300.9 1253.4"/>
            <line class="st59" x1="-1300.8" y1="1250" x2="1250" y2="1275.2"/>
            <polygon class="st34" points="-1300.9 1253.4 -1300.8 1246.6 1250 1271.8 1250 1278.7 -1300.9 1253.4 -1300.9 1253.4"/>
            <line class="st59" x1="-1300.8" y1="1250" x2="1250" y2="1224.7"/>
            <polygon class="st2" points="-1300.8 1253.4 -1300.9 1246.6 1250 1221.3 1250 1228.2 -1300.8 1253.4 -1300.8 1253.4"/>
            <line class="st59" x1="-1300.8" y1="1250" x2="1250" y2="1174.2"/>
            <polygon class="st80" points="-1300.7 1253.4 -1300.9 1246.6 1249.9 1170.8 1250.1 1177.7 -1300.7 1253.4 -1300.7 1253.4"/>
            <line class="st59" x1="-1300.8" y1="1250" x2="1250" y2="1123.7"/>
            <polygon class="st27" points="-1300.7 1253.4 -1301 1246.6 1249.8 1120.3 1250.2 1127.1 -1300.7 1253.4 -1300.7 1253.4"/>
            <line class="st59" x1="-1300.8" y1="1250" x2="1250" y2="1073.2"/>
            <polygon class="st43" points="-1300.6 1253.4 -1301.1 1246.6 1249.8 1069.8 1250.2 1076.6 -1300.6 1253.4 -1300.6 1253.4"/>
            <line class="st59" x1="-1300.8" y1="1250" x2="1250" y2="1022.7"/>
            <polygon class="st5" points="-1300.5 1253.4 -1301.1 1246.6 1249.7 1019.3 1250.3 1026.1 -1300.5 1253.4 -1300.5 1253.4"/>
            <line class="st59" x1="-1300.8" y1="1250" x2="1250" y2="972.2"/>
            <polygon class="st53" points="-1300.5 1253.4 -1301.2 1246.6 1249.6 968.8 1250.4 975.6 -1300.5 1253.4 -1300.5 1253.4"/>
            <line class="st59" x1="-1300.8" y1="1250" x2="1250" y2="921.7"/>
            <polygon class="st12" points="-1300.4 1253.4 -1301.3 1246.6 1249.6 918.3 1250.4 925.1 -1300.4 1253.4 -1300.4 1253.4"/>
            <line class="st59" x1="-1300.8" y1="1250" x2="1250" y2="871.2"/>
            <polygon class="st21" points="-1300.3 1253.4 -1301.3 1246.6 1249.5 867.8 1250.5 874.6 -1300.3 1253.4 -1300.3 1253.4"/>
            <line class="st59" x1="-1300.8" y1="1250" x2="1250" y2="820.6"/>
            <polygon class="st103" points="-1300.3 1253.4 -1301.4 1246.6 1249.4 817.3 1250.6 824 -1300.3 1253.4 -1300.3 1253.4"/>
            <line class="st59" x1="-1300.8" y1="1250" x2="1250" y2="770.1"/>
            <polygon class="st78" points="-1300.2 1253.4 -1301.5 1246.6 1249.4 766.8 1250.6 773.5 -1300.2 1253.4 -1300.2 1253.4"/>
            <line class="st59" x1="-1300.8" y1="1250" x2="1250" y2="719.6"/>
            <polygon class="st14" points="-1300.1 1253.4 -1301.5 1246.6 1249.3 716.3 1250.7 723 -1300.1 1253.4 -1300.1 1253.4"/>
            <line class="st59" x1="-1300.8" y1="1250" x2="1250" y2="669.1"/>
            <polygon class="st97" points="-1300.1 1253.3 -1301.6 1246.6 1249.2 665.8 1250.8 672.5 -1300.1 1253.3 -1300.1 1253.3"/>
            <line class="st59" x1="-1300.8" y1="1250" x2="1250" y2="618.6"/>
            <polygon class="st35" points="-1300 1253.3 -1301.7 1246.7 1249.2 615.3 1250.8 621.9 -1300 1253.3 -1300 1253.3"/>
            <line class="st59" x1="-1300.8" y1="1250" x2="1250" y2="568.1"/>
            <polygon class="st45" points="-1300 1253.3 -1301.7 1246.7 1249.1 564.8 1250.9 571.4 -1300 1253.3 -1300 1253.3"/>
            <line class="st59" x1="-1300.8" y1="1250" x2="1250" y2="517.6"/>
            <polygon class="st56" points="-1299.9 1253.3 -1301.8 1246.7 1249.1 514.3 1251 520.9 -1299.9 1253.3 -1299.9 1253.3"/>
            <line class="st59" x1="-1300.8" y1="1250" x2="1250" y2="467.1"/>
            <polygon class="st75" points="-1299.8 1253.3 -1301.9 1246.7 1249 463.8 1251 470.3 -1299.8 1253.3 -1299.8 1253.3"/>
            <line class="st59" x1="-1300.8" y1="1250" x2="1250" y2="416.6"/>
            <polygon class="st99" points="-1299.8 1253.3 -1301.9 1246.7 1248.9 413.3 1251.1 419.8 -1299.8 1253.3 -1299.8 1253.3"/>
            <line class="st59" x1="-1300.8" y1="1250" x2="1250" y2="366"/>
            <polygon class="st37" points="-1299.7 1253.2 -1302 1246.7 1248.9 362.8 1251.1 369.3 -1299.7 1253.2 -1299.7 1253.2"/>
            <line class="st59" x1="-1300.8" y1="1250" x2="1250" y2="315.5"/>
            <polygon class="st17" points="-1299.7 1253.2 -1302 1246.8 1248.8 312.3 1251.2 318.8 -1299.7 1253.2 -1299.7 1253.2"/>
            <line class="st59" x1="-1300.8" y1="1250" x2="1250" y2="265"/>
            <polygon class="st28" points="-1299.6 1253.2 -1302.1 1246.8 1248.8 261.8 1251.2 268.2 -1299.6 1253.2 -1299.6 1253.2"/>
            <line class="st59" x1="-1300.8" y1="1250" x2="1250" y2="214.5"/>
            <polygon class="st70" points="-1299.5 1253.2 -1302.1 1246.8 1248.7 211.3 1251.3 217.7 -1299.5 1253.2 -1299.5 1253.2"/>
            <line class="st59" x1="-1300.8" y1="1250" x2="1250" y2="164"/>
            <polygon class="st52" points="-1299.5 1253.2 -1302.2 1246.8 1248.6 160.8 1251.3 167.2 -1299.5 1253.2 -1299.5 1253.2"/>
            <line class="st59" x1="-1300.8" y1="1250" x2="1250" y2="113.5"/>
            <polygon class="st79" points="-1299.4 1253.1 -1302.2 1246.9 1248.6 110.3 1251.4 116.6 -1299.4 1253.1 -1299.4 1253.1"/>
            <line class="st59" x1="-1300.8" y1="1250" x2="1250" y2="63"/>
            <polygon class="st31" points="-1299.4 1253.1 -1302.3 1246.9 1248.6 59.9 1251.5 66.1 -1299.4 1253.1 -1299.4 1253.1"/>
            <line class="st59" x1="-1300.8" y1="1250" x2="1250" y2="12.5"/>
            <polygon class="st33" points="-1299.3 1253.1 -1302.3 1246.9 1248.5 9.4 1251.5 15.5 -1299.3 1253.1 -1299.3 1253.1"/>
            <line class="st59" x1="-1300.8" y1="1250" x2="1250" y2="-38.1"/>
            <polygon class="st49" points="-1299.3 1253.1 -1302.4 1246.9 1248.4 -41.1 1251.5 -35 -1299.3 1253.1 -1299.3 1253.1"/>
            <line class="st59" x1="-1300.8" y1="1250" x2="1250" y2="-88.6"/>
            <polygon class="st7" points="-1299.2 1253 -1302.4 1246.9 1248.4 -91.6 1251.6 -85.5 -1299.2 1253 -1299.2 1253"/>
            <line class="st59" x1="-1300.8" y1="1250" x2="1250" y2="-139.1"/>
            <polygon class="st11" points="-1299.2 1253 -1302.5 1247 1248.4 -142.1 1251.6 -136.1 -1299.2 1253 -1299.2 1253"/>
            <line class="st59" x1="-1300.8" y1="1250" x2="1250" y2="-189.6"/>
            <polygon class="st98" points="-1299.1 1253 -1302.5 1247 1248.3 -192.6 1251.7 -186.6 -1299.1 1253 -1299.1 1253"/>
            <line class="st59" x1="-1300.8" y1="1250" x2="1250" y2="-240.1"/>
            <polygon class="st96" points="-1299.1 1253 -1302.6 1247 1248.3 -243.1 1251.7 -237.1 -1299.1 1253 -1299.1 1253"/>
            <line class="st59" x1="-1300.8" y1="1250" x2="1250" y2="-290.6"/>
            <polygon class="st77" points="-1299.1 1252.9 -1302.6 1247.1 1248.2 -293.6 1251.8 -287.7 -1299.1 1252.9 -1299.1 1252.9"/>
            <line class="st59" x1="-1300.8" y1="1250" x2="1250" y2="-341.1"/>
            <polygon class="st16" points="-1299 1252.9 -1302.7 1247.1 1248.2 -344 1251.8 -338.2 -1299 1252.9 -1299 1252.9"/>
            <line class="st59" x1="-1300.8" y1="1250" x2="1250" y2="-391.6"/>
            <polygon class="st81" points="-1299 1252.9 -1302.7 1247.1 1248.1 -394.5 1251.9 -388.7 -1299 1252.9 -1299 1252.9"/>
            <line class="st59" x1="-1300.8" y1="1250" x2="1250" y2="-442.1"/>
            <polygon class="st86" points="-1298.9 1252.9 -1302.7 1247.1 1248.1 -445 1251.9 -439.3 -1298.9 1252.9 -1298.9 1252.9"/>
            <line class="st59" x1="-1300.8" y1="1250" x2="1250" y2="-492.7"/>
            <polygon class="st62" points="-1298.9 1252.8 -1302.8 1247.2 1248.1 -495.5 1251.9 -489.8 -1298.9 1252.8 -1298.9 1252.8"/>
            <line class="st59" x1="-1300.8" y1="1250" x2="1250" y2="-543.2"/>
            <polygon class="st83" points="-1298.9 1252.8 -1302.8 1247.2 1248 -546 1252 -540.4 -1298.9 1252.8 -1298.9 1252.8"/>
            <line class="st59" x1="-1300.8" y1="1250" x2="1250" y2="-593.7"/>
            <polygon class="st38" points="-1298.8 1252.8 -1302.9 1247.2 1248 -596.5 1252 -590.9 -1298.8 1252.8 -1298.8 1252.8"/>
            <line class="st59" x1="-1300.8" y1="1250" x2="1250" y2="-644.2"/>
            <polygon class="st73" points="-1298.8 1252.8 -1302.9 1247.2 1248 -647 1252 -641.4 -1298.8 1252.8 -1298.8 1252.8"/>
            <line class="st59" x1="-1300.8" y1="1250" x2="1250" y2="-694.7"/>
            <polygon class="st76" points="-1298.7 1252.7 -1302.9 1247.3 1247.9 -697.4 1252.1 -692 -1298.7 1252.7 -1298.7 1252.7"/>
            <line class="st59" x1="-1300.8" y1="1250" x2="1250" y2="-745.2"/>
            <polygon class="st46" points="-1298.7 1252.7 -1303 1247.3 1247.9 -747.9 1252.1 -742.5 -1298.7 1252.7 -1298.7 1252.7"/>
            <line class="st59" x1="-1300.8" y1="1250" x2="1250" y2="-795.7"/>
            <polygon class="st18" points="-1298.7 1252.7 -1303 1247.3 1247.8 -798.4 1252.1 -793 -1298.7 1252.7 -1298.7 1252.7"/>
            <line class="st59" x1="-1300.8" y1="1250" x2="1250" y2="-846.2"/>
            <polygon class="st57" points="-1298.7 1252.7 -1303 1247.3 1247.8 -848.9 1252.2 -843.6 -1298.7 1252.7 -1298.7 1252.7"/>
            <line class="st59" x1="-1300.8" y1="1250" x2="1250" y2="-896.8"/>
            <polygon class="st13" points="-1298.6 1252.6 -1303.1 1247.4 1247.8 -899.4 1252.2 -894.1 -1298.6 1252.6 -1298.6 1252.6"/>
            <line class="st59" x1="-1300.8" y1="1250" x2="1250" y2="-947.3"/>
            <polygon class="st24" points="-1298.6 1252.6 -1303.1 1247.4 1247.8 -949.9 1252.2 -944.7 -1298.6 1252.6 -1298.6 1252.6"/>
            <line class="st59" x1="-1300.8" y1="1250" x2="1250" y2="-997.8"/>
            <polygon class="st64" points="-1298.6 1252.6 -1303.1 1247.4 1247.7 -1000.4 1252.3 -995.2 -1298.6 1252.6 -1298.6 1252.6"/>
            <line class="st59" x1="-1300.8" y1="1250" x2="1250" y2="-1048.3"/>
            <polygon class="st20" points="-1298.5 1252.5 -1303.1 1247.4 1247.7 -1050.8 1252.3 -1045.7 -1298.5 1252.5 -1298.5 1252.5"/>
            <line class="st59" x1="-1300.8" y1="1250" x2="1250" y2="-1098.8"/>
            <polygon class="st41" points="-1298.5 1252.5 -1303.2 1247.5 1247.7 -1101.3 1252.3 -1096.3 -1298.5 1252.5 -1298.5 1252.5"/>
            <line class="st59" x1="-1300.8" y1="1250" x2="1250" y2="-1149.3"/>
            <polygon class="st91" points="-1298.5 1252.5 -1303.2 1247.5 1247.6 -1151.8 1252.4 -1146.8 -1298.5 1252.5 -1298.5 1252.5"/>
            <line class="st59" x1="-1300.8" y1="1250" x2="1250" y2="-1199.8"/>
            <polygon class="st58" points="-1298.5 1252.5 -1303.2 1247.5 1247.6 -1202.3 1252.4 -1197.3 -1298.5 1252.5 -1298.5 1252.5"/>
            <line class="st59" x1="-1300.8" y1="1250" x2="1250" y2="-1250.3"/>
            <polygon class="st89" points="-1298.4 1252.4 -1303.2 1247.5 1247.6 -1252.8 1252.4 -1247.9 -1298.4 1252.4 -1298.4 1252.4"/>
            <line class="st59" x1="-1300.8" y1="1250" x2="1250" y2="-1300.8"/>
            <polygon class="st51" points="-1298.4 1252.4 -1303.3 1247.6 1247.6 -1303.3 1252.4 -1298.4 -1298.4 1252.4 -1298.4 1252.4"/>
            <line class="st59" x1="3800.8" y1="1250" x2="1250" y2="-1300.8"/>
            <polygon class="st54" points="3798.4 1252.4 1247.6 -1298.4 1252.4 -1303.3 3803.3 1247.6 3798.4 1252.4 3798.4 1252.4"/>
            <line class="st59" x1="3800.8" y1="1250" x2="1250" y2="-1250.3"/>
            <polygon class="st29" points="1247.6 -1247.9 1252.4 -1252.8 3803.2 1247.5 3798.4 1252.4 1247.6 -1247.9 1247.6 -1247.9"/>
            <line class="st59" x1="3800.8" y1="1250" x2="1250" y2="-1199.8"/>
            <polygon class="st94" points="1247.6 -1197.3 1252.4 -1202.3 3803.2 1247.5 3798.5 1252.5 1247.6 -1197.3 1247.6 -1197.3"/>
            <line class="st59" x1="3800.8" y1="1250" x2="1250" y2="-1149.3"/>
            <polygon class="st94" points="1247.6 -1146.8 1252.4 -1151.8 3803.2 1247.5 3798.5 1252.5 1247.6 -1146.8 1247.6 -1146.8"/>
            <line class="st59" x1="3800.8" y1="1250" x2="1250" y2="-1098.8"/>
            <polygon class="st42" points="1247.7 -1096.3 1252.3 -1101.3 3803.2 1247.5 3798.5 1252.5 1247.7 -1096.3 1247.7 -1096.3"/>
            <line class="st59" x1="3800.8" y1="1250" x2="1250" y2="-1048.3"/>
            <polygon class="st25" points="1247.7 -1045.7 1252.3 -1050.8 3803.1 1247.4 3798.5 1252.5 1247.7 -1045.7 1247.7 -1045.7"/>
            <line class="st59" x1="3800.8" y1="1250" x2="1250" y2="-997.8"/>
            <polygon class="st71" points="1247.7 -995.2 1252.3 -1000.4 3803.1 1247.4 3798.6 1252.6 1247.7 -995.2 1247.7 -995.2"/>
            <line class="st59" x1="3800.8" y1="1250" x2="1250" y2="-947.3"/>
            <polygon class="st71" points="1247.8 -944.7 1252.2 -949.9 3803.1 1247.4 3798.6 1252.6 1247.8 -944.7 1247.8 -944.7"/>
            <line class="st59" x1="3800.8" y1="1250" x2="1250" y2="-896.8"/>
            <polygon class="st67" points="1247.8 -894.1 1252.2 -899.4 3803 1247.4 3798.6 1252.6 1247.8 -894.1 1247.8 -894.1"/>
            <line class="st59" x1="3800.8" y1="1250" x2="1250" y2="-846.2"/>
            <polygon class="st9" points="1247.8 -843.6 1252.2 -848.9 3803 1247.3 3798.7 1252.7 1247.8 -843.6 1247.8 -843.6"/>
            <line class="st59" x1="3800.8" y1="1250" x2="1250" y2="-795.7"/>
            <polygon class="st8" points="1247.8 -793 1252.2 -798.4 3803 1247.3 3798.7 1252.7 1247.8 -793 1247.8 -793"/>
            <line class="st59" x1="3800.8" y1="1250" x2="1250" y2="-745.2"/>
            <polygon class="st82" points="1247.9 -742.5 1252.1 -747.9 3803 1247.3 3798.7 1252.7 1247.9 -742.5 1247.9 -742.5"/>
            <line class="st59" x1="3800.8" y1="1250" x2="1250" y2="-694.7"/>
            <polygon class="st82" points="1247.9 -692 1252.1 -697.4 3802.9 1247.3 3798.8 1252.7 1247.9 -692 1247.9 -692"/>
            <line class="st59" x1="3800.8" y1="1250" x2="1250" y2="-644.2"/>
            <polygon class="st47" points="1248 -641.4 1252 -647 3802.9 1247.2 3798.8 1252.8 1248 -641.4 1248 -641.4"/>
            <line class="st59" x1="3800.8" y1="1250" x2="1250" y2="-593.7"/>
            <polygon class="st47" points="1248 -590.9 1252 -596.5 3802.8 1247.2 3798.8 1252.8 1248 -590.9 1248 -590.9"/>
            <line class="st59" x1="3800.8" y1="1250" x2="1250" y2="-543.2"/>
            <polygon class="st93" points="1248 -540.4 1252 -546 3802.8 1247.2 3798.9 1252.8 1248 -540.4 1248 -540.4"/>
            <line class="st59" x1="3800.8" y1="1250" x2="1250" y2="-492.7"/>
            <polygon class="st30" points="1248.1 -489.8 1251.9 -495.5 3802.8 1247.2 3798.9 1252.8 1248.1 -489.8 1248.1 -489.8"/>
            <line class="st59" x1="3800.8" y1="1250" x2="1250" y2="-442.1"/>
            <polygon class="st44" points="1248.1 -439.3 1251.9 -445 3802.7 1247.1 3798.9 1252.9 1248.1 -439.3 1248.1 -439.3"/>
            <line class="st59" x1="3800.8" y1="1250" x2="1250" y2="-391.6"/>
            <polygon class="st32" points="1248.1 -388.7 1251.9 -394.5 3802.7 1247.1 3799 1252.9 1248.1 -388.7 1248.1 -388.7"/>
            <line class="st59" x1="3800.8" y1="1250" x2="1250" y2="-341.1"/>
            <polygon class="st92" points="1248.2 -338.2 1251.8 -344 3802.7 1247.1 3799 1252.9 1248.2 -338.2 1248.2 -338.2"/>
            <line class="st59" x1="3800.8" y1="1250" x2="1250" y2="-290.6"/>
            <polygon class="st19" points="1248.2 -287.7 1251.8 -293.6 3802.6 1247.1 3799.1 1252.9 1248.2 -287.7 1248.2 -287.7"/>
            <line class="st59" x1="3800.8" y1="1250" x2="1250" y2="-240.1"/>
            <polygon class="st88" points="1248.3 -237.1 1251.7 -243.1 3802.6 1247 3799.1 1253 1248.3 -237.1 1248.3 -237.1"/>
            <line class="st59" x1="3800.8" y1="1250" x2="1250" y2="-189.6"/>
            <polygon class="st66" points="1248.3 -186.6 1251.7 -192.6 3802.5 1247 3799.1 1253 1248.3 -186.6 1248.3 -186.6"/>
            <line class="st59" x1="3800.8" y1="1250" x2="1250" y2="-139.1"/>
            <polygon class="st6" points="1248.4 -136.1 1251.6 -142.1 3802.5 1247 3799.2 1253 1248.4 -136.1 1248.4 -136.1"/>
            <line class="st59" x1="3800.8" y1="1250" x2="1250" y2="-88.6"/>
            <polygon class="st39" points="1248.4 -85.5 1251.6 -91.6 3802.4 1246.9 3799.2 1253 1248.4 -85.5 1248.4 -85.5"/>
            <line class="st59" x1="3800.8" y1="1250" x2="1250" y2="-38.1"/>
            <polygon class="st39" points="1248.4 -35 1251.5 -41.1 3802.4 1246.9 3799.3 1253.1 1248.4 -35 1248.4 -35"/>
            <line class="st59" x1="3800.8" y1="1250" x2="1250" y2="12.5"/>
            <polygon class="st36" points="1248.5 15.5 1251.5 9.4 3802.3 1246.9 3799.3 1253.1 1248.5 15.5 1248.5 15.5"/>
            <line class="st59" x1="3800.8" y1="1250" x2="1250" y2="63"/>
            <polygon class="st3" points="1248.6 66.1 1251.5 59.9 3802.3 1246.9 3799.4 1253.1 1248.6 66.1 1248.6 66.1"/>
            <line class="st59" x1="3800.8" y1="1250" x2="1250" y2="113.5"/>
            <polygon class="st90" points="1248.6 116.6 1251.4 110.3 3802.2 1246.9 3799.4 1253.1 1248.6 116.6 1248.6 116.6"/>
            <line class="st59" x1="3800.8" y1="1250" x2="1250" y2="164"/>
            <polygon class="st65" points="1248.7 167.2 1251.3 160.8 3802.2 1246.8 3799.5 1253.2 1248.7 167.2 1248.7 167.2"/>
            <line class="st59" x1="3800.8" y1="1250" x2="1250" y2="214.5"/>
            <polygon class="st48" points="1248.7 217.7 1251.3 211.3 3802.1 1246.8 3799.5 1253.2 1248.7 217.7 1248.7 217.7"/>
            <line class="st59" x1="3800.8" y1="1250" x2="1250" y2="265"/>
            <polygon class="st68" points="1248.8 268.2 1251.2 261.8 3802.1 1246.8 3799.6 1253.2 1248.8 268.2 1248.8 268.2"/>
            <line class="st59" x1="3800.8" y1="1250" x2="1250" y2="315.5"/>
            <polygon class="st85" points="1248.8 318.8 1251.2 312.3 3802 1246.8 3799.7 1253.2 1248.8 318.8 1248.8 318.8"/>
            <line class="st59" x1="3800.8" y1="1250" x2="1250" y2="366"/>
            <polygon class="st87" points="1248.9 369.3 1251.1 362.8 3802 1246.7 3799.7 1253.2 1248.9 369.3 1248.9 369.3"/>
            <line class="st59" x1="3800.8" y1="1250" x2="1250" y2="416.6"/>
            <polygon class="st69" points="1248.9 419.8 1251.1 413.3 3801.9 1246.7 3799.8 1253.3 1248.9 419.8 1248.9 419.8"/>
            <line class="st59" x1="3800.8" y1="1250" x2="1250" y2="467.1"/>
            <polygon class="st23" points="1249 470.3 1251 463.8 3801.8 1246.7 3799.8 1253.3 1249 470.3 1249 470.3"/>
            <line class="st59" x1="3800.8" y1="1250" x2="1250" y2="517.6"/>
            <polygon class="st102" points="1249.1 520.9 1251 514.3 3801.8 1246.7 3799.9 1253.3 1249.1 520.9 1249.1 520.9"/>
            <line class="st59" x1="3800.8" y1="1250" x2="1250" y2="568.1"/>
            <polygon class="st104" points="1249.1 571.4 1250.9 564.8 3801.7 1246.7 3799.9 1253.3 1249.1 571.4 1249.1 571.4"/>
            <line class="st59" x1="3800.8" y1="1250" x2="1250" y2="618.6"/>
            <polygon class="st55" points="1249.2 621.9 1250.8 615.3 3801.7 1246.7 3800 1253.3 1249.2 621.9 1249.2 621.9"/>
            <line class="st59" x1="3800.8" y1="1250" x2="1250" y2="669.1"/>
            <polygon class="st22" points="1249.2 672.5 1250.8 665.8 3801.6 1246.6 3800.1 1253.3 1249.2 672.5 1249.2 672.5"/>
            <line class="st59" x1="3800.8" y1="1250" x2="1250" y2="719.6"/>
            <polygon class="st74" points="1249.3 723 1250.7 716.3 3801.5 1246.6 3800.1 1253.4 1249.3 723 1249.3 723"/>
            <line class="st59" x1="3800.8" y1="1250" x2="1250" y2="770.1"/>
            <polygon class="st95" points="1249.4 773.5 1250.6 766.8 3801.5 1246.6 3800.2 1253.4 1249.4 773.5 1249.4 773.5"/>
            <line class="st59" x1="3800.8" y1="1250" x2="1250" y2="820.6"/>
            <polygon class="st4" points="1249.4 824 1250.6 817.3 3801.4 1246.6 3800.3 1253.4 1249.4 824 1249.4 824"/>
            <line class="st59" x1="3800.8" y1="1250" x2="1250" y2="871.2"/>
            <polygon class="st105" points="1249.5 874.6 1250.5 867.8 3801.3 1246.6 3800.3 1253.4 1249.5 874.6 1249.5 874.6"/>
            <line class="st59" x1="3800.8" y1="1250" x2="1250" y2="921.7"/>
            <polygon class="st72" points="1249.6 925.1 1250.4 918.3 3801.3 1246.6 3800.4 1253.4 1249.6 925.1 1249.6 925.1"/>
            <line class="st59" x1="3800.8" y1="1250" x2="1250" y2="972.2"/>
            <polygon class="st84" points="1249.6 975.6 1250.4 968.8 3801.2 1246.6 3800.5 1253.4 1249.6 975.6 1249.6 975.6"/>
            <line class="st59" x1="3800.8" y1="1250" x2="1250" y2="1022.7"/>
            <polygon class="st26" points="1249.7 1026.1 1250.3 1019.3 3801.1 1246.6 3800.5 1253.4 1249.7 1026.1 1249.7 1026.1"/>
            <line class="st59" x1="3800.8" y1="1250" x2="1250" y2="1073.2"/>
            <polygon class="st10" points="1249.8 1076.6 1250.2 1069.8 3801.1 1246.6 3800.6 1253.4 1249.8 1076.6 1249.8 1076.6"/>
            <line class="st59" x1="3800.8" y1="1250" x2="1250" y2="1123.7"/>
            <polygon class="st101" points="1249.8 1127.1 1250.2 1120.3 3801 1246.6 3800.7 1253.4 1249.8 1127.1 1249.8 1127.1"/>
            <line class="st59" x1="3800.8" y1="1250" x2="1250" y2="1174.2"/>
            <polygon class="st63" points="1249.9 1177.7 1250.1 1170.8 3800.9 1246.6 3800.7 1253.4 1249.9 1177.7 1249.9 1177.7"/>
            <line class="st59" x1="3800.8" y1="1250" x2="1250" y2="1224.7"/>
            <polygon class="st34" points="1250 1228.2 1250 1221.3 3800.9 1246.6 3800.8 1253.4 1250 1228.2 1250 1228.2"/>
            <line class="st59" x1="3800.8" y1="1250" x2="1250" y2="1275.2"/>
            <polygon class="st2" points="1250 1278.7 1250 1271.8 3800.8 1246.6 3800.9 1253.4 1250 1278.7 1250 1278.7"/>
            <line class="st59" x1="3800.8" y1="1250" x2="1250" y2="1325.8"/>
            <polygon class="st80" points="1250.1 1329.2 1249.9 1322.3 3800.7 1246.6 3800.9 1253.4 1250.1 1329.2 1250.1 1329.2"/>
            <line class="st59" x1="3800.8" y1="1250" x2="1250" y2="1376.3"/>
            <polygon class="st27" points="1250.2 1379.7 1249.8 1372.8 3800.7 1246.6 3801 1253.4 1250.2 1379.7 1250.2 1379.7"/>
            <line class="st59" x1="3800.8" y1="1250" x2="1250" y2="1426.8"/>
            <polygon class="st43" points="1250.2 1430.2 1249.8 1423.4 3800.6 1246.6 3801.1 1253.4 1250.2 1430.2 1250.2 1430.2"/>
            <line class="st59" x1="3800.8" y1="1250" x2="1250" y2="1477.3"/>
            <polygon class="st5" points="1250.3 1480.7 1249.7 1473.9 3800.5 1246.6 3801.1 1253.4 1250.3 1480.7 1250.3 1480.7"/>
            <line class="st59" x1="3800.8" y1="1250" x2="1250" y2="1527.8"/>
            <polygon class="st53" points="1250.4 1531.2 1249.6 1524.4 3800.5 1246.6 3801.2 1253.4 1250.4 1531.2 1250.4 1531.2"/>
            <line class="st59" x1="3800.8" y1="1250" x2="1250" y2="1578.3"/>
            <polygon class="st12" points="1250.4 1581.7 1249.6 1574.9 3800.4 1246.6 3801.3 1253.4 1250.4 1581.7 1250.4 1581.7"/>
            <line class="st59" x1="3800.8" y1="1250" x2="1250" y2="1628.8"/>
            <polygon class="st21" points="1250.5 1632.2 1249.5 1625.4 3800.3 1246.6 3801.3 1253.4 1250.5 1632.2 1250.5 1632.2"/>
            <line class="st59" x1="3800.8" y1="1250" x2="1250" y2="1679.3"/>
            <polygon class="st103" points="1250.6 1682.7 1249.4 1676 3800.3 1246.6 3801.4 1253.4 1250.6 1682.7 1250.6 1682.7"/>
            <line class="st59" x1="3800.8" y1="1250" x2="1250" y2="1729.9"/>
            <polygon class="st78" points="1250.6 1733.2 1249.4 1726.5 3800.2 1246.6 3801.5 1253.4 1250.6 1733.2 1250.6 1733.2"/>
            <line class="st59" x1="3800.8" y1="1250" x2="1250" y2="1780.4"/>
            <polygon class="st14" points="1250.7 1783.7 1249.3 1777 3800.1 1246.6 3801.5 1253.4 1250.7 1783.7 1250.7 1783.7"/>
            <line class="st59" x1="3800.8" y1="1250" x2="1250" y2="1830.9"/>
            <polygon class="st97" points="1250.8 1834.2 1249.2 1827.5 3800.1 1246.6 3801.6 1253.3 1250.8 1834.2 1250.8 1834.2"/>
            <line class="st59" x1="3800.8" y1="1250" x2="1250" y2="1881.4"/>
            <polygon class="st35" points="1250.8 1884.7 1249.2 1878.1 3800 1246.7 3801.7 1253.3 1250.8 1884.7 1250.8 1884.7"/>
            <line class="st59" x1="3800.8" y1="1250" x2="1250" y2="1931.9"/>
            <polygon class="st45" points="1250.9 1935.2 1249.1 1928.6 3799.9 1246.7 3801.7 1253.3 1250.9 1935.2 1250.9 1935.2"/>
            <line class="st59" x1="3800.8" y1="1250" x2="1250" y2="1982.4"/>
            <polygon class="st56" points="1251 1985.7 1249.1 1979.1 3799.9 1246.7 3801.8 1253.3 1251 1985.7 1251 1985.7"/>
            <line class="st59" x1="3800.8" y1="1250" x2="1250" y2="2032.9"/>
            <polygon class="st75" points="1251 2036.2 1249 2029.6 3799.8 1246.7 3801.8 1253.3 1251 2036.2 1251 2036.2"/>
            <line class="st59" x1="3800.8" y1="1250" x2="1250" y2="2083.4"/>
            <polygon class="st99" points="1251.1 2086.7 1248.9 2080.2 3799.8 1246.7 3801.9 1253.3 1251.1 2086.7 1251.1 2086.7"/>
            <line class="st59" x1="3800.8" y1="1250" x2="1250" y2="2134"/>
            <polygon class="st37" points="1251.1 2137.2 1248.9 2130.7 3799.7 1246.7 3802 1253.2 1251.1 2137.2 1251.1 2137.2"/>
            <line class="st59" x1="3800.8" y1="1250" x2="1250" y2="2184.5"/>
            <polygon class="st17" points="1251.2 2187.7 1248.8 2181.2 3799.7 1246.8 3802 1253.2 1251.2 2187.7 1251.2 2187.7"/>
            <line class="st59" x1="3800.8" y1="1250" x2="1250" y2="2235"/>
            <polygon class="st28" points="1251.2 2238.2 1248.8 2231.8 3799.6 1246.8 3802.1 1253.2 1251.2 2238.2 1251.2 2238.2"/>
            <line class="st59" x1="3800.8" y1="1250" x2="1250" y2="2285.5"/>
            <polygon class="st70" points="1251.3 2288.7 1248.7 2282.3 3799.5 1246.8 3802.1 1253.2 1251.3 2288.7 1251.3 2288.7"/>
            <line class="st59" x1="3800.8" y1="1250" x2="1250" y2="2336"/>
            <polygon class="st52" points="1251.3 2339.2 1248.6 2332.8 3799.5 1246.8 3802.2 1253.2 1251.3 2339.2 1251.3 2339.2"/>
            <line class="st59" x1="3800.8" y1="1250" x2="1250" y2="2386.5"/>
            <polygon class="st79" points="1251.4 2389.6 1248.6 2383.4 3799.4 1246.9 3802.2 1253.1 1251.4 2389.6 1251.4 2389.6"/>
            <line class="st59" x1="3800.8" y1="1250" x2="1250" y2="2437"/>
            <polygon class="st31" points="1251.5 2440.1 1248.6 2433.9 3799.4 1246.9 3802.3 1253.1 1251.5 2440.1 1251.5 2440.1"/>
            <line class="st59" x1="3800.8" y1="1250" x2="1250" y2="2487.5"/>
            <polygon class="st33" points="1251.5 2490.6 1248.5 2484.4 3799.3 1246.9 3802.3 1253.1 1251.5 2490.6 1251.5 2490.6"/>
            <line class="st59" x1="3800.8" y1="1250" x2="1250" y2="2538"/>
            <polygon class="st49" points="1251.5 2541.1 1248.5 2535 3799.3 1246.9 3802.4 1253.1 1251.5 2541.1 1251.5 2541.1"/>
            <line class="st59" x1="3800.8" y1="1250" x2="1250" y2="2588.5"/>
            <polygon class="st7" points="1251.6 2591.6 1248.4 2585.5 3799.2 1246.9 3802.4 1253 1251.6 2591.6 1251.6 2591.6"/>
            <line class="st59" x1="3800.8" y1="1250" x2="1250" y2="2639.1"/>
            <polygon class="st11" points="1251.6 2642.1 1248.4 2636 3799.2 1247 3802.5 1253 1251.6 2642.1 1251.6 2642.1"/>
            <line class="st59" x1="3800.8" y1="1250" x2="1250" y2="2689.6"/>
            <polygon class="st98" points="1251.7 2692.6 1248.3 2686.6 3799.1 1247 3802.5 1253 1251.7 2692.6 1251.7 2692.6"/>
            <line class="st59" x1="3800.8" y1="1250" x2="1250" y2="2740.1"/>
            <polygon class="st96" points="1251.7 2743 1248.3 2737.1 3799.1 1247 3802.6 1253 1251.7 2743 1251.7 2743"/>
            <line class="st59" x1="3800.8" y1="1250" x2="1250" y2="2790.6"/>
            <polygon class="st77" points="1251.8 2793.5 1248.2 2787.7 3799.1 1247.1 3802.6 1252.9 1251.8 2793.5 1251.8 2793.5"/>
            <line class="st59" x1="3800.8" y1="1250" x2="1250" y2="2841.1"/>
            <polygon class="st16" points="1251.8 2844 1248.2 2838.2 3799 1247.1 3802.7 1252.9 1251.8 2844 1251.8 2844"/>
            <line class="st59" x1="3800.8" y1="1250" x2="1250" y2="2891.6"/>
            <polygon class="st81" points="1251.9 2894.5 1248.1 2888.7 3799 1247.1 3802.7 1252.9 1251.9 2894.5 1251.9 2894.5"/>
            <line class="st59" x1="3800.8" y1="1250" x2="1250" y2="2942.1"/>
            <polygon class="st86" points="1251.9 2945 1248.1 2939.3 3798.9 1247.1 3802.7 1252.9 1251.9 2945 1251.9 2945"/>
            <line class="st59" x1="3800.8" y1="1250" x2="1250" y2="2992.6"/>
            <polygon class="st62" points="1251.9 2995.5 1248.1 2989.8 3798.9 1247.2 3802.8 1252.8 1251.9 2995.5 1251.9 2995.5"/>
            <line class="st59" x1="3800.8" y1="1250" x2="1250" y2="3043.2"/>
            <polygon class="st83" points="1252 3046 1248 3040.4 3798.9 1247.2 3802.8 1252.8 1252 3046 1252 3046"/>
            <line class="st59" x1="3800.8" y1="1250" x2="1250" y2="3093.7"/>
            <polygon class="st38" points="1252 3096.5 1248 3090.9 3798.8 1247.2 3802.8 1252.8 1252 3096.5 1252 3096.5"/>
            <line class="st59" x1="3800.8" y1="1250" x2="1250" y2="3144.2"/>
            <polygon class="st73" points="1252 3146.9 1248 3141.4 3798.8 1247.2 3802.9 1252.7 1252 3146.9 1252 3146.9"/>
            <line class="st59" x1="3800.8" y1="1250" x2="1250" y2="3194.7"/>
            <polygon class="st76" points="1252.1 3197.4 1247.9 3192 3798.8 1247.3 3802.9 1252.7 1252.1 3197.4 1252.1 3197.4"/>
            <line class="st59" x1="3800.8" y1="1250" x2="1250" y2="3245.2"/>
            <polygon class="st46" points="1252.1 3247.9 1247.9 3242.5 3798.7 1247.3 3803 1252.7 1252.1 3247.9 1252.1 3247.9"/>
            <line class="st59" x1="3800.8" y1="1250" x2="1250" y2="3295.7"/>
            <polygon class="st18" points="1252.1 3298.4 1247.8 3293 3798.7 1247.3 3803 1252.7 1252.1 3298.4 1252.1 3298.4"/>
            <line class="st59" x1="3800.8" y1="1250" x2="1250" y2="3346.2"/>
            <polygon class="st57" points="1252.2 3348.9 1247.8 3343.6 3798.7 1247.3 3803 1252.7 1252.2 3348.9 1252.2 3348.9"/>
            <line class="st59" x1="3800.8" y1="1250" x2="1250" y2="3396.7"/>
            <polygon class="st13" points="1252.2 3399.4 1247.8 3394.1 3798.6 1247.4 3803 1252.6 1252.2 3399.4 1252.2 3399.4"/>
            <line class="st59" x1="3800.8" y1="1250" x2="1250" y2="3447.3"/>
            <polygon class="st24" points="1252.2 3449.9 1247.8 3444.6 3798.6 1247.4 3803.1 1252.6 1252.2 3449.9 1252.2 3449.9"/>
            <line class="st59" x1="3800.8" y1="1250" x2="1250" y2="3497.8"/>
            <polygon class="st64" points="1252.3 3500.3 1247.7 3495.2 3798.6 1247.4 3803.1 1252.6 1252.3 3500.3 1252.3 3500.3"/>
            <line class="st59" x1="3800.8" y1="1250" x2="1250" y2="3548.3"/>
            <polygon class="st20" points="1252.3 3550.8 1247.7 3545.7 3798.5 1247.4 3803.1 1252.5 1252.3 3550.8 1252.3 3550.8"/>
            <line class="st59" x1="3800.8" y1="1250" x2="1250" y2="3598.8"/>
            <polygon class="st41" points="1252.3 3601.3 1247.7 3596.3 3798.5 1247.5 3803.2 1252.5 1252.3 3601.3 1252.3 3601.3"/>
            <line class="st59" x1="3800.8" y1="1250" x2="1250" y2="3649.3"/>
            <polygon class="st91" points="1252.4 3651.8 1247.6 3646.8 3798.5 1247.5 3803.2 1252.5 1252.4 3651.8 1252.4 3651.8"/>
            <line class="st59" x1="3800.8" y1="1250" x2="1250" y2="3699.8"/>
            <polygon class="st58" points="1252.4 3702.3 1247.6 3697.3 3798.5 1247.5 3803.2 1252.5 1252.4 3702.3 1252.4 3702.3"/>
            <line class="st59" x1="3800.8" y1="1250" x2="1250" y2="3750.3"/>
            <polygon class="st89" points="1252.4 3752.8 1247.6 3747.9 3798.4 1247.5 3803.2 1252.4 1252.4 3752.8 1252.4 3752.8"/>
            <line class="st59" x1="3800.8" y1="1250" x2="1250" y2="3800.8"/>
            <polygon class="st51" points="1252.4 3803.3 1247.6 3798.4 3798.4 1247.6 3803.3 1252.4 1252.4 3803.3 1252.4 3803.3"/>
          </g>
        </g>
      </g>
    </g>
  </g>
</svg>