<?xml version="1.0" encoding="UTF-8"?>
<svg xmlns="http://www.w3.org/2000/svg" xmlns:xlink="http://www.w3.org/1999/xlink" version="1.1" viewBox="0 0 2500 1575">
  <!-- Generator: Adobe Illustrator 30.1.0, SVG Export Plug-In . SVG Version: 2.1.1 Build 136)  -->
  <defs>
    <style>
      .st0, .st1 {
        fill: none;
      }

      .st2 {
        fill: #7354a3;
      }

      .st3 {
        fill: #5658a6;
      }

      .st4 {
        fill: #6756a4;
      }

      .st5 {
        fill: #7953a2;
      }

      .st6 {
        fill: #5259a7;
      }

      .st7 {
        fill: #9a4f9e;
      }

      .st8 {
        fill: #465ca9;
      }

      .st9 {
        fill: #455ca9;
      }

      .st10 {
        fill: #6d55a3;
      }

      .st11 {
        fill: #9b4e9e;
      }

      .st12 {
        fill: #7b53a2;
      }

      .st13 {
        fill: #b64d9d;
      }

      .st14 {
        fill: #8251a1;
      }

      .st15 {
        fill: #eaeaea;
      }

      .st16 {
        fill: #a24e9e;
      }

      .st17 {
        fill: #8d50a0;
      }

      .st18 {
        fill: #b24d9d;
      }

      .st19 {
        fill: #4e5aa8;
      }

      .st20 {
        fill: #bb4d9d;
      }

      .st21 {
        fill: #7d52a2;
      }

      .st22 {
        fill: #6256a5;
      }

      .st23 {
        fill: #5e57a5;
      }

      .st24 {
        fill: #b74d9d;
      }

      .st25 {
        fill: #435caa;
      }

      .st26 {
        fill: #6c55a3;
      }

      .st27 {
        fill: #7654a2;
      }

      .st28 {
        fill: #8f50a0;
      }

      .st29 {
        fill: #415dab;
      }

      .st30 {
        fill: #4a5aa8;
      }

      .st31 {
        fill: #954f9f;
      }

      .st32 {
        fill: #4c5aa8;
      }

      .st33 {
        fill: #974f9f;
      }

      .st34 {
        fill: #7254a3;
      }

      .st35 {
        fill: #8451a1;
      }

      .st36 {
        fill: #5558a7;
      }

      .st37 {
        fill: #8c50a0;
      }

      .st38 {
        fill: #aa4d9d;
      }

      .st39 {
        fill: #5359a7;
      }

      .st40 {
        isolation: isolate;
      }

      .st41 {
        fill: #bd4d9d;
      }

      .st42 {
        fill: #435daa;
      }

      .st43 {
        fill: #7853a2;
      }

      .st44 {
        fill: #4b5aa8;
      }

      .st45 {
        fill: #8551a1;
      }

      .st46 {
        fill: #b04d9d;
      }

      .st1 {
        stroke: #79ffff;
        stroke-miterlimit: 10;
        stroke-width: 2.7px;
      }

      .st47 {
        fill: #485ba9;
      }

      .st48 {
        fill: #5958a6;
      }

      .st49 {
        fill: #994f9f;
      }

      .st50 {
        clip-path: url(#clippath-1);
      }

      .st51 {
        fill: #c44e9d;
      }

      .st52 {
        fill: #92509f;
      }

      .st53 {
        fill: #7a53a2;
      }

      .st54 {
        fill: #415eab;
      }

      .st55 {
        fill: #6156a5;
      }

      .st56 {
        fill: #8851a0;
      }

      .st57 {
        fill: #b44d9d;
      }

      .st58 {
        fill: #bf4e9d;
      }

      .st59 {
        fill: #6653a3;
      }

      .st60 {
        mix-blend-mode: hue;
      }

      .st60, .st61 {
        display: none;
      }

      .st62 {
        fill: #a84d9d;
      }

      .st63 {
        fill: #7054a3;
      }

      .st64 {
        fill: #b84d9d;
      }

      .st65 {
        fill: #5858a6;
      }

      .st66 {
        fill: #5059a7;
      }

      .st67 {
        fill: #455caa;
      }

      .st68 {
        fill: #5a57a6;
      }

      .st69 {
        fill: #5d57a5;
      }

      .st70 {
        fill: #90509f;
      }

      .st71 {
        fill: #445caa;
      }

      .st72 {
        fill: #6955a4;
      }

      .st73 {
        fill: #ac4d9d;
      }

      .st74 {
        fill: #6456a5;
      }

      .st75 {
        fill: #8951a0;
      }

      .st76 {
        fill: #ae4d9d;
      }

      .st77 {
        fill: #a04e9e;
      }

      .st78 {
        fill: #8052a1;
      }

      .st79 {
        fill: #944f9f;
      }

      .st80 {
        fill: #7454a3;
      }

      .st81 {
        fill: #a44d9d;
      }

      .st82 {
        fill: #475ba9;
      }

      .st83 {
        fill: #a94d9d;
      }

      .st84 {
        fill: #6b55a4;
      }

      .st85 {
        fill: #5b57a6;
      }

      .st86 {
        fill: #a64d9d;
      }

      .st87 {
        fill: #5c57a5;
      }

      .st88 {
        fill: #4f5aa8;
      }

      .st89 {
        fill: #c24e9d;
      }

      .st90 {
        fill: #5758a6;
      }

      .st91 {
        fill: #be4e9d;
      }

      .st92 {
        fill: #4d5aa8;
      }

      .st93 {
        fill: #495ba8;
      }

      .st94 {
        fill: #425daa;
      }

      .st95 {
        fill: #6656a4;
      }

      .st96 {
        fill: #9f4e9e;
      }

      .st97 {
        fill: #8351a1;
      }

      .st98 {
        fill: #9d4e9e;
      }

      .st99 {
        fill: #8a50a0;
      }

      .st100 {
        clip-path: url(#clippath);
      }

      .st101 {
        fill: #6e54a3;
      }

      .st102 {
        fill: #5f57a5;
      }

      .st103 {
        fill: #7e52a1;
      }

      .st104 {
        fill: #6056a5;
      }

      .st105 {
        fill: #6855a4;
      }
    </style>
    <clipPath id="clippath">
      <rect class="st0" y="-1576.5" width="2500" height="3151.5" transform="translate(2500 -1.5) rotate(180)"/>
    </clipPath>
    <clipPath id="clippath-1">
      <rect class="st0" x=".1" y="-925" width="2499.9" height="2499.9"/>
    </clipPath>
  </defs>
  <g class="st40">
    <g id="Layer_1">
      <g>
        <rect class="st61" y="-.7" width="2500" height="1575.7" transform="translate(2500 1574.3) rotate(180)"/>
        <g class="st100">
          <g id="border">
            <rect class="st1" x="0" y="-1574.1" width="2500" height="3148.1" transform="translate(2499.2 -43.7) rotate(178)"/>
            <rect class="st1" x="0" y="-1574.1" width="2500" height="3148.1" transform="translate(2497 -87.3) rotate(176)"/>
            <rect class="st1" x="0" y="-1574.1" width="2500" height="3148.1" transform="translate(2499.2 43.6) rotate(-178)"/>
            <rect class="st1" x="0" y="-1574.1" width="2500" height="3148.1" transform="translate(2497 87.1) rotate(-176)"/>
          </g>
        </g>
        <g class="st60">
          <polygon class="st15" points="2.5 -922.3 2497.3 -922.3 2497.3 1572.5 2.5 1572.5 2.5 -922.3 2.5 -922.3"/>
          <line class="st59" x1="2497.3" y1="-922.3" x2="2.5" y2="-922.3"/>
          <polygon class="st54" points="2.5 -924.7 2497.3 -924.7 2497.3 -919.9 2.5 -919.9 2.5 -924.7 2.5 -924.7"/>
          <line class="st59" x1="2497.3" y1="-922.3" x2="27.2" y2="-897.6"/>
          <polygon class="st29" points="2497.3 -924.7 2497.3 -919.9 27.2 -895.2 27.2 -900 2497.3 -924.7 2497.3 -924.7"/>
          <line class="st59" x1="2497.3" y1="-922.3" x2="51.9" y2="-872.9"/>
          <polygon class="st94" points="2497.3 -924.7 2497.4 -919.9 52 -870.5 51.9 -875.3 2497.3 -924.7 2497.3 -924.7"/>
          <line class="st59" x1="2497.3" y1="-922.3" x2="76.6" y2="-848.2"/>
          <polygon class="st94" points="2497.2 -924.7 2497.4 -919.9 76.7 -845.8 76.6 -850.6 2497.2 -924.7 2497.2 -924.7"/>
          <line class="st59" x1="2497.3" y1="-922.3" x2="101.3" y2="-823.5"/>
          <polygon class="st42" points="2497.2 -924.7 2497.4 -919.9 101.4 -821.1 101.2 -825.9 2497.2 -924.7 2497.2 -924.7"/>
          <line class="st59" x1="2497.3" y1="-922.3" x2="126" y2="-798.8"/>
          <polygon class="st25" points="2497.2 -924.7 2497.4 -919.9 126.1 -796.4 125.9 -801.2 2497.2 -924.7 2497.2 -924.7"/>
          <line class="st59" x1="2497.3" y1="-922.3" x2="150.7" y2="-774.1"/>
          <polygon class="st71" points="2497.2 -924.7 2497.5 -919.9 150.9 -771.7 150.6 -776.5 2497.2 -924.7 2497.2 -924.7"/>
          <line class="st59" x1="2497.3" y1="-922.3" x2="175.4" y2="-749.4"/>
          <polygon class="st71" points="2497.1 -924.7 2497.5 -919.9 175.6 -747 175.3 -751.8 2497.1 -924.7 2497.1 -924.7"/>
          <line class="st59" x1="2497.3" y1="-922.3" x2="200.1" y2="-724.7"/>
          <polygon class="st67" points="2497.1 -924.7 2497.5 -919.9 200.3 -722.3 199.9 -727.1 2497.1 -924.7 2497.1 -924.7"/>
          <line class="st59" x1="2497.3" y1="-922.3" x2="224.8" y2="-700"/>
          <polygon class="st9" points="2497.1 -924.7 2497.5 -919.9 225.1 -697.6 224.6 -702.4 2497.1 -924.7 2497.1 -924.7"/>
          <line class="st59" x1="2497.3" y1="-922.3" x2="249.5" y2="-675.3"/>
          <polygon class="st8" points="2497 -924.7 2497.6 -919.9 249.8 -672.9 249.3 -677.7 2497 -924.7 2497 -924.7"/>
          <line class="st59" x1="2497.3" y1="-922.3" x2="274.2" y2="-650.6"/>
          <polygon class="st82" points="2497 -924.7 2497.6 -919.9 274.5 -648.2 273.9 -653 2497 -924.7 2497 -924.7"/>
          <line class="st59" x1="2497.3" y1="-922.3" x2="298.9" y2="-625.9"/>
          <polygon class="st82" points="2497 -924.7 2497.6 -919.9 299.3 -623.5 298.6 -628.2 2497 -924.7 2497 -924.7"/>
          <line class="st59" x1="2497.3" y1="-922.3" x2="323.6" y2="-601.2"/>
          <polygon class="st47" points="2497 -924.7 2497.7 -919.9 324 -598.8 323.3 -603.5 2497 -924.7 2497 -924.7"/>
          <line class="st59" x1="2497.3" y1="-922.3" x2="348.3" y2="-576.5"/>
          <polygon class="st47" points="2496.9 -924.6 2497.7 -920 348.7 -574.1 348 -578.8 2496.9 -924.6 2496.9 -924.6"/>
          <line class="st59" x1="2497.3" y1="-922.3" x2="373" y2="-551.8"/>
          <polygon class="st93" points="2496.9 -924.6 2497.7 -920 373.4 -549.4 372.6 -554.1 2496.9 -924.6 2496.9 -924.6"/>
          <line class="st59" x1="2497.3" y1="-922.3" x2="397.7" y2="-527.1"/>
          <polygon class="st30" points="2496.9 -924.6 2497.7 -920 398.2 -524.8 397.3 -529.4 2496.9 -924.6 2496.9 -924.6"/>
          <line class="st59" x1="2497.3" y1="-922.3" x2="422.4" y2="-502.4"/>
          <polygon class="st44" points="2496.8 -924.6 2497.8 -920 422.9 -500.1 422 -504.7 2496.8 -924.6 2496.8 -924.6"/>
          <line class="st59" x1="2497.3" y1="-922.3" x2="447.1" y2="-477.7"/>
          <polygon class="st32" points="2496.8 -924.6 2497.8 -920 447.6 -475.4 446.6 -480 2496.8 -924.6 2496.8 -924.6"/>
          <line class="st59" x1="2497.3" y1="-922.3" x2="471.8" y2="-453"/>
          <polygon class="st92" points="2496.8 -924.6 2497.8 -920 472.4 -450.7 471.3 -455.3 2496.8 -924.6 2496.8 -924.6"/>
          <line class="st59" x1="2497.3" y1="-922.3" x2="496.5" y2="-428.3"/>
          <polygon class="st19" points="2496.7 -924.6 2497.9 -920 497.1 -426 496 -430.6 2496.7 -924.6 2496.7 -924.6"/>
          <line class="st59" x1="2497.3" y1="-922.3" x2="521.2" y2="-403.6"/>
          <polygon class="st88" points="2496.7 -924.6 2497.9 -920 521.8 -401.3 520.6 -405.9 2496.7 -924.6 2496.7 -924.6"/>
          <line class="st59" x1="2497.3" y1="-922.3" x2="545.9" y2="-378.9"/>
          <polygon class="st66" points="2496.7 -924.6 2497.9 -920 546.6 -376.6 545.3 -381.2 2496.7 -924.6 2496.7 -924.6"/>
          <line class="st59" x1="2497.3" y1="-922.3" x2="570.6" y2="-354.2"/>
          <polygon class="st6" points="2496.6 -924.6 2498 -920 571.3 -351.9 570 -356.5 2496.6 -924.6 2496.6 -924.6"/>
          <line class="st59" x1="2497.3" y1="-922.3" x2="595.3" y2="-329.5"/>
          <polygon class="st39" points="2496.6 -924.6 2498 -920 596 -327.2 594.6 -331.7 2496.6 -924.6 2496.6 -924.6"/>
          <line class="st59" x1="2497.3" y1="-922.3" x2="620" y2="-304.8"/>
          <polygon class="st39" points="2496.6 -924.6 2498 -920 620.8 -302.5 619.3 -307 2496.6 -924.6 2496.6 -924.6"/>
          <line class="st59" x1="2497.3" y1="-922.3" x2="644.7" y2="-280.1"/>
          <polygon class="st36" points="2496.5 -924.5 2498.1 -920 645.5 -277.8 644 -282.3 2496.5 -924.5 2496.5 -924.5"/>
          <line class="st59" x1="2497.3" y1="-922.3" x2="669.4" y2="-255.4"/>
          <polygon class="st3" points="2496.5 -924.5 2498.1 -920.1 670.3 -253.1 668.6 -257.6 2496.5 -924.5 2496.5 -924.5"/>
          <line class="st59" x1="2497.3" y1="-922.3" x2="694.1" y2="-230.7"/>
          <polygon class="st90" points="2496.5 -924.5 2498.2 -920.1 695 -228.5 693.3 -232.9 2496.5 -924.5 2496.5 -924.5"/>
          <line class="st59" x1="2497.3" y1="-922.3" x2="718.8" y2="-206"/>
          <polygon class="st65" points="2496.4 -924.5 2498.2 -920.1 719.7 -203.8 718 -208.2 2496.4 -924.5 2496.4 -924.5"/>
          <line class="st59" x1="2497.3" y1="-922.3" x2="743.5" y2="-181.3"/>
          <polygon class="st48" points="2496.4 -924.5 2498.2 -920.1 744.5 -179.1 742.6 -183.5 2496.4 -924.5 2496.4 -924.5"/>
          <line class="st59" x1="2497.3" y1="-922.3" x2="768.2" y2="-156.6"/>
          <polygon class="st68" points="2496.3 -924.5 2498.3 -920.1 769.2 -154.4 767.3 -158.7 2496.3 -924.5 2496.3 -924.5"/>
          <line class="st59" x1="2497.3" y1="-922.3" x2="793" y2="-131.9"/>
          <polygon class="st85" points="2496.3 -924.5 2498.3 -920.1 793.9 -129.7 791.9 -134 2496.3 -924.5 2496.3 -924.5"/>
          <line class="st59" x1="2497.3" y1="-922.3" x2="817.6" y2="-107.2"/>
          <polygon class="st87" points="2496.3 -924.4 2498.3 -920.2 818.7 -105 816.6 -109.3 2496.3 -924.4 2496.3 -924.4"/>
          <line class="st59" x1="2497.3" y1="-922.3" x2="842.3" y2="-82.5"/>
          <polygon class="st69" points="2496.2 -924.4 2498.4 -920.2 843.4 -80.4 841.3 -84.6 2496.2 -924.4 2496.2 -924.4"/>
          <line class="st59" x1="2497.3" y1="-922.3" x2="867.1" y2="-57.8"/>
          <polygon class="st23" points="2496.2 -924.4 2498.4 -920.2 868.2 -55.7 865.9 -59.9 2496.2 -924.4 2496.2 -924.4"/>
          <line class="st59" x1="2497.3" y1="-922.3" x2="891.7" y2="-33.1"/>
          <polygon class="st102" points="2496.2 -924.4 2498.5 -920.2 892.9 -31 890.6 -35.1 2496.2 -924.4 2496.2 -924.4"/>
          <line class="st59" x1="2497.3" y1="-922.3" x2="916.4" y2="-8.4"/>
          <polygon class="st104" points="2496.1 -924.4 2498.5 -920.2 917.6 -6.3 915.3 -10.4 2496.1 -924.4 2496.1 -924.4"/>
          <line class="st59" x1="2497.3" y1="-922.3" x2="941.2" y2="16.3"/>
          <polygon class="st55" points="2496.1 -924.3 2498.5 -920.3 942.4 18.4 939.9 14.3 2496.1 -924.3 2496.1 -924.3"/>
          <line class="st59" x1="2497.3" y1="-922.3" x2="965.8" y2="41"/>
          <polygon class="st22" points="2496 -924.3 2498.6 -920.3 967.1 43 964.6 39 2496 -924.3 2496 -924.3"/>
          <line class="st59" x1="2497.3" y1="-922.3" x2="990.6" y2="65.7"/>
          <polygon class="st74" points="2496 -924.3 2498.6 -920.3 991.9 67.7 989.3 63.7 2496 -924.3 2496 -924.3"/>
          <line class="st59" x1="2497.3" y1="-922.3" x2="1015.3" y2="90.4"/>
          <polygon class="st95" points="2496 -924.3 2498.6 -920.3 1016.6 92.4 1013.9 88.5 2496 -924.3 2496 -924.3"/>
          <line class="st59" x1="2497.3" y1="-922.3" x2="1040" y2="115.1"/>
          <polygon class="st4" points="2495.9 -924.2 2498.7 -920.4 1041.3 117.1 1038.6 113.2 2495.9 -924.2 2495.9 -924.2"/>
          <line class="st59" x1="2497.3" y1="-922.3" x2="1064.7" y2="139.8"/>
          <polygon class="st105" points="2495.9 -924.2 2498.7 -920.4 1066.1 141.7 1063.2 137.9 2495.9 -924.2 2495.9 -924.2"/>
          <line class="st59" x1="2497.3" y1="-922.3" x2="1089.4" y2="164.5"/>
          <polygon class="st72" points="2495.9 -924.2 2498.8 -920.4 1090.8 166.4 1087.9 162.7 2495.9 -924.2 2495.9 -924.2"/>
          <line class="st59" x1="2497.3" y1="-922.3" x2="1114.1" y2="189.2"/>
          <polygon class="st84" points="2495.8 -924.2 2498.8 -920.4 1115.5 191.1 1112.6 187.4 2495.8 -924.2 2495.8 -924.2"/>
          <line class="st59" x1="2497.3" y1="-922.3" x2="1138.8" y2="213.9"/>
          <polygon class="st26" points="2495.8 -924.1 2498.8 -920.5 1140.3 215.8 1137.2 212.1 2495.8 -924.1 2495.8 -924.1"/>
          <line class="st59" x1="2497.3" y1="-922.3" x2="1163.5" y2="238.6"/>
          <polygon class="st10" points="2495.7 -924.1 2498.9 -920.5 1165 240.4 1161.9 236.8 2495.7 -924.1 2495.7 -924.1"/>
          <line class="st59" x1="2497.3" y1="-922.3" x2="1188.2" y2="263.3"/>
          <polygon class="st101" points="2495.7 -924.1 2498.9 -920.5 1189.8 265.1 1186.6 261.6 2495.7 -924.1 2495.7 -924.1"/>
          <line class="st59" x1="2497.3" y1="-922.3" x2="1212.9" y2="288"/>
          <polygon class="st63" points="2495.7 -924 2498.9 -920.6 1214.5 289.8 1211.2 286.3 2495.7 -924 2495.7 -924"/>
          <line class="st59" x1="2497.3" y1="-922.3" x2="1237.6" y2="312.7"/>
          <polygon class="st34" points="2495.6 -924 2499 -920.6 1239.2 314.4 1235.9 311.1 2495.6 -924 2495.6 -924"/>
          <line class="st59" x1="2497.3" y1="-922.3" x2="1262.3" y2="337.4"/>
          <polygon class="st2" points="2495.6 -924 2499 -920.6 1264 339.1 1260.6 335.8 2495.6 -924 2495.6 -924"/>
          <line class="st59" x1="2497.3" y1="-922.3" x2="1287" y2="362.1"/>
          <polygon class="st80" points="2495.6 -923.9 2499 -920.7 1288.7 363.8 1285.2 360.5 2495.6 -923.9 2495.6 -923.9"/>
          <line class="st59" x1="2497.3" y1="-922.3" x2="1311.7" y2="386.8"/>
          <polygon class="st27" points="2495.5 -923.9 2499.1 -920.7 1313.4 388.4 1309.9 385.3 2495.5 -923.9 2495.5 -923.9"/>
          <line class="st59" x1="2497.3" y1="-922.3" x2="1336.4" y2="411.5"/>
          <polygon class="st43" points="2495.5 -923.9 2499.1 -920.7 1338.2 413.1 1334.6 410 2495.5 -923.9 2495.5 -923.9"/>
          <line class="st59" x1="2497.3" y1="-922.3" x2="1361.1" y2="436.2"/>
          <polygon class="st5" points="2495.5 -923.8 2499.1 -920.8 1362.9 437.8 1359.2 434.7 2495.5 -923.8 2495.5 -923.8"/>
          <line class="st59" x1="2497.3" y1="-922.3" x2="1385.8" y2="460.9"/>
          <polygon class="st53" points="2495.5 -923.8 2499.2 -920.8 1387.6 462.4 1383.9 459.5 2495.5 -923.8 2495.5 -923.8"/>
          <line class="st59" x1="2497.3" y1="-922.3" x2="1410.5" y2="485.6"/>
          <polygon class="st12" points="2495.4 -923.7 2499.2 -920.8 1412.3 487.1 1408.6 484.2 2495.4 -923.7 2495.4 -923.7"/>
          <line class="st59" x1="2497.3" y1="-922.3" x2="1435.2" y2="510.3"/>
          <polygon class="st21" points="2495.4 -923.7 2499.2 -920.9 1437.1 511.8 1433.3 508.9 2495.4 -923.7 2495.4 -923.7"/>
          <line class="st59" x1="2497.3" y1="-922.3" x2="1459.9" y2="535.1"/>
          <polygon class="st103" points="2495.4 -923.7 2499.2 -920.9 1461.8 536.4 1457.9 533.7 2495.4 -923.7 2495.4 -923.7"/>
          <line class="st59" x1="2497.3" y1="-922.3" x2="1484.6" y2="559.8"/>
          <polygon class="st78" points="2495.3 -923.6 2499.3 -921 1486.5 561.1 1482.6 558.4 2495.3 -923.6 2495.3 -923.6"/>
          <line class="st59" x1="2497.3" y1="-922.3" x2="1509.3" y2="584.5"/>
          <polygon class="st14" points="2495.3 -923.6 2499.3 -921 1511.3 585.8 1507.3 583.1 2495.3 -923.6 2495.3 -923.6"/>
          <line class="st59" x1="2497.3" y1="-922.3" x2="1534" y2="609.2"/>
          <polygon class="st97" points="2495.3 -923.6 2499.3 -921 1536 610.4 1532 607.9 2495.3 -923.6 2495.3 -923.6"/>
          <line class="st59" x1="2497.3" y1="-922.3" x2="1558.7" y2="633.9"/>
          <polygon class="st35" points="2495.3 -923.5 2499.3 -921.1 1560.7 635.1 1556.6 632.6 2495.3 -923.5 2495.3 -923.5"/>
          <line class="st59" x1="2497.3" y1="-922.3" x2="1583.4" y2="658.6"/>
          <polygon class="st45" points="2495.2 -923.5 2499.4 -921.1 1585.4 659.7 1581.3 657.4 2495.2 -923.5 2495.2 -923.5"/>
          <line class="st59" x1="2497.3" y1="-922.3" x2="1608.1" y2="683.3"/>
          <polygon class="st56" points="2495.2 -923.4 2499.4 -921.1 1610.2 684.4 1606 682.1 2495.2 -923.4 2495.2 -923.4"/>
          <line class="st59" x1="2497.3" y1="-922.3" x2="1632.8" y2="708"/>
          <polygon class="st75" points="2495.2 -923.4 2499.4 -921.2 1634.9 709.1 1630.7 706.8 2495.2 -923.4 2495.2 -923.4"/>
          <line class="st59" x1="2497.3" y1="-922.3" x2="1657.5" y2="732.7"/>
          <polygon class="st99" points="2495.2 -923.4 2499.4 -921.2 1659.6 733.7 1655.4 731.6 2495.2 -923.4 2495.2 -923.4"/>
          <line class="st59" x1="2497.3" y1="-922.3" x2="1682.2" y2="757.4"/>
          <polygon class="st37" points="2495.2 -923.3 2499.4 -921.3 1684.3 758.4 1680 756.3 2495.2 -923.3 2495.2 -923.3"/>
          <line class="st59" x1="2497.3" y1="-922.3" x2="1706.9" y2="782.1"/>
          <polygon class="st17" points="2495.1 -923.3 2499.5 -921.3 1709 783.1 1704.7 781.1 2495.1 -923.3 2495.1 -923.3"/>
          <line class="st59" x1="2497.3" y1="-922.3" x2="1731.6" y2="806.8"/>
          <polygon class="st28" points="2495.1 -923.3 2499.5 -921.3 1733.8 807.7 1729.4 805.8 2495.1 -923.3 2495.1 -923.3"/>
          <line class="st59" x1="2497.3" y1="-922.3" x2="1756.3" y2="831.5"/>
          <polygon class="st70" points="2495.1 -923.2 2499.5 -921.4 1758.5 832.4 1754.1 830.5 2495.1 -923.2 2495.1 -923.2"/>
          <line class="st59" x1="2497.3" y1="-922.3" x2="1781" y2="856.2"/>
          <polygon class="st52" points="2495.1 -923.2 2499.5 -921.4 1783.2 857 1778.8 855.3 2495.1 -923.2 2495.1 -923.2"/>
          <line class="st59" x1="2497.3" y1="-922.3" x2="1805.7" y2="880.9"/>
          <polygon class="st79" points="2495.1 -923.2 2499.5 -921.4 1807.9 881.7 1803.5 880 2495.1 -923.2 2495.1 -923.2"/>
          <line class="st59" x1="2497.3" y1="-922.3" x2="1830.4" y2="905.6"/>
          <polygon class="st31" points="2495.1 -923.1 2499.5 -921.5 1832.6 906.4 1828.1 904.7 2495.1 -923.1 2495.1 -923.1"/>
          <line class="st59" x1="2497.3" y1="-922.3" x2="1855.1" y2="930.3"/>
          <polygon class="st33" points="2495.1 -923.1 2499.5 -921.5 1857.3 931 1852.8 929.5 2495.1 -923.1 2495.1 -923.1"/>
          <line class="st59" x1="2497.3" y1="-922.3" x2="1879.8" y2="955"/>
          <polygon class="st49" points="2495 -923 2499.6 -921.6 1882 955.7 1877.5 954.2 2495 -923 2495 -923"/>
          <line class="st59" x1="2497.3" y1="-922.3" x2="1904.5" y2="979.7"/>
          <polygon class="st7" points="2495 -923 2499.6 -921.6 1906.8 980.4 1902.2 979 2495 -923 2495 -923"/>
          <line class="st59" x1="2497.3" y1="-922.3" x2="1929.2" y2="1004.4"/>
          <polygon class="st11" points="2495 -923 2499.6 -921.6 1931.5 1005 1926.9 1003.7 2495 -923 2495 -923"/>
          <line class="st59" x1="2497.3" y1="-922.3" x2="1953.9" y2="1029.1"/>
          <polygon class="st98" points="2495 -922.9 2499.6 -921.7 1956.2 1029.7 1951.6 1028.4 2495 -922.9 2495 -922.9"/>
          <line class="st59" x1="2497.3" y1="-922.3" x2="1978.6" y2="1053.8"/>
          <polygon class="st96" points="2495 -922.9 2499.6 -921.7 1980.9 1054.4 1976.3 1053.2 2495 -922.9 2495 -922.9"/>
          <line class="st59" x1="2497.3" y1="-922.3" x2="2003.3" y2="1078.5"/>
          <polygon class="st77" points="2495 -922.9 2499.6 -921.7 2005.6 1079 2001 1077.9 2495 -922.9 2495 -922.9"/>
          <line class="st59" x1="2497.3" y1="-922.3" x2="2028" y2="1103.2"/>
          <polygon class="st16" points="2495 -922.8 2499.6 -921.8 2030.3 1103.7 2025.7 1102.6 2495 -922.8 2495 -922.8"/>
          <line class="st59" x1="2497.3" y1="-922.3" x2="2052.7" y2="1127.9"/>
          <polygon class="st81" points="2495 -922.8 2499.6 -921.8 2055 1128.4 2050.4 1127.4 2495 -922.8 2495 -922.8"/>
          <line class="st59" x1="2497.3" y1="-922.3" x2="2077.4" y2="1152.6"/>
          <polygon class="st86" points="2495 -922.8 2499.6 -921.8 2079.7 1153 2075.1 1152.1 2495 -922.8 2495 -922.8"/>
          <line class="st59" x1="2497.3" y1="-922.3" x2="2102.1" y2="1177.3"/>
          <polygon class="st62" points="2495 -922.7 2499.6 -921.9 2104.4 1177.7 2099.8 1176.8 2495 -922.7 2495 -922.7"/>
          <line class="st59" x1="2497.3" y1="-922.3" x2="2126.8" y2="1202"/>
          <polygon class="st83" points="2495 -922.7 2499.6 -921.9 2129.1 1202.4 2124.5 1201.6 2495 -922.7 2495 -922.7"/>
          <line class="st59" x1="2497.3" y1="-922.3" x2="2151.5" y2="1226.7"/>
          <polygon class="st38" points="2495 -922.7 2499.6 -921.9 2153.8 1227.1 2149.1 1226.3 2495 -922.7 2495 -922.7"/>
          <line class="st59" x1="2497.3" y1="-922.3" x2="2176.2" y2="1251.4"/>
          <polygon class="st73" points="2495 -922.7 2499.7 -921.9 2178.5 1251.7 2173.8 1251 2495 -922.7 2495 -922.7"/>
          <line class="st59" x1="2497.3" y1="-922.3" x2="2200.9" y2="1276.1"/>
          <polygon class="st76" points="2494.9 -922.6 2499.7 -922 2203.2 1276.4 2198.5 1275.8 2494.9 -922.6 2494.9 -922.6"/>
          <line class="st59" x1="2497.3" y1="-922.3" x2="2225.6" y2="1300.8"/>
          <polygon class="st46" points="2494.9 -922.6 2499.7 -922 2228 1301.1 2223.2 1300.5 2494.9 -922.6 2494.9 -922.6"/>
          <line class="st59" x1="2497.3" y1="-922.3" x2="2250.3" y2="1325.5"/>
          <polygon class="st18" points="2494.9 -922.6 2499.7 -922 2252.7 1325.7 2247.9 1325.2 2494.9 -922.6 2494.9 -922.6"/>
          <line class="st59" x1="2497.3" y1="-922.3" x2="2275" y2="1350.2"/>
          <polygon class="st57" points="2494.9 -922.5 2499.7 -922.1 2277.4 1350.4 2272.6 1349.9 2494.9 -922.5 2494.9 -922.5"/>
          <line class="st59" x1="2497.3" y1="-922.3" x2="2299.7" y2="1374.9"/>
          <polygon class="st13" points="2494.9 -922.5 2499.7 -922.1 2302.1 1375.1 2297.3 1374.7 2494.9 -922.5 2494.9 -922.5"/>
          <line class="st59" x1="2497.3" y1="-922.3" x2="2324.4" y2="1399.6"/>
          <polygon class="st24" points="2494.9 -922.5 2499.7 -922.1 2326.8 1399.8 2322 1399.4 2494.9 -922.5 2494.9 -922.5"/>
          <line class="st59" x1="2497.3" y1="-922.3" x2="2349.1" y2="1424.3"/>
          <polygon class="st64" points="2494.9 -922.4 2499.7 -922.1 2351.5 1424.4 2346.7 1424.1 2494.9 -922.4 2494.9 -922.4"/>
          <line class="st59" x1="2497.3" y1="-922.3" x2="2373.8" y2="1449"/>
          <polygon class="st20" points="2494.9 -922.4 2499.7 -922.2 2376.2 1449.1 2371.4 1448.9 2494.9 -922.4 2494.9 -922.4"/>
          <line class="st59" x1="2497.3" y1="-922.3" x2="2398.5" y2="1473.7"/>
          <polygon class="st41" points="2494.9 -922.4 2499.7 -922.2 2400.9 1473.8 2396.1 1473.6 2494.9 -922.4 2494.9 -922.4"/>
          <line class="st59" x1="2497.3" y1="-922.3" x2="2423.2" y2="1498.4"/>
          <polygon class="st91" points="2494.9 -922.4 2499.7 -922.2 2425.6 1498.5 2420.8 1498.3 2494.9 -922.4 2494.9 -922.4"/>
          <line class="st59" x1="2497.3" y1="-922.3" x2="2447.9" y2="1523.1"/>
          <polygon class="st58" points="2494.9 -922.4 2499.7 -922.3 2450.3 1523.1 2445.5 1523 2494.9 -922.4 2494.9 -922.4"/>
          <line class="st59" x1="2497.3" y1="-922.3" x2="2472.6" y2="1547.8"/>
          <polygon class="st89" points="2494.9 -922.3 2499.7 -922.3 2475 1547.8 2470.2 1547.8 2494.9 -922.3 2494.9 -922.3"/>
          <line class="st59" x1="2497.3" y1="-922.3" x2="2497.3" y2="1572.5"/>
          <polygon class="st51" points="2494.9 -922.3 2499.7 -922.3 2499.7 1572.5 2494.9 1572.5 2494.9 -922.3 2494.9 -922.3"/>
          <line class="st59" x1="2.5" y1="1572.5" x2="2497.3" y2="1572.5"/>
          <polygon class="st54" points="2.5 1570.1 2497.3 1570.1 2497.3 1574.9 2.5 1574.9 2.5 1570.1 2.5 1570.1"/>
          <line class="st59" x1="2.5" y1="1572.5" x2="2472.6" y2="1547.8"/>
          <polygon class="st29" points="2472.6 1545.4 2472.6 1550.2 2.5 1574.9 2.5 1570.1 2472.6 1545.4 2472.6 1545.4"/>
          <line class="st59" x1="2.5" y1="1572.5" x2="2447.9" y2="1523.1"/>
          <polygon class="st94" points="2447.9 1520.7 2447.9 1525.5 2.6 1574.9 2.5 1570.1 2447.9 1520.7 2447.9 1520.7"/>
          <line class="st59" x1="2.5" y1="1572.5" x2="2423.2" y2="1498.4"/>
          <polygon class="st94" points="2423.1 1496 2423.3 1500.8 2.6 1574.9 2.5 1570.1 2423.1 1496 2423.1 1496"/>
          <line class="st59" x1="2.5" y1="1572.5" x2="2398.5" y2="1473.7"/>
          <polygon class="st42" points="2398.4 1471.3 2398.6 1476.1 2.6 1574.9 2.4 1570.1 2398.4 1471.3 2398.4 1471.3"/>
          <line class="st59" x1="2.5" y1="1572.5" x2="2373.8" y2="1449"/>
          <polygon class="st25" points="2373.7 1446.6 2373.9 1451.4 2.6 1574.9 2.4 1570.1 2373.7 1446.6 2373.7 1446.6"/>
          <line class="st59" x1="2.5" y1="1572.5" x2="2349.1" y2="1424.3"/>
          <polygon class="st71" points="2349 1421.9 2349.2 1426.7 2.7 1574.9 2.4 1570.1 2349 1421.9 2349 1421.9"/>
          <line class="st59" x1="2.5" y1="1572.5" x2="2324.4" y2="1399.6"/>
          <polygon class="st71" points="2324.2 1397.2 2324.6 1401.9 2.7 1574.9 2.3 1570.1 2324.2 1397.2 2324.2 1397.2"/>
          <line class="st59" x1="2.5" y1="1572.5" x2="2299.7" y2="1374.9"/>
          <polygon class="st67" points="2299.5 1372.5 2299.9 1377.2 2.7 1574.9 2.3 1570.1 2299.5 1372.5 2299.5 1372.5"/>
          <line class="st59" x1="2.5" y1="1572.5" x2="2275" y2="1350.2"/>
          <polygon class="st9" points="2274.8 1347.8 2275.2 1352.5 2.8 1574.8 2.3 1570.1 2274.8 1347.8 2274.8 1347.8"/>
          <line class="st59" x1="2.5" y1="1572.5" x2="2250.3" y2="1325.5"/>
          <polygon class="st8" points="2250 1323.1 2250.6 1327.8 2.8 1574.8 2.3 1570.1 2250 1323.1 2250 1323.1"/>
          <line class="st59" x1="2.5" y1="1572.5" x2="2225.6" y2="1300.8"/>
          <polygon class="st82" points="2225.3 1298.4 2225.9 1303.1 2.8 1574.8 2.2 1570.1 2225.3 1298.4 2225.3 1298.4"/>
          <line class="st59" x1="2.5" y1="1572.5" x2="2200.9" y2="1276.1"/>
          <polygon class="st82" points="2200.6 1273.7 2201.2 1278.4 2.8 1574.8 2.2 1570.1 2200.6 1273.7 2200.6 1273.7"/>
          <line class="st59" x1="2.5" y1="1572.5" x2="2176.2" y2="1251.4"/>
          <polygon class="st47" points="2175.8 1249 2176.5 1253.7 2.9 1574.8 2.2 1570.1 2175.8 1249 2175.8 1249"/>
          <line class="st59" x1="2.5" y1="1572.5" x2="2151.5" y2="1226.7"/>
          <polygon class="st47" points="2151.1 1224.3 2151.9 1229 2.9 1574.8 2.1 1570.1 2151.1 1224.3 2151.1 1224.3"/>
          <line class="st59" x1="2.5" y1="1572.5" x2="2126.8" y2="1202"/>
          <polygon class="st93" points="2126.4 1199.6 2127.2 1204.3 2.9 1574.8 2.1 1570.1 2126.4 1199.6 2126.4 1199.6"/>
          <line class="st59" x1="2.5" y1="1572.5" x2="2102.1" y2="1177.3"/>
          <polygon class="st30" points="2101.7 1174.9 2102.5 1179.6 3 1574.8 2.1 1570.1 2101.7 1174.9 2101.7 1174.9"/>
          <line class="st59" x1="2.5" y1="1572.5" x2="2077.4" y2="1152.6"/>
          <polygon class="st44" points="2076.9 1150.2 2077.9 1154.9 3 1574.8 2 1570.2 2076.9 1150.2 2076.9 1150.2"/>
          <line class="st59" x1="2.5" y1="1572.5" x2="2052.7" y2="1127.9"/>
          <polygon class="st32" points="2052.2 1125.5 2053.2 1130.2 3 1574.8 2 1570.2 2052.2 1125.5 2052.2 1125.5"/>
          <line class="st59" x1="2.5" y1="1572.5" x2="2028" y2="1103.2"/>
          <polygon class="st92" points="2027.5 1100.9 2028.5 1105.5 3.1 1574.8 2 1570.2 2027.5 1100.9 2027.5 1100.9"/>
          <line class="st59" x1="2.5" y1="1572.5" x2="2003.3" y2="1078.5"/>
          <polygon class="st19" points="2002.7 1076.2 2003.9 1080.8 3.1 1574.8 2 1570.2 2002.7 1076.2 2002.7 1076.2"/>
          <line class="st59" x1="2.5" y1="1572.5" x2="1978.6" y2="1053.8"/>
          <polygon class="st88" points="1978 1051.5 1979.2 1056.1 3.1 1574.8 1.9 1570.2 1978 1051.5 1978 1051.5"/>
          <line class="st59" x1="2.5" y1="1572.5" x2="1953.9" y2="1029.1"/>
          <polygon class="st66" points="1953.2 1026.8 1954.5 1031.4 3.2 1574.8 1.9 1570.2 1953.2 1026.8 1953.2 1026.8"/>
          <line class="st59" x1="2.5" y1="1572.5" x2="1929.2" y2="1004.4"/>
          <polygon class="st6" points="1928.5 1002.1 1929.9 1006.6 3.2 1574.8 1.8 1570.2 1928.5 1002.1 1928.5 1002.1"/>
          <line class="st59" x1="2.5" y1="1572.5" x2="1904.5" y2="979.7"/>
          <polygon class="st39" points="1903.8 977.4 1905.2 981.9 3.2 1574.8 1.8 1570.2 1903.8 977.4 1903.8 977.4"/>
          <line class="st59" x1="2.5" y1="1572.5" x2="1879.8" y2="955"/>
          <polygon class="st39" points="1879 952.7 1880.5 957.2 3.3 1574.7 1.8 1570.2 1879 952.7 1879 952.7"/>
          <line class="st59" x1="2.5" y1="1572.5" x2="1855.1" y2="930.3"/>
          <polygon class="st36" points="1854.3 928 1855.9 932.5 3.3 1574.7 1.7 1570.2 1854.3 928 1854.3 928"/>
          <line class="st59" x1="2.5" y1="1572.5" x2="1830.4" y2="905.6"/>
          <polygon class="st3" points="1829.6 903.3 1831.2 907.8 3.3 1574.7 1.7 1570.3 1829.6 903.3 1829.6 903.3"/>
          <line class="st59" x1="2.5" y1="1572.5" x2="1805.7" y2="880.9"/>
          <polygon class="st90" points="1804.8 878.6 1806.5 883.1 3.4 1574.7 1.7 1570.3 1804.8 878.6 1804.8 878.6"/>
          <line class="st59" x1="2.5" y1="1572.5" x2="1781" y2="856.2"/>
          <polygon class="st65" points="1780.1 854 1781.9 858.4 3.4 1574.7 1.6 1570.3 1780.1 854 1780.1 854"/>
          <line class="st59" x1="2.5" y1="1572.5" x2="1756.3" y2="831.5"/>
          <polygon class="st48" points="1755.4 829.3 1757.2 833.6 3.4 1574.7 1.6 1570.3 1755.4 829.3 1755.4 829.3"/>
          <line class="st59" x1="2.5" y1="1572.5" x2="1731.6" y2="806.8"/>
          <polygon class="st68" points="1730.6 804.6 1732.5 808.9 3.5 1574.7 1.6 1570.3 1730.6 804.6 1730.6 804.6"/>
          <line class="st59" x1="2.5" y1="1572.5" x2="1706.9" y2="782.1"/>
          <polygon class="st85" points="1705.9 779.9 1707.9 784.2 3.5 1574.6 1.5 1570.3 1705.9 779.9 1705.9 779.9"/>
          <line class="st59" x1="2.5" y1="1572.5" x2="1682.2" y2="757.4"/>
          <polygon class="st87" points="1681.1 755.2 1683.2 759.5 3.6 1574.6 1.5 1570.3 1681.1 755.2 1681.1 755.2"/>
          <line class="st59" x1="2.5" y1="1572.5" x2="1657.5" y2="732.7"/>
          <polygon class="st69" points="1656.4 730.5 1658.6 734.8 3.6 1574.6 1.4 1570.4 1656.4 730.5 1656.4 730.5"/>
          <line class="st59" x1="2.5" y1="1572.5" x2="1632.8" y2="708"/>
          <polygon class="st23" points="1631.7 705.9 1633.9 710.1 3.6 1574.6 1.4 1570.4 1631.7 705.9 1631.7 705.9"/>
          <line class="st59" x1="2.5" y1="1572.5" x2="1608.1" y2="683.3"/>
          <polygon class="st102" points="1606.9 681.2 1609.2 685.3 3.7 1574.6 1.4 1570.4 1606.9 681.2 1606.9 681.2"/>
          <line class="st59" x1="2.5" y1="1572.5" x2="1583.4" y2="658.6"/>
          <polygon class="st104" points="1582.2 656.5 1584.6 660.6 3.7 1574.5 1.3 1570.4 1582.2 656.5 1582.2 656.5"/>
          <line class="st59" x1="2.5" y1="1572.5" x2="1558.7" y2="633.9"/>
          <polygon class="st55" points="1557.4 631.8 1559.9 635.9 3.8 1574.5 1.3 1570.5 1557.4 631.8 1557.4 631.8"/>
          <line class="st59" x1="2.5" y1="1572.5" x2="1534" y2="609.2"/>
          <polygon class="st22" points="1532.7 607.1 1535.2 611.2 3.8 1574.5 1.3 1570.5 1532.7 607.1 1532.7 607.1"/>
          <line class="st59" x1="2.5" y1="1572.5" x2="1509.3" y2="584.5"/>
          <polygon class="st74" points="1508 582.5 1510.6 586.4 3.8 1574.5 1.2 1570.5 1508 582.5 1508 582.5"/>
          <line class="st59" x1="2.5" y1="1572.5" x2="1484.6" y2="559.8"/>
          <polygon class="st95" points="1483.2 557.8 1485.9 561.7 3.9 1574.4 1.2 1570.5 1483.2 557.8 1483.2 557.8"/>
          <line class="st59" x1="2.5" y1="1572.5" x2="1459.9" y2="535.1"/>
          <polygon class="st4" points="1458.5 533.1 1461.2 537 3.9 1574.4 1.1 1570.5 1458.5 533.1 1458.5 533.1"/>
          <line class="st59" x1="2.5" y1="1572.5" x2="1435.2" y2="510.3"/>
          <polygon class="st105" points="1433.8 508.4 1436.6 512.3 3.9 1574.4 1.1 1570.6 1433.8 508.4 1433.8 508.4"/>
          <line class="st59" x1="2.5" y1="1572.5" x2="1410.5" y2="485.6"/>
          <polygon class="st72" points="1409 483.8 1411.9 487.5 4 1574.4 1.1 1570.6 1409 483.8 1409 483.8"/>
          <line class="st59" x1="2.5" y1="1572.5" x2="1385.8" y2="460.9"/>
          <polygon class="st84" points="1384.3 459.1 1387.3 462.8 4 1574.3 1 1570.6 1384.3 459.1 1384.3 459.1"/>
          <line class="st59" x1="2.5" y1="1572.5" x2="1361.1" y2="436.2"/>
          <polygon class="st26" points="1359.5 434.4 1362.6 438.1 4 1574.3 1 1570.7 1359.5 434.4 1359.5 434.4"/>
          <line class="st59" x1="2.5" y1="1572.5" x2="1336.4" y2="411.5"/>
          <polygon class="st10" points="1334.8 409.8 1337.9 413.3 4.1 1574.3 1 1570.7 1334.8 409.8 1334.8 409.8"/>
          <line class="st59" x1="2.5" y1="1572.5" x2="1311.7" y2="386.8"/>
          <polygon class="st101" points="1310.1 385.1 1313.3 388.6 4.1 1574.2 .9 1570.7 1310.1 385.1 1310.1 385.1"/>
          <line class="st59" x1="2.5" y1="1572.5" x2="1287" y2="362.1"/>
          <polygon class="st63" points="1285.3 360.4 1288.6 363.9 4.1 1574.2 .9 1570.8 1285.3 360.4 1285.3 360.4"/>
          <line class="st59" x1="2.5" y1="1572.5" x2="1262.3" y2="337.4"/>
          <polygon class="st34" points="1260.6 335.7 1263.9 339.1 4.2 1574.2 .9 1570.8 1260.6 335.7 1260.6 335.7"/>
          <line class="st59" x1="2.5" y1="1572.5" x2="1237.6" y2="312.7"/>
          <polygon class="st2" points="1235.9 311.1 1239.3 314.4 4.2 1574.1 .8 1570.8 1235.9 311.1 1235.9 311.1"/>
          <line class="st59" x1="2.5" y1="1572.5" x2="1212.9" y2="288"/>
          <polygon class="st80" points="1211.1 286.4 1214.6 289.7 4.3 1574.1 .8 1570.9 1211.1 286.4 1211.1 286.4"/>
          <line class="st59" x1="2.5" y1="1572.5" x2="1188.2" y2="263.3"/>
          <polygon class="st27" points="1186.4 261.8 1189.9 264.9 4.3 1574.1 .8 1570.9 1186.4 261.8 1186.4 261.8"/>
          <line class="st59" x1="2.5" y1="1572.5" x2="1163.5" y2="238.6"/>
          <polygon class="st43" points="1161.7 237.1 1165.2 240.2 4.3 1574 .7 1570.9 1161.7 237.1 1161.7 237.1"/>
          <line class="st59" x1="2.5" y1="1572.5" x2="1138.8" y2="213.9"/>
          <polygon class="st5" points="1136.9 212.4 1140.6 215.5 4.3 1574 .7 1571 1136.9 212.4 1136.9 212.4"/>
          <line class="st59" x1="2.5" y1="1572.5" x2="1114.1" y2="189.2"/>
          <polygon class="st53" points="1112.2 187.8 1115.9 190.7 4.4 1574 .7 1571 1112.2 187.8 1112.2 187.8"/>
          <line class="st59" x1="2.5" y1="1572.5" x2="1089.4" y2="164.5"/>
          <polygon class="st12" points="1087.5 163.1 1091.2 166 4.4 1573.9 .6 1571 1087.5 163.1 1087.5 163.1"/>
          <line class="st59" x1="2.5" y1="1572.5" x2="1064.7" y2="139.8"/>
          <polygon class="st21" points="1062.7 138.4 1066.6 141.3 4.4 1573.9 .6 1571.1 1062.7 138.4 1062.7 138.4"/>
          <line class="st59" x1="2.5" y1="1572.5" x2="1040" y2="115.1"/>
          <polygon class="st103" points="1038 113.8 1041.9 116.5 4.5 1573.9 .6 1571.1 1038 113.8 1038 113.8"/>
          <line class="st59" x1="2.5" y1="1572.5" x2="1015.3" y2="90.4"/>
          <polygon class="st78" points="1013.3 89.1 1017.2 91.8 4.5 1573.8 .6 1571.1 1013.3 89.1 1013.3 89.1"/>
          <line class="st59" x1="2.5" y1="1572.5" x2="990.6" y2="65.7"/>
          <polygon class="st14" points="988.6 64.4 992.5 67 4.5 1573.8 .5 1571.2 988.6 64.4 988.6 64.4"/>
          <line class="st59" x1="2.5" y1="1572.5" x2="965.8" y2="41"/>
          <polygon class="st97" points="963.8 39.8 967.9 42.3 4.5 1573.7 .5 1571.2 963.8 39.8 963.8 39.8"/>
          <line class="st59" x1="2.5" y1="1572.5" x2="941.2" y2="16.3"/>
          <polygon class="st35" points="939.1 15.1 943.2 17.6 4.6 1573.7 .5 1571.3 939.1 15.1 939.1 15.1"/>
          <line class="st59" x1="2.5" y1="1572.5" x2="916.4" y2="-8.4"/>
          <polygon class="st45" points="914.4 -9.6 918.5 -7.2 4.6 1573.7 .5 1571.3 914.4 -9.6 914.4 -9.6"/>
          <line class="st59" x1="2.5" y1="1572.5" x2="891.7" y2="-33.1"/>
          <polygon class="st56" points="889.7 -34.2 893.8 -31.9 4.6 1573.6 .4 1571.3 889.7 -34.2 889.7 -34.2"/>
          <line class="st59" x1="2.5" y1="1572.5" x2="867.1" y2="-57.8"/>
          <polygon class="st75" points="865 -58.9 869.2 -56.7 4.6 1573.6 .4 1571.4 865 -58.9 865 -58.9"/>
          <line class="st59" x1="2.5" y1="1572.5" x2="842.3" y2="-82.5"/>
          <polygon class="st99" points="840.2 -83.5 844.5 -81.4 4.6 1573.6 .4 1571.4 840.2 -83.5 840.2 -83.5"/>
          <line class="st59" x1="2.5" y1="1572.5" x2="817.6" y2="-107.2"/>
          <polygon class="st37" points="815.5 -108.2 819.8 -106.1 4.7 1573.5 .4 1571.4 815.5 -108.2 815.5 -108.2"/>
          <line class="st59" x1="2.5" y1="1572.5" x2="793" y2="-131.9"/>
          <polygon class="st17" points="790.8 -132.9 795.1 -130.9 4.7 1573.5 .4 1571.5 790.8 -132.9 790.8 -132.9"/>
          <line class="st59" x1="2.5" y1="1572.5" x2="768.2" y2="-156.6"/>
          <polygon class="st28" points="766.1 -157.5 770.4 -155.6 4.7 1573.4 .4 1571.5 766.1 -157.5 766.1 -157.5"/>
          <line class="st59" x1="2.5" y1="1572.5" x2="743.5" y2="-181.3"/>
          <polygon class="st70" points="741.4 -182.2 745.7 -180.3 4.7 1573.4 .3 1571.6 741.4 -182.2 741.4 -182.2"/>
          <line class="st59" x1="2.5" y1="1572.5" x2="718.8" y2="-206"/>
          <polygon class="st52" points="716.6 -206.9 721 -205.1 4.7 1573.4 .3 1571.6 716.6 -206.9 716.6 -206.9"/>
          <line class="st59" x1="2.5" y1="1572.5" x2="694.1" y2="-230.7"/>
          <polygon class="st79" points="691.9 -231.5 696.4 -229.8 4.7 1573.3 .3 1571.6 691.9 -231.5 691.9 -231.5"/>
          <line class="st59" x1="2.5" y1="1572.5" x2="669.4" y2="-255.4"/>
          <polygon class="st31" points="667.2 -256.2 671.7 -254.6 4.8 1573.3 .3 1571.7 667.2 -256.2 667.2 -256.2"/>
          <line class="st59" x1="2.5" y1="1572.5" x2="644.7" y2="-280.1"/>
          <polygon class="st33" points="642.5 -280.9 647 -279.3 4.8 1573.3 .3 1571.7 642.5 -280.9 642.5 -280.9"/>
          <line class="st59" x1="2.5" y1="1572.5" x2="620" y2="-304.8"/>
          <polygon class="st49" points="617.8 -305.5 622.3 -304 4.8 1573.2 .3 1571.7 617.8 -305.5 617.8 -305.5"/>
          <line class="st59" x1="2.5" y1="1572.5" x2="595.3" y2="-329.5"/>
          <polygon class="st7" points="593.1 -330.2 597.6 -328.8 4.8 1573.2 .3 1571.8 593.1 -330.2 593.1 -330.2"/>
          <line class="st59" x1="2.5" y1="1572.5" x2="570.6" y2="-354.2"/>
          <polygon class="st11" points="568.4 -354.9 572.9 -353.5 4.8 1573.2 .2 1571.8 568.4 -354.9 568.4 -354.9"/>
          <line class="st59" x1="2.5" y1="1572.5" x2="545.9" y2="-378.9"/>
          <polygon class="st98" points="543.7 -379.5 548.2 -378.2 4.8 1573.1 .2 1571.8 543.7 -379.5 543.7 -379.5"/>
          <line class="st59" x1="2.5" y1="1572.5" x2="521.2" y2="-403.6"/>
          <polygon class="st96" points="518.9 -404.2 523.5 -403 4.8 1573.1 .2 1571.9 518.9 -404.2 518.9 -404.2"/>
          <line class="st59" x1="2.5" y1="1572.5" x2="496.5" y2="-428.3"/>
          <polygon class="st77" points="494.2 -428.9 498.8 -427.7 4.8 1573.1 .2 1571.9 494.2 -428.9 494.2 -428.9"/>
          <line class="st59" x1="2.5" y1="1572.5" x2="471.8" y2="-453"/>
          <polygon class="st16" points="469.5 -453.5 474.2 -452.5 4.8 1573 .2 1571.9 469.5 -453.5 469.5 -453.5"/>
          <line class="st59" x1="2.5" y1="1572.5" x2="447.1" y2="-477.7"/>
          <polygon class="st81" points="444.8 -478.2 449.5 -477.2 4.8 1573 .2 1572 444.8 -478.2 444.8 -478.2"/>
          <line class="st59" x1="2.5" y1="1572.5" x2="422.4" y2="-502.4"/>
          <polygon class="st86" points="420.1 -502.9 424.8 -501.9 4.8 1573 .2 1572 420.1 -502.9 420.1 -502.9"/>
          <line class="st59" x1="2.5" y1="1572.5" x2="397.7" y2="-527.1"/>
          <polygon class="st62" points="395.4 -527.5 400.1 -526.6 4.8 1572.9 .2 1572 395.4 -527.5 395.4 -527.5"/>
          <line class="st59" x1="2.5" y1="1572.5" x2="373" y2="-551.8"/>
          <polygon class="st83" points="370.7 -552.2 375.4 -551.4 4.9 1572.9 .2 1572.1 370.7 -552.2 370.7 -552.2"/>
          <line class="st59" x1="2.5" y1="1572.5" x2="348.3" y2="-576.5"/>
          <polygon class="st38" points="346 -576.9 350.7 -576.1 4.9 1572.9 .2 1572.1 346 -576.9 346 -576.9"/>
          <line class="st59" x1="2.5" y1="1572.5" x2="323.6" y2="-601.2"/>
          <polygon class="st73" points="321.3 -601.5 326 -600.8 4.9 1572.8 .2 1572.1 321.3 -601.5 321.3 -601.5"/>
          <line class="st59" x1="2.5" y1="1572.5" x2="298.9" y2="-625.9"/>
          <polygon class="st76" points="296.6 -626.2 301.3 -625.6 4.9 1572.8 .2 1572.2 296.6 -626.2 296.6 -626.2"/>
          <line class="st59" x1="2.5" y1="1572.5" x2="274.2" y2="-650.6"/>
          <polygon class="st46" points="271.9 -650.9 276.6 -650.3 4.9 1572.8 .2 1572.2 271.9 -650.9 271.9 -650.9"/>
          <line class="st59" x1="2.5" y1="1572.5" x2="249.5" y2="-675.3"/>
          <polygon class="st18" points="247.2 -675.5 251.9 -675 4.9 1572.7 .2 1572.2 247.2 -675.5 247.2 -675.5"/>
          <line class="st59" x1="2.5" y1="1572.5" x2="224.8" y2="-700"/>
          <polygon class="st57" points="222.5 -700.2 227.2 -699.8 4.9 1572.7 .1 1572.3 222.5 -700.2 222.5 -700.2"/>
          <line class="st59" x1="2.5" y1="1572.5" x2="200.1" y2="-724.7"/>
          <polygon class="st13" points="197.8 -724.9 202.5 -724.5 4.9 1572.7 .1 1572.3 197.8 -724.9 197.8 -724.9"/>
          <line class="st59" x1="2.5" y1="1572.5" x2="175.4" y2="-749.4"/>
          <polygon class="st24" points="173.1 -749.6 177.8 -749.2 4.9 1572.7 .1 1572.3 173.1 -749.6 173.1 -749.6"/>
          <line class="st59" x1="2.5" y1="1572.5" x2="150.7" y2="-774.1"/>
          <polygon class="st64" points="148.4 -774.2 153.1 -773.9 4.9 1572.6 .1 1572.3 148.4 -774.2 148.4 -774.2"/>
          <line class="st59" x1="2.5" y1="1572.5" x2="126" y2="-798.8"/>
          <polygon class="st20" points="123.6 -798.9 128.4 -798.7 4.9 1572.6 .1 1572.4 123.6 -798.9 123.6 -798.9"/>
          <line class="st59" x1="2.5" y1="1572.5" x2="101.3" y2="-823.5"/>
          <polygon class="st41" points="98.9 -823.6 103.7 -823.4 4.9 1572.6 .1 1572.4 98.9 -823.6 98.9 -823.6"/>
          <line class="st59" x1="2.5" y1="1572.5" x2="76.6" y2="-848.2"/>
          <polygon class="st91" points="74.3 -848.3 79 -848.1 4.9 1572.6 .1 1572.4 74.3 -848.3 74.3 -848.3"/>
          <line class="st59" x1="2.5" y1="1572.5" x2="51.9" y2="-872.9"/>
          <polygon class="st58" points="49.5 -872.9 54.3 -872.8 4.9 1572.5 .1 1572.4 49.5 -872.9 49.5 -872.9"/>
          <line class="st59" x1="2.5" y1="1572.5" x2="27.2" y2="-897.6"/>
          <polygon class="st89" points="24.8 -897.6 29.6 -897.6 4.9 1572.5 .1 1572.5 24.8 -897.6 24.8 -897.6"/>
          <line class="st59" x1="2.5" y1="1572.5" x2="2.5" y2="-922.3"/>
          <g class="st50">
            <polygon class="st51" points=".1 -922.3 4.9 -922.3 4.9 1572.5 .1 1572.5 .1 -922.3 .1 -922.3"/>
            <line class="st59" x1="3800.8" y1="325" x2="1250" y2="-2225.8"/>
            <polygon class="st54" points="1252.4 -2228.3 3803.3 322.6 3798.4 327.4 1247.6 -2223.4 1252.4 -2228.3 1252.4 -2228.3"/>
            <line class="st59" x1="3800.8" y1="325" x2="1250" y2="-2175.3"/>
            <polygon class="st29" points="3803.2 322.6 3798.4 327.5 1247.6 -2172.9 1252.4 -2177.8 3803.2 322.6 3803.2 322.6"/>
            <line class="st59" x1="3800.8" y1="325" x2="1250" y2="-2124.8"/>
            <polygon class="st94" points="3803.2 322.5 3798.5 327.5 1247.6 -2122.3 1252.4 -2127.3 3803.2 322.5 3803.2 322.5"/>
            <line class="st59" x1="3800.8" y1="325" x2="1250" y2="-2074.3"/>
            <polygon class="st94" points="3803.2 322.5 3798.5 327.5 1247.6 -2071.8 1252.4 -2076.8 3803.2 322.5 3803.2 322.5"/>
            <line class="st59" x1="3800.8" y1="325" x2="1250" y2="-2023.8"/>
            <polygon class="st42" points="3803.2 322.5 3798.5 327.5 1247.7 -2021.3 1252.3 -2026.3 3803.2 322.5 3803.2 322.5"/>
            <line class="st59" x1="3800.8" y1="325" x2="1250" y2="-1973.3"/>
            <polygon class="st25" points="3803.1 322.5 3798.5 327.6 1247.7 -1970.7 1252.3 -1975.8 3803.1 322.5 3803.1 322.5"/>
            <line class="st59" x1="3800.8" y1="325" x2="1250" y2="-1922.8"/>
            <polygon class="st71" points="3803.1 322.4 3798.6 327.6 1247.7 -1920.2 1252.3 -1925.3 3803.1 322.4 3803.1 322.4"/>
            <line class="st59" x1="3800.8" y1="325" x2="1250" y2="-1872.3"/>
            <polygon class="st71" points="3803.1 322.4 3798.6 327.6 1247.8 -1869.6 1252.2 -1874.9 3803.1 322.4 3803.1 322.4"/>
            <line class="st59" x1="3800.8" y1="325" x2="1250" y2="-1821.7"/>
            <polygon class="st67" points="3803.1 322.4 3798.6 327.6 1247.8 -1819.1 1252.2 -1824.4 3803.1 322.4 3803.1 322.4"/>
            <line class="st59" x1="3800.8" y1="325" x2="1250" y2="-1771.2"/>
            <polygon class="st9" points="3803 322.3 3798.7 327.7 1247.8 -1768.6 1252.2 -1773.9 3803 322.3 3803 322.3"/>
            <line class="st59" x1="3800.8" y1="325" x2="1250" y2="-1720.7"/>
            <polygon class="st8" points="3803 322.3 3798.7 327.7 1247.8 -1718 1252.2 -1723.4 3803 322.3 3803 322.3"/>
            <line class="st59" x1="3800.8" y1="325" x2="1250" y2="-1670.2"/>
            <polygon class="st82" points="3803 322.3 3798.7 327.7 1247.9 -1667.5 1252.1 -1672.9 3803 322.3 3803 322.3"/>
            <line class="st59" x1="3800.8" y1="325" x2="1250" y2="-1619.7"/>
            <polygon class="st82" points="3802.9 322.3 3798.8 327.7 1247.9 -1617 1252.1 -1622.4 3802.9 322.3 3802.9 322.3"/>
            <line class="st59" x1="3800.8" y1="325" x2="1250" y2="-1569.2"/>
            <polygon class="st47" points="3802.9 322.3 3798.8 327.8 1248 -1566.4 1252 -1571.9 3802.9 322.3 3802.9 322.3"/>
            <line class="st59" x1="3800.8" y1="325" x2="1250" y2="-1518.7"/>
            <polygon class="st47" points="3802.9 322.2 3798.8 327.8 1248 -1515.9 1252 -1521.5 3802.9 322.2 3802.9 322.2"/>
            <line class="st59" x1="3800.8" y1="325" x2="1250" y2="-1468.2"/>
            <polygon class="st93" points="3802.8 322.2 3798.9 327.8 1248 -1465.4 1252 -1471 3802.8 322.2 3802.8 322.2"/>
            <line class="st59" x1="3800.8" y1="325" x2="1250" y2="-1417.6"/>
            <polygon class="st30" points="3802.8 322.2 3798.9 327.8 1248.1 -1414.8 1251.9 -1420.5 3802.8 322.2 3802.8 322.2"/>
            <line class="st59" x1="3800.8" y1="325" x2="1250" y2="-1367.1"/>
            <polygon class="st44" points="3802.7 322.1 3798.9 327.9 1248.1 -1364.3 1251.9 -1370 3802.7 322.1 3802.7 322.1"/>
            <line class="st59" x1="3800.8" y1="325" x2="1250" y2="-1316.6"/>
            <polygon class="st32" points="3802.7 322.1 3799 327.9 1248.1 -1313.7 1251.9 -1319.5 3802.7 322.1 3802.7 322.1"/>
            <line class="st59" x1="3800.8" y1="325" x2="1250" y2="-1266.1"/>
            <polygon class="st92" points="3802.7 322.1 3799 327.9 1248.2 -1263.2 1251.8 -1269 3802.7 322.1 3802.7 322.1"/>
            <line class="st59" x1="3800.8" y1="325" x2="1250" y2="-1215.6"/>
            <polygon class="st19" points="3802.6 322.1 3799.1 327.9 1248.2 -1212.7 1251.8 -1218.5 3802.6 322.1 3802.6 322.1"/>
            <line class="st59" x1="3800.8" y1="325" x2="1250" y2="-1165.1"/>
            <polygon class="st88" points="3802.6 322 3799.1 328 1248.3 -1162.1 1251.7 -1168 3802.6 322 3802.6 322"/>
            <line class="st59" x1="3800.8" y1="325" x2="1250" y2="-1114.6"/>
            <polygon class="st66" points="3802.5 322 3799.2 328 1248.3 -1111.6 1251.7 -1117.6 3802.5 322 3802.5 322"/>
            <line class="st59" x1="3800.8" y1="325" x2="1250" y2="-1064.1"/>
            <polygon class="st6" points="3802.5 322 3799.2 328 1248.4 -1061 1251.6 -1067.1 3802.5 322 3802.5 322"/>
            <line class="st59" x1="3800.8" y1="325" x2="1250" y2="-1013.5"/>
            <polygon class="st39" points="3802.4 322 3799.2 328.1 1248.4 -1010.5 1251.6 -1016.6 3802.4 322 3802.4 322"/>
            <line class="st59" x1="3800.8" y1="325" x2="1250" y2="-963"/>
            <polygon class="st39" points="3802.4 321.9 3799.3 328.1 1248.5 -960 1251.5 -966.1 3802.4 321.9 3802.4 321.9"/>
            <line class="st59" x1="3800.8" y1="325" x2="1250" y2="-912.5"/>
            <polygon class="st36" points="3802.3 321.9 3799.3 328.1 1248.5 -909.4 1251.5 -915.6 3802.3 321.9 3802.3 321.9"/>
            <line class="st59" x1="3800.8" y1="325" x2="1250" y2="-862"/>
            <polygon class="st3" points="3802.3 321.9 3799.4 328.1 1248.5 -858.9 1251.4 -865.1 3802.3 321.9 3802.3 321.9"/>
            <line class="st59" x1="3800.8" y1="325" x2="1250" y2="-811.5"/>
            <polygon class="st90" points="3802.2 321.9 3799.4 328.1 1248.6 -808.4 1251.4 -814.6 3802.2 321.9 3802.2 321.9"/>
            <line class="st59" x1="3800.8" y1="325" x2="1250" y2="-761"/>
            <polygon class="st65" points="3802.2 321.8 3799.5 328.2 1248.7 -757.8 1251.4 -764.2 3802.2 321.8 3802.2 321.8"/>
            <line class="st59" x1="3800.8" y1="325" x2="1250" y2="-710.5"/>
            <polygon class="st48" points="3802.1 321.8 3799.5 328.2 1248.7 -707.3 1251.3 -713.7 3802.1 321.8 3802.1 321.8"/>
            <line class="st59" x1="3800.8" y1="325" x2="1250" y2="-660"/>
            <polygon class="st68" points="3802.1 321.8 3799.6 328.2 1248.8 -656.8 1251.2 -663.2 3802.1 321.8 3802.1 321.8"/>
            <line class="st59" x1="3800.8" y1="325" x2="1250" y2="-609.5"/>
            <polygon class="st85" points="3802 321.8 3799.7 328.2 1248.8 -606.2 1251.2 -612.7 3802 321.8 3802 321.8"/>
            <line class="st59" x1="3800.8" y1="325" x2="1250" y2="-559"/>
            <polygon class="st87" points="3802 321.8 3799.7 328.3 1248.9 -555.7 1251.1 -562.2 3802 321.8 3802 321.8"/>
            <line class="st59" x1="3800.8" y1="325" x2="1250" y2="-508.4"/>
            <polygon class="st69" points="3801.9 321.7 3799.8 328.3 1248.9 -505.2 1251.1 -511.7 3801.9 321.7 3801.9 321.7"/>
            <line class="st59" x1="3800.8" y1="325" x2="1250" y2="-457.9"/>
            <polygon class="st23" points="3801.9 321.7 3799.8 328.3 1249 -454.6 1251 -461.2 3801.9 321.7 3801.9 321.7"/>
            <line class="st59" x1="3800.8" y1="325" x2="1250" y2="-407.4"/>
            <polygon class="st102" points="3801.8 321.7 3799.9 328.3 1249 -404.1 1250.9 -410.7 3801.8 321.7 3801.8 321.7"/>
            <line class="st59" x1="3800.8" y1="325" x2="1250" y2="-356.9"/>
            <polygon class="st104" points="3801.7 321.7 3800 328.3 1249.1 -353.6 1250.9 -360.2 3801.7 321.7 3801.7 321.7"/>
            <line class="st59" x1="3800.8" y1="325" x2="1250" y2="-306.4"/>
            <polygon class="st55" points="3801.7 321.7 3800 328.3 1249.2 -303.1 1250.8 -309.7 3801.7 321.7 3801.7 321.7"/>
            <line class="st59" x1="3800.8" y1="325" x2="1250" y2="-255.9"/>
            <polygon class="st22" points="3801.6 321.7 3800.1 328.4 1249.2 -252.5 1250.8 -259.2 3801.6 321.7 3801.6 321.7"/>
            <line class="st59" x1="3800.8" y1="325" x2="1250" y2="-205.4"/>
            <polygon class="st74" points="3801.5 321.6 3800.1 328.4 1249.3 -202 1250.7 -208.7 3801.5 321.6 3801.5 321.6"/>
            <line class="st59" x1="3800.8" y1="325" x2="1250" y2="-154.9"/>
            <polygon class="st95" points="3801.5 321.6 3800.2 328.4 1249.4 -151.5 1250.6 -158.2 3801.5 321.6 3801.5 321.6"/>
            <line class="st59" x1="3800.8" y1="325" x2="1250" y2="-104.3"/>
            <polygon class="st4" points="3801.4 321.6 3800.3 328.4 1249.4 -101 1250.6 -107.7 3801.4 321.6 3801.4 321.6"/>
            <line class="st59" x1="3800.8" y1="325" x2="1250" y2="-53.8"/>
            <polygon class="st105" points="3801.3 321.6 3800.3 328.4 1249.5 -50.4 1250.5 -57.2 3801.3 321.6 3801.3 321.6"/>
            <line class="st59" x1="3800.8" y1="325" x2="1250" y2="-3.3"/>
            <polygon class="st72" points="3801.3 321.6 3800.4 328.4 1249.6 0 1250.4 -6.7 3801.3 321.6 3801.3 321.6"/>
            <line class="st59" x1="3800.8" y1="325" x2="1250" y2="47.2"/>
            <polygon class="st84" points="3801.2 321.6 3800.5 328.4 1249.6 50.6 1250.4 43.8 3801.2 321.6 3801.2 321.6"/>
            <line class="st59" x1="3800.8" y1="325" x2="1250" y2="97.7"/>
            <polygon class="st26" points="3801.1 321.6 3800.5 328.4 1249.7 101.1 1250.3 94.3 3801.1 321.6 3801.1 321.6"/>
            <line class="st59" x1="3800.8" y1="325" x2="1250" y2="148.2"/>
            <polygon class="st10" points="3801.1 321.6 3800.6 328.4 1249.8 151.6 1250.2 144.8 3801.1 321.6 3801.1 321.6"/>
            <line class="st59" x1="3800.8" y1="325" x2="1250" y2="198.7"/>
            <polygon class="st101" points="3801 321.6 3800.7 328.4 1249.8 202.2 1250.2 195.3 3801 321.6 3801 321.6"/>
            <line class="st59" x1="3800.8" y1="325" x2="1250" y2="249.2"/>
            <polygon class="st63" points="3800.9 321.6 3800.7 328.4 1249.9 252.7 1250.1 245.8 3800.9 321.6 3800.9 321.6"/>
            <line class="st59" x1="3800.8" y1="325" x2="1250" y2="299.8"/>
            <polygon class="st34" points="3800.9 321.6 3800.8 328.4 1250 303.2 1250 296.3 3800.9 321.6 3800.9 321.6"/>
            <line class="st59" x1="3800.8" y1="325" x2="1250" y2="350.3"/>
            <polygon class="st2" points="3800.8 321.6 3800.9 328.4 1250 353.7 1250 346.8 3800.8 321.6 3800.8 321.6"/>
            <line class="st59" x1="3800.8" y1="325" x2="1250" y2="400.8"/>
            <polygon class="st80" points="3800.7 321.6 3800.9 328.4 1250.1 404.2 1249.9 397.3 3800.7 321.6 3800.7 321.6"/>
            <line class="st59" x1="3800.8" y1="325" x2="1250" y2="451.3"/>
            <polygon class="st27" points="3800.7 321.6 3801 328.4 1250.2 454.7 1249.8 447.9 3800.7 321.6 3800.7 321.6"/>
            <line class="st59" x1="3800.8" y1="325" x2="1250" y2="501.8"/>
            <polygon class="st43" points="3800.6 321.6 3801.1 328.4 1250.2 505.2 1249.8 498.4 3800.6 321.6 3800.6 321.6"/>
            <line class="st59" x1="3800.8" y1="325" x2="1250" y2="552.3"/>
            <polygon class="st5" points="3800.5 321.6 3801.1 328.4 1250.3 555.7 1249.7 548.9 3800.5 321.6 3800.5 321.6"/>
            <line class="st59" x1="3800.8" y1="325" x2="1250" y2="602.8"/>
            <polygon class="st53" points="3800.5 321.6 3801.2 328.4 1250.4 606.2 1249.6 599.4 3800.5 321.6 3800.5 321.6"/>
            <line class="st59" x1="3800.8" y1="325" x2="1250" y2="653.3"/>
            <polygon class="st12" points="3800.4 321.6 3801.3 328.4 1250.4 656.7 1249.6 649.9 3800.4 321.6 3800.4 321.6"/>
            <line class="st59" x1="3800.8" y1="325" x2="1250" y2="703.8"/>
            <polygon class="st21" points="3800.3 321.6 3801.3 328.4 1250.5 707.2 1249.5 700.4 3800.3 321.6 3800.3 321.6"/>
            <line class="st59" x1="3800.8" y1="325" x2="1250" y2="754.4"/>
            <polygon class="st103" points="3800.3 321.6 3801.4 328.4 1250.6 757.7 1249.4 751 3800.3 321.6 3800.3 321.6"/>
            <line class="st59" x1="3800.8" y1="325" x2="1250" y2="804.9"/>
            <polygon class="st78" points="3800.2 321.6 3801.5 328.4 1250.6 808.2 1249.4 801.5 3800.2 321.6 3800.2 321.6"/>
            <line class="st59" x1="3800.8" y1="325" x2="1250" y2="855.4"/>
            <polygon class="st14" points="3800.1 321.6 3801.5 328.4 1250.7 858.7 1249.3 852 3800.1 321.6 3800.1 321.6"/>
            <line class="st59" x1="3800.8" y1="325" x2="1250" y2="905.9"/>
            <polygon class="st97" points="3800.1 321.7 3801.6 328.4 1250.8 909.2 1249.2 902.5 3800.1 321.7 3800.1 321.7"/>
            <line class="st59" x1="3800.8" y1="325" x2="1250" y2="956.4"/>
            <polygon class="st35" points="3800 321.7 3801.7 328.3 1250.8 959.7 1249.2 953.1 3800 321.7 3800 321.7"/>
            <line class="st59" x1="3800.8" y1="325" x2="1250" y2="1006.9"/>
            <polygon class="st45" points="3800 321.7 3801.7 328.3 1250.9 1010.2 1249.1 1003.6 3800 321.7 3800 321.7"/>
            <line class="st59" x1="3800.8" y1="325" x2="1250" y2="1057.4"/>
            <polygon class="st56" points="3799.9 321.7 3801.8 328.3 1250.9 1060.7 1249 1054.1 3799.9 321.7 3799.9 321.7"/>
            <line class="st59" x1="3800.8" y1="325" x2="1250" y2="1107.9"/>
            <polygon class="st75" points="3799.8 321.7 3801.9 328.3 1251 1111.2 1249 1104.7 3799.8 321.7 3799.8 321.7"/>
            <line class="st59" x1="3800.8" y1="325" x2="1250" y2="1158.4"/>
            <polygon class="st99" points="3799.8 321.7 3801.9 328.3 1251.1 1161.7 1248.9 1155.2 3799.8 321.7 3799.8 321.7"/>
            <line class="st59" x1="3800.8" y1="325" x2="1250" y2="1209"/>
            <polygon class="st37" points="3799.7 321.8 3802 328.3 1251.1 1212.2 1248.9 1205.7 3799.7 321.8 3799.7 321.8"/>
            <line class="st59" x1="3800.8" y1="325" x2="1250" y2="1259.5"/>
            <polygon class="st17" points="3799.7 321.8 3802 328.2 1251.2 1262.7 1248.8 1256.2 3799.7 321.8 3799.7 321.8"/>
            <line class="st59" x1="3800.8" y1="325" x2="1250" y2="1310"/>
            <polygon class="st28" points="3799.6 321.8 3802.1 328.2 1251.2 1313.2 1248.8 1306.8 3799.6 321.8 3799.6 321.8"/>
            <line class="st59" x1="3800.8" y1="325" x2="1250" y2="1360.5"/>
            <polygon class="st70" points="3799.5 321.8 3802.1 328.2 1251.3 1363.7 1248.7 1357.3 3799.5 321.8 3799.5 321.8"/>
            <line class="st59" x1="3800.8" y1="325" x2="1250" y2="1411"/>
            <polygon class="st52" points="3799.5 321.8 3802.2 328.2 1251.4 1414.2 1248.7 1407.8 3799.5 321.8 3799.5 321.8"/>
            <line class="st59" x1="3800.8" y1="325" x2="1250" y2="1461.5"/>
            <polygon class="st79" points="3799.4 321.9 3802.2 328.1 1251.4 1464.7 1248.6 1458.4 3799.4 321.9 3799.4 321.9"/>
            <line class="st59" x1="3800.8" y1="325" x2="1250" y2="1512"/>
            <polygon class="st31" points="3799.4 321.9 3802.3 328.1 1251.4 1515.1 1248.5 1508.9 3799.4 321.9 3799.4 321.9"/>
            <line class="st59" x1="3800.8" y1="325" x2="1250" y2="1562.5"/>
            <polygon class="st33" points="3799.3 321.9 3802.3 328.1 1251.5 1565.6 1248.5 1559.5 3799.3 321.9 3799.3 321.9"/>
            <line class="st59" x1="3800.8" y1="325" x2="1250" y2="1613.1"/>
            <polygon class="st49" points="3799.3 321.9 3802.4 328.1 1251.6 1616.1 1248.5 1610 3799.3 321.9 3799.3 321.9"/>
            <line class="st59" x1="3800.8" y1="325" x2="1250" y2="1663.6"/>
            <polygon class="st7" points="3799.2 322 3802.4 328.1 1251.6 1666.6 1248.4 1660.5 3799.2 322 3799.2 322"/>
            <line class="st59" x1="3800.8" y1="325" x2="1250" y2="1714.1"/>
            <polygon class="st11" points="3799.2 322 3802.5 328 1251.6 1717.1 1248.4 1711.1 3799.2 322 3799.2 322"/>
            <line class="st59" x1="3800.8" y1="325" x2="1250" y2="1764.6"/>
            <polygon class="st98" points="3799.1 322 3802.5 328 1251.7 1767.6 1248.3 1761.6 3799.1 322 3799.1 322"/>
            <line class="st59" x1="3800.8" y1="325" x2="1250" y2="1815.1"/>
            <polygon class="st96" points="3799.1 322 3802.6 328 1251.7 1818.1 1248.3 1812.1 3799.1 322 3799.1 322"/>
            <line class="st59" x1="3800.8" y1="325" x2="1250" y2="1865.6"/>
            <polygon class="st77" points="3799.1 322.1 3802.6 327.9 1251.8 1868.6 1248.2 1862.7 3799.1 322.1 3799.1 322.1"/>
            <line class="st59" x1="3800.8" y1="325" x2="1250" y2="1916.1"/>
            <polygon class="st16" points="3799 322.1 3802.7 327.9 1251.8 1919 1248.2 1913.2 3799 322.1 3799 322.1"/>
            <line class="st59" x1="3800.8" y1="325" x2="1250" y2="1966.6"/>
            <polygon class="st81" points="3799 322.1 3802.7 327.9 1251.9 1969.5 1248.1 1963.7 3799 322.1 3799 322.1"/>
            <line class="st59" x1="3800.8" y1="325" x2="1250" y2="2017.1"/>
            <polygon class="st86" points="3798.9 322.1 3802.7 327.9 1251.9 2020 1248.1 2014.3 3798.9 322.1 3798.9 322.1"/>
            <line class="st59" x1="3800.8" y1="325" x2="1250" y2="2067.7"/>
            <polygon class="st62" points="3798.9 322.2 3802.8 327.8 1251.9 2070.5 1248.1 2064.8 3798.9 322.2 3798.9 322.2"/>
            <line class="st59" x1="3800.8" y1="325" x2="1250" y2="2118.2"/>
            <polygon class="st83" points="3798.9 322.2 3802.8 327.8 1252 2121 1248 2115.4 3798.9 322.2 3798.9 322.2"/>
            <line class="st59" x1="3800.8" y1="325" x2="1250" y2="2168.7"/>
            <polygon class="st38" points="3798.8 322.2 3802.9 327.8 1252 2171.5 1248 2165.9 3798.8 322.2 3798.8 322.2"/>
            <line class="st59" x1="3800.8" y1="325" x2="1250" y2="2219.2"/>
            <polygon class="st73" points="3798.8 322.2 3802.9 327.8 1252 2222 1248 2216.4 3798.8 322.2 3798.8 322.2"/>
            <line class="st59" x1="3800.8" y1="325" x2="1250" y2="2269.7"/>
            <polygon class="st76" points="3798.7 322.3 3802.9 327.7 1252.1 2272.4 1247.9 2267 3798.7 322.3 3798.7 322.3"/>
            <line class="st59" x1="3800.8" y1="325" x2="1250" y2="2320.2"/>
            <polygon class="st46" points="3798.7 322.3 3803 327.7 1252.1 2322.9 1247.9 2317.5 3798.7 322.3 3798.7 322.3"/>
            <line class="st59" x1="3800.8" y1="325" x2="1250" y2="2370.7"/>
            <polygon class="st18" points="3798.7 322.3 3803 327.7 1252.2 2373.4 1247.9 2368 3798.7 322.3 3798.7 322.3"/>
            <line class="st59" x1="3800.8" y1="325" x2="1250" y2="2421.2"/>
            <polygon class="st57" points="3798.7 322.3 3803 327.7 1252.2 2423.9 1247.8 2418.6 3798.7 322.3 3798.7 322.3"/>
            <line class="st59" x1="3800.8" y1="325" x2="1250" y2="2471.8"/>
            <polygon class="st13" points="3798.6 322.4 3803.1 327.6 1252.2 2474.4 1247.8 2469.1 3798.6 322.4 3798.6 322.4"/>
            <line class="st59" x1="3800.8" y1="325" x2="1250" y2="2522.3"/>
            <polygon class="st24" points="3798.6 322.4 3803.1 327.6 1252.2 2524.9 1247.8 2519.7 3798.6 322.4 3798.6 322.4"/>
            <line class="st59" x1="3800.8" y1="325" x2="1250" y2="2572.8"/>
            <polygon class="st64" points="3798.6 322.4 3803.1 327.6 1252.3 2575.4 1247.7 2570.2 3798.6 322.4 3798.6 322.4"/>
            <line class="st59" x1="3800.8" y1="325" x2="1250" y2="2623.3"/>
            <polygon class="st20" points="3798.5 322.5 3803.1 327.6 1252.3 2625.8 1247.7 2620.7 3798.5 322.5 3798.5 322.5"/>
            <line class="st59" x1="3800.8" y1="325" x2="1250" y2="2673.8"/>
            <polygon class="st41" points="3798.5 322.5 3803.2 327.5 1252.3 2676.3 1247.7 2671.3 3798.5 322.5 3798.5 322.5"/>
            <line class="st59" x1="3800.8" y1="325" x2="1250" y2="2724.3"/>
            <polygon class="st91" points="3798.5 322.5 3803.2 327.5 1252.4 2726.8 1247.6 2721.8 3798.5 322.5 3798.5 322.5"/>
            <line class="st59" x1="3800.8" y1="325" x2="1250" y2="2774.8"/>
            <polygon class="st58" points="3798.5 322.5 3803.2 327.5 1252.4 2777.3 1247.6 2772.3 3798.5 322.5 3798.5 322.5"/>
            <line class="st59" x1="3800.8" y1="325" x2="1250" y2="2825.3"/>
            <polygon class="st89" points="3798.4 322.6 3803.2 327.5 1252.4 2827.8 1247.6 2822.9 3798.4 322.6 3798.4 322.6"/>
            <line class="st59" x1="3800.8" y1="325" x2="1250" y2="2875.8"/>
            <polygon class="st51" points="3798.4 322.6 3803.3 327.4 1252.4 2878.3 1247.6 2873.4 3798.4 322.6 3798.4 322.6"/>
            <line class="st59" x1="-1300.8" y1="325" x2="1250" y2="2875.8"/>
            <polygon class="st54" points="-1298.4 322.6 1252.4 2873.4 1247.6 2878.3 -1303.3 327.4 -1298.4 322.6 -1298.4 322.6"/>
            <line class="st59" x1="-1300.8" y1="325" x2="1250" y2="2825.3"/>
            <polygon class="st29" points="1252.4 2822.9 1247.6 2827.8 -1303.2 327.5 -1298.4 322.6 1252.4 2822.9 1252.4 2822.9"/>
            <line class="st59" x1="-1300.8" y1="325" x2="1250" y2="2774.8"/>
            <polygon class="st94" points="1252.4 2772.3 1247.6 2777.3 -1303.2 327.5 -1298.5 322.5 1252.4 2772.3 1252.4 2772.3"/>
            <line class="st59" x1="-1300.8" y1="325" x2="1250" y2="2724.3"/>
            <polygon class="st94" points="1252.4 2721.8 1247.6 2726.8 -1303.2 327.5 -1298.5 322.5 1252.4 2721.8 1252.4 2721.8"/>
            <line class="st59" x1="-1300.8" y1="325" x2="1250" y2="2673.8"/>
            <polygon class="st42" points="1252.3 2671.3 1247.7 2676.3 -1303.2 327.5 -1298.5 322.5 1252.3 2671.3 1252.3 2671.3"/>
            <line class="st59" x1="-1300.8" y1="325" x2="1250" y2="2623.3"/>
            <polygon class="st25" points="1252.3 2620.7 1247.7 2625.8 -1303.1 327.6 -1298.5 322.5 1252.3 2620.7 1252.3 2620.7"/>
            <line class="st59" x1="-1300.8" y1="325" x2="1250" y2="2572.8"/>
            <polygon class="st71" points="1252.3 2570.2 1247.7 2575.4 -1303.1 327.6 -1298.6 322.4 1252.3 2570.2 1252.3 2570.2"/>
            <line class="st59" x1="-1300.8" y1="325" x2="1250" y2="2522.3"/>
            <polygon class="st71" points="1252.2 2519.7 1247.8 2524.9 -1303.1 327.6 -1298.6 322.4 1252.2 2519.7 1252.2 2519.7"/>
            <line class="st59" x1="-1300.8" y1="325" x2="1250" y2="2471.8"/>
            <polygon class="st67" points="1252.2 2469.1 1247.8 2474.4 -1303 327.6 -1298.6 322.4 1252.2 2469.1 1252.2 2469.1"/>
            <line class="st59" x1="-1300.8" y1="325" x2="1250" y2="2421.2"/>
            <polygon class="st9" points="1252.2 2418.6 1247.8 2423.9 -1303 327.7 -1298.7 322.3 1252.2 2418.6 1252.2 2418.6"/>
            <line class="st59" x1="-1300.8" y1="325" x2="1250" y2="2370.7"/>
            <polygon class="st8" points="1252.2 2368 1247.8 2373.4 -1303 327.7 -1298.7 322.3 1252.2 2368 1252.2 2368"/>
            <line class="st59" x1="-1300.8" y1="325" x2="1250" y2="2320.2"/>
            <polygon class="st82" points="1252.1 2317.5 1247.9 2322.9 -1303 327.7 -1298.7 322.3 1252.1 2317.5 1252.1 2317.5"/>
            <line class="st59" x1="-1300.8" y1="325" x2="1250" y2="2269.7"/>
            <polygon class="st82" points="1252.1 2267 1247.9 2272.4 -1302.9 327.7 -1298.8 322.3 1252.1 2267 1252.1 2267"/>
            <line class="st59" x1="-1300.8" y1="325" x2="1250" y2="2219.2"/>
            <polygon class="st47" points="1252 2216.4 1248 2222 -1302.9 327.8 -1298.8 322.2 1252 2216.4 1252 2216.4"/>
            <line class="st59" x1="-1300.8" y1="325" x2="1250" y2="2168.7"/>
            <polygon class="st47" points="1252 2165.9 1248 2171.5 -1302.8 327.8 -1298.8 322.2 1252 2165.9 1252 2165.9"/>
            <line class="st59" x1="-1300.8" y1="325" x2="1250" y2="2118.2"/>
            <polygon class="st93" points="1252 2115.4 1248 2121 -1302.8 327.8 -1298.9 322.2 1252 2115.4 1252 2115.4"/>
            <line class="st59" x1="-1300.8" y1="325" x2="1250" y2="2067.7"/>
            <polygon class="st30" points="1251.9 2064.8 1248.1 2070.5 -1302.8 327.8 -1298.9 322.2 1251.9 2064.8 1251.9 2064.8"/>
            <line class="st59" x1="-1300.8" y1="325" x2="1250" y2="2017.1"/>
            <polygon class="st44" points="1251.9 2014.3 1248.1 2020 -1302.7 327.9 -1298.9 322.1 1251.9 2014.3 1251.9 2014.3"/>
            <line class="st59" x1="-1300.8" y1="325" x2="1250" y2="1966.6"/>
            <polygon class="st32" points="1251.9 1963.7 1248.1 1969.5 -1302.7 327.9 -1299 322.1 1251.9 1963.7 1251.9 1963.7"/>
            <line class="st59" x1="-1300.8" y1="325" x2="1250" y2="1916.1"/>
            <polygon class="st92" points="1251.8 1913.2 1248.2 1919 -1302.7 327.9 -1299 322.1 1251.8 1913.2 1251.8 1913.2"/>
            <line class="st59" x1="-1300.8" y1="325" x2="1250" y2="1865.6"/>
            <polygon class="st19" points="1251.8 1862.7 1248.2 1868.6 -1302.6 327.9 -1299.1 322.1 1251.8 1862.7 1251.8 1862.7"/>
            <line class="st59" x1="-1300.8" y1="325" x2="1250" y2="1815.1"/>
            <polygon class="st88" points="1251.7 1812.1 1248.3 1818.1 -1302.6 328 -1299.1 322 1251.7 1812.1 1251.7 1812.1"/>
            <line class="st59" x1="-1300.8" y1="325" x2="1250" y2="1764.6"/>
            <polygon class="st66" points="1251.7 1761.6 1248.3 1767.6 -1302.5 328 -1299.1 322 1251.7 1761.6 1251.7 1761.6"/>
            <line class="st59" x1="-1300.8" y1="325" x2="1250" y2="1714.1"/>
            <polygon class="st6" points="1251.6 1711.1 1248.4 1717.1 -1302.5 328 -1299.2 322 1251.6 1711.1 1251.6 1711.1"/>
            <line class="st59" x1="-1300.8" y1="325" x2="1250" y2="1663.6"/>
            <polygon class="st39" points="1251.6 1660.5 1248.4 1666.6 -1302.4 328.1 -1299.2 322 1251.6 1660.5 1251.6 1660.5"/>
            <line class="st59" x1="-1300.8" y1="325" x2="1250" y2="1613.1"/>
            <polygon class="st39" points="1251.6 1610 1248.5 1616.1 -1302.4 328.1 -1299.3 321.9 1251.6 1610 1251.6 1610"/>
            <line class="st59" x1="-1300.8" y1="325" x2="1250" y2="1562.5"/>
            <polygon class="st36" points="1251.5 1559.5 1248.5 1565.6 -1302.3 328.1 -1299.3 321.9 1251.5 1559.5 1251.5 1559.5"/>
            <line class="st59" x1="-1300.8" y1="325" x2="1250" y2="1512"/>
            <polygon class="st3" points="1251.4 1508.9 1248.5 1515.1 -1302.3 328.1 -1299.4 321.9 1251.4 1508.9 1251.4 1508.9"/>
            <line class="st59" x1="-1300.8" y1="325" x2="1250" y2="1461.5"/>
            <polygon class="st90" points="1251.4 1458.4 1248.6 1464.7 -1302.2 328.1 -1299.4 321.9 1251.4 1458.4 1251.4 1458.4"/>
            <line class="st59" x1="-1300.8" y1="325" x2="1250" y2="1411"/>
            <polygon class="st65" points="1251.3 1407.8 1248.7 1414.2 -1302.2 328.2 -1299.5 321.8 1251.3 1407.8 1251.3 1407.8"/>
            <line class="st59" x1="-1300.8" y1="325" x2="1250" y2="1360.5"/>
            <polygon class="st48" points="1251.3 1357.3 1248.7 1363.7 -1302.1 328.2 -1299.5 321.8 1251.3 1357.3 1251.3 1357.3"/>
            <line class="st59" x1="-1300.8" y1="325" x2="1250" y2="1310"/>
            <polygon class="st68" points="1251.2 1306.8 1248.8 1313.2 -1302.1 328.2 -1299.6 321.8 1251.2 1306.8 1251.2 1306.8"/>
            <line class="st59" x1="-1300.8" y1="325" x2="1250" y2="1259.5"/>
            <polygon class="st85" points="1251.2 1256.2 1248.8 1262.7 -1302 328.2 -1299.7 321.8 1251.2 1256.2 1251.2 1256.2"/>
            <line class="st59" x1="-1300.8" y1="325" x2="1250" y2="1209"/>
            <polygon class="st87" points="1251.1 1205.7 1248.9 1212.2 -1302 328.3 -1299.7 321.8 1251.1 1205.7 1251.1 1205.7"/>
            <line class="st59" x1="-1300.8" y1="325" x2="1250" y2="1158.4"/>
            <polygon class="st69" points="1251.1 1155.2 1248.9 1161.7 -1301.9 328.3 -1299.8 321.7 1251.1 1155.2 1251.1 1155.2"/>
            <line class="st59" x1="-1300.8" y1="325" x2="1250" y2="1107.9"/>
            <polygon class="st23" points="1251 1104.7 1249 1111.2 -1301.8 328.3 -1299.8 321.7 1251 1104.7 1251 1104.7"/>
            <line class="st59" x1="-1300.8" y1="325" x2="1250" y2="1057.4"/>
            <polygon class="st102" points="1250.9 1054.1 1249 1060.7 -1301.8 328.3 -1299.9 321.7 1250.9 1054.1 1250.9 1054.1"/>
            <line class="st59" x1="-1300.8" y1="325" x2="1250" y2="1006.9"/>
            <polygon class="st104" points="1250.9 1003.6 1249.1 1010.2 -1301.7 328.3 -1299.9 321.7 1250.9 1003.6 1250.9 1003.6"/>
            <line class="st59" x1="-1300.8" y1="325" x2="1250" y2="956.4"/>
            <polygon class="st55" points="1250.8 953.1 1249.2 959.7 -1301.7 328.3 -1300 321.7 1250.8 953.1 1250.8 953.1"/>
            <line class="st59" x1="-1300.8" y1="325" x2="1250" y2="905.9"/>
            <polygon class="st22" points="1250.8 902.5 1249.2 909.2 -1301.6 328.4 -1300.1 321.7 1250.8 902.5 1250.8 902.5"/>
            <line class="st59" x1="-1300.8" y1="325" x2="1250" y2="855.4"/>
            <polygon class="st74" points="1250.7 852 1249.3 858.7 -1301.5 328.4 -1300.1 321.6 1250.7 852 1250.7 852"/>
            <line class="st59" x1="-1300.8" y1="325" x2="1250" y2="804.9"/>
            <polygon class="st95" points="1250.6 801.5 1249.4 808.2 -1301.5 328.4 -1300.2 321.6 1250.6 801.5 1250.6 801.5"/>
            <line class="st59" x1="-1300.8" y1="325" x2="1250" y2="754.4"/>
            <polygon class="st4" points="1250.6 751 1249.4 757.7 -1301.4 328.4 -1300.3 321.6 1250.6 751 1250.6 751"/>
            <line class="st59" x1="-1300.8" y1="325" x2="1250" y2="703.8"/>
            <polygon class="st105" points="1250.5 700.4 1249.5 707.2 -1301.3 328.4 -1300.3 321.6 1250.5 700.4 1250.5 700.4"/>
            <line class="st59" x1="-1300.8" y1="325" x2="1250" y2="653.3"/>
            <polygon class="st72" points="1250.4 649.9 1249.6 656.7 -1301.3 328.4 -1300.4 321.6 1250.4 649.9 1250.4 649.9"/>
            <line class="st59" x1="-1300.8" y1="325" x2="1250" y2="602.8"/>
            <polygon class="st84" points="1250.4 599.4 1249.6 606.2 -1301.2 328.4 -1300.5 321.6 1250.4 599.4 1250.4 599.4"/>
            <line class="st59" x1="-1300.8" y1="325" x2="1250" y2="552.3"/>
            <polygon class="st26" points="1250.3 548.9 1249.7 555.7 -1301.1 328.4 -1300.5 321.6 1250.3 548.9 1250.3 548.9"/>
            <line class="st59" x1="-1300.8" y1="325" x2="1250" y2="501.8"/>
            <polygon class="st10" points="1250.2 498.4 1249.8 505.2 -1301.1 328.4 -1300.6 321.6 1250.2 498.4 1250.2 498.4"/>
            <line class="st59" x1="-1300.8" y1="325" x2="1250" y2="451.3"/>
            <polygon class="st101" points="1250.2 447.9 1249.8 454.7 -1301 328.4 -1300.7 321.6 1250.2 447.9 1250.2 447.9"/>
            <line class="st59" x1="-1300.8" y1="325" x2="1250" y2="400.8"/>
            <polygon class="st63" points="1250.1 397.3 1249.9 404.2 -1300.9 328.4 -1300.7 321.6 1250.1 397.3 1250.1 397.3"/>
            <line class="st59" x1="-1300.8" y1="325" x2="1250" y2="350.3"/>
            <polygon class="st34" points="1250 346.8 1250 353.7 -1300.9 328.4 -1300.8 321.6 1250 346.8 1250 346.8"/>
            <line class="st59" x1="-1300.8" y1="325" x2="1250" y2="299.8"/>
            <polygon class="st2" points="1250 296.3 1250 303.2 -1300.8 328.4 -1300.9 321.6 1250 296.3 1250 296.3"/>
            <line class="st59" x1="-1300.8" y1="325" x2="1250" y2="249.2"/>
            <polygon class="st80" points="1249.9 245.8 1250.1 252.7 -1300.7 328.4 -1300.9 321.6 1249.9 245.8 1249.9 245.8"/>
            <line class="st59" x1="-1300.8" y1="325" x2="1250" y2="198.7"/>
            <polygon class="st27" points="1249.8 195.3 1250.2 202.2 -1300.7 328.4 -1301 321.6 1249.8 195.3 1249.8 195.3"/>
            <line class="st59" x1="-1300.8" y1="325" x2="1250" y2="148.2"/>
            <polygon class="st43" points="1249.8 144.8 1250.2 151.6 -1300.6 328.4 -1301.1 321.6 1249.8 144.8 1249.8 144.8"/>
            <line class="st59" x1="-1300.8" y1="325" x2="1250" y2="97.7"/>
            <polygon class="st5" points="1249.7 94.3 1250.3 101.1 -1300.5 328.4 -1301.1 321.6 1249.7 94.3 1249.7 94.3"/>
            <line class="st59" x1="-1300.8" y1="325" x2="1250" y2="47.2"/>
            <polygon class="st53" points="1249.6 43.8 1250.4 50.6 -1300.5 328.4 -1301.2 321.6 1249.6 43.8 1249.6 43.8"/>
            <line class="st59" x1="-1300.8" y1="325" x2="1250" y2="-3.3"/>
            <polygon class="st12" points="1249.6 -6.7 1250.4 0 -1300.4 328.4 -1301.3 321.6 1249.6 -6.7 1249.6 -6.7"/>
            <line class="st59" x1="-1300.8" y1="325" x2="1250" y2="-53.8"/>
            <polygon class="st21" points="1249.5 -57.2 1250.5 -50.4 -1300.3 328.4 -1301.3 321.6 1249.5 -57.2 1249.5 -57.2"/>
            <line class="st59" x1="-1300.8" y1="325" x2="1250" y2="-104.3"/>
            <polygon class="st103" points="1249.4 -107.7 1250.6 -101 -1300.3 328.4 -1301.4 321.6 1249.4 -107.7 1249.4 -107.7"/>
            <line class="st59" x1="-1300.8" y1="325" x2="1250" y2="-154.9"/>
            <polygon class="st78" points="1249.4 -158.2 1250.6 -151.5 -1300.2 328.4 -1301.5 321.6 1249.4 -158.2 1249.4 -158.2"/>
            <line class="st59" x1="-1300.8" y1="325" x2="1250" y2="-205.4"/>
            <polygon class="st14" points="1249.3 -208.7 1250.7 -202 -1300.1 328.4 -1301.5 321.6 1249.3 -208.7 1249.3 -208.7"/>
            <line class="st59" x1="-1300.8" y1="325" x2="1250" y2="-255.9"/>
            <polygon class="st97" points="1249.2 -259.2 1250.8 -252.5 -1300.1 328.4 -1301.6 321.7 1249.2 -259.2 1249.2 -259.2"/>
            <line class="st59" x1="-1300.8" y1="325" x2="1250" y2="-306.4"/>
            <polygon class="st35" points="1249.2 -309.7 1250.8 -303.1 -1300 328.3 -1301.7 321.7 1249.2 -309.7 1249.2 -309.7"/>
            <line class="st59" x1="-1300.8" y1="325" x2="1250" y2="-356.9"/>
            <polygon class="st45" points="1249.1 -360.2 1250.9 -353.6 -1299.9 328.3 -1301.7 321.7 1249.1 -360.2 1249.1 -360.2"/>
            <line class="st59" x1="-1300.8" y1="325" x2="1250" y2="-407.4"/>
            <polygon class="st56" points="1249 -410.7 1250.9 -404.1 -1299.9 328.3 -1301.8 321.7 1249 -410.7 1249 -410.7"/>
            <line class="st59" x1="-1300.8" y1="325" x2="1250" y2="-457.9"/>
            <polygon class="st75" points="1249 -461.2 1251 -454.6 -1299.8 328.3 -1301.8 321.7 1249 -461.2 1249 -461.2"/>
            <line class="st59" x1="-1300.8" y1="325" x2="1250" y2="-508.4"/>
            <polygon class="st99" points="1248.9 -511.7 1251.1 -505.2 -1299.8 328.3 -1301.9 321.7 1248.9 -511.7 1248.9 -511.7"/>
            <line class="st59" x1="-1300.8" y1="325" x2="1250" y2="-559"/>
            <polygon class="st37" points="1248.9 -562.2 1251.1 -555.7 -1299.7 328.3 -1302 321.8 1248.9 -562.2 1248.9 -562.2"/>
            <line class="st59" x1="-1300.8" y1="325" x2="1250" y2="-609.5"/>
            <polygon class="st17" points="1248.8 -612.7 1251.2 -606.2 -1299.7 328.2 -1302 321.8 1248.8 -612.7 1248.8 -612.7"/>
            <line class="st59" x1="-1300.8" y1="325" x2="1250" y2="-660"/>
            <polygon class="st28" points="1248.8 -663.2 1251.2 -656.8 -1299.6 328.2 -1302.1 321.8 1248.8 -663.2 1248.8 -663.2"/>
            <line class="st59" x1="-1300.8" y1="325" x2="1250" y2="-710.5"/>
            <polygon class="st70" points="1248.7 -713.7 1251.3 -707.3 -1299.5 328.2 -1302.1 321.8 1248.7 -713.7 1248.7 -713.7"/>
            <line class="st59" x1="-1300.8" y1="325" x2="1250" y2="-761"/>
            <polygon class="st52" points="1248.7 -764.2 1251.4 -757.8 -1299.5 328.2 -1302.2 321.8 1248.7 -764.2 1248.7 -764.2"/>
            <line class="st59" x1="-1300.8" y1="325" x2="1250" y2="-811.5"/>
            <polygon class="st79" points="1248.6 -814.6 1251.4 -808.4 -1299.4 328.1 -1302.2 321.9 1248.6 -814.6 1248.6 -814.6"/>
            <line class="st59" x1="-1300.8" y1="325" x2="1250" y2="-862"/>
            <polygon class="st31" points="1248.5 -865.1 1251.4 -858.9 -1299.4 328.1 -1302.3 321.9 1248.5 -865.1 1248.5 -865.1"/>
            <line class="st59" x1="-1300.8" y1="325" x2="1250" y2="-912.5"/>
            <polygon class="st33" points="1248.5 -915.6 1251.5 -909.4 -1299.3 328.1 -1302.3 321.9 1248.5 -915.6 1248.5 -915.6"/>
            <line class="st59" x1="-1300.8" y1="325" x2="1250" y2="-963"/>
            <polygon class="st49" points="1248.5 -966.1 1251.5 -960 -1299.3 328.1 -1302.4 321.9 1248.5 -966.1 1248.5 -966.1"/>
            <line class="st59" x1="-1300.8" y1="325" x2="1250" y2="-1013.5"/>
            <polygon class="st7" points="1248.4 -1016.6 1251.6 -1010.5 -1299.2 328.1 -1302.4 322 1248.4 -1016.6 1248.4 -1016.6"/>
            <line class="st59" x1="-1300.8" y1="325" x2="1250" y2="-1064.1"/>
            <polygon class="st11" points="1248.4 -1067.1 1251.6 -1061 -1299.2 328 -1302.5 322 1248.4 -1067.1 1248.4 -1067.1"/>
            <line class="st59" x1="-1300.8" y1="325" x2="1250" y2="-1114.6"/>
            <polygon class="st98" points="1248.3 -1117.6 1251.7 -1111.6 -1299.1 328 -1302.5 322 1248.3 -1117.6 1248.3 -1117.6"/>
            <line class="st59" x1="-1300.8" y1="325" x2="1250" y2="-1165.1"/>
            <polygon class="st96" points="1248.3 -1168 1251.7 -1162.1 -1299.1 328 -1302.6 322 1248.3 -1168 1248.3 -1168"/>
            <line class="st59" x1="-1300.8" y1="325" x2="1250" y2="-1215.6"/>
            <polygon class="st77" points="1248.2 -1218.5 1251.8 -1212.7 -1299.1 327.9 -1302.6 322.1 1248.2 -1218.5 1248.2 -1218.5"/>
            <line class="st59" x1="-1300.8" y1="325" x2="1250" y2="-1266.1"/>
            <polygon class="st16" points="1248.2 -1269 1251.8 -1263.2 -1299 327.9 -1302.7 322.1 1248.2 -1269 1248.2 -1269"/>
            <line class="st59" x1="-1300.8" y1="325" x2="1250" y2="-1316.6"/>
            <polygon class="st81" points="1248.1 -1319.5 1251.9 -1313.7 -1299 327.9 -1302.7 322.1 1248.1 -1319.5 1248.1 -1319.5"/>
            <line class="st59" x1="-1300.8" y1="325" x2="1250" y2="-1367.1"/>
            <polygon class="st86" points="1248.1 -1370 1251.9 -1364.3 -1298.9 327.9 -1302.7 322.1 1248.1 -1370 1248.1 -1370"/>
            <line class="st59" x1="-1300.8" y1="325" x2="1250" y2="-1417.6"/>
            <polygon class="st62" points="1248.1 -1420.5 1251.9 -1414.8 -1298.9 327.8 -1302.8 322.2 1248.1 -1420.5 1248.1 -1420.5"/>
            <line class="st59" x1="-1300.8" y1="325" x2="1250" y2="-1468.2"/>
            <polygon class="st83" points="1248 -1471 1252 -1465.4 -1298.9 327.8 -1302.8 322.2 1248 -1471 1248 -1471"/>
            <line class="st59" x1="-1300.8" y1="325" x2="1250" y2="-1518.7"/>
            <polygon class="st38" points="1248 -1521.5 1252 -1515.9 -1298.8 327.8 -1302.8 322.2 1248 -1521.5 1248 -1521.5"/>
            <line class="st59" x1="-1300.8" y1="325" x2="1250" y2="-1569.2"/>
            <polygon class="st73" points="1248 -1571.9 1252 -1566.4 -1298.8 327.8 -1302.9 322.3 1248 -1571.9 1248 -1571.9"/>
            <line class="st59" x1="-1300.8" y1="325" x2="1250" y2="-1619.7"/>
            <polygon class="st76" points="1247.9 -1622.4 1252.1 -1617 -1298.8 327.7 -1302.9 322.3 1247.9 -1622.4 1247.9 -1622.4"/>
            <line class="st59" x1="-1300.8" y1="325" x2="1250" y2="-1670.2"/>
            <polygon class="st46" points="1247.9 -1672.9 1252.1 -1667.5 -1298.7 327.7 -1303 322.3 1247.9 -1672.9 1247.9 -1672.9"/>
            <line class="st59" x1="-1300.8" y1="325" x2="1250" y2="-1720.7"/>
            <polygon class="st18" points="1247.9 -1723.4 1252.2 -1718 -1298.7 327.7 -1303 322.3 1247.9 -1723.4 1247.9 -1723.4"/>
            <line class="st59" x1="-1300.8" y1="325" x2="1250" y2="-1771.2"/>
            <polygon class="st57" points="1247.8 -1773.9 1252.2 -1768.6 -1298.7 327.7 -1303 322.3 1247.8 -1773.9 1247.8 -1773.9"/>
            <line class="st59" x1="-1300.8" y1="325" x2="1250" y2="-1821.7"/>
            <polygon class="st13" points="1247.8 -1824.4 1252.2 -1819.1 -1298.6 327.6 -1303 322.4 1247.8 -1824.4 1247.8 -1824.4"/>
            <line class="st59" x1="-1300.8" y1="325" x2="1250" y2="-1872.3"/>
            <polygon class="st24" points="1247.8 -1874.9 1252.2 -1869.6 -1298.6 327.6 -1303.1 322.4 1247.8 -1874.9 1247.8 -1874.9"/>
            <line class="st59" x1="-1300.8" y1="325" x2="1250" y2="-1922.8"/>
            <polygon class="st64" points="1247.7 -1925.3 1252.3 -1920.2 -1298.6 327.6 -1303.1 322.4 1247.7 -1925.3 1247.7 -1925.3"/>
            <line class="st59" x1="-1300.8" y1="325" x2="1250" y2="-1973.3"/>
            <polygon class="st20" points="1247.7 -1975.8 1252.3 -1970.7 -1298.5 327.6 -1303.1 322.5 1247.7 -1975.8 1247.7 -1975.8"/>
            <line class="st59" x1="-1300.8" y1="325" x2="1250" y2="-2023.8"/>
            <polygon class="st41" points="1247.7 -2026.3 1252.3 -2021.3 -1298.5 327.5 -1303.2 322.5 1247.7 -2026.3 1247.7 -2026.3"/>
            <line class="st59" x1="-1300.8" y1="325" x2="1250" y2="-2074.3"/>
            <polygon class="st91" points="1247.6 -2076.8 1252.4 -2071.8 -1298.5 327.5 -1303.2 322.5 1247.6 -2076.8 1247.6 -2076.8"/>
            <line class="st59" x1="-1300.8" y1="325" x2="1250" y2="-2124.8"/>
            <polygon class="st58" points="1247.6 -2127.3 1252.4 -2122.3 -1298.5 327.5 -1303.2 322.5 1247.6 -2127.3 1247.6 -2127.3"/>
            <line class="st59" x1="-1300.8" y1="325" x2="1250" y2="-2175.3"/>
            <polygon class="st89" points="1247.6 -2177.8 1252.4 -2172.9 -1298.4 327.5 -1303.2 322.6 1247.6 -2177.8 1247.6 -2177.8"/>
            <line class="st59" x1="-1300.8" y1="325" x2="1250" y2="-2225.8"/>
            <polygon class="st51" points="1247.6 -2228.3 1252.4 -2223.4 -1298.4 327.4 -1303.3 322.6 1247.6 -2228.3 1247.6 -2228.3"/>
          </g>
        </g>
      </g>
    </g>
  </g>
</svg>